<mxfile host="65bd71144e">
    <diagram name="Page-1" id="kg_0MRxFGfs7QJCVfnhw">
        <mxGraphModel dx="2206" dy="2684" grid="1" gridSize="10" guides="1" tooltips="1" connect="1" arrows="1" fold="1" page="1" pageScale="1" pageWidth="850" pageHeight="1100" background="none" math="0" shadow="0">
            <root>
                <mxCell id="0"/>
                <mxCell id="1" parent="0"/>
                <mxCell id="EyHC_ISXMcYnlj9eX0GZ-37" value="" style="endArrow=classic;html=1;rounded=0;dashed=1;entryX=0.5;entryY=0;entryDx=0;entryDy=0;strokeWidth=2;" parent="1" target="13" edge="1">
                    <mxGeometry width="50" height="50" relative="1" as="geometry">
                        <mxPoint x="1380" y="-800" as="sourcePoint"/>
                        <mxPoint x="1380" y="-640" as="targetPoint"/>
                    </mxGeometry>
                </mxCell>
                <mxCell id="EyHC_ISXMcYnlj9eX0GZ-38" value="" style="endArrow=classic;html=1;rounded=0;entryX=0.5;entryY=1;entryDx=0;entryDy=0;dashed=1;strokeWidth=2;" parent="1" target="13" edge="1">
                    <mxGeometry width="50" height="50" relative="1" as="geometry">
                        <mxPoint x="1380" as="sourcePoint"/>
                        <mxPoint x="1410" y="-60" as="targetPoint"/>
                    </mxGeometry>
                </mxCell>
                <mxCell id="EyHC_ISXMcYnlj9eX0GZ-51" value="" style="endArrow=none;html=1;rounded=0;dashed=1;strokeWidth=2;" parent="1" edge="1">
                    <mxGeometry width="50" height="50" relative="1" as="geometry">
                        <mxPoint x="1120" y="-800" as="sourcePoint"/>
                        <mxPoint x="1120" y="-800" as="targetPoint"/>
                    </mxGeometry>
                </mxCell>
                <mxCell id="4" value="" style="shape=image;verticalLabelPosition=bottom;labelBackgroundColor=default;verticalAlign=top;aspect=fixed;imageAspect=0;image=data:image/png,iVBORw0KGgoAAAANSUhEUgAAAMoAAAEUCAYAAABqJqlDAAAAAXNSR0IArs4c6QAAAARnQU1BAACxjwv8YQUAAAAJcEhZcwAAED0AABA9AUORddcAAGdRSURBVHhe7b3Zs2XHdeaXVXe+VbdQAyYCJACSIimxJaqlliiGRLm7n7pfbIeHaDvCQYf+ANvhFz8owg/yg/1gP3Q4wg+OsB1uq9s9qG2xJWqgIImk2CRIcQJFEgOJgUChCjVPt+48VPn7fV/mPueConQkU6iDurnOzZPTypWZe30rp73Pvkd+53d+5+4v/dIvlU6dOv1wOvL000/f/fjHP16jnTp1+vPoaPU7der0F1A3lE6dJqBuKJ06TUDdUDp1moC6oXTqNAF1Q+nUaQLqhtKp0wTUDaVTpwmoG0qnThNQN5ROnSagbiidOk1A3VA6dZqAuqF06jQBdUPp1GkC6obSqdME1A2lU6cJqBtKp04TUDeUTp0moG4onTpNQN1QOnWagLqhdOo0AXVD6dRpAuqG0qnTBNQNpVOnCagbSqdOE1A3lE6dJqBuKJ06TUDdUDp1moC6oXTqNAF1Q+nUaQLqhtKp0wTUDaVTpwmoG0qnThNQN5ROnSagbiidOk1A3VA6dZqAuqF06jQBdUPp1GkC6obSqdME1A2lU6cJqBtKp04TUDeUTp0moG4onTpNQN1QOnWagLqhdOo0AXVD6dRpAuqG0qnTBNQNpVOnCagbSqdOE1A3lE6dJqBuKO9oult96G65e/eO3Hhapx8VHXn66afvfvzjH6/RTu8UwiD293fL6vqtcu365XLl2oWytnG7LC0slyff/WPlkQcfK/PzC+XIkT4W/iioG8o7kDR3lK2tzXLhyhvl+ZeelX+uXL76ZllbXy2LMpSnHv9AefLx95f3P/nj5aEzj5aF+SUZzJFautNfh7qhvIMIA7l7527Z2d0ub14+W/70m58rX/rGZ8rGznrZv7PPNJOl151SHjh2qnz0Z/5u+ZkPf6w8+dj7y7FjK5LQjeWvS4d0XmYdP11reQD+l7m9vb2ysbFezl14rXzjuWfKl7/52bKxvSbjkWVUHvp198idcmPtWnn6858sv/8nv1m++9rzLuvsTn8tOmQzSgOTOu6lSEbYI6Tfw9H2jjbhm5sbZX193e2am5srs7OzZWZmxvmAfGtrW/uQi+WlV18sL5/9djl/9ZVye/NmuSMjoQz9Qg4zDvH9faWr7MLcUvnJD/2d8g/+nf+gPHjy0fLAyinJnrPcTpPToTGUjMi7XrZAiwtL5ejM7D1fjGzIQN68cK4898Jz5eVXXyrzMpITKyvlxIkHyvLysjiOyIDWyuXLl8r5S2fLzbVLZefu7XJ3dlfGPTrlwsupFy6G48FA6ceXT5T3PPq+8q6Hniw//eGPljMnH5LBnC7HtRzLgNHpL6P73lAAzM7ujsB2u9y8db3cXL1RZjRav+exJ8rK8ZNl7h6NrswSl65cKi+//L3yla//afmzbz9bLl68UGY1i2Agx44tl4XFbMJ3dra9US+zO2Vu+U5ZODZT5hfmypGjGASGkX7aaPCxDg8BMRitxSR3riwvrpT3vOt95ZHTj5cfe+rD5QPv+4ly8sTpe3YN3kl03xoKAGGDe1sAu3rtcrl4+Xx58+Ib5er1y2VhYbH87Ec+Wt73xAfLCRnL0aNv31aNdrHMOnf+XPnyV79UvvHs18o3/+wbmlXOa7m0J2gfUXuOeNl1VG5m5miZnTtalo7Pl4cfP1lWTi2UuYVZ5anN2AKG0QxF0SNEHDqaNII1ZXdnV4Y3U1aWTspQfqL89E/8XHn/Ez9ezpx+REa0rLo0w/YZ5s+lmU984hO/9sQTT9To/UEAZE+gW719q3zv1efLt1/4RvnOi98o333lO+X186+UK9cvaokz7/X68WMn3tYRFSNhifXpP/z98qnf+WR59ptfL9euXSt39jm1qtjXh73HXRn60ZkjNpIzj6zISJZlJEc9kwBoTRSig8A+qvQYfp1NbCLhIU7+9s5GubV6vVy/cUVLv3UyvG/xvkhlYywH5R52ui8N5Y4AxhLrOzKQL371c+W5732znL98tqxt3Cq7+9tla3vDe5XlpePl9AMP2ljejhtztOv5F58rv/Xbv1k++Vv/Tzn/5tmyu7unHPYT4SHAjIJbWJorD5w+JiM5UU4+dLzML2pzXzHc2mtjUBxzgAD5UeXZRmocBjb6NiDKSvb+HQ0k6zfLBc20Fy+/qaXpqgaMec0sx8qcBpGD16NJb4TMw0X3naEARpZXf/bC18ozX/tseePia2V967ZmmB2BZT+A0fKDjT36Z6N75vTDnmH+Jolj3a989cvlU7/7W+XzX/hsuXr1Stlnf3GH5ZEawgbcmM5sMbcwU06cOlZOPXyiPHBmWUbCnoTRPjyAFS9lqaGBN74NRUEAbxbVlfKRTx5178lQ1zdXy/WbV8t17eE4XKDMkpZiGBZLQVdnIjBEDhXdV4YCaFbXbnq59bVvfbF8/9xLZXNrTaPnrvL2DRYUDVAwmm1tkgHZsaWV8uDph4Yly4+SdmWQV65cLp/5kz8qn37698rXtHG/cPFNb9DvYCRyowE7bWM2WT6+6FkEI1k8phGe5ZbBr/bxZ5fllZPrpxmNTJCAwyQOsRQ0H2VZ4jG4bO9tlvWNVc3E18va+m0vwRYXeASG8imXcOKHje4rQ0HpF6+cL9/57rPlO1pura3fEmBkIIaJnHTMGt0gUQ6nYVtbWwbr6ZNZgv2oNvaAkFnkpVe+V377U58sf/yZPyzf+vazPubd2dlxGzAUGjXgTwHax5Lr5IPHyym5YycWvZknz9www1spxjGWADE7hduO8B2mFWJjSyrPZm4DzdH12Nsua5pdVm/f0Myy5qNqNvhcE5ZzM0dnUv8hpPvKUNiYvvz6izaUcxdfz2Md0qt1qy9AQnBGYZZg5G9ubdhYjmkJ9vi73lPX5///wMDMdUVLK458P/0Hv1v+1b/+5+X1s6+V1dVVHwsD5FYHvmcLwKiN+9w8S66lcubRbN7Zl8A6tIlwPNAtCvADd6Ur4JunNgyYmXWaUWozXweCJsOGokDS73hJurm17pmFgYf7TQvzi74Jyh7mRzWQvNPond9rIQNgcrR6+drF8t1Xni+vn/++T72MBFi0J2FfQgIj68z8LImCzV2PotduXS7fP/tyuXHzevYuf01qS5mr166Wz3z+j8r/+r/9L+Wf/rN/Um6v3irbW9vaD2iPtE97xaz6j87KcGdkIBqpZ2dnyuLSfDl+cqmcridc84sc10YuDmoAZybBeOgDfWo85oKXQC3jAvkashBMeY6ZOe3CABhIsAOWpesbt8v3vq9ree6VcuPWVS9TPfAcUnrHGspdDES6Z0Dc3d0tFy+dL1/75jPlxZe/7aWDb8SJ70hdLrB0AJDcm9jd4yYdI232Azt7W+Wl114oL3//JW9m/zqEgWxubdrY/qd//D+Uf/w//4/l2W983em7NhCgGjCqUdU4ZjVSz/oG6NzCfDm2slQeetcD5dRDK2UBI0E7BnQ25DaOVGe0uw+STyYziWcT78NiMM2AYhlStuS4PGmQZOPg8+MvtSy3aGDc1PLr4tXzNpTdXfZU3VDeccSSYVvAvHz1gpZaXy+/9Yf/snzp2c9ZsXv7uwFJBZG1PpDW2txY09DpUVSOPcOFC2+O9g9/BdrVPgfjeO6Fb5V//q9+vfw3v/pflc997o/L9avXfINv30YZ5NEcN+kOgNdIPjOnZc1CWV5eLCdOHNOeZKWcOL3sPQrtouksmfZVCCAHzOkSA8RbDwPwkpcE7IBrgLHaJuivAjGYXBPSQ0phCYhR1jxO5djn8VQAhhLzg4ZCh4am2FB+uDJYHnG3/dsvPls+98VPlz/4k0+Vbz7/tXLp2pt5lqtqP+v6hFFxQAIYaljAIX9/f79sb2/6/grhSYkbmi9+74Xye5/+7fJ//vr/Xv7fT/7r8uWvfKlcvaoReEezCAbRln0yFgbsI/IxkLmZ+bKg/dDS0kI5rpnkARnIidNLZXE5J1ymhny5LK1iIEnKLOABoX5SIN8tZRgwiLkgHCNiVo6BcE10PXx9uE7kso/bk2PgqQ9fWsBbhBwCesfMKACDfQiPpJw9/1r5qpZZf/LM0+WLX/1M+daL3/Dms+1LYgRROEr18mOMiBsHpuTDsSVjwdD+srU4I/TttdXyzW99o3z66d8p/+ZTv1n+6DNPl++++ELZXNfIKwOZOarZYm6pHF9aKceWj/s+jZd/MppZzWjcCZ+fn8++5IHFcvzUQlk6Pldm5hjRaSMtIxCXvri1Bn9zrSOV7SDRL1yNNhr6rgBiLfqtckhUWR6h8Uwkx6nXYaUpNpSotxkIp1NXrl0q33vlORnHZ8vnnvl0+cZ3/rRcuMI9iU0rmhkim1IXNYGl+AAmEYA+StcXA6kwcO3GFS+jdrbzhPFbCRksza7fuFa+8/y3yu/LSD79h79bvvPct8r62rrkarbbvcuiqiwvHi8nHzhdTp2Ue+BUWVxc9F4ko3dG8Nn5GT/geOwBzSwr82V2QQ1R/gBufTHiw9zK0GDnyzG+24CcUWngHStjP8uuFm+G4fIQdfGRTz+YuWCaYfaTkfOYT3vs/yDV8vc5Tf2Msre3V25pifPq2ZfKM1/7XPn05z5ZPvPM75U3Lr5a7hzZ9T0GdD0zkwcJ2zq8EYAaqAUBRQOby2q0nC3lpVdeKK+9/qqWVKsHy4mIb29vaS9zvjzz5X9b/sVv/NPyxWc+Xy5evOjTLGYRrVLKnd07NhRmkRMnTmhTvuj2sJfwhtuyZKhHxDdXyqJmkcUVzS7evEsd8Lj91E9D5SnqZVFNs4HgxMfMCfEdlz41QmYGjxgOhyBuiDjzIa9es1hlnML8DIGfES8tHNPsSD90fZ0/Tsi6/2mqDWVLwHz5te+Vz37hD8pvf/o3ZCC/X1567Xk/1CeomQcQzGkJw2jdllsB0AggjQbwy7uzzyY3I6h5NVheuHRee47ny8VLb3qT3ohyN1dvli/+6RfKP/m//4/yz/7F/1W++MUvaC9yTbPdHS9JuDdzdx8Az5h/c3OzXL92vVy6eKlcuXKlbGyozTIQjmPnZNzzCzNlWQbCTDK3JCORoUNqMTWq3fKqi6eG6i9ArX2EkzQleTbwp5KMIdeC/slJvsM2OGRAkooAG0hNdx1qhfqEkRxbXinHjz1QFhaWnXdYaWpvOAIq3i7yjW99yUssnvrlmS02l8ABwI2PlA6PxUeUMIB4qzNfw43it2+sl9u31gXybd83WNtYK5cuXdBy77vl337xs+WPP/d0+frXv1LOnTtn4FPn7ByPwsdI9jSbSIzdHgcEWqZtb23Z6DhBmpmd0b5ktiwemyvHT86X048cK8snFrwvSZNBadpGAmluI2F9nD5GLmLgO1AdxuoixnWTgU8CbYYj7eRL6WSNheGf02zC0vHJd7+/PPWeD5Qzpx7WgCCDtqDDR1P7exROn155/cXye3/0m9qsP1vWNm8PgNI2Vr7C4gNA/mM2wVCciuKjfHy+MnsAZIX5mSzlhTHk4XjM/cbl22Vrdb+cPPFQefyx95QzZ85YFhv3N954vbx5/ly5deuWZc3OaUNuIzlqeVsbu2Vjdbvs71EhwEy7OHFSzeZfWNBeZFmbd23cTz68VE4/qk0+R8HMJm5veGlj64dl1bDvY8DnWOrxdEFM0XAlF7IcJQ7Hvopz/wYx9KFuREy5VpGJQfDaoycef2/5+Y/8UvnJD/5MeejMY30zP21ksOjDBv7W2s2ytbvppUPbTHqEbL4NBDTINb23dNJEAQFHnTyisTecFg0y5Bhpj61owz1/V0uvN8pXv/al8od/9Gm7L3zh8+Wl731XRrIq3qPadyz4tIrHTWZmM7N5RlMbvcTxLJU6MWoaNqfZZGFBS61jnHItlJVTi2WuPp4yanf130LtekigY61A9huJHSiqSO36iFLEe6VcjyFpjCjE9dDMN7dQThw/VR489YgfGvUzcoeYptJQ0CCjp5/D2tmSUvc9cjddAVaa7llBiR4Jtc4eRsWKAqlcfAEZJ137MhJmKoMaYWPKZzZaPLaoUf5EOXFmqRyZ3Sub27fLhmayDS3BOHqe07Lp+InlcvL0Mc8MHCTMyCBzGDCT56EWZv0zXXiZcbxElJtVHMPiCPiYDIXlF23ITcQAlza7TW4XrU/7nM9RVOOBzFITap/h832T6uCJFF0bfexXQ3G52n8PFHx0PZk1eGJgafFYObly2j8VXlhYgsu8h5Wmc0YReLZlIJeuXvCyZ1fgZjbgR05ZgVegAwilk4LyGygGo2FUr3l2lJZBzM0HpAOvfP/0VnkLxxbKw0+cKR/420+Wn/yF95ef+uj7y2NPPlQefux0efSJ0+VdT50uZ96VH1KtPLAs4C+UheW5srjI0grH/REZSzWM5mxI2sAvaOPOcuuowDi0y4520h5BsmLYLSbDfbBHc0PyGeV9173Gj6hgTEIfx5nhMqDAkIFFLiUsFLm2Qa6H+s8jPnOaTZaXj5eHTj/sH3L5qeEU8PdhpKk0FJS/rlH83IXXy/bulgEcIMlpP2DjQHNy8Pq+CEokUY6w71obAQESDjk8fMgMBWsARTl+OrzvkzROsbjhqNK+Okfmj5bTj58oZ97zQHngkeNl6aQMY0WzgpZOJx9d0V7juGaILKOOihdjmJWPG4yEvczcERnhXFk4nvslbl9DvyjGkr6B8uypaiYGwFJSIAa0Br8+PGBJqC3Bwqs/X4PQIAJ+y1YZ8cwyE7blqdKozw9sikU1eI/yyMOPDS+48AUbKjl8NJ2GIsVx6nRj9ZpmkxzT2hgMpiyjrFihQHodwNCMw6MwTjnRcUZWZg1G9kaS5m/yvc+BKj8f/uDhngdA99O+jLryuVk4xyyiGYiTq2UZy5IMgSUWhsGyazSjaFkn3mUZycLyrMrHmGlca3v2NDiFm4Nqs7xHwKl+EuFjwTS0dYzc38pjec7GELg2REmoZWowtqZymnEW2J+saGA4ccpPFCDvsNNUGgojK78M9LJrD0NhSSFF6ivLKYwkoGr7FQMLZ89arwQKBIG6rPB9hMo3AMbs8MFa+XGS24zTmSLLdjh8gJ6lFLMKj8aztPLeRenkcVKHsfCCCG4segOvJlBNI8ukniFGKLFQ6kpOcvmiT/SddppHrvUpPjSSk37U8pD7iRcfYsZaWtJscuZRL7t4Li2yDzdxhaeOUOje7o7fWLK/l+eu2ikWy6dGjtc1tz/Wes10ICO2oUGW8sGK8UIu/AozO1UWuUGAiTzAM3o7SeSxTGNjzCzG4y/sU46f1KzCDUQtvzASn9Rp9uFpYGYdll7MTMgZ2os8G0ltAJSGjAVbRuUzL+XrjGJ5lUjzRqalqQTy5aiOAWaYdUXMVO1BUcfVz+WlY+XRh7TsmltUnJO5kSEeVppKQ0GZO5pJOGkKMEINFGgVhbYjSyu+AaKtx+TG4DOABeB46cZ+ANmVJXnIRjyJ1agkj7oYvVN/8uHPUs9SvLSb88yy5F8lMqNwIxKj4ee8SzIUlmsW0MjNGRkv7U3dZFRyuluTSG3n6KHPRm4YEob2QXi+PlwPAH9HedyO8ZoV3jFjk0wMY3FB+68Hzmg20bILuePtOaQ0dYaCgvm/H7zgII+8N4UHkPgGgj8h4oCBjXj2LtmQu3wFTKiVxVC0YSdPf4AhYFHUoMqI67pqOZaDoYBweBxf5bmBt696uY+ysKwl1jHusfBjrFnfmzn54HGl8YhN+F2t5XPQUD+uP4467MQHEYOfgrSeDKIcoaddYYwcQonXIjYKz5p+vIafFai9PJfG5ak/BfBM5PJs8mfL/OyCjXFElI/cw0hTaCh56cNNbeT9uDsAlIICIBSL5gnAG2NxXourPL65Bz23dE7LIitLthBx5DjskbqOsk5BFsZBU6oRyfFGRi5eli1x+vJmniNj9iTLKwtl5eSSll2L3uB7T4FQtzW+AxY+CprG/LYfSzlak7oiLG2DuBq5Bq0w/LjEWx6uDSwsbRVUZmRpnrah8DOA9uvQTlM6o/AqnyvXL/kGoVUMENvoRri6RoT9+tGx5REYagCBABcf0rxsq7zmM8CEFpdVeq2L0vB45lGMkyEnyrXyPiSwcWF8PInM5l5GcmJJSy7usyx6ycXSjD1LTq8kgy+FEVcTTAFyjSgZ/CbNrVTiqITrr2WbMcXFeDxcmD3tq6Xc3vaQpJeOPg3LgMCvP7kr396+0ik0dVcChfMDqmvXLmvE0/qggsP6rt8NHFALjTakAAaUVEeKfWYS8eurLSlaWe81xBPu8DfXNrJDnZaFoWgZ4zTqldHUD7I55eK9XMtads1q+aVk/uzy1fykWqLjtQ21DicqeNAIRo48t9OzbG0zyTUvwhqN2scRuR2Gy7Vw3ZGFgfBuZt+A9QVL3mGn6TMULbe4K88rUfNLQ5QPCOqoZ+xk6UDIo6qcQYJjhKzhVhby9xivN7hOhTeyufvPXoM8jAeQYBDMBoQtlxJ80RAnJj2kuNLhn+UxloV5h12u1hEZFKrlfNxdZeIn1w7CGMmDlxqJDH3k0+IYy1Ay6eHXXy6V+95O4rjxirFwOscMiiz6zOM4i4tLPumLaVnKoaepMxQUzL2Tja0NhdFwlEW64GulepBXOMslAYK0agSMkGCYURjgGzBOT1eBkRkqigi2fQaPyrMMUSEyndZOuxo4XYDCWt5kHhG1PBFvXDEPLE7JUwW+2QeYSbQjTDk85ZHoMG2pbU2Sl193MCilA//BMMxPSXMRsUd7U39y3A9/an91jbgrT7/pg2cO16tl4zy/419yv5HRKTRFhtK0woiOsbDsUirAZ4nAcauUx0gYAKNYmo8R5Y0hhhtiyGfk1PJBoYCnyve/PpBvwxGfgQRo5GaZCeTY6McIYiRmgg+5VQ6nXmyG9+S8zpfzqZsNAsPIyRgGy2nTnf0j/iUkPLTGpKxxwDObYXTEmTB9UqU/3xe5gwuf+8nsx5PQ1OEZUGmw2xejmz0yDJxnSXgsBwNR/3Qd0nfNMEfkijbyR+dq/2s7O02ToUiDJhQYxbZTFz6GrsK+ASkw5KZaJQUBe9MrymetnV89plwABHB4k3sesiTseixfcHY84KE1LAO5l2MDqOVtHGoDrhmGl3EA2mVk5NUgMAIbzB7lc4Ts56nk4LMhuJTqkyHwWxb/nLgaCbL3eSeY0rn3gY/BxQhpTwYJGwq8OMLVQfQnfVLf1D/9iahX5euHdtEf6mSpycsv8pOGekE7TZOhhALeGb/MICAP0PmACn7haD4Ub2OiTEZO81VgeDkhAhLWd81ve4aDFMDYGIYP1TVA6Vu4A5zMEnsAH1cBaYAywxj8GAiGkzqy3En7EER6lk4xCAwEwCecEi2c+g463yzEaBSGD8c0aqOhHOnwqY6h47AQ9WBSB46WJtf60eIQOqhFO4mm0lAYzdprPpuxoLToEGOIA33W7ZiCbVCiABLlVwCMkQ2GABk1E36WJm1f05ylOVx5xkDY0gL8ET/NVbPVDzk/ypI49TZQ2wfYyGg+pSk8lkZVuMhPnbwvDANpxhIjiTyn1/ZQ0G2W07fbTBP4ku06LxeQnBEYuIYsxUjrFGrXZqoI4+CGl/cYAg64auk+trTxZM3NSB6AonyAFJC0kd0oABCE5MPfRkvgkxxzxVEexGVDYH6WYACMOvxXHcTMxUkRe5u5WR6zH/sdCo/c82zXUbUPQ6lXu5qTm2VQu33ia0JFTkuy0x0c8tPftHVkHBwS2ni0RGMZ5yUfb6rEaJp8i2j9jlwbITLVQPaBnHix/Oo0oqkzFJTFsmvl2EqZm5kzIPj4hmJ1ECAxSKVYllPje5QASEARgsAIhuZRV3k2MKXjGzhKBGRBTMNR4uapZVjmqSrVR5wyvH3lbpmXYSwfm/ed+KXlWbuFRV4iwfFr2tXKUzDAZpSnCn3JuU5CMlAvg7SUa8TIb79yNYgTdT8BeeukEr3XkcGwTGOJ2PZKFGvXxc5yCPtbPnu3XC8GEr92tll2p+lcevHvBfgnpBgFijRMAJlCBpmcQVyNA8UzuzT1h8gDmAED+TmRUgQmPMti0V/H+GGvkxkr9xw0M/i3JTwFPOtXnvK7EhvHMX47337+q1FYPNzEQ4YFiqjb0iWT+tjH0KYkcfnD6CIuqLbSD9popqSlb7UscbefkEsScF7rb0YH6pQ8Zhr7kkw558fP0pQE3hxDWMsuXf9uJAdp+gxFH5ZdKysnxsCBouUbZCg3xuK4AND2FSGl1Y+NCaApD5tiicQQHQyQzylPDCJOQJdh8HsSL53kJ8xSMI60LKuS1x6n5zjawJc8flYL2Pdpp5o1GADLomasorSZDjW4h68mxRHWV/pMP4lX7tq/H+qqVJfRdfKsitCaDrU4HkbDTLK0dEzlu6GM0/RdDemPmYR/YBNQ+KsaibXq9MwsRPRXgQc42tHy8NIHDAH8Csis2vz4ewU392T8yqFqEAecjMJvWLEB4SRfcnAS6TRjyZir7eJL9TtMe2UYJBqwAmmbDdlc29DpF86fELyDtJZfeemvvBGvjeEtRFpLxLdRUa5KjdjqyGsuxDXjP211OkhTZyhWmzTNyGZwyFnJ6BlX9ZqoPjUeI1GHbBjVSAA4cfvJa+/iGhlF9hJHFc7jHJJl3vhqgevh2462UCVoHAdlTRfLyJcD9u2oOkR/YJdvoyHs5DgRdtdMwEZiJsXxqtFYBvkOx0FDc+qXcg7yVnnDdR1o1MYcZozndRIUppME7ShyTJkEfaMRoxDowR/wPcJ7fCuwvbQiPWhTD7PEMvhZPnEg0GaLOrNgOIEJdXGKtq9lU+540wbvf2pTvH9RZWx4szxxI5znH0UZiMhqhPE12Deq4KUMTrleGlUjsEj56X94wq802B1J21jmtTyIttkhs7LaKCTfp4LyD9woHdoa2dxg3d7dGeR1Ck2doaAejmQ3N9d9tImmURpgTS4vwSYsA1FcGPcbRQi342AMBUMi7KNkHIljoEISIj26ygEe33GXz4mRT5+0C26/1xjHjWpIeZy+VNyb9CZjMBbqwUle0hI32a9tqvLSDtqgOilTWdwhEVH30en0hYD6qrCNtvKlUMj1U68+yM3N0bGnC9jpi2zK4iW+y9MIIwvqJJo+Q5GyeDn3xSsXrDQDHGSgOM0cnhmUponAYbIzugccAEIQr6MoDoNqIhR3ukC5B3DyrFYe38AwMBAMVYDZww94M/rWci0uhxE18A0b9eoH8OFDdnjIH7WDNicd41IebVcdbqPD1SluZx4MMzIHI0CW0gcnuV7ukS8H4dmpnJ8Ps5MMlW+U66rZUlLqtqtTpekzFCmSVxVdu35FgJCh1H2Gly92YgINhKVYlmh0o+k1YNAXjj8l2AjsVycw5x5D/GF0FXBsJA3s8MgZ7HYp2/J4yNEPOjYe1YOBNMMxiA38HL3acEgba1f2AwG3e6MO4g8dakQheypf/bZvcbo76wCrzTpwkEZ9tCPtdjE5t4P6hzayhFVZzb48HJnynRpNn6FIi/zrOf4rLco3gGQUjHa5o97u1MdI/HtvEvzMlIIoHpACCsAhEMQAAmQAEiAHzDiDngcOAXwFfQyGODwS7zg88KuNu+KR4/+hMLOM6ki5PPeV/pDGv6rzw5I2DjW0ko1C1FIGfBMRXwxixG86EOcqpYBDrQwJIuQxOzSjcNnqzCYalamG2o3kB2j6DEWOpcXu/q6NowEHA7Fh+NOmlRgHhG/XwF9BS9yglwF4qYQhVBBjFJkNVA4D2MWR1spk+eURtxrLsFzDGAYHf8LJS3kbHEaiere3dmVcewZsGqzWq3P0kdG8LaWYkTLKq7ziMfYKZPqqsH088itP8vEji7aQlKesw8Pv/Jts8iA8G0aKZ+alw50O0NQZSqOcWrVZQ+vm6mhyHgDMg4EBi0ChfQmK9sYYhWMIVj4g0PZf8QZeh2UgXgoprQEHgwlPdS5zEPgxwrp0wzkunjrTYGhtSeZynn2I73lkZ2nDUtLApp+0Pw0dwj5lU+XDIYB56TNtiku49rmWbXmeOdUmt4uweJiVdckqv8SRqID3Ik7EYyDY8w/nJJHmdao0tYZiPUmx1meNos82mwQ8ZAoY8sYBZL3LQDwLYEwIkvNTtwKfjQMe8ihnQGNAJGZ0tcMzo/6U14yi7UNy0iVXl2GZnSRbeZyYxSUf4HoJyVE0Izh/8rMcjMthXvpgI8CpfvcJufiOh7+1rbVvcEpv+c4mny/lDQVMXJe0A4dc/n8l/y1skN/JNHWGUjEU7VaKoptr6RlhPWpqtB5tqqvBiK+5AUjiHd3rUKL5Dso2CJsMeDA4840zqnrzYmSANsC0kZg3bKRzKuZTNbWt3QmvxW1wrR+U9XLOckZtIJzlpNLqsiptk4yan3ojc6jbfmRkvySnOGViJ2lLMxKuO7I5ceS/iaVtnRpN5YzCEotHvU0otTqPcg2MFVCAkH8HgaEYjAChgcigIm2snLIbWFo46ZE5xCs4k16BNrjwNd9OfIArwMYg1WbaoTC/UsSIqQ+yTPjV9iCamU58lLdcJSsel8GAsNsMP8HarjazUa61A5eKQD/xXAe7Ib/y2EgEA/nkb2tG2dhc13XlB3KVp9M0GkoUx7ul3vr7ElwDo4FFGr4AhwtPQNNG5CGvAU3yRnwpPzj4a3lkB6CJD6P6kNbCcrVMK48zoPlTtd63VCO2U3nLYwaUHIO5pkdOk6ks+8qzrOpzmWp8+M384MTj6zimWqX5Wo3LkMucEtJVVz6GslXW1m5r8OHufM3sNIVLLznW8fPzi46j+OwNApjR3eUAy4r3CAtvwO17IoCQzbl8zzbiYzQ1+C0zBtRkNYMA+DHAyHc+5Ydy4tEGHTeqP+VthLTDfuI41zU45MRoaLRnHKU3oHt/I+eyFfLm00fZBJ1qRzoJrSxtIV+OpVTgb8a0Vb5EjMonS2VrOfmbW5vl1u2b/m9nzESdQtM3o0jDLLt4UbRPsADNGAiYbax+K7Y60tUVn4SJnwRvlMkQ2YDYWBvk8TGgGElkY1T50ZPS4KFOimtWyw1JgZEyNsAKPFZOqs4GVh31+q64qM1K2aNQL3JTv8upgmZQaVOWkW1gaH32vSN5MSZ4qzEpzClaehmyQpHn9uNHRtokx6VTAh9xFFXjGZAMvM2trXL95nUbC+3vFJrCpZdUJmD4p6gsvRTHmbCBdgwLaAGBkptRGJTSPEe1BvfOrsHXDMGzi+JJC+CbM+i1RMIAsrcgDZnKEJlfLvciEgZobp++DD47HplhyQiwyZRvI8SRnjx4fc9Fs5WXZQhSP/B976OWB+htJmLg8P5N18a/9AT3KuM9hqtK/RQkJbaRa2hjkFz31w2gQPg9oylM3vbWdlm9tVquX7sho91VPoydps9QpBhAsS2QW/FJkhIz0uN8kqQ4o+/O9l7ueu9oJK7LIRSeURkQJDyMzoCYcEuTb0NRJtngaRi5mwOkyq8LGRN8pIW3Ap18+dRLGomUJ41oZMWIt7d3LddPIgv0AL61MU5f6X3ibmcFdauPmUbgb/eYYjD4eVphJKMajcK5Jq3NCKaNvB9sT+3aLVuaUfgX4ZevXvI7oPvNx9DUGQpw3dvfLevra4MyM4JXJROWb1CBRYMPIxopP7wBmMFJvPqBTpYZg0wMsI7aAePIeVZh9iKvtcdSjLHaPtqRuB8XIQDV0Vw1K39MttuCPHJjfpGTuOU3Ebhqn8E6fLUd4rc/uBSjf8RJsC/CECHi1D1cD2S5LXFcC679+fPnvakn3mkaDUV65eXc6xvrVpyXQdZ+BQNp8tG7Xywhl+WHeOTgDWhwCgM+/gC8wS6RThozlgYSjEXA8AyjdN8hr3IyS40A5b2FG6xK86dw6oVo0/AIjqzHR7SSzZ6LpRUzCXW7Xrm2cW7lB5kElUQ4v8EhlHIpQzizTPZAtd0UdKlISajun5SZutPe5nwdxbe5sVleP/tauXb9el9+VZq+pZcIpe/ubQd4TcUsL9i4WqFKQakzcgJPhUBdfiRuUriVtwMgBrwAi/LRv3g4ZWP5A3n9LvJTtEobPcIvWRwWYKcYm+Rw8kUbveARC2+axMDgJp0KmjG7LUqjrGcCDCZNsq3hKJgXXOS3/JDL2FGuAhxDJs0cEP1EBgKQkfpYmkGYDcaIkYyuUZUtP+ZRyynM8uvc2TfKxQsXHO40lYYSEDCSZdNZ4WAA8Dv3vG+qjf4e+dkt11EbzQMI/99FQCFeDI8Mv7u4OmYmr/ft2FSzTgeJZnUbAKVnEYUBWvgZuQVmeJTmGUFpMb42A8mHz7MTs4jSJIuN+672Jl7OqLxvqqqBKaN6FfavLYNb83ivoQz6LhEKoTK5alkcHciqFKyqtKDIQy7CmtGnBNdHYeQq39emyjYpjRnl4oVL5Q0Zy+3b7T+fHW6aIkMJOlDczu62H6VoozvAYdQjD2cAVBIkEq9KzzKG/MQBqIJ2ATbGhTVIZkuv8hht+anw8DxWLYPv1ikN0DaApVxAnDyVEyg9C/HLMmaFIW909BwDR7ZNQJ/U1xyp1IlsPJxqU1Q11N/nQF7aeW1aneTRpLQt7aOPwxPE4kUO19VO/PDaiR/Z1LW1tV1u3rxZzp49W27cyOnXYacpMhRUxDHmvk9b0LvhEExY6cMsYECMK3vkTODMeQ3MNW6HMe1bLEsNYS1hx+UAYl2CqFASCduHah1jBBuu1T9wuIjAWouTThuGNrUvCyAioMoH/kkeAR6/EZDnUyOuhjI2WKfb1MaaLG6K0y9l51rkWnp/ZvlZ7lGGE0Q29K+9/v1y4cKbCq87/zDTFBlKCIXzH5/e9dDjWppwLyWKBSjgEDBaufIZkdsMQjjKjEKHoMsmPyNnfNcEMDQDeJ/TRv9azPXiK23YBzk/PqDy3kNxSKnipy5FUpCvtAkZuCTYpU919Cd5zDVyvPKbJIA68p3yocgf+J0ytKB+IPGo623J2Bw8dilgA2JWOfvGG97U37x549Avv6bOUObm5suZUw+XD3/opxSey2iHctEjQAUQBj1AydICwBrM5hXwBuWL4Ce9OgNTS5E2ihpQgNgu9YyMLmnkZZkz4su6nwOEUZplDfLUJt7U6HYnjSalDWknNy9pB+R8UY35ewgTxcOvMiyYSCvnNEKK2w+Ngly35MHr61TrhoYw+XVQWV29Va5cuSJ/tRtK9aeAonDuyPPe4UceeXQ4iWpA82acTWkFB8TI7g3wMMJH0QCpjfqDIYET5bG0yjEwYKGEK2C1HwNCRpVjo5Olpg0kusBInix1+JAnJtj4DiBJc7Jk1zvxPjhg81/zK38qzSzTZkzIJ1V8vLEPWwjBeYSlpbWTLfJqU80Gh5dxVNMKEDCPGWoYHcyU4+jg4UfLysrKcIBymGlqDKWqyuBh9FrfXDNIG+yi+GjSxoEBkKa4sWhjiAOVSSdDAVCqMhnpOTkbO/XiHgQAqnXB3urBGKgnxlLTLEN1CHGCZECsQoKh+TPFpWxrC/y0mUZRp38/Iz+jtBJtGBhuDCh11b0NlSqeDbnag6ykRl49GHBr6D/16UMfvKwSj1PcZFrpBLnK567BO7qOx4+vlA9/+CfLf/KP/tPy9/7u3y/vfvd7Dr2x6PJNB1mBNcQ/C+I3EQE6Sg4AnCvNEgR4R7z0qUBtvOZXQuVnZIZaOtilKo+8Y3yktSd3PdO4XIDFO644ALBhkS9UtZuPBjEftyMADfByukaaZzVmR9VHno+ah5OvLIFoRk7bVC3GZpKsCu70P+Hao3xTX5WhL1hE+lJ2yiQ6TqRmyRj1t6Wgr63auLS8XN716LvKRz7ykfLUU+/1rNJm68NKU9d7dMrvtrkzL7gZONyAAzxN7yPQx3fcHylcYAHAVjxgr0DCFwzNC57a7DMYVRNOnuUlbAAiuYZzWjRuLOQHeKH4GDm8LTXyaaHkGJhJA6ykGawKDP1ywaG0KOFmVO6HS1ZSkLy0MemWW+MkuS8k2jmhRQaZ3G9ZWFjwi7pPnjxVjh075r0ieYeZps9QpLy9vb1ye33VYLR+0CWkiEduAO7REAADOpSuP8BnEMpIBGIXaWAzKCAjInLGlA8faYz82dPI1bKDb/6EGyhzbCvZSqYK8zTZ1aUEVNtJqJa3oSghhkJOLVNltI9LOz+zC8bk8tWocLBFVnzIMshUPHVm9iHf8uQwOc96cjyZPDc/p6UW72g+uB88zDSVhsINrlurN7U8qbPCOElxVq2SyQIUjOw8kWvFAwzmDvlZluFXsFVRStZXgEkR7+JFDSyeZcTMx6BTzLYoF56AR2L5toHiAkrqlFMbfAdc4aNH+ac8boEIQSzlePp5V35tgxwcDrof+lNdbqxcA7UZLSP+wRmIlMwgWRaqqOtPOzyT1XKt75FLvxAgWVr+8S+02ZP4Uf5OpqkzFLTH63Ju375lMGW8kxJ9XBNQDg8oas9wl5uHBpXAYmChd4CSQwH//sTPRiE6oMiTxpJqYAOQAAtMUp59iH/Pwo+o+O24ygXCkdFktyWYoqbIozyHBACVDDnapwxXDzNGJY99SgrDQ6sVdbsEbIBbl5x80k4RcvTZY88kR1nabQOGx2yqwC2mzvQthlHrSoNsUEy8XGXzcC1V7/ziXFlcXOgzyhhNnaEYBDxmz2beCpYipc0GSgOjOjJRewMCIINlAIWU3AzBnNY5j8IEGAFHysIzpOlDuWEZRrgCkTAGSZ5lM1LrQ/sQ71MraiGvEiGXxdCxDQyV/sixH8N4XId5wh8XGcj3fodnw5SGbdFiyriv5nGCZViOUnKNuGa5bjGMamRDO2GhNDNpjt8xkpUTx8rsXGbCTtNoKAIqexTeP+yHHQMBeQKE9S6FYzgajfGdBqA844zxVWDQQ882zjIDWDMPBhOQQM0nWx/xeKTmZI3ygM8ADOizRIsRJTXyMRiDV+JoQ8S2PQAVp97R0wXyBWYbr2Y+F6FN3Bx0O/BjSINcBgM5p1HODqNXZiOXw49ncnbkDvmWSUYbHI5ojzJbjh1f/oF7VoeZps5QULjX7hrxokB0KsBUsJuU7NF/PH/Qfbg8nirfyh8DNCXwnWZ8VBl8LAdBTjB5dMZRvw2HsvIxQNhgr0UQ3qQRagDEa0aHHNJt5AJ2MyyXNWMziKRVgSanYwywaWDgQ1oMhTLVSM3rEoMIx/Xl66HGUJY48lLGBdQ+bei1kV9cWux7lDGaOkNpm1zUBtzs9GXACmSoOBSfb34H4huQgAAAA2oKRfcONzfEKZloqIZ9FB1o2Zmz8VG/DUVgkoucEIbA1fRjLeJzeQOwknhdVo5CnklkJLlLX7moiLwUDcnPzUbKkAELbYKRdBmL00czmfdyCjCQxBBc3G0ZWky+8gZHeWUhF0Nhn9Jm0k5TaSj7ZUebeYOQkc9+FGil6Q8Fjh6FZ5RUWh2tByOpG2HI2MFVxABfPg7LM2g9QwVsFDe1/c4Y2MhsdcQoaU9tkxx3/RsW8V2MuBtJHiCuyy8ODHY0c3rJpfzG1zYqjcimHSTyRxvkaC8kia4HB5nX7VZ/OMhQXU6vHMSzVKO/6bNFyed/4mPMs/Nz7menkDQ3PYQiuSu/u7ttnBAfX3u3UTsjOxtqjKOCL9xWOjHlDKO+oh61vcyRrIbDAI6w5B2ZMXCoD37SqNWAlkOu5Sg7p3FNCOBKe2hXfmWoPINMcZXLyKwYSSLa4lcf7WoPRljtMuhpu/kPzkr4tIcqiPOv8yTFabAMggeCv1Fk+H4P11FhZhr65T6YM3J8rRTg/9LgyO0U4tJPFe1pI7+5nZdEW6lSqPVb873aqKc4ozv2AiTgHRzAoEScR8wahZelhYFNOSUD/NHmuvKnevHlpMnLOmY4CogXYQCaS1hFu2wzbMMvuDPZKM0fUBq34qW/+CN+MinRiP7Fd5Yc1WNsaSt5Lu1iSnFdJDXfrvL5urj9IbU4AfFQFiOiTds7W+HtZJouQ5FednZ3yu312zVBJGSiTJ8MoTh0B+hQvgmwkF7zGinekgHBaLkmnCBxKBNQQ6Olnvw6ovPB589GK5DZZyYwUOXw5cyqdHxGey/R6hWmfv6V9yDXdSNTQIVf9Xqf5VnQLHFuD0bAJ3yUtXFjbUodTESek0SS5DaYaCOeXZOEC3nJqY+rFS+/MEUHHNO7nZ2mb0bh3berqzdB2uBQVkAapRkAChoYgKAqmlznGWmVx8OvAsw8gFR/7dgZthgGswW/YZd/NPdOvFyS85LF3LUuIgZrjVcjsaHgOx1+cw5NaYbqJZUTQ/BWofLC3GQntfLrL31VOvUrr7UnYX25fgUIuwr6NZIJNRmeebluld9+GDxY3Vq9kSP6ZnmHnKbIUKxZT/koqSkOEBsoKBMwWukVTBWgXu6QLmcW+W3k9T0XHzXX0ZdqlA4Am1EkMXUNRuJw0jPKYzgBfB7vyMiPnKEtVYbrrUCE3BfxsuQbLfuc5XKeHXiCoL4/DJfZyhxxlhtgU3S83Y3CTjsoG59Guz8Ks1RNu+TjvHxLwUhKGZZe/Kpxc3OjDiqdpshQrGbPKLz3lqWDn1FKyMAwOKpSWR4FPJkw0Hc2qTEMh80Md2QzbRi0kuClXMu3QHPYDw/AwmCSTDyGSVB+rQtgOVceexjiLg+vMAY/cWSxtJqbmXW/ALDZxDf8mEugHAem65CDLwspnirIEtSG7PbFZQ9FX9Jgt81tkI9B1LpoMXslX0vR0A/a6YtwxP9Kj/cPr22s+Vp2mipDidLYyN+6fQutVUXzPJcUWRVKBoCz00abxywWeIhPYd/DqA6dAyALMoBlJBT36VZADfiQOzgaYYoBUn9b7rV8RnX/6EqAJo0qDFjl8XxYQhWUgJo2R5h4wy/pnCB4BsFIdnZ25XiuDJ4R+O2QJ3bLIQ7Aiat8iPoslGzHqLuWNBEH8LO6LrN+DEZ94ZrWD+3z82lqv2fBI/ua2Tf8D2d5xKbTlBkKSsFQNrY2qtZRdZ0FUH5FQp5VkgINiNoFQGtuvikaqOST9OEzyB3x8ciIH5b0siejNi4gqsshObcFopzLRoZFYDzgt8kdy89BAQ874qfNNj65vKg7p19NPDQqZyly9ehYgHea+h+iHmTCk1jKuCkO8w6xzMo1T3/U5faKbEyuPzIxo43NzT6jVJoqQ2ETybp4Z2fHIG1AskL9FeW25QhQaKM5o78TzRTPrtFYHKCMZCuRP/kA1cfEQk/Sq3ESdrmUbR9aQLU2KIX5DthTjlmLdBPlBFJAPjMroBu01WCos+5PkOF28cEfc4gC6N476c/paoAd+ZVoJ+SUmtyWZXxyzRCgP5Vt1xOjQQ7Faf+WBi2uR6cpMxQUs8EG0iM3WkNxNdPKT4R7GQasR+covGXjNyA4T45SDWwDqCqgAUkzSotwGD+uvc0xo/HoIcGK1cofGdQF1AmaUn0NxnBYLnpDXwFPNv2xsdQZy8UtJC5tq0Zb01q692N1GUiZWl3a47/w8TE1BgLkYyiul+Jqg+Jk0D+/zX5sz3SYaaoMZXNzXevivFRiULwUFrBFwzYSh1BnPg2kbZTGsV/BwcWfl1N1dEQ2oQE8IsIDDt9KFh/DG3c0RKGATACjeDMAxKQPrazyZrQEmsuMkk6oDIgU+ckBzSrISRtSphH18MxXu3/TZoiAu5aDj3REqO64Gq75UEtLGENJOHuZzKrKkZ/f4nSaMkNZW79dVm/fFPClHyaUMSUBgBzntnW+0qLxgFMJFSMivgFJm5UAVwCFHEAzLluxamz6M8jzQWCWYgipzCb48VUAUj6liCGXOvLeY1L4zmVG9vhPbH0/Xn+IahvujOCtMpVVGfqLquAZ6lV5BoRmGLSRPJpKXvoIb+ImEswz8n1dZBztB265ThiJwrSHa9hpugzl+s2r5cq1y1YWlL1CRrfxp3q9ZJHyDzil+fkWKR8AUK6BVn8mwhntAxRcxCoFcHDqQ92p0umA13kCcNu76E9pzjZAYaWS0cYb0DrVRH9am8jLLJJGkeRZQmDFMaI3chnVnbYknvQ4iDqdbfmSg3x1yk8BhGWg1g4oZRxMOdUbGRxBV1lqnA3H7T7cNDWGgs5urt4oN25dc4xP0uMb5AZjXFti+fkrg9NYHcKAwMpG0YDNaYknDDACDiDlpQzQquXarIPvUd2FRmVwlVnJARQEJ1lKdSxGbU47rrgNBV8ZcQExPzv2v9pWOHVYvMNYtMubUn9aFRmQZxW3RfnO0lctjwjCZq1uVD8J4qFeu8inkI3bhQ83TY2hMHJzg4uze6mnplYltzhKNfDiSPXSSIrFHVQ84KsKh1NJhFhioHjzVZANTh+e/nUJgyTlSOebqMWZiOBHsMHVnOLyPLrXomMkaeoDBkTB1EuQGa0aSx3d3SLlNyKYuBx1D1m0mfal7uYgvMST0GS4VotKfx0XTzMU7qnkXhG9qMIOMU2NofBCCU69tnd3rN1xgBBvireSNZMA6H0lZg8xAkLW7c1FBh4zhrEpYW1t3/IpmnitqMoCPKQDFS+xyKo5hNtMJSZlsGTJRth8gK3GvQyD1Y465WrdTiRYy/hejm/8JZ028B3DSbFAO22C/D3UQTtruPK1tHxqEh+nke1UBVq/uKm653+hvbvXH4yEpsZQ2v9EYZ/gY1SAXj8QyhpmCLkjCnt/ATUEwS2/7WH8cgj5NgL1dGb2SJmb5RESNsbMRJmNGhAiOvItqxrkgXwmJO0p3B72FGovm16e5N3DMDQjiMNNsrEwO+DDbz9LmRhrZh1k8TFA69KLsJd0Xuq15aK4lEZ5WmQehdv+DT7XAU8jePl9iWYH78EsT773Xnm8v/VFnh317yr/6o2rnuF9c9c1Hl6anhlFM8n+/m40JWJGQOFtRDZIAAKgFBilWhuEH03XSMj9DkoC1jxikpMc/nuwgiKerZLMCoQY0ugYmZMowIs8GxbA0wcg+fEY54UngAWg1QjVVow7oKUE7a9tUxmMzn1QFtm0uw0DnulUv41SnAY6hmh7GPFEao6FGQAsW2Gug2XOiIcAXL6EtD5GNsw8eH46ICeHFMRAKEXbfermI2rFdY2u37zi5+64AVxFHFqaGkMZTpXQmpzUKz0KDABFSgoE0G1jUKL+2jKKMNrkIUAUzigIjIZ8SD5xO882NSyHSPhwMRrKBJiApI3UAOoHeWml2iJ5XvIRoy0gzv0gV0QbXRiP1kWOQShHbwHo/s5eZhbPVhi66qWoCppVBVpbYqBKq5MI8ob9T63LhqY2uqzKNb72aTTM0BLGv9K+vbZart+6Vja2+j8SmhJDQfEsDxgFo2JIujSNqwgOPlG3cviroMm+QM4jslwr2PKYYZiNFEf0AOBKjlbXgARZNkZsnwrjD8ZDEfOnwoM8lJOxKMmiqQRj8vIQo2qGpT+3vS7nWp+QZ5kN4Hwn1aKIU5Y6RcQpy30QnFWsRNJ9A5YyLi+qbfS1wvFxm9Puza3NcvPWDb9jrdV/WGlqZpQGDCvdClOilEq4neebD0XCY1+5Sm/5KV+NgA8BEaJIBwztvghpBgl51EK4OfI9tbmY5ERikz+UlfMJFXVXGQeJDqicmp5SJGVWw0iwdg8OVRZ9wMgjMyVw1E7cvhJSD4ZCmxJ3WprpsA3Os1EkkO0lX+0LRA4Z1Dsscfm4/N38L8dbN8sGj9trIDvMNCWGkhMjLwtQFiAhXBWaEQ4FEvP467CdIozOHvFquC2tWG6Ai3EXoCAgRkc5sGRgAZZaj77FFOM4MLv4m7rhS8zAquXM52QMNXsfG5rSwh/A0w4DVLNHOw5ucriXwv7Kd+nVPorFeJOfuiI/aVyrSgh3U8VTy1Ce+ls7oNYjDzzud9rQiDq2t3f8pMTa+ppn4sNMUzOjoAiP9lKW4Jl1NiCRwqx7g54RkSZjDOwN6sZU6bwmSJj08mJ2bsaPirT9Bw4CJ+1tKwYNYGrgUJyP1/PKItekgLiS5jKKu43iTbbBF+MWyL2vCPgxPjhsnOJRdkCOPApLDmW8jqQZdtVYMCCOihVuQI6BJF/RUdsr1eKjwaLOILRxKCc/VdWw3LCvMl8zmtzbYp+ytrHqU8nDTFNiKHd9DMmaGCVZSzgR4GwAhQDWCDhydXnRilBK0YM8cm1pwQkTPIjMPiFgMpjlGniaG/YMHtkx3Biv2+LvkOXIaNOWwA6RmbGURry6EdVYS3SBzGJpd9oAA79lwW91U8Rh8s0vXmYmGZcvgGUqDTlcI7UD4JPsMaiWcTm52n25BMhnQ88/dOJGcN7K0iz68NFUGApKYeTihuNoP8KorQbWmUTa9Eg9AL+N2lqeWKnEq+INbkADGORADR+CXs5InOtQAnU4o/rU5fpEwwxX05zuvAApFD+pyYbPp2oyHLINRH08wleHkR4oa/kpD39mJGYn+pS+2EgN1hSibzGmlBl4FW54Ng9lievLx8jMsKrIfeCP/Fqm9dNpagM/zeapbl40EaK1h4+mZEYpvgvMGyLRXRTbABIH+BtQDCyXErO/w5sRktkjBmXF+wMAWF4E/I1qjqXYoBSN3ICnGWYSmgN4qos2OmFE8Bpk+rT28ERuDJq2j/hbPdCY6FpW3zYU+bUf0Fhxk8E8JFpCgpXS99QEXzMCu5Yu5+vW5Dg/7aPd7FP4jRAGQ78PK03HjCK3pand7xyuykdvBhujZBspxYcS276DMKV/ACwtGiyYovxsoEkOUMIgCf7kL/LaMiOQqnxKbyBuSzDHazrGzGjdZsUYR8CVvuDaHfGxFlAvdVoWCfAnDQLYbWa1wbdCwzfpcQgkzUVrWqtH0vVtbvsHqeVRLNz0iZuNGMrwUsJDSlNhKCiAtTDTuxWsdTrGQfOI4wIE+VqyzGj54M2+yEsslZfp5D/m4pohVUBEJv4IjF6zq9wwkooMTP/pS5VxYtX+fyFckUP5ahiUl/OMQbqFALbUS3t9uMByh6xajo/7whd8fLlw9eXoE7zkjoykhvXxUkkFkcn2hXq8pKO40qAmHyKcAadWwDdh87LUgpfyqcc88nb8zNdmHi8am40PG91zQ0GpbBp5PQ7TO49moCRAyv8THO58t5EUxSrAfmR3d6/s8F+xMCqBBJUjrzkox7NJN6jleCTFNPCKzydoqlu88BuYSpudny1H/Rt34nLctLORRr7b5bjC4s/TyRi/6pMBIYy58OisQO79AYxikRuWbypPHQPYaatAucfbWbT0sUxkUDeNRaw+AD3G4QanXfgm+pUZrfXRRqr+O63u7UhnqeonhfVxv/nQbg8C+34w0g9H1tu8h5FQ2z0lLj6PSNxeu+WTFUZ6FMhDhjz/5f+VUo9clSTlcZSMojWLCHVz/GJQSuUhPxQb5Uv7yDZPwASASAYsPBkLAOAnEWhhZj79akZJivJ2BdbsjyJTbLpoeQleG+lpR57rQlzaAB/AIwwf/KmHGWauzGqmIh0+2oB8+uwo3/SVmYp6VRCIum++BmmPn2+rs2+cRaX91ekr8uQYNLBUBgQPQL4m7KvUJ9oi4g03u7o+LA59GMH10jXgxenMnIeV7r2hSLNr66s2ljyfhW4Z0dQ4jaCeEQR0lN0MAR+DIhUjQcmMzu0EDMNoM5GXRQa6lCxeDAvcpA5qCwEwj/ACBuEGroGcV+WIXN6hylPbAdEG0s1jrMqIXFeMD+dYNWDPPsjVXwxy1N/cT2GQyKFAnolL6/hqPXC73T4l1voh2kC7aIONmRJ3VKeyc83ga1JGlLbJcKSTbRkJe5W+9LqHhGL5rTyKGH5UhZKi5wM6bCAj08mAzwCsoKQ7rZyINI+0SqMY8Gt37A0e1TOA1aCJIZoZadXYmlBn4VOlXLj4ciohk2WQ0Zqj8ADuSimHsVYVWET6V4NuO+DEUFJ5y6+fNhswSxCoBQH/aIAgjWuTvsJnGeJpzm1x4QDC72BWKnzIYVbnVVJ3eNnEIaWqpXtHAGj19i0bio9jFUepKNm/+EPhKBac1A+YAOwGh4j9yjD7AAQDhXV3Rn/TgKMssfzBtzDyI6sRPO0hQhNsNYxd0B7IRmOydBvWYIT6DHzVJ92ziw2w1m8Sg4NhtDR9xVh0DdQXt7eC3Tw2FOJp24E8XYMs3TLL8HE6H1jC5jyyVJKY090+Vd7y9vb4nzWaUVjbkXAI6d4bii7+9etXvZFHPygJgIwANCKrCB7AZlCgT4GF/xJFXL3JMoMMQCZDsTxKZuT0XgcQ+BOZgCR7jJHxOV98vkFJ3OGkOQ4Qa5gSrRTFec3rLO8YZrlTR3vkeSarM1rYR/JGEvJNGZdTvvdTlXfYD1ERHTZ3PvBnFszbXjg8MMmyCbX9H+EYRuQ3g4MUTZo+EkOKBqwYCtfusNI9NRQUwmh15doVP6maO+tkgAGAAmwAQOIGiYCAqptC0WVOyjA6yrPQFz9lqqIFD/9sGJ9EQDeAnipE4QfQRDDYgJH39fKLRo/OBlodpalb+SPApaBnNUlBnt/j1Z45q/IAH3kQZZAJBagyKrn0Kv1j35LL4K9almsTXqaHGEnkku02id2G4+voQurDqN8kkUcA0ZShjeFM//3yP2WiI14izo/gaMVhpHtuKDxsx5tXtnc2vUcx0KUtg5FAVXJALUXzZK1PovYrEAREbiQAmGoobwWyAYqspmXn4SdsuSrbAOUGOCijQiZgrnxOB3wGIM0Lr3AVw2ijuGWnH14CVtkxZmQ5akPw0gjZjqgdCtJul7dhkg+wMztRl+scHMYCe9qKLM92JFYiCF/6A2cyXZeFULWveOQRJl2ETE7C8kI8Jx06uqeGwrKGI+HbG9qjaGpHC1EOYBJoRICcNJLREUpjKdJOn8hgJmp7EgMu+nW5ADBEHHmGCWCtBI9PjPCHD+1TOzQKQz65MlDl6ijtD76dm6K8PHQZmZLB8o+6nEh6/MYPDfVXvsHno7x2LVx3LQMRthE3qsJbOT5jyeKPQflLAws+RkN6I+fXfjF7QuxNhnspFnb46B4byh2/lHtjK29NN+BYDoj4HlzVY3x9WYlSqh1AykyEsxqRY+ZqFFW5pHmPIMCRUsWKAqoDIHBYzklpV07L5OvjpRSGo3hbwjQySCmKE9Yiqsq3vJBEiKi5JtevNjMO/JR13ypvk6UqW10/SJWXbzetlnE0bW37nsGRSD/q9Usag5D2KDvbWn5x0zGfw0b31FAYqXiOiP8PYiVWsBG20VSFkuU8swBMNdtxMkjEHycUPeqa2UTZI7SZYQwQZBLG41PFQjEQ5eBTplKKRx4+cdrNCRX1RWYYSTfwZQAGX3WQvTbjELers0hLx8N42CdVGeZqchx1ZXatT2TFGDKA5D4Ts0Ss1+0hh0wTgWr4laiPPQo6wh/qO2R0Tw2Fm1nrm2ua0rc9unLzMO8TJjfgs+6V0B5EpMFsMnMjkmfBxHCXVPGHVS7gAGwAVwHnGUAGCGAJeSmnOLwGJ/lO5w6+gKWCfkuKywbskT9yJjEaeAIjdRnUcu6D+QCrG+d6/B+2aFuV4fodFos7Amf1FSCf8mRhnDABYpjcH5gcjj8MFDUNHq6Fl1F1mQpFVq4NZbL5zxtwVFSEgdYNPTc+3cDDR/Vq3htCGVua0tvdZkElwJUB+X+dGwBitKsKArB8FAcADZBNsQASpfIcWLtRBwggePJYDC/ZGxmP86lf+T6KrTIDsNTRAIhBVJM0r/dLSvdyDl+XNIDDJ+4m+7i4PS1gN7YEhItZrAE6m3mnOtdMuhTtdUnOrfwAfbRBD7lPtTQngv6fkzjqFT+MmAmDAG2mHO2B3E+RH7mRHPLRDxt5Xic1PsgcJrpnhoJaMYit9v9QUIB1FHAIx8oXDz+H5VhTGgOUGEEMSMxiRe8Yl2WIj3JQM46M1tVRRAUyYgbopCslHwDWgKyRtR0ksBJBmkE1Ji8PUqaeRjYQd4SGqD3iNzgtK3WPysinK1UeFdDs5lwpTuR6Zfh+nAWZ1GOZWf5R1ssq8WMALi9qxt8MmrIw0Ur613gom1jk+Bo7xnvSpKfdbT/K4jqiqENF98xQuNaMVPzOAeUPyw60LJU1oPOgYMvzrINS5Wwc9rMcacr1KZB4JaHKyKjoPIEFCsAcNBlszUAEOhtJBWIaFTkuZ5AH0CzJDFJIcfLVUn9IiFEJoI5XR3EIAZUC3mQ18A6MysKIeBCUpSD9bUQfyfNHyWNZlUZ1uC+ioX8z9LFdh1xD88ghL8HMkuiJJ7zzBDGfw0f3zlC44FKynw7WbMDVN7AISEuM7N5IV96qSZiSAq8UqK8K7Kb4WqLyGdwUq2kYVOPDGZg13HjHCTFxVd6YQ2qDjdNU2AbJ7OC0GEtmrjYS48hJffIchpzrr5TDtQHBj7HUo2qnWx5hZoOkN7K02hFktwGANK4p/fdverjnE2ZltRkqxpp9mbIkutWPO1jT4aF7aChVyVICig5YrDUrFI2gXG/c20jvES6jn9n4oFQ51tRz83Nlbm52UDLy8YnnvwazDqdM1uMGKtIq8LJHqACVb2AaKABdjiUMfCrFyG7g1PaTaLDp47LIoRKB3nueWg6eGOqoftIRIZbqU3d8deFAu+KosxqK+/ODLpXHixyF+KOCVje8ys93KO1r16/W5/K0n5lmnPvw0D0zFBTASMsNR/YqxFECoPfJV1MKA2EbAWsYLQK8jKoA7YhBC1mGgUjZKN3xmkbY5aqMrN8rkFVvDhNyIEC7yB8nZNCQVr/LcyIkH2PCKKGWH5KBE6SP8tw2gIhTHCBTDey+eYpcyfLv5h1W2+RiuJYQ8EoociBfP30yc7h7Q5+h9EsyMRg3a5SX73r9bSTMaMlobY0jP4PNYaN7ZCiMTQACQ9k2KKNoqUDKRVkAJCNnSkQ5KC2jnRUqhxzDTWlepoyN3nwBwrCIE9DZCDI7eKQlvTpkADSDIsWVLlQhojaE9MwBIdpDAfIbGFMyZQxw9wW2GKoHA8JUBE+V3/hdtroEavsU4QPRdze0koPVtT64MHGDXwNGNeKAX06f8Oa6kt8GmVy3hFt7EWlDPIR073otxXMEzGjsDapcUwrkTfAAkBD5aN5YqsNxlgWKy7V/Qe1TMvkua4cXWZFf5TZXyTwwE27froZYBUttX/MHOZVIDZ9L6EtAdCrUZBAcpaY22pQQ1HIjnwBhJzgdOTE0R+VVY9X14Hq2cm6n65OzcZF8MN9iWhkI3krYhfeL8Dmj8hwyumeGgrIYfXd4LKKOotGPvscVJ4PgpmJ0GL/NBI0OKLnSeJqBM1YGYCSAS30HYGu+xpt0L2PGADOMsi6fdEZbRm/f7/DIO5Jpqm1C8ltyKinHmTU3TQizHGVHfa+ZLShHcjMSs4zJIa3VycAyfg35toEx+6Wgy7aW0qfM4E3C4aN7ZCjZH/Ag5Nb2hpSjZRDKJcfKHSkYMjSb0n8IGQjiyQsaAtwABldnFxHLoybPy7i61Bhfz4+INHuDYTihulYueZLly5m08NInobLeQazdEZFHXF/wV1mQecJuank4L+EEaPID9vSrpTWXrtZ26RMe+l0zyVd5XxPaQVKTDeE5MS208XPD1PuTw0n3bEaxoWh/wrNeGEoApQw7NBWoMIh5Xc8oXQ0A18IosxkBp1rD3W/ykAqilN3KBThw13h1byVzIl4f8vGbwTWAWnCt30AjTzw496eV0Yd++PTO/Wj10TB5ctSV9lVSIAaoYDU85PBhUPF+SHXCpxpJVaFmegTdySqzymUWcWJ1pFNBIwVtTFWWk1ye6ylX794fRroHhiJlScmcEuUeyl59H1dGwIyC6JT7HYz4jNRKQfH6Q3GDkZDsLGQ2EChBveLxr6O8SEIgI8e5yuNRDsoF7BiRctpIKooBpJ7MEmlPAIWRxXBaPsBPnsrqkxukkp1C+sspEZhGNNKyRKOcWQanbiUsOW2scD3050i9/2OjSTrXAR6oXQP6xf4MprYUzCY9j8xQf+OjvcjDyGgzDaTaLL8g+JCrfPF7P0lHDiHpSr/dhKLyO+y88A70oHyQbahFiUr2ckyKMvCsPECavQ2/WMSIWBIABj8kCQdlK/ANCh5rcRUBFmBrs46BY0BRP9zhy8hfnYDummv9ocgcACefj9PrvZeRMaRvyHLfyaSOoQ21bldeHV/2EyRTvTVoh/rGXJMxKjQKtRmNBK6neW1wqTs8yuMQhABU5cGnjvgVRuiKFUAMpfIdIroHhhLivwBvan/CjCKVoJvR9beSaJoSsB+UitLQmxWsLBQm4NTlv9MpjiI5+m33IDKappseOQGaHEDwkg5jQbakUJ5Q6k+bDDLX4RwRXGYZ2mVQkeB05NblH3muI3Kon5BZW/labqgh4uWrPXRxX0H5GL8Hjdovo3uMiCGqyaOM779gHM7LHocjec84lFdGm1Uzc0QI7ae1lEEc14v3evF+aAa4t1R9KOieGApKYCPPf3La3t1STMpqJIDkQxhdoiwcTY1PHADkCDig1xclrHzIo6P+/JKHCmbiPj5WnuNibjrP6AxLFSAKT/zmhgogBWMsRAJkJ9dyA0ixFOUzM8ZlT8bv6ZtM6gb/cRW41akAxakBsZab2XY0uyCA3KFuPqSLSBt4mGGRJzZeS+SA2RJuH7O7bo7c98rW1lZZ21g/tL9yvCeGgmKYxvlPTlv8TxRGtTY14ESeGQBCBYuVxp98lkqQUqPjClSSh3W5IgaNNT5KhwxcZ6k8wDXgRsZKuRhkNUqljUDn74h1WtK5d4MRksZafp/fm/DkM+0Wv8EnHm528kQ0NDOn/UttI6LUDPOPO9dBc1Nx9TU7eGaBZ9TuyEl7oFoiLURGHTBwficyj957g65+hiVlJIO+S7xmIAa1vbIuPa3yrznq2zwPG90TQ0G5vMeLnwHz8mcrRh/2AyiOV+3w/+AbSHAN0CiZ0xf4yAZ4/Add32QUADEk83hZk71Q5Chih8cjLwKs5AEEgMRSb/zOdPzwMnIDSgwhj/2zHlIpCuLZBaS0Y3cnvwjkNzEGdAU1fHWXH0PW1edVS9YC8eoOELJV1gaBjzHKh480ywW3LNUqL2XoN4/H+8FRJXC0OzKM8PhaqJ8cFOT/y+QmL03gR3QYk/uvCvjfNTdXb5Tb66tVJoQQ3P1Pb7uhoIiNzdvl+o0refsKv3GQomIMAQQKwxlIUtTgYAJkdQ8AwZ9yAT4Kt+FUwEDIAjh+nF9AgyLT1VKxjSEGEWdDEq/LKUwafCZAqagNx+ViBDGmgAj5GBuNyFMGGDnpzeVBTr/OCAPlgE78bbYcUepEVJOfPsPPA6MMGBiQ6qDtCre9CTztmjZwc91mZ+dcJ1XFpz/i48kGXSPKMMNnsEl7mPkvXblYzl84m9ffVnlirP79TW+7obA+Z2R689K5cunqRW/qgYKwJz/KJQFlWUlSmJXdXAUBeVbwkOZilRfwAnb5UiR5rRw0GFGiJvJaPsrPqVDKOYWmAOQKfj4GoOoIT0ZiKoscIpSjTF32KWm8HvjbG+zteOxdfgPnAVKa6wPQ7kvqhIhjHK1frlMzR1s64rgSw0fXtLWL+nGWY8Ovg4LakXaKX3XxgsJr16+U186+Uq5eu6w4/y8l9R8GetsNhU38lWuXPDJx4VkeQFaKHTGAEjckEZNyB6BZ0VE2Yef7O0QZ8xKq+ZD5SUXGQAJTLd3kJz/1tyXLCPBKt9xR2xpRlcFZPzA1wEIj2cqp7acf3j/IUJhFBxIbrLEJyoxVGNExGgHWfMkRSa7rTIw82tLaUBM8m7hfNqp6bQ3+cUmpiJns9u3V8sr3Xyqvvv5KuXHzunS3G6ZDQG+7oaxvrHk2efPSeW/mrWQy9DWuHhQ9aFpk8AlM6K0BjaUH+xmA7JE+Oj3oRCxnYiBKQg4Z1NfQVSsG0BRKehKRe9BIzOKmISt7DfkVdOZ12wex8hWiXL4G+S5PWWRUWdzDgSucaYZnEUQov5F7obhnFiWTFfOlVpyTc30NfnhSnzPE04xzpv5vFpeEn4B82MxDGRH/UOi1s6+V5198rrx58bz2mJvpyyGgoOdto7vl1q3rusjnyjXtUfa07IrOpOK6kiCOXniVadbrSlQmCmkAY1mFIsnHSGwoAqh5lJcDtAApKg41oMGX5Vn4Wb+3I+O2FGqgQnYDQ/MtxvnilaFyt5/3Dc/Na+aR458Nwen2UIb2yHjgx0/91Jc2uS581Zf9ivi4CLXxjT/xyEtk1E78XCpnWjb5xEeHCcgIb7vhmHqzBKRIm6Es3zIy0BDmf8Vcvny5vPjdF8prr79eVldvmf8w0NtqKKyjb8hQrly/XG5v3C53tIlnvexlgvLbTULrE7BVA6FcNtdtg52wwa58gwQCKNVJ/UlSGF4IoI6Ak7L+4Ne4QVg9wMQM8VYKwCrQBNK2zs97hgEiXBFEnZlpwkOeq9GXl2Sk1TLYRgOuwUwf4AW4d/NCjDsaVNqPu1KDCF4E4JTia6M+QvTPhwmKI8d9rNcmpcVHW6qxkd2MklNIt8L6yey1tblVLl28WC5eeLPckqG0a3u/09tmKCiIG1er67e15Fr34/XWhpTHyZLvQ0hnfvMKhsFRL/qSkrhpyP9SXFiYL/Pz81aoR16BEMDOsdxhhJSyASpi2+Y2YK6jOEhTHuAxsAgZNw0k4TGYCAM4ysBpxhCgIZ0Tov1dOXxOjCoYIQAfI6GdlNClFsjxMZw2A/k/htXHcOiLvCy/aJ/KIc1Lryq7hdsJXpsZDHT3PbNIM5b0L2p2WfqnD6xpB//9ixk5PLXrkpHBiX5n1pXMXQ1Su9LhrVvlwoUL5fq1635e7zDQ22co+rBxz72TTYOQJZKufxSPMgy2puCAmU8EoD354EdK9V4AVNVTsYzaGgEBnFwbwYeiduFtZOlgq8Z/IF+ZyHI7atjLIrcLQmj1VM43GGXojXguDfkuB5Cpi4LiBegMEMTZI+Q3/fCNjN685tc1Er+NUM4Go2s0pMEm5rc690V/ipmnNdcGyfXjGnkWzAmZvnINpIvW77tyzDDoxe8flmFsbe9ov7Llgxm1JLLvc3rbDAUN+WL73VC8ZxiVKfkOyiGvGguKJ4vEBOIMGvy79QUSuasdLIwMpT3QSJj9hViqLHyCAq8+GZ3riDtG44BpswmAacAx6BBqL4AGeH4JhuqExz/cgp+Py8qHz4ZAgxjdma32/U9OZ+fEL3dE5f0aITbYgFiOvZr75BnJ1doRTn9yE3Zw5NM2fdKHGJZJ6Vkyxvk+DHW29qogvJ6t1HexpL368wxaddT+pbb/93yTfZ/T22colaJQqmX5gqLl5GcWkXL4oGnIOtAXugK/gE2OpQI8AbqAX5Xs9T0AkIvhAIbaRfF5tNSIn/plnIrbOGmDUyoRkfOorUxkBEhpd+sDbSGdGQHjZVnIEtH/SGh2Tun8620aHrC5jYBS7WqGM7cQfo/sktPSZ5EpQ5+XPC/R4KltaHUj9mDDRbUe99WO/smR5QJcinSY6zWaySKPPL9DTMbCpeNff8/SR/c1jkOYW7duaDO/2pdeP2pCSXMCzvz8ohQ04yVKZo+MeFJTAC6loLycZAEcgIEGJQTlKs77fW1dKpuNZ4DhenBWaMo1kFM2+58YCr8T8eiqD0VpCzMey8M2Sh+QobZ4hBegmzs4g+FY8+cUDnDPywjwzVtl0UC30WCfsXHZUCgrl7rEz0larWdes80czvHUJQHuu9uOQfs65PrQf22HqsFl/5PRQH30/5fJs2jEZ+YkTzJ1JeUig2Z6VmQz7/7nFJI2UDcrAgzlxo3r2twfjiPit81QUAIzAP86ID8AQslxQQ56G6WR1AzHgBRIMBrKMTpaNWLyKCdlotDIqnHy2zc8Bk0AGIBlNnIZnHibDNqJM27k0g5AUoGMkWkDbvnUR5rkt/sRjL4BvdrMJdbyEnekbub5f/Q2VlXAa5jmFmJYlM/gkHardW6HDVzGQF0zR1OvmyxZHnDk2lPBWb5i6LCrPlWft0KiajqEUe2VHe03tqULeGkzxpk2S3YdNGzYEG2lPPL04fpdvXK1nD37erly5XKu1X1Ob5uhcIE5vVpYXDToTdLbAFaRAQKmBGI2jn4ptEd3ZoEU8GmSFAeI4AUA2fvwX2uzfMOUvNywAivwbRiAn5Oc/E6lzQhNNkQ7TYk65ueoqE68/u14LQfAGLHbqJ3RN74ltbj71RxeBW5NY0bh5X1+kTZhLbfmF7SM02zD8g0ehg7awMRwVMYyP7cQN7ugHF3PwRhVn9Sq1tmR53Brl0FP/XLEJZQ8+uDBSPkYAg90YkjMwL4O4vW19/5pxg+zfv+175cXXnzBj+A3Hd6v9LYZCsSoNTejdbsUZwMBjWqBR7zZKCGgykXnm/ss5pNDryrssEFf07MxJq2WQ7Zcu89iNvIxpGpM+rLyDR4TfJE3BGkpRtAMA0AR1sifZVEFF20WbxtZKZtTKc0GrPe13GEDDKC2NrfL9hb/KjyzKoSchaXFsnxsuRw/cbysnFopJ06fKCfOVPfgA+WBB0+U4yePl2Mr8BwrJ0+dLI8++mh5+NFHysqJE2VxaaksLCyWBS1tF+aXbERzMzK2mRjT/KyM7qj2QzKyWXzpIUtgWhDwx2AZCFheqR/1WmUG1vVSPz1ryqlX5ey518vXvv6V8sorLw99v1/pyNNPP3334x//eI3+zZEutUf+Z7/91fL5Z/64vPbGqzYC0M+TqfwL7Y2NDd/95aJ7xKtKIWxAV/CSjywDTQr0ckwKZ9mBchv0SYePNBtS9W0gyNTHBkU58acemqQ65QDPwuLCMIp6FqhybUz6kEY5p/s0TzPcnur1UXFOj3wUrvSVEw+UlZUTAvSC+SmX/QszrGQIa7Sk1dMMng81DGBVW44tHyunTz4o+fvl2o1rfryE/Oy7YIafcSh9JZEHHjnSXVtbLeub61p+jf7TL5t3Cqn4wM9+aLzP3AfDyDdvb5UNub3tO+Xdjz5R/r1/9z8s//knfqWckME2/vuN/oYNBZUBQSiAvHDpzXL2jdf8BLEgJOXtlYuXLpZXv/9yuXT5UllfW/MIxrqd32rs7EohdQlmOAtMKBVZTTZreBsCyADElYhy1GmwiZ91PuWsTFlE0pNHWz2jKT3glxMg57UkAtCAEwC5Hs4SACClbFnUpcrkjq+saNO96D2D/5Muj+nLLS4ulQ9+4MfLj73vA+X06TMGJHV4fyC53rNYjpsSon1vcTYUGdbS0nI59cBp9+fmLW2qOapVPoaSommPB4Xq4F3fWC+vvvZyOXv+dZW74VMr7m1haBgd8t022W7aVQcTnIzK/OvbNpTN1S1teWbVpw+W/+7X/vvy4Q9/uCzLgO9H+hs0FLQ9Au2fRyiOfydw7fq1cu7cOflXywanKPrMaCl29frl8p3nv1XekFI3t9alOSlbYN/VMoZ7D7PzLAFkTP63aVKyPyJXG8RRR0Cm+qRowMvyCaAD+hxLK7MBSh8A4uWW9iPhBaABoMXK5Zg3iMYAMQhO9X7xo79cfuJDH/bMQaXUj2MWefI97y3vfvw95QR594j43fu5N98oly5d8I+w1jZul69/S8unV1/yca8HEy+39gT6JS3FtDyznvL4EKdlLB+3ZCzMLJtr21rmLZdP/Ge/Un7lV36lPK7+cR3vN3rbll4/jAApyyMMZlhOGZrFj3Wfe/NcuaGlBUsGrAC+r379T8uLLz2vWek6+C4zMhiDHSzLZ5ZAuRkNY5AIdJjZSPV4icTsoDSZRYAvYxiMDd8jqoQqwUbkmUZhnNLe/a4nyt/60E8ZHAvzWqIp471P/Vh59JFHy5JmEOOFepGmCJt0jMkz2j0iZuZdGXX2SHm7Cr8x+eTv/UZ57sVvl1u3Vr385f/+r2gvxL2c7B0pm0EJQ9ndlL+BsWyXvZ275akn3ld+9Vf/2/Kxj33Mg8T9Ziz33FD+IuLka9uPSmTpBbHOfu31V8ubF98s6+trmm3Olt/+vd80KDnJ4lCA2Sggj8uNQ80c2IscR9QYh+MYilDARpeZJKimJn1ZJjNHXcII4KzDP6Clxkf+1t8uD556qDz2rneX06dO2wDgYUmE0bBUeycQ12VD+5V/+clfL5//8mfLufNv5MBBRnDmwTM5fRQPx9jexLPP2d7Nz523pJ81zSrru2XuyHz5L/7L/1r7lX+/PPnkU74W9xPNfOITn/i1J554okani1iLzwt0S0tLZVkAjNMm9tSZ8u7H3lPe++SPlccefawszC3Kf7fP9NfX1qVMDIJZhRkkxuHj07syJB+Zsh+QAeCOcrSLMWTz7n0DG2w7wiojzD/44IPlIz/50+XjH/u75ed/5hfKR3/2Y1pKPVUefuiR8sCJk95c0z5mjXs5Y/xVCUDPzc3bANbWb3uvwsy4tLBU/s5Pf1TX+H3l4QcfLSdPnPIgwOiRfRfLWO1ZdnIDc3t7r3zoQz9ePvjBD+laPXTfGcpUzyiTEEq7vXa7XL5yqXzq9/9NeePc2bKm+JWrl8p1bVa97BJpPmCCsAIxClL4YwLhC71imByRrhw/bgN45OFHPKPI5GSIj5ef/cjPlx//wIcLj6cwa9w/dNc/ovvWc8+W773ygjb5t3y0/Qs/94teRvEDrRvcib91zb+bf+ON18tZXecrlzQwrW5qmj/qAew//o/+UfmH/+Aflve97/3vmBl1UnrHG8pbieXYd196oXz+mc+Vr//Z1/zgHi+c4GQrp1ul3gWftYGwQWXtzRoc5TJ7PfHup8ov/vwvl1/+xb8vACy5zP1P2ivWa8Rmnr3I4gJLyDxXB3HyxcD0/ddeLV/+yjPlhRef06C05tO39z71vvKzP/tz5X3yV1ZW+owy7QTo2wEBywnPGI1a5C/QIVm+A6/Z5X4bFf8q5MHjh4CdWXp7u745cn/PsytG5be76Lrdb0YC3XeG0untIQwpy1oMij0fByfJ+wtHoncovXN2nZ2mijAMZtz268zMIs3df9QNpVOnCagbSqdOE1A3lE6dJqBuKJ06TUDdUDp1moC6oXTqNAF1Q+nUaQLqhtKp0wTUDaVTpwmoG0qnThNQN5ROnSagbiidOk1A3VA6dZqAuqF06jQBdUPp1GkC6obSqdME1A2lU6cJqBtKp04TUDeUTp0moG4onTpNQN1QOnWagLqhdOo0AXVD6dRpAuqG0qnTBNQNpVOnCagbSqdOE1A3lE6dJqBuKJ06TUDdUDp1moC6oXTqNAF1Q+nUaQLqhtKp0wTUDaVTpwmoG0qnThNQN5ROnSagbiidOk1A3VA6dZqAuqF06jQBdUPp1GkC6obSqdME1A2lU6cJqBtKp04TUDeUTp0moG4onTpNQN1QOnWagLqhdOo0AXVD6dRpAuqG0qnTBNQNpVOnCagbSqdOE1A3lE6dJqBuKJ06TUDdUDp1moC6oXTqNAF1Q+nUaQLqhtKp0wTUDaVTpwmoG0qnTn8plfL/AUmcPbNH5ruBAAAAAElFTkSuQmCC;strokeWidth=2;" parent="1" vertex="1">
                    <mxGeometry x="970.9999999999999" y="-380" width="182.98" height="250" as="geometry"/>
                </mxCell>
                <mxCell id="5" value="" style="shape=image;verticalLabelPosition=bottom;labelBackgroundColor=default;verticalAlign=top;aspect=fixed;imageAspect=0;image=data:image/png,iVBORw0KGgoAAAANSUhEUgAAAM4AAAEeCAYAAADCVipfAAAAAXNSR0IArs4c6QAAAARnQU1BAACxjwv8YQUAAAAJcEhZcwAAED0AABA9AUORddcAABvFSURBVHhe7Z1rjF1XdceXPU+Pxx7P2HHiRxInTuKEJARCXogASQmPFtIiFWjVqoiqoi2fWrVfqhZU1H6vqgq1gFoepWqBFvoUECLCIxRCICEpEEPiOLEd2+P32B7b4/HY7v93H+Z6MuOZe+69557H/yctz7lnxvdx7v6ftfbaa++9JCLOy3LPtbIxWV/l0ctZJrtcdoWMD90Me2T7ZacqjxbmgGxcNll5ZIpI7oXTI1svu122TjaXcBDNRtktMv62WeG8JEMI+2rHM7JLXTT+7qeyZ2VTnDCFI/fC6Zf9guwm2UpZoygQ0SoZXgaPdKNsQNYsp2VnZHtlT8jwPIhjWjYX/O0O2Q9k22RnZYVw6+YCuRYOb3657G0yhDEkq7NURmiGqK6qPcY7tcI5Gd4GPivbJUMUc8HfIq7PyY7L5vs7k09oT7llVPZ62WYZ4VgdBIKnebvsallv7VyrcLHwYtiDMrzcfBeQ87zufH0uk29yKxyEMChbIaNx1kM0junH/LLsMhmNtzF8axWeCxuR3SF7pWy+8I+/Qbz8bOd7MN0nt8KhP0MIRjjW+CHoz7xWxu86ebfnNUlGkHCg74THmy0O+l+8jzW1Y1Mccisc+jY03NWyxg/BYxpyGiDMDbJbZWTt5goHERPvh9DRFIfcCmcuaMid9DJzQZiG15vP6/CYVDnhY9rvzXSOQgmHBkwDTRv6UQy+4gHpd83FlbK11UNTAAolHBrnpuphqtB/oW91p+waGWHkbK6X8f5MMSiUcGjASQY4W4VwjNemv4PXaxxPqsM5hEN63OSfQgmnmyAewrS6eBrHlYALTahmr1MMLJw2Q8hWD8saU9AIizEn+kGML81OIph8YeG0GUKyLbJXyRBR4wUmjMQjvVrmC59v/P11ADwNZUDUyeFl6hcZL0NKmuSBPU6+sXA6BClqPM67ZFQONIqHY1/4fOPvr0MgEDwP40r3yRARcI7kwW2yudLWJh9YOB0GAVFVgHAQDZ6I8hvS0t1InZv2YOGkBNk0QrY61LXR3/EXkE/8vaUE0w+YbAdcdJIGFKTOV6Jjso2F0wXwNnggMm/M1TH5w8LpAvR7HKrlG39vxiTAwukiwzJCNfdz8oeF00VIUTO1mkVHTL4olHBY5ypPa11R10Z2zeM5+aNQwnlK9v3qoTEdpVDCYa3mo9XDzMEChV7NszjkVjj1VTUbV8jMcuN8Tsa607MhLU0Zjjub+SK33xfrNx+U4WEQTB3ExFrPWYNF2FlPejasD0cpjgs+80VuhXNExl189vrNhGtsy5EXqJ6+TtZYx2ayT+EihJ2yb1QPjekYhRNOve+TFehzbZexY4EpDoXsk9LHobGyT00W+LHscPXQFIRCCofEwdOyLOyGhsdhN7eTlUdzw1JSrARK6Y3XIsgHhfU4L8jIus23a1qWoOSGFUipIrBw8kEhhcNdHm/zQ9khTmQcSm9YrJCiz7l2PDDZo7DCIUWNx8nimM5c4HXeICNkY0DUZJtCCgcQD2M9/ycjRd0NqBT449rPxkHauWBSG2M5/HS4ln1yLZwTsp/J9svm6stw7oDsWOVReiBa3tffyz4vQ8CcuxSIhSTBXTLWIrB4sk2uhUP27HkZ/Zi5xm5orIiL3Z8R0EJ3/XZACvxZ2Rdkn5Lx2osdVyJEY1EPPI/DtWxT2FCtzoRsq4z0NMed3DYdgVACxBbt/yirh4icX8jjNIJwyLCZ7FJ44QCDjz+RPSFjPKUTnofnxPN9WvbPMrwOIBhev5kxJVb+TGsfU5OMUggHKP7E8zDRbb7QLin0pah8/qjsi7XjOgjna7JmC0/JrrnwM7uURjiEaNSL4XkogaHP06p4SHVvk31Jhpf5NxmlPrNT4CQnmh2IZfHCO2RsjUgFtfs82YLxtg9XD/MJDeoGGXdoUrmXgrs/IRNJhXoWK+mWG0zT/pEMb4KXeUxGJm2+cSMW5mDN6MWuaMPf0c/B+Gy8Z567k300s3hyLxw+AKv/07hY9GIxIqCfU68dY7R+MZPI6KfQ2SfkIlNG5/9hGVMYEA0p8Uv1nRAtwlls+MXnQDz8fX0VHJ6f58EsoO7C98P3kFuINVlOllF3dgBoZo0yGvIrZPfI8ESXuhCIA6EgEMDTNFPOgzd8rexeWeMWh4uFMJPwkqwdfSgKR/FAdTGZdMm9cADx/KIMETQzBZkPj8dhT86HZJfKfOFt6M8wLgSM1zRz4XiP9W0Mb+dEk/BaGK/PgCoi+oGMsqKsTJ8oE4UQDvySDOEghGagQRP2fEJG5m0+6NwjrFZCJNYXuFX25sqjZOBhSGrgbfA6j8r2yiyedClNVm0+aIg0uvq4CXfzuYw7fav9Cjr41K2R1btUf+hS8IUR6nGDYBVQwsyNstJ/kSnj6y3of9wi6/RoPZ6CxMKTMkqFmhkUnQ2hAskQMoqEfvTvTHpYODUQT6cvBjExYqGD/x3Z7trjVmJl0vGEf3fKyC56Pk86WDhdgNCQGarfkyGidvRPCDXfLqMfZfF0HguniyAewjaqDZqtLJgNXyQe51dkDLYuNBhsWqMwWbXXySjJJ7Xc7N2AC0DHnbkzL3IiRZg2zXoDeAwGcRcERdC5mWMwaECua+Xxav/pScVwL+lvp8hCzFfOYBJTGOFwl2WAkZR0s3fbbgoHyJAxeW3BMSjEQhlBfYGCBpboQ4ycjLjppWq/aVyKPDGoz0ZGojaT74UTEUckrjNJU3rmAoURDlCOT3q2meoB6LZwKj18vEi9kpN6IDoqfDuogGMK60j7cYegVAJX1QDCGdbfXrev+qc36fm2yFaTQ5dgzuv3X9PvEM8OPf8+eaFzhfnm08fCEV0VDqJgP0O8SF0MDPbQ+vkd+WuOEQs1QvT+Z4mmEcJUxnf+QPZOWT1NzWf81gGJRsL5hn4+NB6xF1GaRPDV5LrIsxH6CgwG1m/czUBEw5QDZommCmKgdTN/APHQ0UEo9PSp8CQkw8tcKUM0C8ShfKEs4v5+2c2cqMEdcpNiwdv0etfqOWekpMfysHZWRnFWTZAOflSW2jK1XHX6KnTIMLxJY2efDg9hGaJhMg4ZDxSxAGiKerjflXETmY/r9bzv0x98SK894BaQCHscQdKJ6QHstdPxuJU3h+e4XoYn4Zj+TWMD5hjDTfAN1Y8XAO0hHMI0fs6ntV4930qpbKM823rZjXoPx+VyDzr7tmgav67SgljaUYu2ILRk+jNM70Q0eBRae5u+BbSF1yHamyNbfRHL9F7wPL+lMPF3FCb+qu44r0DEZlGUXjgkBRiI7LhoaNU0TPoq9N7xMovwIouFpyL6YzyLp14MeJ518ji3SMzvkXAQD/0gszClDtXwNJS8fFbWjrKXeaFV0+Gn106I1oHbFZ6GcazPyHipZliq97d2sCoi3upTillJHnQ8bM0xpfY49XktHYdWTVkDmbMOgVhI0LUCodt7dff5wOaI1Yr1etroEYtGqYVDjdj/yjp2Z+Xq0o95jYxU83y99TbwVtmfVw8Tg1CuHIr4bYnnLeqDIR4zN4USDjM459sy8Kw+6XHdlvcrnt9Xs3E9PtSJuyoeBsEwDkMRGqJZbMcjIbzEluphS5CeRjyv1PUhfOsv9a11fgrVxwHaK8MigFiOSRwI5rA6vbvUkJ/TL/eMVW23GvOEOjfnWi1NboS7NOMwZM0wxmEQUgfDHsZK75exYEk7WKL3il6O6toc1rUhVe3ynIvh6yzGJaHB6jZwsz7RW6pn4pTO7ZBYjuoOyvE+dQL2ys7XGzEDN6TU2Pe9FXg+bkEIhI4GGQpE02ztT0IelH1A9rbKo/bx7YMRH1c8+z97qjcY83OKIRxuj7iZlbr7qgGTuOKTnZRH2a4YZuJSKVaWi3lU1ko+ui4YRvjxNhynJBr4K9nvyUgQtJuPbIv462d1HRnoMhfIf6iGaBgmZ1BRYdGUPMy+WihGP+aUxHPBw8wFv+M5KFJLUm6PaBALasXTUCrT4dBsNiQGWC6Xl203fIxj8jbPHKumqE0Vmkw+4fZK/+EmGWle7vISyVm1nqmaTfdKCws1YDrtNHhuIc3CgBFeBtGSCKiFi2mKptNs0Y3g9lEnCWaTv8tRF8xmGYJhFL5eY5KkwdLQec5m/y9XjlQWr18XTRcEwxpt3Duarc9bLNS0jeqzMUhqfk4+hMOXRsNEMJSsIBrKBGi4pNGIUdL+Ynlt3gNJALxWl2CBDgqsOyUcoBD0ddwczAXyIRxEQ86VBcRoJTRavEQnW8t8cMWoOWN8BtEg2i7CpaBb1cn7xmsUqv2p3NrN+tyDSULaApIP4dCPuFuGWGio3XzXvAcGTbgDl6QRMSh6t8Lhxx+IuM5FoBWyLxzCMuq8uhFj85p0/NligM4ExnE3QsMMQEkOfR4nCvIgHPoP3bzL8frEQmTtMMK0EoqGj9yrf/7ohoj7FAGs6EaYnCGyLRwaLf0bMy/s10N9XhpDLGTW3qp+3a9fpSCAm0iJybZwGFjkDm/m5dsyqrw7PhGvxnJ5mnvVv7t1pHaipGRbOKSfEY+ZFzbs/aEszVIyPA/9nDIv9FHij26SMtJX9TivYq52SbFwTNMgHNZnu8PCyRikcBhcJJtmaWcOsmsr1ddBQGUl28KhnIbjbsCVqS8KmPHU649kbI+YJsO6JpuGqktKlXFtguzez/E2aQ008hpk7xoFwmvX59dkPCX+JdlXqoepsWZAodpYxJvWVj1Q2XAgBIiEfdTrKVYaQr1qGtFk/CqxLjvjOWlCVm2VrhvrEjDVumxYOHUYbK1fDQTDHB3KfTwAa+bAwgHumHgddqFlKUx2oqVGDdHk5G7KeiNpz26uj+cMyso2X4eAJFtTp/kCaLDc8dkHJq0KZF6X1yMhQP8KD5QjKLlB+0yhTgsuGYmBPVMKF2WVbRNLQvY8Dt8+c29Y7ML+cNGQWfv36mFqUCnNeM5dY7rf8L2ViOw1TbwNMytJA3vSVFOwpC8Fn97is/P4nl4QEMtBGfv8eJubzmPhFASEs1P2cRlLAZvOYuEUCDzNuCytKQZlJnvCIVBnU1dagYN1k1GyJxwmlrBdOXv9WzhNweXisv1M5nCts2RPOMQZpIYQkJdcbQou2W4Z/ZwXOZECNCAKPtlTtEw1a+7jFAg8DnuaIho8TxowlZo1CN6xvrqvTlmwcAoGXcSfyD4m+y4nOgylNuzcNtpXLb8pCxZOwSC6PSZ7Xsa4TqchOiNEo/SmRJGahVNUEJC7iJ3Dwiko9R2127lLo/k5Fk5BYZfGXTImuZn2Y+EUlG2yh2WPVx6ZdmPhFJT6xLapyiPTbiycAnNYxvK4FGKY9mLhFJi9sqdkWyuPTDuxcArMERlVBJThdBoWJ2QWaFkGQS0c0xYeXBfx5ssjNrBCUAmwcExbuHywukhhWfYItXBMW+hTS6L0pizLRFk4BYcVPr8je0bWybUIZs5HnJWdK0mdj4VTcEgMfFX2pIwpB51i22TEiyciJqn1KQEWjmkL/yGFPjQesSutiUBdxsIxJgEWTgmg7Ib9cyj4dLV0e7BwSgAT274se06W9sLsRcXCKQF1j0OGzR6nPVg4xiTAwikRLB/F6lueUt06Fk5JQCz/IGMwlD6PaQ0Lp0QwvYCpBu7ntI6FUyLIqFF241CtdSwcYxJg4ZQMkgPeBqR1LJySwToEEzJvBNEaFk7J+LSMTXY7WSldBiyckkH1APt22eO0hoVjTAIsHGMSYOGUEMZyXCXdGhZOCfmW7F+qhyYhFk4JYVlc1iAwybFwSgjLArANiElO9oTTJ1srG5RZ1iajZK9pDsg2y1bISrIqpMkf2bynI5gy7cRqcoeDIWMSkC3h4Gno2/TK7HFyxWUKscf6FWmX5FacrY85JCMxwE/7wlxx91jEq0erOxaUgWw1Ty66Ln6wx4o9TkehcuAFWbuKPW8ZidiyImKVvE4Z8H29pLAv6BdkrHxjmsfCKSlUD3xS5oU7kmHhlBQW7PCcnORYOMYkIDvCISGgDmYlo2ZMxsmOcCixWVP7aUzGyY5wGPykwNP1aSYHuI9jTAIsHNM2hnsjVsrYtr3oWDimbdyzOuL+tRGrS1B2kw3huH9TCG5cEXHbSNXrFJ1sCIcUNNk0UtImNWZkLE7ospvmyYZwnIpOHSoHjsv+S8Z60qY53McpKQiHBTs+JRvnhGkKC6fEsN3HERkhWzt4eiLiMbmviRLEfhaOaRtbj0U8JfEctXCMWTwHpyP2n46YLkHZtYVjTAIsHGMSYOGYyjiOJ7U1h4VTYsiqHZSRkn6KE2bRWDglhrEcVrv5rmwXJ8yi6b5weAfUNlnCJkd0t7lSfs7KnZTalGQhO1MMui8cRHOFbJgTxuSDbIRqTCfwyp0mR7hnYUwCLBxjEmDhmJiS7ZdRKW0Wh4VjYqfsi7JHKo/MYrBwTGXhdWaBHqs8Mouhu8JxJi0TUEFA+Q2WlC/ujvjKeMQu9oIvAd0TDino5bINMg9+5p5nj0dsn5TXKsnKH90TDq9cFw7VA8bkCPdxjEmAhWNMAiwcYxJg4RiTAAvHmARYOMYkwMIxJgEWjjEJsHCMSYCFY1rm3PmI81jtcRmwcExLsE7000cjth4vx2LrdSwc0xInz0Z8aW/ENw9EjDMjriRYOMYkoDvCYR4OUwlWySxdk0O602x5VdZRu1rmnaZNDumex+mXsRihZ4GaHOJAyZgEdEc4LLKOxzEmp6QvHEKzNbJNlUfG5JL0hXON7AbZysojY3JJ+sIZkZGGdjbN5Jj0hXNI5rVWMwWR892yWyuPzGJIXzjsmbenemiywTrZW2SIp1nosvbqnx5ZmUYW0heOKRRLpZbV/RGjfRH9JQq/LRzTEsO9Eb9xdcSD6yOuWlY7WQIsHNMShGdD8jSDMsK1smDhGJMAC6fE4CAo4KDWllECs3gsnBKDcChSv1/GuLRZPN0Rznl9aef04udLFBS3Ea4a167nXNWWJJzsz5dPgfobZHidViC7hpXlGyWB+OHqYXr0zSyJDZPL4p7J0dg1cirOLi3TMg+ts+Zkf7xu51jct2N13L53VZzuOReHhs5Es/chhEPl03tk6znRAst7Iw5OR+w5FXF8pnaywHCpU221vOAtvSvi/v41sX5gMH66ZjJmGoRzfGAmvr9+IvYvP33R+bzz+h1jcfXRodqj1hie7omrJpbF2FR/xds8P3oyxldMhZzPgjy57mhsHz0Rp3vPxVo9/jPZu2WX88sWmJRY/vb5iE++EPGz47WTBSZ14SzVSz4Qa+LXdI8b6OmJk30zF33hJ/rOxo/XHovDy85cEM748FQ8sf5o5Tir9Oh2f+XRZbHpyLJYfoZ5Exdzx56RWDfZnh20enXBBmeWRt/ZaqR9StcMr7MYj/PMZcfjpZVTcUZ/v7Z/Jj501eFYp+vcV/t9K3xkW8THtkf8JNtfVVtIXTibY3m8NS6LN8bq2pmLOadb6LS+1LN6Z5U3pscv6I761c0HKr8HvNI+eSTE1S3oW2ySUFYrbAIa85aDK+LWfStiZOrlzXBQjZy/6TZc2zMSyhJd15XDp+Mdb3w2+uR92sGXxyM+IY/zkH7igYpM6sL5fXVD76+UFSZn29iJePTqw/HEuok42X82ptQYEFwncw2EROqGVwQzdqovhmZ64l3PrIs7dlPqnT8QzrCE88ADW6O3TcKBf90V8cEfRzw3WTtRUHKZjt58ZHm89+mN8Sffvi7uVSd5tRpyv+7oNO5O0XduaaVvcbX6Fn/5yI3xF49sidsVfplykmpWbXX0x52xKjZGa0VNOBbSscvO9MSmiaG4a/do9aSMc8sU/5+QJ0oKIdWw+ilrTvTHytO9Fbtzz6p450+viPt2rKkItVdCwgPllSV66/26RtdeezCWtjEJ88yxiEf2Rxyerp0oKHzzqYVq7471cW+MxRUd2J9958gp9XmmKwmFI+r7PNzQJ2qW4eneime5eT+jHFXoy9C5p1NeBByqtUaqwvlgXB83xnD0dThCJHnw+IaJ2qPmGZLXumJyIK450p70cRaxcFojFeH06GVWRm/8YVwb18VyHeU3xCkKFk5rpBJ3DOpl7olR9W467WuMSYeUhNPTIBx7G5N/UhEOL9Kvf+1tTFHoeFselZe5TT2cEfVs7G1MUUhJOCOV5ABJApMVlsTMzNIYHx+J6ekSrbLRJjouHEI0RGN/ky3Ys/P06b7YuvWKOHXKC3k3i7sdJQbx4G3Otan49KyeD+v4+EYG6KhwGK8Z0Et43KYcfHZXxEe3R+w8WTtRYDoqnGtiKO6KVZUSG0un+ByZjjgkYyfqotNR4TBusy4GY1g+x2ST8+eXqK/TW0kUtAKiYbv26eS1tbnCfZxSQ2atJw4eHI6TtQl5SfnR0eqU6YnuzS1MFQunxJAcOHOmJ3bvXhUTR5clShKQCJiSl/n6gYjvHYo4cLp6vuhYOCamp3tj4sjyOHas+XlShGY/nKiuM1AWbwMdEw6T1VhfYI03+8w8COfw4SEJp7nFROjTfFde5m+eq/6kn1MWOiactRLMlTFYSRCYbEOIduLEQBw6tDwmJhbndfAujx+O+OSLEd9UmLZ/KmKmDAM4NTomnKHoqWTTGMcx2YfMGqHaUfV1FoIVbBDN53ZFfHVfxD6J5kyJRANu1abC2bNLK+IhbLsUjNE8eSTi8xLNf+6uiqZkmqlg4ZgLMKaDgLDZEIaRMds+GfF3z1e9DYOdZcXCMReYnByInTvHYseOsZcNiD57POL2hyPe9M2I/94TcbIE60Nfio4Ih9o05nq6HjpfkCRgXIdwDa/D+Az1Z7/5vYj3/6C6oPq4QrOTOl/G8KwRWnZbrwFPyIIcb47L4pWxsjIfx+SH3t6zMTp6MjZvPhCPTU/GP+2dia8fOF/4JW2bpe0eh0X6qE/bFEMWTQ6hBOfQoeF48cU18dD2oXjy4FKLZg7cxzEvg5BtfHxlTEwMVUI383IsHGMSYOEYkwALx5gEWDjGJMDCMSYBFo4xCbBwjEmAhWNMAtoqHObebI6huDtWxWpXDZgC01bhUNy5VvJhyrSXhDJFxqGaMQmwcIxJgIVjTAIsHGMSYOEYkwALx8wLa+ONyfoq83pNIxaOmZdXxIrK0MKy8GS22Vg4Zl4uj4HKEsYsvGIuxlfEmARYOMYkoG3CoU5tg6LhO2NVDFqPpuC0rYUPqgO5Uf++NkbdmTSFx67BmARYOMYkwMIxJgEWjrkkl0V/bKj0YF090IiFYy7JVbEsbohhl93MwsIxl4TqAfZytce5GAvHmARYOMYkoC3CoVJgSyyP+2J17YwxxaYtwunV01BFy2ZSxpSBtoVqiId6NVM8SAs4OXAxbulmQVbotrgxltUeGbBwzIIwE/R9cWXtkQELx5gEWDjGJMDCMSYBFo4xCbBwjEmAhWNMAiwcYxLAcPD56mFy+qU/ym1uiRW1M6ZoHI0z8bU4WHtk2iIcngTxDHh1m8JyTs1kMmZqj8ySgYGBloVjTLmI+H+AlUB6Uwl1SgAAAABJRU5ErkJggg==;strokeWidth=2;" parent="1" vertex="1">
                    <mxGeometry x="970" y="-730" width="180.06" height="250" as="geometry"/>
                </mxCell>
                <mxCell id="7" value="" style="shape=image;verticalLabelPosition=bottom;labelBackgroundColor=default;verticalAlign=top;aspect=fixed;imageAspect=0;image=data:image/png,iVBORw0KGgoAAAANSUhEUgAAAJ4AAADgCAYAAADyrd/KAAAAAXNSR0IArs4c6QAAAARnQU1BAACxjwv8YQUAAAAJcEhZcwAAED0AABA9AUORddcAAIOXSURBVHhe5f1pkyVJlqaHafi+xp5rVXV39YZu9AAioJAQACSFn/iRIvwf82FkZv7A/BoMgS8UkgJAAMGAoAy7MTPETE91V9bSlVmVmbGH736v382X4Pu8R8818xv3+hLhkek5c9zPNTXVo0e3144upmZ258svv3xTLqE7d+5U13SaDJ8l3/Z/8+aNz8/Ozuzm2O/slG+++F/Kz/7qn5Vvvn5S1pZXyk9/9En5yWcfl0cPHpTN9Y2ytLQsXipLK0tlfn6+zM3NlbnF5TK3sCReKHPzi+IFEpPe03J2elxOj4/LaNArnYO9svP6Zdnf2y6np6Oy+WCj3PvocVle3Shlcb0sPvyDsvLoj8u83OXO3Mxy3BbK/FF/k0TYNP+r0LvGa9NlOubq8S0i45dV/KTMrDjT/PPcR/jstIyO9srh628FwINyR+cbK4vl4b2N8uDuRllfXSkLC/Nl3iyA3QkW2hR/QTiBF+VcDp5fst+cGPnl1bXy4PFH5fPf/4Py8Wc/UrRVAbBf9nc7AuWgvDnulZPO63J8tFXenJ04bzdJ7fJnfbwvJ10UBk2eT9IkSKbpmuWeRZPhk3GmAq8tkO5Jv/b5RXSZ3B0si45nskCDznbp7G2VQW9QZMvKQwHu/uZ6WVqUFZMUsnNz84o0V95I7xtbJQHujvzkf0dW744snoRQjHanwZG48wpbXdsoDx99VO7du1+6h73yzVdPy87WXjkeDspJb6+MDl+Vk2FHjXGmFqnRp9C71MF14twEZVptYGUe2vm4LE/XkW3TRbJj4CGUPItmhU/65/k02WmE2KksTnfvZVg7VdT9jdXy6P7dsrqyaqsFmACPhefE1i8/QKbzcVoARt02FtTuFnjG4FvfNPjuP3hYBv1hefnsZel1u+V02C3Hhy/LcVdW72SoqOcbLGnSfRl/n5TpT8vL++Ztms5JmpTJ87nJgEmaFZ7+7bBZspfTm3I8OBLwXqvLG5V1jd8eytJtrq2VxQV1nxV0HD2m8zkWL6yeNQhkb05PytnJsfhEmBNs3sQ45+yEsd5pXPmAT5ZxQxbv088+LR89elhOR6NysLOjLlfAO9ouo4PnAmEngNuidy/f90sX5fkmyvMu9TK2eJM0TVn6TfO/CrXjjxmrIkAcD3u2dmRoQ8BbX9MEYilBJ/0kYdYPhkigCo+gN0xSNJEw8ASyU2Hm+PikdDudsru9Xfa2d0r34FAA13hOoFxYVBobG2VjbUXjyZPSk1y/c1hG3b0y2Htuq0f3Dzn9f4fpXHu0yjp5fhldR/4t4M2KOM2/ndBF8dpy0wmrdFyG/aNyejKSlZsrq0wmFtXFKgxLhbEyRuk9DTplXdbL3sZuzIxPZTGHvaPS2d0ur58+KU9/+7vy4qnGcQLeoYB31Omqe+070qomHCvqyk9GAt5hpwwO9zXG2y2D3WfiJ+V0cCA5ddk3TO06aXObJs+vQtP0vAtN6pnlnkVXkTkHvKtEgJC7SDbDr6SvypyqexwM+mWkbg8wLa+saL4wb0DZmgEsAmTlmGCMLaH8vCTjYd1pGRzJwr38tjz78hflxe9+Yyu6trpeHjz8qGxu3iuLsnQoOjt9U5aWV8vd+4/KgmbAvcNuGQp8x5If7GrM9/p3Gu+90gWB1XPC70ST9XBRnWTY5PG6RLx3jTuL2jqvov+y8DHw2oKT7suUQCl3Fdm3SKA61fjsjcBH18sYbnlpWUfpAniI8FtBCNBwg7Y3mkS8YfymI2O7Qa9bjmS5TjU5WFtdKo8ePigP7mqSsrRUFgXYJTHjxvl5llmWyr2Hj8t9TTSOj1lH7JVRb1gGB93S23pWhlg9TThIq12+63DS5PksmpRpx0v3LJ6ky8Jvimbpb6c9yVMnF22BpEmZmyDrrGrpNJcW5w0ILFqs1WHxGKsdl6Nur+zv7ZXdrddlf+ulwLVbjkcDWS4B1sATCKVrcXnZE4cHjx6Vu5ub5Y7Cjg4OysHWdjnQWK+7t1+Oez1NYk41e75T1jTD/eTzH9kajoZnyseqALpWTpTecFeTjN6OgK40DP8fNk22aZsybFb4NJqUv46O+X/wD/7BP6nut5S0Kc+nKb1KQhBybdl0A57u3ouy9c2vS+/oyOC7d++erV6vPyivX++Up89elpcvXpZ9jd0GRxp7CQyLy0u+UyGtOjJblSUDvNJ7NjzWZKJbtrZ3y6u9Ttk5GpYDgWnQ6yvdOYF8SbKyekprcWFeM1uBWLPfTz7+cXl4/3E5Ubdf5nQx3H1UFjcfS78mIVcs54egm0x7sh2gmy7bZfqmTi5mZWqa/6TfJKVMW+7cOT0mx7mFciYLd6LGP5GVOtO0dCjwbG/vlSdPXpTnz16Vvd19TUCGlhnJCg776ho1Gz5hNit1c4sCnrpPdYyl3z8uO3vd8uXL/fIvvnxe/sVvnpdfy/3yQLNnTSZkVsu8LOucQLi2vlE++/HvlR/9wR+Ve48/lcWTjv6Zxnis62l26+72/NLKvws0rW2gWf7XpYviG3gXJfK+iV+FuPOwsLhSlpZWBJx5j6noXoeDoWYdp+XTh/fLn//0J+XPfvp75cefflru330owCyUXudIVm1PIOuWUwGDOxdzS6vqb1fKsdDcPz4pp5o4LK7fLY8/+bT8yZ/+afnDP/nj8vDjj8qyZs1eD9Tfgqzm/Ucfl89+7w/L/Y8/K8t3ZeEWNsroaCTg7ZbT/r6yRHf77x99qPY38Lyweg26CKhJV5GBaHgAsCjArG5sqgtckDU7KX2Bjth319fK43ubZUNjtzmNyRRUesdz5WjwphwcHJX9nb3S3d8VSLqanBy7610W0NYfPCwPHz8qf/LjT8p/8ed/UP6zP/u98ic/elw+eXS3bKwty9oBOpHXZ4qAvyowrpcFpbN6/35Zuf+wnJ7NqcvtlbNBx2uEH6YJ3q1xs37fJe51qZ3WddObFeetyUWeT/q/K10KaiXhMdfKioGnE3WxIwFv5AkGGwN6Gpe93NkvX7/eL798tiPeLS8PR2W/OyqdTt+Wb6Sx4elQFpKx39KiusxH5ZMff14+/eRR+fFHD8qn99fKxmLRrFYGkRkt3awSv8MazSmdsy4A8dlQY8DTkS1ikSU+Vtf+ZnQkmYEye/M27ybqeFpbpd9N6J+kd9Hbzg98bjkFvowuk2nrAXRX0inrs6BulnW1M8U5ExgGGt8xqoL3eoPyvNMrLzXr/EZg++1up3RPFSbwHKsrZsx3esKdCzxPVaizsrKs7vPhg/Lok4/VjT4oa6uarQJkjQMXFmXx2L0iwIMlbwjwIqGAx+01TWgWGQNqsnIy0KQDiyfwsc3qOpR1cREnTQu7iKfRrPBZ8u9L7fTafBW68F5tW9lV5do0Tb4tm6yfOiNdLsPRcRlofHdycmI+FRCHAsWprA+3uD55/LD8+PHd8tHd1XJ/Y72sCEh3hBnW9nw/Vkc2GczP3SkrK8uKs15W1wA1gIM1jtSM1hsPWH+RrJdiiCcgLqyslfkVdbuywIC1qIs96e3L4Gmc11pMHue9Re0yTYZ93zSZt+Sktvt96Sq6xhZvkq6akavIIZM8jfClW11cXtMY7k3ZPzwqg9HIyyy6MjzO+/zh3fLjuyvlTx+tl7/47GH5aH1RoBO4ANS8JiQC5xvNhGGh0OAjPe5+eLEY1uQD0HnrFPnB2gE64nHU+R2NMRcA6717mu2uaVwpa3q0V0672+WMLjdwN6Ys06yy3XZqt8tNluEyXW8Br52Ri6gtd9E47iq6IPbVLS4tlwV1caPhiZkxFxsF7t9d08x2o3y8uVQ+ubtcHsvarS4tlOWl+bK8rFnrEruR2ZcXExVpE2hlJek2ZUHfyIKCmDvz0ghIlaWwcpqpCNyMC7nzoR8yUuaV5rwArQGggkaa1XbKSXennAI8d/7ny3zVMv4Q6CbLgq7kSZpp8a5D755Z4gUzzmOv3KLAsSw3g36s1oos0Ka6ygcba+XB3c1yb3OjbMi9ppnpysqSJx9OX/952+xE1pKNnQCO4zEz02N1kwaY2Hc7cieLgAkABTruTliHzkfDo9KXpTsW2FhcPtX52bEmGhdcZP+u0Lu352ya1Dke4yVfRjchNw6jr+M8/TRZgLgVtrO9V/b3uwrTjFfgWtb4jPEcx+XlZTPjuDPGgwLaQLPaw+2tsvv8afn6V78qX//iV2Wwr3GZAMxkxSAT+GDu4/LMBduezs5kDVkDJGEdT/q9crS3XQ73d8rR4KicWEZgBJhm8nx5+X/olG3U5pukG7F470Muj1lWTgN+Cnii7m374KC8EPiOj5mp3tHAXo3O+E3tzrgPvqPu9GQwLP3Dw/LqydPyza+/KttPn5fXz7fLs29flqP9A1vRhbV1jd2WPGMGcAYe/EbWjq7TXbDmwgIYG0KffPVV2drdK2eaaWu67Q2nVJVSrH/RMP++0fuUebKnuBR4ifbki+gyubfC2nmR/5xntosap90pw+OTsnvYK32N9d4IeCeadBwLfKd1IiBNKoz8Ryfl6KBTtl/vlp3dQ+FktfzZ3/uL8r/5L/6zsvnZ52WeGe36elkUz8lKSnkkN/dGEw/SXBDzvAaLMHOlI33P92U9ZQgX7z4uixv3DD6GAmGhz1fgh6B2Pbb5NtC75qcdD/5eLd75zCszdKMrq2Vhcd5d2+Fht3Q66u5YTpFhOgF41fJh8RY0GZmXVWI3y4N7m+UnP/1JufvpR2V5Y6Ws3dsoK3c3BCosaeieY0cz5+I5TUjmlhWX7VcC/B0mJ2IlLv+lsrx5t2w8+qSs3n9YFpZXA3g5CflAlI0yizIs5do8jS4Kuwl6H90zgXeVTKfMZbIXh4cVIZxucWV1VbNVzShlmg8ODsvujrpbTRjo7rB2bBhlmYU43O24+/hRefD5p+XRj8Sffez4jOeONeY77sL9ctzreyGYHSfwqSYUSixAJwDeAZQGn6qDReKzUazZKcuLAucCDxwRdtJXcGyHfx/K+pjkq9AsuUldbblJd/v8fSn1TeOLaCrwiHRTs7fLMiCJyrGWt7K2Vlb9sPab0un1yo7AN2Q5ZEF5ukNXeyzwaaIg68NcZHVjtdx9dL+sabZbNB4cbO+X3sud0nnyqux/9azs//ZZOXzysnSfvy4DQNzvC5iaLCi9N1gxAfCOQMeRsR7b7efVpY76Xcl2ZVnJF1uvZGlH7OO7/h2MNl1eHx+GJtP9vvKRdKHFe1cibvJVKMRijLcs4HmpZGleXexxOeh2y1CzXMZjd8QA7vh4WE6YnQJCnQPE4eFROXjyumz/3ZOy8+Wzsvf1y3LwdLv0thV/X1avO/RYkVtzvHlA2mxVfXkJXXTH7H5mqYV7xdwf5gEkW0BlkLcRnI26Ah4bBobEGtOscrbrIfn7pMn0P3S+Uu+0NMbAy8BJgbb/JE/SLP9JautAPI0rwFvRDHR9bdU7SJY11huMht4c6rsYAE/gOKErHY0EkL63unf3Dsrui62y+0xA22O9TQZyQeDduFvWHz8u6x89LmuPH5a1Rw81drvnMZtQLCAqYaftFTx3431Z2a7Glb2jThkdHQpkLLdw52wY+/IEvrNjHhaKhWQoe4fz5bq8Hv59oHY9tN0G3vdbSbWRxDHGWyvrG2vloSYLjx/edbe3u7dbut2Oc8tYi4Y+1hiMxeHeocaBr7bLvma0Z2zqvHe3bD64V9bvrZeVzSXNaOfL4qYs6b21sqgZrrfUs0AtCxdw0x/406RhJCAfHnbK0VGvnMp9ejwYr995/Q8LqK72bCSrB7pb9EMH2nedfy8gvy+h4yI9GZ4yAGdyDEkQs8qllbWyce9e+ejjj8qD+3dLV+Osr548K988f+GxHjNSusbQoXkAM14dF9dXyuoDAWtd+lfU/a6qi1yX0lUBekVgW6njONKhW3WCMKmzweC49AXuFy9ela+fvSqvtnbV3cYzuJ7Nsv4nIPKOFfXrYfUE2na5fuiUZWnzTVPqnTnGuwpdJXOT4Rnn7XjKjCzRomalG/cflI0HDzT4v1O6g6OyfbhfvhEg9jsaY5FjrJ4OvBWKB3s+/vGn5aMff1RWH6+X+fvLZf7hall6fLcsymIubshP47rYGKDI4/SdKFeBgHVaTtWlj3qydp3D8mrnoDx9fVAOmREztmOGy90LrB4TDFm8s8GBrR4W8/ug6XV485Tp3HR61wbeVTJxFZlpxC2zRY2/GJst8OowxcfAwXS1r7Z3vP/OFk9/3Glg8Xd1Y6Os3lXXCvO+lXsPyooAycLxPGt17Eipd0WwcMQNuOjI5ESTF2aw6kvLvY2lsra6qAnNibrcocaSmsDwrC/rd5ponIz6ntmyTQoQAtx3gV67jt6Fk6aFtfmm6aZ0TgXetIxPnk+jq8jMJiwejzUuaeYJy3LV8RgbAUaySM9fvip7hwKILBfrejwUFGt8rPsuliWBbIkFaHarKB5x8+FvEyBR1xlboZgNjwykYe9Q1u6wLGry8vD+Zrm3viq9p6XTkxUUANnl4niM9QTSNyca+/X3ymlvV2626L8NvayLWfxDppsow1vAm6bwu6goksDiYZ144eIy70/hyX9veaKgZ2VHk4ynL16WIQvIkvWiskDEEsuZrJGZLpFFZtbqzLE5gJcB2U2Y3ADuZNApw+5e6Xf2Hcbi831NTh5sMlAs6tr7pdeXvAeCAFYWTxOaM8U9GxyWk8OX5aSvuF7Qbug2AetD5uV9dBt4KEiepA+Z8fMki6cxG7uQvZDMSxk/flw21W0uMOngNpomAK9fvy6vXm+7K1TmbG2YefImApZZTmQZYS8yi+kmj7ljwSx1qDAdh+pWh9390j/YEctyCYiMLZc3Nsv63c3y6MFmWVF6h51e2T3oqXtXHcjKeieMxpzHA401T1gbfFUGe0/UTQt8nuV+P+O9y6jdvtmebff70KTeq9L8P/yH//CfzIp0FWUpc92Ep5IAdNw/KL3dZ7IkGsBrJjEaxlYm9uktLi6UAWOvXl/d70JZXRVImakyQajMIbq+AIFnv1hE6TjWmGx4dFgGHVm5Q55MO1T4WVle39QY8YEmIUsGYWdvr2xt7WhGPZIVXCkPeWaDt0rJotI9Q2wuOFWXSxeNZZ3zm0gXz9fDOecN1M8NUTuPN9Jula6jy8DDMRnpKkpuqgDEjfhnsiiHpb/3tPT2tsrR4UHp9wdCz1lZ0gwDkO1rprm1eyBAamylKAvc8NfR0w3GYOOxm5i3fHricFQGAln/cK8c7W/Lyu16MkGaK5t3y9r9h7J4G5r5yqoeDyWzJ8u6XXb2j9yd37u3We7f12RlecljQyyvE1XXOzqUvv3XtqT42yJqdnzG2E9WMnZEiymjS3v7qKn/oMnz61DGvUzH/D/6R//oLYt3UYQ2pdxV5dtEnOQxCTgnw66A91zg2Cq76lZfv9ryG6T8WgqN5w4FxP2uuj8B5LDTkRUbKkwAxPABumOA1hfQ6E5l3dSl9gS4nsDWO9zR+aGAOdQEZKGsaea7du+Ruth7snbLyoDge8qm0k7ZlsV7zX3fwcibFu4LfOt373niEmPFkcEOUIed3TKQ7v7B63K49aR0xENZVPXHvkvC8MFPtCUpv+1yz3JPUtbXNL4JSj03pe8iMvCqe0xXTfhdMzg73htvMR8caAKhxjzYOyhbrwUWWS5AycxydHxaugIDxEPf+/u8qPusbK5ofIjFlIXLnSgjWZ9hTwCUBeLde4SxD29F3eb6/Qdl/cGjsrTxoCwur7vrvKM0hFyBiWd1Bb6d/bK93/HMdlXgo7tdXtv0GBTwAsCcidta8qilhganPO2mbvnNm2NPjNgjyFvpGSdCkw3MMTnPp9Esf+iisOtQW89N6Jylo3UZhtBFiWX4ZXKz6NJ4CuNNADyCyLOvfFZgXmO7UwGO9TvfuRA459WAGlbJdaccHA3Ky+3d0ulorMXNe7YtibmRz/3VY3WBfquULBS9HrPl1U1NHtTFLq5uGhS8LV6JR/oC1brCf/Ljj8sf/uSjsrG8WF5v7ZZf//p35au/+1159XyrDE/UhS7fLW8UT9mIfYRrq2VdE6G7H30a/MnnSuO+LoCOLyQsOWCcLP2s+si6avNlNC0O/D500/qSxsC7KYWz6Gr6afhF32mIRxFlxTSWoos9Pj3zxIL1NTaB8hikb/TLTfe71+l6ZsvuZRkhM9YNntc4cGll2VuuVtbXBZKNsriybnDzKjTnDHWMyQR81gI/+vhR+Q//9CflP/rjz8qjtSV1+TvlF198VX79xa/Lk989UTcvUN9ZLqdzy+WEndDKI0+lLS1rRr6+4olQ7OVbs3UcadLkjQZYbmZA3yF96La9jKalP3WM1ybCkt+FrhsXq3Xc3dVEYKt0NMjfkbU5ErBoK25ajAQ8tsWPBDwG7qzdsZbHC7sf3BWoZKEiPdlGg2nenyvwBlOBbkUzWKwdH1WZl2XlwW4WmJt8CkAam7ERfnVprmysCkgCLut/R52j0jnoiA9lYXu6EDS5ONNFIIt8KvABqDPbQGyxEsfCeW1SFtWTDOkH6E4r0vz3hbJ+k+f/8T/+x2+N8dr0PpVz7bgSZ2Y4OhLw9l+Vw91tD/I7R5oxMmNVW2LxeKnPkC3wbwBejPuW1EXyTQxepk1XDPFMBmMwFqGxdIBuma8D8bYArJ2sGw98Cx3jCjHwxHfuyFKqm1/R2PH+5mp5dA/dvMb2rHS6R+WlLoinsoKvNPPdU3e/z1Nu8u/12FKlGXR3T+PKQ3X1ssQaM9L1M9ONt05hiUlT+SRdCv6B6X3acZJuQtfUycU0umpi2YDvlDmMxJm6095B6Ql4B9uvyvbrLd+spydTsLtcurXBUDNY5MXsUAFgq8vL/j6Gt85rquF7v2wurd3s0uqaxnQ8Y8H6H+/S45YcFg8rJBB4XYZUUKyDygAwV6T33v2N8ujRfc1uN8qZLOCr3rB8c9gpT2X9XmqCsyVLuKML5GBwrHFnr2yzFrizpZnx67K3+7ocaZbe7+6obLwKY1DmdCGRZ8YETX29f4NeRO22adJ8N3pfHVcC3lWVv09BkriPejLoCngsTbws269e2eIxwQBkI6ENEPbUwEN1t9gn9uidCGiCX/lIwMDq0ajcCeFNBKy/LfEcrkGnsSPjSHg+3ijKuNB5NzsT0hXn7io97lxm0bAcaBz5RPl5PjouPdZwNKY71cyVV4b3lbGuJkC7/b5A2Ctb3V55sXtYXuzsaHa8V/qyhHPHvbJ0NipLsnzzSocu2d2ykwsLGJn4bugm2uxddESfdAHdRMauSiTlG/vcNmOLuhqcvXMQwMPSGYDRVBrrnRl8xxpn7R6NyrPdo3LQFwQUyGIzdzdYd+PVGHP+tlm1bCJkglmmoduOQb/9DADJAszFVc1gNUFQnl4NTsoXW/vlN4dH5Yg7KevLmqiINZlYU1e8Kp5fWzQIO8Oh33K1LX7VGZStQ95eelzWVchNgW65v1/mDp6WsvPbcrb3dXlz+KK86e8VTX8N/O+SaOPkd6Xrxp8KvJvIyFWpSat6CFRYIQ/8vZ0JSwbwAJ0sBNaJNTPJ0dUOjtXIg7Oy0xmVw96ojHhXiv4Yn7FjZVGA8XMWgFiAiltocICt/ZapQF09iOnC2frC0s2LvW75t98+L7/UuO5AaRCELGO1RXXlvNCRQpA+z2wMZJF5x9+Jxp/Mwh+urZY/fPSg/OTBvfJgdbmszp2VxeOjstDfKfOHz0vZ/7aUvSflTeeVrqiuEo8n6b4vete2b9qz4Wn0FvBmCV5G7xKvHae2OZ4GCcsQsGeEIj/aqNbGgi1rhkq3ylLKQBYPa3fYjzd2ukAC1JzGanyohafG6HIBSAAudrDkNiefe7G3Wj386c41gWGDwfB4VF5p/Pazr78tv3j2UmM4gUkYPVF+PLbURcBYEfdAYf2jYRkho/CY3GhmrO7+9zRG/PH9zbLuF4az9Z7bafGicLrchZN+mRMI7wDCboIvZsjfJbXB8q5YmKRpes4B710Samf0qjQZJ9e15Gsw0cUtLmv26QXeFYyOZ69YOD7/uXn3nhsUIPZGpwYdVuWeZp0riyqSUUx3FbNHtbSUh7Xjpd7nrJ1BmIx/WESeKuN23K4mD7/49tvyxbNnZb/PMxhhCckPm1CxqiTHTmU2jZ5gDZV08Jlv5z1YWSo/0tjzvqxe3OUQa4LDJGdugTVLduTwujWB8FQTj952KUev/XyHlX+PlO2UbTbZdu9Kb1m8m6DrZq4pUHWzPWp53cBjERby1ic1OGM1wMdOpSPNbOEFdb+f318tv/94o6yvLBoY8eZ4li6k02M7wBdjwxwjjrtcgKQjoIQBHZsMOt1u+VKA++LJU1nVvi8KKTGo2WiK9WUmzNNpJ1hIMcClSwd4WGneLPrR+mp5vLnhtyTMeQhRmVtpPgp8jGsFSraAzaubnRvsl8KY7wO9Avc6dJ22nEWTOvywT/JldB1ZqC3f5tmkrkmN5pmmBvXzy7GbGH9Ax8Ix92d1KCd3lsvRSF2Uuq2fPFgr/9FPHpQ/+PhuWWUHiWKcCAwAgledecIilj1RCGNGgEc+JAn4EnACK9uiuKfb63XK1y9flr998qS8lNXjzaRYVebRFIGZMjujM16Clu4TI2W3BNfU1fPy8Hub91QeDR0A2xJDiAZ08YXxyrKg7r7PNHTo7Qp8AuD4ibar1fuHIPcEFOw9qI2Ba1m8dsKXg+jdCJ1+w5MayLs66uSCe7V91sgEgi4fSVHD3VHDP7q7XP7ks3vi++Xh3TVNJpgJ060qv+qbsWYowOIB6juyRH7hNl0xlcmfTg0cLN2Ar0gelmevX5efP31evtnZLz0smfKAVQSk7hZ1QfilQRrwYd1cN6oO0sbiIs8b7Dc08Xh0d7Osrq0baOMviJvV5VJG/H0MP+4Xc6twXuO+O72dGO8pv3m5fB802dbZ/uk/GX4ZXRl4V1Hczsh1KONFXGa1LIPEuIcGxdoxe8XC7fWG5dX+Xhmcjcry2kK5t7FcPr7Pc7hrZU2NDPA8mbijAb/isknTXSoDRTE7WYQWdWHRLRp0yAnY7N9j29SrrVflF0+fla92dktHM1S6bawaVlQmTd1/vHXKz3tIH5Yt8k91CvT65f4wyzkbGipsrq6XRVk2f7qe8SbVTlnNcnNxsVFBFxxPwwUz8VDQSKBzl8vbCyq4x+m9zR+SZunH/7rW8ErAywQvSnhW2CzKOJPxwo/ZqEDkJ/7nNHM9LUcC3kCA6qryX8oi9WQNllf42B68WJZ50EdWiMae58Xaiodh8/MQAo0Bh5XzJOJYlos3gcqNpaNbVvc66nfK9t52+dXz5+XvtnY0mRgadJ5sYNmkz69Rk6U9wTqKvbzjbjzWDpV5H8kLt/HWV1f8lXEuIr+NyuCUIhpK+YntU8qXfaWF9UPGpLD0aApV7jDeg9+wxHK9ek6aVtffJ10KvA+R2ct0Esw4787iWhmUxbI/OCudE43z1OhqzfJG1oQ2ZCfIwhJ3KGSF1LB8EnRBx3jRNnckGG8BtgCd99upoQ0+LJ7Gc369rEB3OjgqncOD8tXLV+WXr7fKNnv6FM/WUEcmCoAmlk7OvBjMe5bDynEM4NFF8oZ53s3MGHB9ZcVvnzfoBNAgLG3MrP2JBC4O8qW0bDekLMHHJGb+lC5X470hs1yWWKbTVazObQHfTOBd9Qq5akFS31XkqT+6sZ1OrzzbH5TdoaydrnSvaik+QGN9blENbBYg/Ypa8ZIAxwfy+ADyCl/q0VhqrFTkPHCqxj4bBejO1MXyzpRvtrfLFy9flxeawQ4FKhasaUyP2XQEWFi302OevdDExeUBxyGHm4/4sefP+QN4q8u+1+suFgEXn7yETsXWEasK+LBoABy5WOuDaaQ5PlXfF/hO2BQ7HWDtOp7kNs3yfx+6rs63gHfTGYKurk+NIWvUZ0b59ZflX//sZ+U3z1+oi9WVL6uhwZSlaAy6vAV1sQuyLGwCWHOXJuuiseGquuj1jbtl4+4DvwSIuxgul+Izu6Xh3qj7zscgWYN7sX9Qvnj+sjw56JShwvk2WgAOcYGKwb6AhAdLJ/jjxzqgv7Vb5QDcytqqu9pV5WWD7Vg62oK5biklRXUEx7Hl8xAgLF92vUqBRJznefnfGRyqyxWPZ7nvTzfd1tBVdJ4D3nUzcVOZpiH8RP+gW/ZfPyk//9m/KP/sf/pvy7/8X/+q7B7ulyWsxprGfAIajc93LRjLMdY6E6jObP1Wy6osHOOp1ZW1sr62UdY2Nv0SII/7lFU/5F1B6NkuYzfxdvdIoHtRfrO9W44Y0xFkK1bxoT/Shf3croAWRWfsB1iim3XXSJfPBaE8sbSzrvywLcsvfaRbVkTiRldL9xrdP+WfBj668uh2ddFoXFt4iHx8V+Nm6EOBL3kajYF304lflOg5UgWf8ZzFzpOy/du/Ln/7//sfyv/4z/4f5X/5V/+8vHz9vGhyWpZW2GEiVoPSrXpnssZ5NOaJ0uipWzzRoHxpSZZGoOOrPHS3dLvsBOa5B26hmQGfG1LjP8U9HPTLL1+8UBf7quzzKKVA5C5WrMyJWZtjhoq1i8XlsIAEE36nAi1m4bmOxw9dP5Z4wfec47YdkwfisDSCTFg8MekBJh8zbURVh9QlwNNgY254WO64yz3/qrTr0jjdyh+SEgttPIyBd126EqhEF8kxszzubJfuk5+XnV/9Zfnd3/zP5a//+i/Lr7/6u7K7v6eqPzPQsB5entAxOSYUfOP2TumMjktnMPItNW8wYGICMqhQ/dPMNJIrGTfA02C/r7HabzWR+Nmz5+XVUa+wm9635mTFojFi3BbgVbPzgLisndN2Vy9wC+SLsmru9rHCikB8XntBHG/HIj8CnS0Xf9WKodyp8OOjHGYmQuHpHCsP0XDK+tnIs9w39aVBSLwLXbX9bpoy3THwroP89840dXsyKqP9F+Xw639TDr/6V2X/6S/LN8++Kb/b2ipHI7Y2RffGY4ju5tyIbGHnISDAFbNZLNShZqA7hx2/xdN3EbCi6rL8AWW6L9Kr6ZrU8MxYnwvcP3v6tDw92PcGU9cBXanjoKNaFJX3VKg+PsZPp3XWbJY184ZS5cUvjlRcv+hH+eALkbbQdPWKE9Y2uno5nI9JchfMny+UlkVTHAMWq33c0yx3r9zxG0tb1vGaFGCezR+K0H1ti3cTGcLSjQ5fl87Tvy29Z7+Q1dsqe11NKPYOy8FQA35Vph8LlKVhZgjoAN/yqmar3GjH6tH1ibiV1dVgf0vA2z88LMN+P15lYavDkoeAREMq36whQ+jf6XbLL9TF/m5vrwyFJoqF/YkGZ0G58hl3J/ia5EkZjdTVnnFXJO7F5sWa7PvJHiMKHOTZTP5jXOpv5CqhAFC6xWSKi0NKxwygxGn5AltkUvGYaAwPNNGo+/feEXjfNVEvSQZeVsBldBWZS4nGUTfRe/1lGW597Rcd9gWSZ51eedVXd+mGYHbIuCqsCMnS1dKQ6gjV6DxN5jYwD9T9vep1Bb6DcnTULSPeICCL6i7PFozGTHC8KYcC55evX5Xf7GyXI+mKb5wpEemibmhzgAXoTk/vyNKFtROmlDfGemEBkXFd6oeFaGa7OnHXTLfr7tV165JXd5yPOUHjhMljgs+Kg51IELVDvLkzAY47GiyzMCFJPbeY2vgx8L47UmPpCh0e8Ab2J4WvIVK/7NR9sn9Yb0/FGGpJXeyiwOeuRbnk2xeqc4NJ4+xoVDmwYiM11q7Atn0UD9uMeEkPi8PjrlYNSdpq0J7kvhXgfvX6ddlRF+11QenyQz+qDm6tMQ4kX2e4zXILaBypPEDhzaP42S3Q1XEdcaNrjaq1NdTfNGC4HdwWhAnFVSakSS8YD4sqwpg55w30LK+onD80unHgZcW0zSoUFahG4n10B6/KcVeTB4FsJMu00+2X1x35sz4mcGDdckAPeayHBZF58xulcrBeuytun3dH6m5lyTr9XnS3ApjX16pZAnxDdb3PNK775avX5WlHltFWJfILZUM7q64aQJh+yHLUOM9WKdz4AWgsKXnyeE/59S5p6cUWKYCKsa7QIcaqcVrJfg73mTnT9ZmFIxzY+Y/JhWa5fAZBCh32vjROU5xt+SHoHPA+VCIQuinMiQbEPDdrayfQ9TUh2BEIAA6NA9hioN5YIGfTIIsxE42KLOf4Y2UGsj7bfU0yeuq6BT5ezO2lj2rxRrJIbG/6xctX5cvdPafnBWLAxz+Wy2Bybp1fHUimcvi5UQCziZQDEF5yyRk4edT5SGkPdDGRBLqUgPOjK855CneERd1TnnS3G92ZqgcL8E/txESDjQS6yD4UNfm4OToHvA9OqnAs3gmf4BQQ6J46At7rg27pD7lxj3VSIcV0czZWGme5u7NbIzyPrdT4UkfzB1A0xpbAnrrOV90jb5saDvgWRswuj9Uo2wL3LwW6X23tSI7t6w3QOE6CjifPYnLAUROdOsYEYCa3fzaI4kjeY0X8ap6GKt8BFpjnaU95MSQfdxkoLYYAMYkiUeJ4qYWLqzbJWLULSt4oc+SNiw0BO9nwwHd02b2SlfEe5LxUbtPk+fvSdwo8Ko8xHq9yYNB/LGtwqAnFTnfgvXbDvma7Q/kPz8oxM0jNJmMMBTBsMDyecteGn8ZUeFIlAKc7Oi4vZfH21NUOeU2ZGp57vjxs/eXWVvnV9o7GdfKngYjUqkxcjB39CgyDDrBVC0wXWo9EGTeCD2EFx6eiGFe+KSPl9UBpH/W7wkW3HPf2yokmVid8A9dgZL2w6XIBb+QJnTpUfx+aH8vEUED5QdBfHGKnMpfih6ObBJ93IF+FriLXlpkq70pWo+hqZ1cG3d+hgNAZsuZWDLbj0aksFTfhxQBMFesxlY4N12ULkDjWq4YW72iC8lpdbl/H4XDohv/N663yc43rXmsSw/ILeYMxXrZUyipGxHc41IuPOQyLOd7JUstkP9wBujFXYPhX4bo2BPpeOegcllH/UBPQbQ3JtsoJL3MUWOJ7uVEO4pgzwWrVjOY8Eu6ftEgBvDuAjnFe1scHpKnt+g7EZXMp3VRitRbtMlAMvKHGZ7Ja2cpQvfJpSDeJo0XT+M8N3VQy55aWyKHGbi/U1R5I7+ERyybb5a+fvSzf7Hc13mJpRXJihJG3xckZpdIgCw3XbkdZS0tIjQUI1ei19shZKzfjeDxpttfteXF7oItg1ONB9e0y0hjXX/zWGJcuN0ALKR6FJXGnFW5O40dEpi0dYdAdZrV8d+M7mt1m+d6HLgXe+yZwjlxXdFexnZ0Nnvvqao9VmZ7JLmtgvjgvVtcGyy+Sr0CrSyv4NbmKRoNp/N7xWXkuwH1z2C2/3d4rf/1coNMYEnBn84Y+MRaVrhwwcl4blTInuGKMVyc8+I39AR7De6IAfPIF/CvJjbXu6AJ4qfS7yhdvuOruH/iNpLw51F+IxHJTNqftiOfYQKxnpqiQ80QvQnfLK9p+IHQp8G6S1GRqLBZWeSAbkJz6OVWvpbkxBbq8U0G3Vxuaum5YfuL4nIA8auNnF6W5SNlX1/3r3YPyb1/vlK/V6DzZP6/xGl0lwLVOAGx3BbPzl/rjaJWWDXlqy3nTucd9YuQQ9ENKKheMwohbSv/kuDwX2LaPBprlzmsWPyq9A43zNOk441FILghbYOknBxmRYwO3BtCQwuLPJzHOY5/ed3QXo7lI352ozgvpfRM4R1SYl0N4HiKAhyUCZFHPNGg0agCuYSgLLB/LxFpeNlBtBp1jQZ/3h+VbdbkD5K0rJZQwXSrHamliAhObO5mw+H6v8sU4kwmKzxmHMYZCnxQp6XFv6AdzqhWEuTCSWBDnhT5Pd/eVF1KdKwNZ5FGPN5TyBimlOQZftZz1N4jjZDPVMOkzcRDADT6WaH4AdCnwoKuAL8FxMalKsXjzi34a/0jAAyRoN6j4c/3HUa7qbnFtoIgk9jkz22g0wphAoJd3CxAMcE4EomM1DjNptq0PZWlHnkmPykCTjoGAit9AXaPDNDnhdRS8hhb5kawoEx/isw3eQBWTCQO7WmhXg9I2UHWEO5rsPNne1WxbVk7Bw57GtXzEmY8287JG5SsmS1EuVDCk5R0u8R4XLrA4OlRhY7n6KyWa2crifQfAy7bmmHxduhLwLlN85YTJpKwd4ONlhj0aVQ3ktTmmgGokuA001/B4DBSWKsLww1LUWSHsNFQomSO2xNPtDXmHibo5g4sGF8CCAdmo9Dn2eXAHi4eVC/Y5INMxZ9lhGRkXMtsmS6RYrbQbQGfOpgPH4awZvtaY89nefjlQ2kfKT487J7J6xwPNtNmNI8tni0o5iGdllSmUuZL1BlmEo8Z57mp93/bD02SbJwCvioWZwLuuoqsQmvw+uoVFLzUM6cLcRlR28GQ3GMfKEqZRWF5x49dGIo/sVuHhn9W1pbK2uazjssP6AtuxLNaxQA6AEmAZnzQooic9tYuP9TpyK1YWVAv2o3vFKyYa4jom9cZS5CVLOOR8On9KQzo7Sv9bzayfH/TKbqdfOgIiX4vkUwi2eqzpUR/EcTlRUvNQdVo/bBo7TDzIxGTFDw/9AOhKFu/GSI3jFXp1taeqzWMaXxXmhqciAYErFEBgYao1kz9/lqM7EzPrXVpdLCvry2Xj7mq5e3+93LvHe1VWy/rmihsb0NElRsvV+Pnn7it0eayoY1iu8A+gVSDW/AGImNgAtjrBOSdbdVY/ygOAOGfR+lWXlzn2y6vOsOztd0pnX+O+o44MVb/wARhvPKgXg6sBrmQnxQiTGjLkCX8RQSynTH5H97bSTODR2DdPahQmF7J4ahmBLhsmOcDhRmV5ZUlWbGWhLGPFNlbKukCVILv/aLM8eBx87+FG2bi3WlYkx+aCuTvz6laP3aUBDhPWY0aR3E3yxxFrpjyGNYvNnnHfmHAmD2xWAIzEqPXkiwewhZ+cfrVGzLwBY8y8u+quX5+o21Vv+PqgX/Y04WCGa6unbhKrF+uMgC+5gks60esUXG9x0Ub6SIhZx5MOu285XWjxbGlcqBsiWkVdLW/lZNDMIB3tNA5AY4cxXeX63ZWwYALU/Uctfojfern7gI8pr5Y1XowoYPI6Miofi8FYkTsg3c5Ax2N3i4CitlctkxKtxaIhxwN3P0zNTX4xu0x8ZIs7D5cve5s7b49394peLiLMYVVeXcFKM7ZHCcAAUPq5/zyQ38HyUnmpycqr3cNyeMDm1Z5fEuRZ9bi7PQ++8YZQk9wA1LPh2iMYsAIdFu+c7HdDiZWr4uVC4EFutEvoqonRJO5qBbyRGmGorpS1teWVxbKxiSVTVynAAbpNuTcEwFWBa3V1qSxr/IYFBGQsv1C5HugzEVBjxaSA8V/xSxF7R33l/Y0anTQBF1xzoWN0tc29sbBygC2sXQwJZMUEMD/nwQPaMG8rgOVeXOF1agKiwr2YrLSDAWFYQFtv6cst8G/k7i0tltdndzze2xPwBiytsJtmfCdDYEvgUSBAhV5jMNzhQViVg+iqsXg6v7zVbpaifs/zRXQp8K4OqsvJGZJFOZtfLkeqeBZ26R7pPjc1PltXd7qicVvsxRMABA4YwEJ0Q14WYaLge7pswIxZMZMV2kh170VaXo64JKAadE47fsaVIn8AB2AcaIGaEqfy9rhNQG9PJpDjyJNj+cAPDGhZxHZt5TFJ+rCivF2ARx3PZEX3lM8X3b4mGmxe5TW1LK0wzmN2i9XL8S2gkrYKtDyFIpV2SgpUPMtVn++TLgLfpcC7Kl0ZoGrRUVkoXYm/EcBWBTa618VlAW0BUCBEBUcl+5aWLJtBphnpiG9LsIOFW1CVCYsdwvX5CAGPBmMXMxbHGkkPBhTyyvwGEO00xbiTMKwV1jW6VcB2bjKBxVT1eayHW35jEIO0TLAS6bCZlbcKLKnrPpZF3RuclINur/SPBLzWml4sKudEozJknQFG1Qq1FP4QybbCPzS9r0Gau0mLdhmRFou4+/1uORwN1O2o0dRYjGkA1TEP1LBQK2D5/BjLxsJtcGyZYjE4noE4tgznsfYGSFnwZVeK77HKWsVVVxm32KMxHR1kqmASwABagAjLFkfODWD+CbMOAEqaamgDhHPaXZDQeeyqwYPxWdNQ6OfdenzsZaSufq/TKx3W9Jhg8AHmXFpBrwFEvJrRqg9GX+hMRkpp1bx8aLrIml2FbsziXU68+mFUtnael6+++VV5vbNVBvUOAou4LH30ZKm8oKsxGjw0EAUutksdEz83gtKlNptCGy4GHq+k8G04moJ2cuoVcCZAhzvODToxoIh7xWHlEmRJACpIftm248bHCeB0EUiO9/nxlgIDUOdtBolLGreeqavmtWt8hXLQ7Wp22/Nbq7B6sZQkbqfjpDhOuEWRTcDIQtXtoVkAvTHgXXYF8PzD7u6L8sUv/lX54pf/pmztbvvtngAMcI3Y/Ik1E8jcnXJ7Sm6sm3qemDioIcf1rh/YgHM3y/DmTDNEvtDNU2hRNMuci2PvSmHpYqIRYIxuM90q09g/ZbOcHJswvPFxunKw0fVEGfdLupEkUInjz+0xhhVvNIvvyGLva5znp+PqFybZLhUz1CxjWFV3sXD9S0J1EOExxrtN1NRZQ1cCHoV/HyL+0dFh+bsv/7b89d/8y/Li1YsyHPHsKxYAwDSg4pwehqO8xWyopMEaGeo8QEQE3MGAlWUU7q2GjIKRc6NFXDgqIgEXYJL3BEuGf4UDJtgbADxmjLSd/gTh52pWEJbP72KmMHiKEzwGqma3PcnT3XY1zhvm03G+fSZrZ8hKUU3rPOhaafu0+lmGeLebbsziTWuEpNPT47K9LWv3q39Tnr94KoCwHYiKpKpqNeKuKhpN0T06vM0twepyXO69HqkRGR+i1UCtVsNRxLZOBl1YKpk3gyvASDhe4Uf1ALSQrWHiBAEKwx25sPWtF0fI8txIBV+VIdB5knNucb4M5OD+ba/PBTP0fdtYSA6AZjpWqnhhvv3vSZLBrK7bGpFJvuVk4LUr731olo5jdR2vtp6VJ09/V/oj3rLJOCgayTyuK4FMtYm7noprpTJCpzVF9kEGbjWEJxvqZgNwNXysTD8R3ccEnmelFVwE2MKJw7pV8SoLAYjxs7pm8lLZ6b4NSI/5TrB8uozQ5QydqbudLydKhPu4fAmcL5HzFgQ/lsmsVvWUi8RSZr1RDvTIKfYM3emRp5S5fZT1l3TO4mVFvQ9N6qBSRhq37Oy+KgeHB+5ex91mAkRH6ivqLdw0D1hzpdfwyHoF5pj1U/2T8HNbob/KhDtl36axFoBhIFa3OK0eZF3Wz/phAA+yhcpM6kD5vNWpysera7mdFXrlqQmMyqKJDHsSBwpnUhSv3WA5JcHHkfEe95xJS6BTXJIxgEmfNKzYv7eWsj5dp9XPlJU7jbICL6NJHVTOQGOXnd3XZcDGRzWQrRx4glWfZoAi9cYYydjyqatirKwwn1PdyACiZORJh8LMMSNVkcgriiSPBZsEd7sckkzPWKOTX5QgQZfdMJY5mPg5W4ViDJiViltx5B9lDXCSZ4YYWD4JSD13OmLseqyLkU+fMjY9Ho68kOydKgk+dJDPZMWTwnOnBqFPz9f/baUx8CYBM4uuAr42Id/rd8rW1it/Z5ZuJ/ff5TEblLqM+oz7muNwAzPA1D7a7ewo78o/r7ng7VJYLJY18AvgVDi5kTJOLXONzx8nBpb0QgGoAIjLLfbCrv4sHV4iADcf+lCoA27y5yflaj551JLvnDnv8gBwMnber8fSUn+gcZ6YnclYPoNO5eDWn/VOkC0fTNhYpF6g5ttLY+Bl5bqCb5Co+G73oOzu7airCdDRsBwNLKdXK4r6Y9BSz12XANEOnRuYNL6Yo3Q7twIW4GJPHl/oZi1OHiqdmDCDD3fqDsqyxjEaLC4Mo99jvQzHzzuP5c6JkeNwTj7InCKRLyitoMtadcIAD8uHdeZ1a7xXjy1TRwLcEVv12TDgtyAAUM3O671baRZLd5YLTpI3YRGuUjgo8nHbiPqCx8BrUzTE20TjxVV9dcJC8CKdo6MjNxj1kfr59fUK2Crg7EfmECCtcXIRfg506JFM3NSPbs6vNvO93mb5w2HiBEPTLTbAQb0BKo50yUsCKsj5AkgAkDiSsJ91cIyoKAP83Mu1xSSM/IoZ57Gtnornnc3cu+VF34ea1fJdXu7bsqwyvn0G8OhySY8E0O78RZVJs/MZYbAzcOtpKvBmkRv6EpqUocsb6eqlm4k64UesyqNRxo0vzphqpzjPehTj5DwauY6d5Me4zLe5bPXCnduR8pZXEGmSbAKwsWaZhoKsL4BZ0+RPMjF2i3155/JA/Eo4YfzDAse9YnRl2qAF8DGRsG4F8ZhnZ3Bcuj0+ZdWvb7sa6CLLbVKqu5y1NslVivwJmXGaid1Sog7cBvX8ytSu6CuR5GkIKsh1UqOPAVDBgV7YMimLsP7dvZlrV0eDW6eAAsBoXNwqDfo4t8UD2K1GwJ0FHzMBJCO9HK1H/lLhYwJ6ki2un8wzflZV/TMP4S8Z6428YR3pctkv+EZ55j3OvBa3O4j1vGEd59HVxlsXqsWTHpVe+hNkeYh8uAw/ELo28KDrFjDWxQCIuh08VNE0COe2UFgSKtEVmY6o1bQsrJ2FFYTDD0og6N9HBZ7zzxI6XO6QCz+TPSKau3D007zuOgEMehJAiEe+oejyg6EIA7QR7gvLskDDB8sAIkDHhgm/andl2d3tkSYYsZ43LPFiSbpaLF5MMgBekI4uZ+R9TLXs5/xuKdVmuT5dBL52GBW/vLxclvlKYW0QNyYN1OJo2FqRteLQ4+rmaK5XfdVv0QoIyBtDPRMUYKTT6hQ+Blz9c0CL0lcRHddjsup2ODoq5znlIhYXQK7XZZhi2p/yxgu5kSWMH0oQky7GirHJdNnvfenJCvaG8Xil72BoeBLbo8hTtXSe4VZFpjga2pEFUTv8dtJM4GVFvitlfDZAbqzfLRsbm+OGowVojACczgFGBUp4RHyPq2AC0Cem8q1b/258MSlhdQAAjIrmtlcle8J5Wh2iDMoZYd6CijI0aWaZEnihK0BGuhxTlvwgw5vpvQtacdoXW+bN+ZTVx+J1DbyR33SFRfQuFQMv9Qp4NQ+ROBx5bNiZsus2k/fjtSu1TdP8rkPEZ0C+urZRNjcFPNqqNgDbyvMFi04lAh0PotHgcaPxJ0GufiofUe8E1uyR8Bj7oSnGVwYlQiFuaqkXVU9RuizPv452i9r1kxzEkfNGBuCRh7GcVGDxYvLDxSbWuI888zLuSEfx9TOU9esJbH2BbgDwNCHzkgrg88QCAHKsAFTateZMkWY9+QFQyyRMJ1fgDLoobNx4Yj5wt7K84kqugWKudCUvgNBC9opQk+PbJ3z9sIsrVw1MsgCTxnP8SuhQvJhgyD/WG2QOxTWrTscqq15OJGfAiJ1qCJh8AVSQENH5EjsfzoizVQGX49EAITJMMOLJt7DOnvQIeJ5566JEl+Ckme2ZJxj90UkZeOIR9239Huc6uRiDTm55kLLrJerGWRkf26D8LukiTLTpUuBdRtMSajccroV5vsqz5rPEggP8wxkN3lATP3S7oXV0o8oykCZ+FsMMjsXxV6GwpmMdxA8d4Rd8/txRxXKPGd+QySFBSNZ8kOxYB3GJACBj/JYTIazdEs9mcDFYF5OsOhOvDI6GJ28MvB53MOhuNdaLJ8/YrdKAD2GDz/vuxGTUWYj0nO0fAJ0D3jQQQbP8Z5ErwHEi3vwCXzBcV8VFg1JPHrvRELXx3MA+RoMiyJ+dnElfWBMqXd2pZdHXpJXLLamP4GB+Qg90rjw1rvWFT0MKctcuiq4/JJwHka1tJmKPSDcmE2FFCfF7keuQwMMAgXA8phVxvxbg9UZnmtmO/F4/7mKwkHw84hUXdTHZ4NMY1l1vXIChI8sTZfk+yXV9BXrL4p1rlCvQRQmhCuYbsnzgbjygHsdRIG4xjegGke8YjCnjQwt4CvEYTuoAZ/q3raEjh2pTzAzJUNVay2l4y81fyNe0xfg3eivY5G8QVpkk51/nXh6qXTNxuBiye/XkohWPNK1f6RxrcsGLI7F43f6gdAW+4XBQjmX5AN+Jn8Wo63rkxUx5KIfKbLfVmpqc3U56C3jXJTeaCz+baIjV1TUfISolKgZwRUPQOAYTaHJgVGj+evIgANiiIaJGHMeRjMdVFXhpTWv7Or41VT/SNHE+tjyRj5Bp3E5fOpvbZJSHdCuI9McxAaV/h+EmT3S75NHP1VJ+BESh106Xh+sB8A1P4k3xnmQw1pOl8x49TzRyg6hjOa7rvq0s/f17+yixMp7VtmnyHJom16aLwhhELy+v2vJRLePGwkqI81UP2QUZfFKXKjmgn+cVuNppVAPOACO+rInl65by2vCOi78tnfwzrIZzTD1kzMZwzFXGbE0+pt4MoxxB5DIsY4KDPPtiUIjX6zShSBpHEwFkLKbmF2Uk8PEGLcAH8Ebs4xPgYrmGmS3tUCOKxmqsUOyytJTfMsr6Uy6DJoEzC0j4zwqbRVzpa+pqVwQ+N9i48SMjmZlzenHmaU0z2WOoGg+29an1bUCrIaNF+KldJl3TBI2tFCfoNmDowkIXHJR6wkOiZpO8rB+Lq6i5CyUBGG854GtEstAsJgP0iCYKJVx4dMXkkNe3AT6Ax2KyrR4bRAEeeXSMiGk9tQzjDMNV+22mMfCmERU6i6aFzZJnOWJj4265u3lPZ1QKFRggyijRcPVEnq5knRoHPkY4MGksVVRwpktYu5t1KD+RpOUyTlKCzzrEkSfcIZ/da8qENWvJSRC/XEAmj4AuwqJcdLfy9QViPcTSD/klN1yYBp7CbPX0czRgkhFjvT7jPANP+uAsmORhLDZ6sZq8eiP8kbm9dO6B7rb7KjRNfpofb29aW9sod+/ed6UAH6RCNOXt4wpEJo4RQm27UWVJELPFs9WM6wY942Qjeit+gLUGxZEwqMYJ0SZPlIG/JPwiSoAtGECG2yE6+sKQoPWZw40IUnGudCSX8SiH34zlb7XN+Yk6Pmk6GJ2Ug06v7O0flm7nyA8C+aEh0qo8JvJGQrx7EKZ+qtdtJbdcVgLUdkOcT/pdRpPyVMDiAi/eoautV6erJmSzQZJNOqQUMrYkXO6olifWI8aGNBhC+rdxQkcFJOwo/MV5qoeafFZPZCsoCIr81IBKXACMudLyJeEMP2ei6gg9ltIP+cJSc0J5akiURcDjbk4UIS6CXn9YdnYPDT62Szldp6lM6d8ayB+ZJK/zAp3G0QC42eN4O8ktNG7sSu0KTZrmB83ynyQG0Ny3dD3x5zTVAIofldlQ02D6SyDQqA4LGS/CqovKLje65roep4Z0Q2Q6boSIGGAi7aBmx3NNwxy6TBblnDQjLfvo/Dz4VA7Gc+LIP+AKIPpcEsQNHQG+8I0u2N/fVRj2GRl/fVzBh91e2d079EZa9jV6rZJYgMuzZOmqZfIbrtiCX8sTfDvJwMuKgi+iy8JnE2MvKpdK92kccaajkpOIH/PZmxg7QV6rctNERUee3Qz6VwMTJv+Y6Vbrkld9qqxxHZ9Tx7FDLvTUehgfkcu0Qr/TEFgSiHmMCdN5WQjrlhYOWeeLMwM8AM3zInS5voAURl3BTDIOOt14vwo7k9kcSraw9POybnC1+k5OHBo43l6KGphCrvQplJV6GZ2ToVKocLoC105UjRtNbB/rRRjZxi8sWduyiNzoVY+BVzVKxumIDYQa0hDu5jzCk3SGCsBQLVnDAR5ekca5dY+5Rh9bTtbvIj7hmUr7rkqAD+sU1c+5t+vL6qGGOxkoZiMBephodGT5ev2+rd4pdy6ISPpYPcU3Uxe1Pm47zQQelBV/Gc2Ssx91KDcv3V5cWJGb8YdDXXn8ZtxoKFEEVBCEtRjrp7IlFpMLzsMbcqPWtcCqQsH8ya2TMJzEDx1tyvPIT8hDTsvHjMDCtRo7tNqnoVg0DuuW8uiSnxeg48IAYOgAcDGjrRZP4DtTvOMqGxfQnB+Ax/LxQiJ35V7POyl8ycfvWBG5nNy79Xmsdd5megt4MwF0BZoal8bRP1f4/PySaogrnYbXVc+RP58H1xhueIOONTEdYVevRJCjUTjnAk9g4u8uFl0KRdE5vZLJLNaD/dpjtUxrvKZXCRUxoUGXtZucF1j+cMiFxUVlpI3FI5/Sqb/mXm1cKAk8mE/jAzI+Gg1IeRKNux6M+bwFjJyzJf5kEJ+kOjkud1BO9g1GPh9KvvG4vXTlOxdXpWlx8aEB8lYTbv9xBCiVdVrDQg/cWBAojoAWpn5ZrD3RbI/PtDsM/bVRrUhMCNkyoBCqAOEsunEA0ZJzurF8E2k7lkFt3VWaiUlMcvBv8p8XBdRMXgBflCnrINLXBaMwQIXFi715cduMgPW15XJ3faWs6ciLJufvKK9YOkCn8Z4UWLfLgyU8FiDZTBDet5bGFo8KaNN1zy8jrAJrVTQecccMGKSq0ccJhwo6A0MyESLORouGpOvxfVTiy58wt4JlI160O+lU5qzKhc4gVDiOHOgDc5GHCEsKPZGMLxQfq+4aFnLEB7wqQ2X0EccXoccKkldczgHfG4GSB7x51hbMLgtsm7zxnremzivu2ajc4WN5dKlceaRFOaxL+vmYHqC85TQGHkSltSkrchbNCn/LTxWIVWBDKFd7gG2Sm3g6U2PTSJrR0tVW/zFR0Tq4UVthbdBZgIQ5tZ/iSJaGt77qd94/gGGd/FdrVU8rEOuFYNmGw3KG7klu5CIdrLV3JttKxsVC/fASH/LF1OG06udjzYBudVldLV8HEej4TKjf/EmGTOgAyHIe148mK93bTOeAB1FRk5R+08Kgi+JAqhZXDM9f+CrXFU67p7U4T6xlUacNSNraLa4f+4s5x5raWwe6PAtYd5stQkQxEuHvUwyH9RFU0yRRzu2Io62vzzh3sOXRVsXG6UHOH85MRz/WJ78cdjgnqhO6cPwgZrVxC+7EY8pljfOW+PqkgDenizFAV60dF4c4/4qs3ZuTvvzYJHp76S3gQVnZ02hW2DT/xi+u8vn5eLKe8zbVdpJ8WB94DDyu6rGeEKSCLVOtIaGWyEZXY8U4Dy81mBOAQzdscnjETS+OpG39tlJKA8ZPf8iPx5AmjqQLkGLiNEnkNwEJeLl3m2PbzH+Oc7mUAnhhIVGHIZxjphpXSMMmCfiUmDrLiYcAepvpyi/fbsvNinORLq7umKHVrUGqpWwMTojrRtbRnKBrUTRgWDTC2vKufUAd6sacAIQQG8vLzxeB0ndsh+HQv3VLzn8iVCCPZarpJ4W+yEdQhkX+vEEAGXx0xI/1QMhLKihWIPmkuyUhA09yyDoQ66UJgy1d5EhEviNj1g4o8WGNjwlGXWa5rUQt1soLvipdRbZ99dPIS4vLAt4ykeltz6UblRxx7mD5NEtNS5MARR16DCbROA/I6I+uKmaXNEgLJD4PUTvFXAheymBNTmoCxJawHJ64ojv0aQPImm7kmxFZuMlv6uac7hKl8YFm9ISuBKTX8zBnIvJsGR2x5Lzyg2/dWj+zV44CV9y9cXYqOfXKio4MYzx/rbuRum301nJKutN/WljS5PlsAhYaUM8v+cEf6kOaHZ+GpCE4mnRww3iME2BMsgRt05w1eaxAAmuRLf0YZRz4CWsC+1zkQ+VJC4uLcGNBZzmZ4Jh++bA1CZKmfnUMdnmqunEe5UFN8Mc5+WWSwYUUwFP+JQUoebspC8a8Z4W3giqCLJ50UCc5o63pEea07CdmLe/k+/m01FXJFu8yikoLaioxaNp5UoSFm4pluYCFULe0iIp2d0dTKBx5Gpcrne/DBhgjLMFina7wibQj2IRoeNO43CFg7OWgCNB/NH54EZRph5XFg4CIxIH0sag5E4WQiwunxq36OA83V4G6TlnveMtVgjficOQ1ZSwQo9NreZqA8W7A+IYH38sV8CRLipEsecT6wdREANCc4X4245ZbvHp0IZJcoNY5dN3zhqIRqNilpaWyssptM3ub8E8GhE573JAIXazXrDPGSvqvNHbY392qASMPMfJjcOCZceVBuhwdT8KRt+YCiTQrcCTK0RMBsSRj3FbBaZ0+4rBax4348V5kZP3crY7sUObzVErdGz9H6m7RTUSGH6FD8Vt/JqdTnSTCBEPgc4K3lC7cCHrd89mkilPlLy2tlNWVdTcGUWN5QhXLgK9F2e2F/qbhqGfcMUvlPGSy3pObfCkdR9K/+0dxnTmnxbGog/CvjRyRHeZwEcDIsVuCNkCq/4jmtNz1Wj7SRgZ96AfAWZaMjwyWzuNNbp3JArIYzC5kxnnRnXMRipmpVv3OdJuqfvtbLsaXt5Vs8ZqGOu+eRpPhl8knUeGLS8tlZWVVwCFZ4rmpHA6hy386ulFFtZ2CWP/jwC/RdIgGtSM97EwO/SETjV5TxKmfdv6dfuucPGDJIn7oswprQBYZ9MWFhbefsRAHIRPdKxTxMx9BgArQMQTxmG+RuxfzfuLMn8uSLiYYnh0HzkW1PHZDuODIV3MI6dtIM7vapLY7aZpfmwh/Wya2+SwLfFyZhFJ1/J2rIJznokb1Wmc9jWN0nzETDF1J7cZ1CuOulrQaQgSObrrZWRL5t8RYj8dpNH6rXLhzucQTBKVB7jhPsIWu4DZVtY5PGnS31A9Po/kzBIpOV+zPodKVk05EUWSlc4fFPQYD1Qv9pOl0kRSfT/JW0blZbbtyZrmnUTv+ZLx2VB5vpLsFBK4UN7iOckvS8l44nogHZXjEEZA8I6wLtpZFSTtSWCHkAhQNiIKQjbFc+Md53vslLbevwVStn7u5mjePueTG3+OwALDLRoiEzGMgJ6gdPCbO4dgeFQzwsJknAntY0Abw8XFmMqb04XrhmQBd9vtQ+t9CiloSZcHyCM1yQ5PnbWqHuU3r0S/vUVcbM7eQcaP7P7u95AlKL46Sx9KF7kZ20oVug08N1b6roOYn1JzACoo8MK5i/IlkjWIie4RbhjGXzgFTWKQKdOmzDOc1DSfnuGG50nJm/qgLd7dLsnpspFC36y+YS4e/hWZ5sRWFuiRvgUcHs9kEHZmWf6R/O2nqnYu2nyuxnk/KTspdRFQwV/OqgMfygWKM47iCFM5ZAjKJOkxCB6HjwTZufpCpgmFhcAWInIbCAJjHlo5EPIAV1E4DeUBlgIQipws5TeusR/s15QhLLRClRSIP+gWYPIzeWLwAqMsjD9LjQR++ZcvHlHnwh/gSH8cx41a+qhK1HnJcOKSFn/LFRA0/h7UKdsvIl3tWXB6htrtNk/6XxWn8GOMtlNXVVY3zlhQQ4HF9tchVpQp7u87CA32Mi3JdjHMvd3CFO975iE4fGbAgK4kdspeP0YjNEkjEAUAGHmnInWUgHP2WxcPeuCqAFCe6xfDnmF0tF1c7HbOkCCMOZ0vL9Ah88ZvnKHjUkTFgvRjF5HcM3iiQ5ehuXW4UQq4L7oikx+2grEfIwGtTOxB3nk/6X4dCngYW8FbW/K68qEA1Fq3Hf9VJA+kk3K16C3d4AAgG3cZNWoFAgUUSfGMg+l8/NBCsP6BDjOwycddkx6pM8uQv07esGDDExILzKAsilCvAR8kiX/xVBXlwvjz+rBcMSbLYvby6VJZXFu3ONPJ7IMFNfl2SBNncgjwq2LB2t9DiZbtAY+Bl5aW7TZPnF9FsHSTMYumKLB/3axuLEA43z5jfpgAMgbYs4gQvFcxY3xr4R2clwh3TlgZrRWMpQOwDcWv6EDrRrxZ2OBTHSCuAVe+q6D+7ZVtPi0lOYckGisOJ7ygiEicfdVYucln05+90yOIxiUCjN4XyYRqmuXLDPHlnt8h10mJy7SfQ4FtGrudKb1m8pLZQUttv0n2ZfFB0t2yPckWp4iGkYKpNrRSN5pBaoW6kcDYNnbE4EK+eyh1WoclTAs4zxgQeQfZXHqybdPBXvAR1jQtAcssW1Fy5VVZAJCzz5QtDVs9dpElx5Ye8gaL4cXHUcHmRGuLM1LnDY+DpHD2eYMDoR09Lb5DO7Rd5LnMCri1ght8OauptCvCyciHceT55hNruNs3yJ90FTSzYHkWX5+WHetVHnvRjMCr+WEccAwCR8dBfZcRhpXDrvzZ+kuNV0MUdgliOsC7HrQAh6dqQtlR0l27oqluk3I7zgWQkHzpCLtJ2N6ujtTVZMUV4WDg4lnliXZN8MA5c1jiPJRXueZA0cgZyPl6JZsWLBOpBP+jgdltZUI+SF/f3TOR3Gl1pP17KtI+TftA0d1vWXS1reZq5ATbqzqCrQKCa4siDzTUuftUfWSgAkRZAMrAEdeYuF9kmTeJxcx9rF4N7eSIZcRyXs5CFIXTT2G5wuRHgmsjbdcg7HhkVefxV8xHcco/lQ85Wa+wbhLzTkf5FTTJ4BpnJBTlzGONaXwwCnjICSzgiVwKSb3iKD+Bh8W4BZX22ifKQezvaFJXWcPq1j9BFfpOEP3kw4ABb9afy/KdAMyEESp44wVGAnE2eT4PwdvcTsllgA02xJCW/GfnECRYgRfOpwt3QVTd/Dh6Drwqaws2pw5Vmwy5RJYTIR8R3FsS2fgCLozw96ZDlU/IKI17eVSE/nAK8eDmPwYaISXrpZjWG9lujbiFlvRt40PnGPE8ZNnm8jCblaESeI/C7fBUWbQpwqhwN0gJNyDThBl4FEuwmVZCtjmTSF09+0zpxTqPZokDyD0CKFLWRguLM3SUNjW6F+C+SsRupnCFHmo3bYHM5SErp4NYflGCEAkyhlHQyj9arrvZEQTxtZkXElzmPOhDoZBFz5iqJmi/JqIvF4t1G4I3bWTQGHtQOmEUpM+sIXeQ+OeUNlzwBz9WbV3FcyTB1HA0X58gEhw789a8An4Z/Zeyhx4062riN48JqVI7yRibBnRORsRK8nTjAaOJAiMnLxwBW6LCHmQPWKU7BlHXQXeMRwgoLdoSxdpGc+GPxfL9WurhtFhdWiJCm78LkRZhZSGZsxy5vAH/LKOvMZah+16KotIbyvO0/zc0Ra+dv7surLZPt7UxR8dUiIRPADGtFOGR/NYjZMo2uaKTqP5apcfXflscPV5yqUjjUeAYM64U17ByFKhOgwnLleBDdHHm2AmZTq9nLMMhE2pOU8cgmk6ATpTBU+rFDpdaBopLnGOfVHDiDyjOB88yIxRl2S+kt4GWDTNI0/7bfVcJh3zpi+UGDKqxNtJ5++Bdj7bzsoYrPeDm+4RjQkFVh/KVzdy81mZDNhhfrqBNCZOVoKBVXp35eV3JQNCIc6ec5hP4AUwDRyZBcTa9mxeeRvwBbAgyw+byGZXbIH5Tx4jz8TORhYaGcKb/el9cCdMrZqvMnv9iNrHDOeT8Nrwq5hUT+k6duBG37zaJUMCl7UVwafDAYlMGQp6AUl8rUUbEUr/ZPIqwdmyJjLBSDcIm68iHjAhaO/AS/48OhAjfN4AaUjsyTx0cAhTBRAzp5umtqnYvczTqfPpV/xqlH6UNXpB2sH/0TgTSSg4gTeYgyJaW+PKHc3penPPFOZIN/rCfzqyOnTjNByYxWwNMYMEaht4eyDZJs8caV1qL0a/vP8ktqu98mje9Ojku3e1h6R12fu/Gywlt6ve4mi+c1txpOY/qJqyoDJj150D9+vuJrA1ii/iAOYInrE3snmMOS2JoA6gxPotEzTERO2nkOgIl8WuNGkGU8ltQfIQZxZWTG5TbhDr3OPcBbksVX+dkQyt0L+8M5M1cULi9fFTWovZTS1v59U7ZZm87tx4OmCV3mN+l+S16n+I1Gg3LY2Su9/lGVmyYPIGOMFxxViIy7vCrrhkQxDaDG8DgLP1hyQRGXxldA022OZWv6yMeJz5Msp27TnzmI1CxjgFSQ1yz4yA9+pON7yXJnHLjJI6ch26awrsG8wOeOmM+J8vkBi0ZxgvCoZfEFYAHZEWa1qrfbRNRXm6FxDtuVMFkhV6FZcVwx9TgY9svh4Z6/WMP52NqM4+qofJE3TzCSW+ALCotFd2JwujC1EdQYgKuqCj+5x2M+E+HhpiLQn8sebQp91eIhrvPMs+NxgRAHdREccfTXgCzSifBw19L4l7NokCoDmMTWrXHeSJ4jxow1bo1cSX4VdE6XJRS/Ci7uhHyXlGW7CrnuqtvkzFcFbTc0TXFbtn2EJuVprF7vqOwf7KnLzddrNd1tsLLjaPoRGACd/QGejg4h3KfRWGkZ7VmTDElR1cXBWGzlc7Jr9i8RrXesweHj22e4K/AABzTOnyj0khABnDd+weEXRBxOgkkyk/WkCz+WVNREQ569IF18a1j+ZXy7sXYsp1CP3zG16+wqNO5q4WnU9r+OXPsol7qfE3WzB2VvbyfGTfVKdYVXi5Mgoqto3AGEaKb4gywvHhe3puUKgHVKWAADh4NFUYYEkH10nnkdi1XCO/b+1dTlkV02ucr8hWzI2dpVcI79iFMB3FheLHcNd15IIdLk6K1RyjzfsqXOyFyEh6yJA2kp0hus3QIWb7IUt4vI69RLg4CL6LLwacTXafb3d8rBwb7qShUtHW4c6wp91BfdHg9Nx+RC4GKCgUWhLiVG3ObqYjDOgm0AIaxQBUIVsb7aXWc0xuckm90aeq2+lotj222giZGDkHUazlekx1+EiJCDHdyAi7Q4+rkOlx39MG7KkPURxIWXM1uyGWmgmkh2WEHm1+t3c2wOuL2U5Ztpk9sV0HZP0qRcnrf9Adlg2Cu7u689sXD1Kdjyrj188ujWCksiwNC42bD+04w0KONC0bipz76KYyaOj0G4MhZHGtxSVSb0cEx3XCBsxuSuBJaWvBnIEYMVSaea8uErINS8RzoZRjz9hdhbFCCMNCkquTvRhBzcO67AqJ+xPm8TU2+CPN2sb6VJ7rbTW+t4s87b/tCk3CwKHaflqLtfXm8/L8fcLlNlqaZcPW7wCpBGTTRYw4z1mmskokTlGgQAVKdOC9OgY21u/9naVOU+8IOsmIsi8hjhmSYUPmSVpSAWvrF66ibqECCtKfJEtw4i5VFEGBOQsHSNZYt0LRH6XMZI2/lCljhyC/OhTtniK0mZv8KGUBaPAT4oBXjehQxVmVtEWcfQVIvXFoDyfJY/1JY5L88O2uOyvfO6vHz1TBXOqn5cqQ7FiriS4ACCajx8aqNFg4RIaOakoZCLoih1tETjYjWUFuH5vEPMkiUbinQMiDoN/tBlS0UYeSE16bS+WFYxkOFWOV0egeWUd57wdna/BaDJRzw2GeBFR9aN0xFlurH2lzoFOqejoZvynXd0/NkGyVqPyopddCS6Wcom3+DvnyhHcpumAu8imlTQpnZYujn0+73y/PlTdbWaWLAg6ltJFRhYAIMwKs9bl6hEu/1jPXEMQLS9aCisDg9DI59LH3bX7ABKgGd9lXjT5kLdwUE+iJTB7r58cTSgna+fmw/O8kUC6cd6X44HmZAgk8BDlnM/J8saX/WHY7LC4ji4CfAhC4ipJ+qCB779zVu/cQDgKe+SNTkvygN+rZ7hXSnb7n3pIj3OJQKTQpN+7fNJ2VkUcm9Kr9cpz18+1ThvaH9bjKqiAUM2PAGyeDqJbkynba5kcJAnnykAQXHmLMZiAbjUE5ZMRdaJ4wIIjlVXjSm/SMiTAV8UiCWIOKvpuYtMYModsSwLK7WxBSOdACSgQ1c9l07LUyc1Pway/hwm5qIaA29xOZZM0mojL448kR+alBSzPNenpk2uT9HmQRfpOXd5ZKR25Mtommzbj8o77ByW11svbRGo8NOTqHhmdnlDnRgejPsq1lGZptFsAaq1Qajp4lpyAEAcjYxcjKmcC/ykY9zVul3CGpKuHXS3Olo+fzkXWw9uHQEK8vEXlEs/5CXwir5gAB05Upjj5zgx00dmLK6fAKLrQx4cUbmyyEstdREtLpV5XgHisRwhRESfnJRzDLrvjy4CW5vOAQ+iwO3I2QBJ6Z7mB50P58UzIy+j7B/sqCLpZqj8OtahMcQQjUccd1E6JwsxgAdQYVlga40oQfhn41cZ6j7kQtBx7cKdSzUTg3BQI/G2buK3u24kbSnFTkY/jBkZe4XFy6UdOICaFxaKo3zy4wK0jki7bb19YUmG5yt4KeOChh7ry4tldWnJrwCZG4OOnEeGHTMyZP+gtvv7oaz/afQW8KBpES5SAs2Kc6Ru9tmLb0qv39W5KplKlSPqqQJLjNvh+iEe2mjIuIqjGl2vCotGlcUEvETCH9ydK43SoEnQRWPKB12RZnBErLNUOaMMESdI6ZAeVqWSdcFVJvXlkYTCkoUVJyY6SMBlRKeA6DGe/K0mVAVJBekxDmbtc0k6760tl7X1tbK0vBx5Rc6WjvLzlhW58aQQDvzuKeujqbuLaebDPvhfFNY+TlL6sxvl5aun5cuvfmnLh38snEY4DQFD+Lnx8PNf1OPYkgFQrJTctiiSJ05y6AmL6Iav6biR5RfjMFk6yTkNy2fcphycV5fc6FJaBri0jy+QJl0CbBUrEZs4YdkV12FKi6sCcesLK5gWP9KEocjzSNbuZHRaljXMuLu+WtbWVsvi8orqgHU6yTp+XU4Zgy91fPeU9QKN6+YCso1IwcuErxOOu9s9MOhevnoi65TLC8hkw1swjiLi0LjcufBN8trQtno+1jjQODrxxZzXcPxY/2qsJ+FhkegSzVipaqkcaxy/+lXr6DTNYyGfkqZ1AyRAILd9DQjAxVhWgFB5E+jkw9baHHGCI56zqT9mvaPhsV9Du6ZJxV1ZvOWVZY3xWCCO2XlcYmi0VhQYjFb2HVOW4zp0rnOaRrMUNpU2GR7nAG1r+6WA9wvftfA4xksGEd62HsShMWHAFmtt0VjZaG7yKuTPQfncBxNhMXslPJoj04ruUenTOKJIIyYbaE6AQm2dkPNQ80JguBmPqp1luegSidtOb0xcZKm3/jqe/cKNP6pVA04Dplc4FvDkMPBWNcbjYgwNQdYaqkWhq/7Y57bTW8BzJboADbXPLw/3b+kPjsq3T78qr7aexWDaDZ/xWS5R4jQklU02FIZrXG8I4INMWqfK6DAQkK+UMlZQdYQMFHm2VYmEAtxYD9cA6eSFEPJjbsVDHTLWq8KMu1N3xZJrxUzCP6xbS4fzbUfItiOIeM6DRWiNg8rmqiYWayveCs/FWjMRGvzD/VyGIPWpM4fcfnoLeElU2HWoLY9lYcPnk2e/LcNR3w3Da1W9UDpuABqQyqsNCUmFN17WBnVjKQhLlt1uWEBAS9Yjni1YIGhMVeNYN/mz2/EBM8DjezlOdtyoAV7kkytoLRTxnc/aXQYjGHlCNxrIuy2bObrfrCNPPMS+kCQfvjWO5Cg/M9olZen+xmpZ39wsiyvrsX7nW2ZcMPXoW2RKd55nLVbIhGRC322mmZMLqB02KddU4tvxTzSR2N19VXZ2Xuqs3qkQ8AwmVawbxxaqaWyAIGWOHzrDjWyswdXaRN5BKUPjqeIV33qpd0T1gx4acizjAIKqFUWWNULHRYp2w7+J2y4fMiTOxRN3KdocoGnKwEXUgBKPSD3Iev0f+sbppCUVb6wslkcPNsvaxt0yv7ymvLL7pILOz9Yu6eKpT5URvijg1d7ju6J2/VyHlMuL6V0U8/ny3b2tcnTUUZdxXAb9kYFHA6HO1saVB/Bqg4piKU1/edQfLmSIk7NSNzyNo0ZKEAUHAD0xcTMHgKIMaWVrYpCcfrVFHRsGuLO7bVPVTVyFNeuQOnX2qr/X5+RfY2XaHkPq3ClzrrjUxUm9n+sC13QBNNaOhvlEoPvs04/L+v2HZX71roC1popgvx1dawAQ4M3xADegExhrKt8JvQs2kgy8pnGmU4bNkmuHQ6PR0FvcB4Ne6fUGZaiBcnRJVLKqBnCosZEOnXJE3UdYBVBYRQIa0CRwJvPizQaKw71MjgQxqciGAKQJVOvgX8e0fJwbgJYO/VDIBOgBKYLWTfqUQMewjABRPqThmIRibR1jLGdOC6d/LLEvQv8FKPmwyubyQvnp54/L5599WlY2H5T5lU1ZvQ0BbNW7UBRJkZUfgY1FZXat/JDoUouX1G7kJFf+hD8VO9Qs9uBwtxz1+ppk8OaA6IqwEFylvKARcECufzN6AhTJaWWcjlsJkQgLacWrgPKYiThMGHR0IOHErfpjbEVM1GQ61ZJByNWj73+adV7TNUMZl/zVPCJr8ZoX/drPUbh4cNR4WS6qgM0HyrI4LDVLKWfqHR5vrgp4H5cHDx6WxeVV4YvdxXmflnckx+OPMAD01374og+Z+A7ofdM5B7y2sosUTwvDDz45GZa9ve3y+vWr0un0vB4VL5AmDpWtysey2JIFRVyOPjO7wSAdaUSnaRkLGRgh4lC7iGO1lcegqOEQ8cNCNfvqcm0v8uFEDCCOkRGU1YPi+K1Tsqz+2PHCvF+ajbXMdKzCAFRaXBBEzbyInU/S5YMqZj61Fbfd2JEyp274k3sb5dPHD8va+ob8Y2xnCzdmABeMfr5f9ua4r3RPWqX9MOQ6ek86BzxoXPmXUFsu3Fi7E00otsqv/u6L8vzFM3W1wxjbeTyGZLUUrqmGvFyh+Hi7wUUJGHQrhs9j7OfAKgzrx54BVnfPhOW5T9LPPx5zYYEhb7MXs98txniE0x1KqSL5QqGWFJQTDzYtuOsVWHiDJ8zjiAC5JuE8+b6zyoNVBWAAi3zAPLDN69rMKxy5DyvgCXRLEni0uV7uMpuVpfNsuQA26oDMwAFA5Sb8Ze3Ohof+Vm2tkA9CV8HGVYgSXJkuSlTXtrrWru9UfPGLn2lysS/QqQG9L4240RW6wegO+aMFaCg3RpwnozHW+LAOAoXi2ErUKAH2ZrxEnOzC9GOl9YA0P3EOST4scPgZXGpQpwE4DLbQxzmWCYsEWGTkIh/yx1LFtzZUjVLH3rlB77gcdYelezgoh3sacuyK947kTu7GcTd4f7dbOvs9xRtpJislp6WsKJH7Gxtlja8gUabIahQj3S4faQuAakZ/p3bYLW9GPcnERXWb6c4XX3wxLkqbaMBs0Ema9OOcOxVPn31d/rv/7v9Z/vlf/n80uTioa3enCo8rfHV1qaxr7LK2sVaW5OYFhHw0zpYCMFQrZLDUJOgW4xbSyKv5WFAyTFsHiKvFWYgIltVMGksT3Z/SVkMuqTsELFDeOXAZpd93IEanmn0Pg3tDjVOHBtjy6nLZ2Fwr9zTDXFlbMdBZ3IV9I1/xRoMTz9y7h71ydHgUt7vqmDasYlhTJ6vcR/cee+xiZ8t8uXtvrXz22X31mMOyrrL+H/7sj8t/8h/+WXnw8IHysK76WlN9LbssyMdFBsaYBatuuCU5v1rmH/5+Wbj/o3ijQFbie9JNWbk2zQTeJLXBNg2MpzL1v/3tb8p/9V//0/I//bP/d+l2e+MMR9ckq7Es8Knx7j5YL5v31sv63TUBcd0WBQDkcgugYkxkMOIvsA0BHlvKZUHxt4zygZXC6rgBFQdLNhTwABMNBJFdf7KJ7hCTSYMIFCxb9AWywdHIwBnCmgwxRACAgJe8AVoASLeIrlizIx86EXOnAWs3GkmPZ/GjpiyK4PoiWadsT59mPXILcH19ufz+Tz8uH91fKz9ZWy7/ewHvz//op6qjewE6WT9e4+vX6XqChrVTXF+YTOBUZsaBm5+VhUd/oFnwXad2k3STAJz/+3//7/+T6r6Q2mAbVxgAqG4AsrX1uvzrf/1vym++/J0bMr7/FeMpGgbrMOxHV9Q5OCrdg77lvLgs8xCD9egu9Rv1prJ6TKb46HKT8S+QuVuUrC2I2F0jgCWa9DFjRCfk7pIdvGocvv7d6w7K6+e7ZevFQTnaH5V+V4BTNzkAeAIjgDQQ+wLnUXSdnYNe6ciq9QXUk6HydMwNfSZUNH5YbPIYkxfy4KRbboVx1Al1l3VD2egdAP2iwv/w8YPyH/zk8/LowX1/eNBDAIYCKluWNyonKCYyTGKkE7nldVm8VcnFhXcZtdvxu6JLH+ieRinfzixd4atXrzSbfa0KxdoAhLjazZIhCcZ9NPr+dre8fLJdfvvLJ+WXf/1b8e/K7379rOy8Uhc9jO/pxxqXWOOY7F7Q6aM0MvZhdgvUQj8NiaWJGWtaBgNa7lOlvb/TLU++elV+96vn5dXT/dLv0M0KPHU8GhOCyGvVGm4zF8RCWZyX5RHHjXtmwzEsgcgf6WWXGOWnLA62xqyToHADwMP9o3Kk8d+Khg8bK3yWQWVWwqejQTnudQR2bj/G21QBtwEO6PTnWb7qvWhme8ZYT3JXpSYvbxNpJd8Epa4wDxN03USoALa3//a3vzXwaCWsUTS+ISK/VuGknqsdSzeQNWHwvfVir3z9d8/Lr//mG/O3X70se1sHHnQzKyZOarHeOl6zD92d9IWlkSCyAi0gGsmKdGWpXgjkXwnkX37xbXn+zbYG9AM1DrPZhVrxYYFiFnrHLwlnxy9Wks88rQgIfJVodXXFnwMgDxBdXczKFY/cKK5nyYztzFEHDDUAYgPGGOcBrjjaxpdFAXdtiTfjx/gP63Z81C2Dw71yPOipTIxf61hYBOicNhZPwLtzoiFCX7Pb49s9ybjz85//XDkPigagHFH5kzTpl+fHGtv86te/KP/1f/VPNbH4/5Z+f+BuNrqAqh7R6sQv/DmGH0QlopMG8+eVNNZZFeNeWm4awmtealAIeQ/c9ecn2ARmrC/WjUnGSNaTLgwrChCxngCKOxzxJnj0BGixlsGSNYgD5J7AkLbSSiYsy9GUJayQb6nJL3VaGAmOigv5F10+07gRMAk4f/zxvfJ//c//Xvk//W//onz64x+p3Mtl99lTdflH5e4nn5bNx5+U5bUNlwFVlJu1O5nt8kbjPEGvnK3cK/OP/6gs3PuscDstUr8eRZlujib1nQMeFJV6DeBJtiNr95d/+c/LP/2//Zfly6++9HdWGUfZglRd7YRx5/k5f6pofBoNHJZT1gGwYRXkDounI+E6p/XQw1gpxkysG9IgyoP0YUvodhdlqfheLhYGGlstxR1bS2XA4AEIIuLRbSJLeJalHacdD/BhkQBehjm8MpLocN3BxJS8AX9yUn6iidf/5T/98/J//s//k/L7f/hTW97f/e3PS2dvp3z6R39QHv3498qqJhyLi6zvERn9bDgVKz6TvFNuqz1U3MeaZGi8R5rXoSjPzdKkzuyvxnSdRJHlSu10OuXbb74pW9tbtcFCR9Tt26BrkxugUnP9B2V3jNXyAL8z0CC/r27yqBxorLa/0ym7W4fmPfHBXtfhfXXPLHEAxHl1udFdLvvjfcxuDdwKunb6+IV1i242OOSRA+QcJxmKYuEWV/9Mx4vUAjuTBI7JDm/pEGT9gp6hyn1HF8iiZrNMGbZ3uxo/75cjTciOBwPVSd1cwFUF4FTnHu/yRz4EwLh91rTFbaO3gJc0DYDT/LhSd3d2ytfffF16RxpXQGOxplEvonHjjSO+HQ8R+0qEbMBgHKZ+Oafimf0leLAKMGMyr5mpsRMsyaE73AmwdAfQLNIi8gg3FrNNyKeORs/b7DDLBlujfnxU/ueXNbkQH6uJnupi+kYXW0czbdYyz1gu8s4W9SyugGql3dPE5EparThyep4In8Yfgmbpngm8i6itiJ0oL1+9LE+fPtWFFjMuiN/JRKdlABr7nwtuGg92RVZq+0dDYkFiJgnAlmAN0AEdACQMRi71tHVMOw/CWldnzdxkEZr4weFudLV5DLx6rh9xjYN+uQFjTE6UX1nq07mFsiWr/+2wlE5ZCQOHxavDCm/FUly6dj7jcEx3S7OqvL6jkgm0yGl/zzReTplG0/zxy4zj5vUUL148Kzu72yo8Y5zaOFPiJs1KL9qi3VDBMSNsc/ox/oo7AA3QGgDCuKNby4lEQ1mOJk2filyAypHf81muwKkUzullMo3113jJFRTS7rVoe+NrU65pgo7kv+jiGS6tlrP1+2qxxbB2NQ5d8akcTCpOpeCUMjL+W2Cxe7ZdOZefSlHOC8pxDbpM1zhnswQvUsAYotvplqfPnpVer3azkMSJ0o43SwfUVAIWIUEVFiLGQ7E80QZTLFU0zDgOjrDzY7Swdm83wmT+3F2pwT1BaLFCHY44+UzLFXnGL3QgF4fzZW03rt0+RaaR89jMSGLdTpZLF/TpcFCWVP77dzfL6sZGWdy8V9gW5ZmyRN+oXjSHk6XTxETHM4XdEUDnYG6ZXQC8NrXzdxN0UVsnvZWzaZEmMxaNoIZSBfCixefPn7vwTdzzVxJ0UeEIg6NBY+ANYAJk6WZti7FagAk3Vq4NtHaX2tYJOb8CVuaDxgugBRNO1xVlUyNidBi8i8IPAKrCpC/Om7JC6df4B2V60NhtEX5CFt/ML+6zk2Ov3Z30jsqiEHl/Y61s+H7tepnTuI8YXKS6RKVB5QNglBlLx50OvuyjepAQ6mfSrDx/F3SlS2JWxo5VQTs7275Vdm75ICt0ouB5Pq5kcVqPsGwNJ9janMDL8PZ5dKW1QZxOkwZEvibTnE4xrgtAZpnI8/k40+rEfpZ/OwwKXYQhZw9z5DaYM2byQ/UgQwGPiYQgpXLqAuNNAipzPFsbTJc6v7QinLE2ybO3PPTDFhqNZ2vZp9GsPH5XdCXgzaLhYOgNn4cHBypJWIQsUFPJQZPnUIIgulIs12xOS8YxLJwqXF3LnAbfMZYJ3Qmq1J3Aa7s5pjutXR6Doyyho7kYOM8ypL7Uk3SuhFUfx+nUxE2JY1ninsA20Oz1eHRWRgLhUX/olZN50lI+nS6zEJGfu1B98OwFL/Xh/ExdduxMnt68WYabpqy/q9A7Aw/9Pd579+KFXz9GcuNEr5A2DZcNGmBKCwegAmgJsgAYWU0g5G2uBEeEwW1/iDy1QcI53WxWUvoBNsZ3edeCQoQFbRi5CAv9MHLyrjqi4P6t7qTITVDI44o8pyRH1vE6gxOBDxDOleHotHS6fe/iVh9c3mjm6hipRCps5QEieaRJF2OMpxyG4hZlHr9vmgm8yzJIQ3W7He80PhnfkI6KTIqGCcqGghN0k1YN4HEkrAFmnofFSZ3RFQYIoEn9HClDyucRv7RuyHEM0DUsqbGuWUScAGl7bBvkeMmVptdmyxdRMV/xGb1RsyxsqMtc1aRtVHYPO2WkmawS9PiPtFmvY4wdz4boXPn2HZvF9TK/8diTDLRH+Rr+EPQuumcCb5ImFWM19vf36m6UaMiLiMaYBbicGNBthpXLCUJ0m8noyLQmgdE+J3xWnlKGQ7ysB9lsmLB6OamQxDmd7XxkGmE9GysITaY7rWZCNuTbRNp8RuoNdaCZ/fbubnn+eltdrgDHnjsdWU45PWbHsvxIn+UVndsqLm+U+dVNWcDYDvYhKepsWulmU8aZCbysxFnExkNeLXug8Z0Tb6evqBmfY5vbwAuLFty2aAk+3OjmmA2elLKTnAVr06Q/XWhaOVsPv3GpAarEx5R6M32YwoZ8xJlIztTkIY78mqcJV3OHbl42dKShS6ffLTv7u+Vv/u435XfPX5ahhjWDg91yrAkHyy2j/lE5GfS9Y3mkI4+Qni6oiwV0Gu/ddpoKvKjMaRXU0EgF3traLv1eP+TdGApgLaoVNRsNTrDlecMJvsYvKRo6KPOEXzt/bRmIMPwm4zYc5+0lFc6hSV1Q+iGDG9G0kkFtd4vws3cNq/FR12ZIvv5jdeDF/mH5q5//uvzf/+e/Kv/9v/y35dn2Tjk+3CujnZcCXd+7gQbdbhkcdUr/qOtxIDtSFh98XubX7nFlhdIPRJR1anmvQdfKYbuiB7rKtjSjzffeERQcMhypZECUxzY3fg3g8GvHTRkoJwRt/3RD6Zf+mQ8I9yQncBJ08KReeDI+8u9EipuEE136rdyQNwV0+uWvfvFV+W/+5c/K33z91GO7R/NvyoZ4flGzVnXBzH6Z1A3IzubjsvzJT8vS/U80qYh1vg9BWQfXpYzTjnsh8GYlgj+3yrB4LLqGZ+VK7cZrd6ltTguITNvytNPFD9Al8KDJfCVAOCZwklJfmzOjOZZDvlmnizzjJm9tIE/mL93t8zGdc9ejqTlBJD7aQh4yHwKVxpm7R7qwD7tksvzZJ4/Lf/z7n5dHD++XxbVVTRwWS1lZK3P3Py0rn/9xWRUv3XscC8coukU0tW5E72STaQBukTG5iIqvAS3KxssGDI7JQ1i5XJeLxoVCVzRw8qSlywLgngXalG1Tnof+BAtyYXVDFyCDc7x5Ph6UeeIITaYzJvlPVstMWcDHX60vg13eS/Nz5Y8e3y//x7/4o/Jnf/CTslq3SRXNXFc/+f1y76d/r2z86E/K0uYjLyRTnpugrMdJvipdJc61gRcKeYb2yNvdKWvUZ1PoaLQGeIS1u9QEG/k6P1aKhm0DKQn5bLi2O4/IZrykdvzIdzst8kQ+E2znrR355TzjoPdEs8eIH1yTdpzkSWpyEBTJp45Kihaga+qMLfOfbKyU//Snn5f/+A9/UjbvbfDIrWa7At2nf1Q2fv8vyspHPykLmkzE62nfTvs206XAO99YQdyX7XS6snp1YqFg/Srk7TEYlBUaDRzh2ZgJsPSfRm3ZPJ+0Ou24uEkPyrgcoZQN+YjTDmvnO49JeY545CfiXZUyHSic/IQfqlkDNivrPHvx+b318ic/+azce/y4lPsfleXf+/Ny/z/435W7Oi5pXOdFYl8w3z9RtuSr0NT3410WmSufxeP84LErz8emUZPj6qVbpUGz8ZrwzGyet0GSxHl7jDdNBkogtillU/80Im9Y4fasGyJepoN/hKEDnfYe07T8zCJ/d0x1EMcG6BBO5dSOM1mykcZtv+0el2dnK2Xpx39a1j//aVlYk5WTRZ5RnFtL7TpyDU9W2qwGSmINj26WRU2oHZ24aTUad55H90p6GQ5DbQsGNXEbPUnpB6MrOAAGt8GWhN80YKbu5NQ7i8LKpWyWh5AGpJdRqs+02vUjXzP3W5/sdcv/8LNflf/XX/2v5csXOwLisu/LSjDEbpiy/q5CKXedOO16HbfmVSNTwTwxv7e3Z7A0lJUYFZfuqFQSPQ+cpHRnAdoAgDhy3rZEoQ9XxAnQOcjnk9T2SwDiN6kbv2mg5TzDArypj2Owgqv7bZruG4TekGjSw6UclIPBqHzx7Yvy5bNXpTcYVtn3p2l63kU3cdr1dB1q0CBC0awMpD+HwWDgGa0bwd5KXBloMhGyDYDCMkEpMysd4jQAa1u0KGTj14Ag/c+Hv12WSbnsPtvUDocSiAE6unsYvwbADWX5LyPiBHPbLnSEHpIlbWoA4zo8IQ3VIz6ttLJ8bb4OvUvclGvLXzXuJJ0DXtKszIT/mReP9/f3SzzFHtVtdqVFxUXDcSSenJXwT/2TaWS85AyPY1uesNCLJW3PmImXwE3CLyl1p0zmA07/lM/02jJQgPB6oEMyuNHDIcZ5DTl/ZI2xJP86550viPnZ2/ek83m+Pr1rfOK1404F3kVEhfd6R6Vz2HElSmUcXX/8nAdP+IUcNJmBpPNxQq45EiesDOEJsrRYbbC03W3CL9PO+FCmQ3gylLIR3nACLuOF204fM2wahxA/ceE0NJlf8hFHPzWnSU88e3v5aynG6Uyhi8K+a5oJvGmNBzGuOzo6MkOTZWkaL+I3eqh8JhDBOZmgMjIOzHnbmkRXRKUH8GrLic5bLahJKwCYRHjKTFI7XWi6bAPaNjV+k3k7n5ekt/U2FEFNvfkoP/bZcXGhf/watxmU+jNfk3xVmhYXfheajJvn17Z4CTzGeRdlJuo9Emk3Qtti4G6DDEq/iBuAa+KQcXRHY0CpPy1d6sLdTjdl4NDVyE0CeJLIR3CEZ/xZ8tBFYRcRWY5ySIfPYzmK2TQW7131fhd0WZ20aeZ3LiaVpJvXLNDN8uLCyajZ2MnyqdxQ3C3AFY3ZtnzQ+fikCwc42LfXBgncloVwZ1ieEyfl2udJ6Zd0Pg2Az0USOtv8PtRO/yJCbn4ugHeiuleuIuAD0fuUi7zCV6mjK1m8tgIK3+UJqIlKUNONGzAzEHcsqODmfmpjvWjMmCG2/YkHkSScemJZ5jzo4DZl2ufz0Ew6ktuUOlIOauf1vMWdXplTvGbSZaLoSn3KrY9KtfAJUT5DMC39m6J31T2rXi4i13RGnBb5vF9UQLfT8YdAGqJBAyQ+0zEbEWqHoS8bEpoEQ55nfghKv9wx3AZr8iRN6oehdvr4TYKSsPb6ZOiPLe6ZVuYt05iky8KhmWFk01mN/DqPuuDIE1vQSP9D0EV5vSpdVuY2TbV4syLjz1d7ut3uWMb1pB8q6G1qxly402L5jQP6i8bGp2moRj51tmWy0TmP/CQQOGKF2113+ud5m9oyGdZ2RziNrPgG+nm9SbPcSVP96jHrTBopZuGrk5OEBOEs2sPk4Sbosnx/aDoHvKyI6SCKDFJ4JhfjCpBoO147Ls4AG37hTxklNZZFJ4wsx9Tb1pVrXTHOirCkRib0JLepLTNJk/Eb4rwCraY7jdp5gWalPY1CNpi/OEKKo3jjJ8eUPj0NGz+5sCbTeFdy2d5BV8Z71/jQOeBdpoRwzH3/0hlt29IFcQ5waAeP11pAzAaO86Yw590BvLQ67TEZ6cHpl+mn7DRKQGQabdkIi/A2TepKHUmT51Dqf4syff9CNW3+FBZZCDcE8NgDyRGaqvMHROeAB82qKCoAb7ozrB711MipcmolZUXVw5jCH92cNfHC/3zcWXlIQi5lMl57rAZl/DY42zIpB+ASdG2ZyOv5fGScpMnw6xHxGkazcqXfIOexHiHq/ah75DfKJ10n7czru+b5feJOo7eAdxFhmXjQhFeTNRmIislKi8aL3bwZBmWmY/E4rUvoiFtezT3TlG0zevNOBW78INqlkWNiwMyvGQelXCNz/jyBmZS6czabhD/cprau9nEanQ+TO08ZRngoQQ3WWiRsLC4f/fPMLMCbXD+dlSb+bX5Xet/4k5T6rgy8jMBWKCYYOqv+tcqon9o4cRsrwRdWBUodcNvSwO3wpHSn3rRGbTm63yS8SJO0E6CkkeOiTC9kG93oTZ2Rr/PjKGSm0TT/1DONGv+M1zrWcWzjF+XxpEYXAasIjK3zqb42ZZptvgm6KT3TaCbwpiWKJWEvHldfOxxXngYw7DrXMO1GT2/O0RmN3UwqoAhrpVHPCW+6w5DPc8DG2wjSirV15DHlE5jNOeALi5l5oQzBDWWcSU5Kd6Y3SWP/VpykdhTLickLFztreP1+39xe7vmhEOVp18mFFm+y8rAuvFH9pA5w241yvsIDIEFxfp7bRMPJt2ZsMs02ZVhY1AZ87bgJ4rZfyuQxw/M8jnlxhBvdngT5eJ4nCR2pZxrNjNc6tmNLm/5UDi/lxPtceE3IYDjwBg3uHn1Iuqw8N0EG3lUTwexTeF5PFsSgOAbGUFbwJCjaFEsi4dc0SHSfGafxP0/pD6dVaxM6AA/U1pHptQHXDsc/QQelfyPzdl6SUt8kpY6ppDiOx7F6pXSec0wVfou8ehnezsVdI4Y6N03kJ/m7ILfeRZXUzgiNw1oSM6zGvwEDlIAIAIQMstm4k5TxOCLHsQ2qTCfl0DG5SNwm5JLR0047ZdsXRoZN6mvr0Zk54yRNpg3hl3IZ3tYLjV3o5xBn58gqEBRzONUwgLrnDfvcJ/8hUJa7Xfakt83GBUSDM8ZoA88fu6uNMgmYHPjHLLPKU9ljPt+VQRHvvGWCOE+/PEKT8kl5nnniHF3tbrrNbblJlq9kHDyVGrmgyfNZNF2m+vlAonFBUkaWsQ4PO2qDgc/flzKfV8nrdekyndf4llnsjjjqdv2dBcQdRZyNl5S6wq8Jax+Dfepj5OG8lWzrmcZQWw5q+6dlhCbjtCnDMnyS0nsyrfeh1ONfEkjmVL64lKMSb4iPiyJntiwk58V2nfy0ZW+qHFDmo82XUWOiLqBUxF0LNgic1FmVqsW/STRcptnuzs7LxN2FWG45H97OdBsI6dcOa8umFZtmtSDk2+FtC0kY5wlQZDJtmLwhmvKzKGTP0zS/q1MtOy45YS6knoAH+DAC70KXleO7onPAuyhTdJssXh4cHjQ7U2rDNI1UvVpAgwhrNyjJhjvW+iJOxE13mxrdDeCSIY4p0/ZPv6R2WBKAa1vGSYp8hrsdt+1upz3teBFN5lE+lRXXQdHNsqDtHueoVw4PDse3ziDSafM0avvPkvku6UoWD2JGy5VGoWkokwpAvUXjhBU7b8masVH4Nf5ZdiohxoLIAsLmDgZxzgM25EmfY9s/rVYy1LZyUDRg8wKg5FmUuiZFpsVJv1nHK9Fbsk09QeSF1//u7e/ZCMwi0pzk96Fp+tr8LnRl4Pm1FYeH5bDbqcBrQAdxjEZuAJLHZES9MbTuqwtOmUZXxm1T6khqg26SyEd2v21CPvUkOJt8N+m28wFz2k6v7YYyXsrnedI0v9SBlnM8lou6VMxxXPLMnQseLWU9L8vwQ6S3gDetkiA+P06BmVxEgVVN5xrCrnGFQkwW8s5E6HTV+i/dNPq4Eer4D3fmg7gAPXVwbPRJwzitsIAJOtxtOWhavHb8DE+G0BeWPPI1SSkXcewcU4YlTZ5D53ym6M8teuSN7rWvicXe7p5mt62e5wapncco09t5vgma+czFJLExYGdnN0y8ojiaOBubYwAtM5sNAaCyAZFLTrBFfBjAJGjaheZIxcNtyngpCxM3KeOnX6aX5028zPd5UEd+iedTU8aB2rpmUcomZfy2njbhg7fD4t9uxncGnup/d3fX7F1CP1DSbP3iioMo+GAwLHt7O2XI7gj5RaVHw+e4DjkaLsZRNGK7cl2Flc83fFLG5ZiNOskJ0DyHJvVAeZ5hKZs6kjknnDFs5A15wAeTl7cfxYRSf0PkpzrHdD5/b8c5TxMlKG/u6EKTyYt6CeCRH2a2e2kE3oPa+cq8ZX3k+U1T6n6rq51GNEIMag98wxqikqOiqXAaMV60mI0WDdW4+Xp2LihH3AYA7cK2GzniR2MnJxEv4yQRD8Y6oCfD4dQZeYk0klIHh5SXy34XUcZrU7tM06hJo3qI3k6NMrtmHRBb72tZFMqdi/2D/Rsf500rz4ehUv7/8mJRkVu5PAwAAAAASUVORK5CYII=;strokeWidth=2;" parent="1" vertex="1">
                    <mxGeometry x="3080" y="-520" width="176.33" height="250" as="geometry"/>
                </mxCell>
                <mxCell id="13" value="&lt;font style=&quot;font-size: 34px;&quot;&gt;3x3 Conv (1024)&lt;/font&gt;" style="rounded=0;whiteSpace=wrap;html=1;strokeWidth=2;" parent="1" vertex="1">
                    <mxGeometry x="1330" y="-630" width="100" height="500" as="geometry"/>
                </mxCell>
                <mxCell id="14" value="&lt;font style=&quot;font-size: 34px;&quot;&gt;Res&lt;br&gt;Block (1024) Up(2)&lt;/font&gt;" style="rounded=0;whiteSpace=wrap;html=1;strokeWidth=2;" parent="1" vertex="1">
                    <mxGeometry x="1500" y="-630" width="100" height="500" as="geometry"/>
                </mxCell>
                <mxCell id="15" value="&lt;font style=&quot;font-size: 34px;&quot;&gt;Res&lt;br&gt;Block (1024) Up(2)&lt;/font&gt;" style="rounded=0;whiteSpace=wrap;html=1;strokeWidth=2;" parent="1" vertex="1">
                    <mxGeometry x="1660" y="-630" width="100" height="500" as="geometry"/>
                </mxCell>
                <mxCell id="16" value="&lt;span style=&quot;font-size: 34px;&quot;&gt;Res&lt;br&gt;Block (1024) Up(2)&lt;/span&gt;" style="rounded=0;whiteSpace=wrap;html=1;strokeWidth=2;" parent="1" vertex="1">
                    <mxGeometry x="1820" y="-630" width="100" height="500" as="geometry"/>
                </mxCell>
                <mxCell id="17" value="&lt;span style=&quot;font-size: 34px;&quot;&gt;Res&lt;br&gt;Block (512) Up(2)&lt;/span&gt;" style="rounded=0;whiteSpace=wrap;html=1;strokeWidth=2;" parent="1" vertex="1">
                    <mxGeometry x="1975" y="-630" width="100" height="500" as="geometry"/>
                </mxCell>
                <mxCell id="18" value="&lt;span style=&quot;font-size: 34px;&quot;&gt;Res&lt;br&gt;Block (256) Up(2)&lt;/span&gt;" style="rounded=0;whiteSpace=wrap;html=1;strokeWidth=2;" parent="1" vertex="1">
                    <mxGeometry x="2130" y="-630" width="100" height="500" as="geometry"/>
                </mxCell>
                <mxCell id="19" value="&lt;span style=&quot;font-size: 34px;&quot;&gt;Res&lt;br&gt;Block (128) Up(2)&lt;/span&gt;" style="rounded=0;whiteSpace=wrap;html=1;strokeWidth=2;" parent="1" vertex="1">
                    <mxGeometry x="2280" y="-630" width="100" height="500" as="geometry"/>
                </mxCell>
                <mxCell id="20" value="&lt;span style=&quot;font-size: 34px;&quot;&gt;Res&lt;br&gt;Block (64) Up(2)&lt;/span&gt;" style="rounded=0;whiteSpace=wrap;html=1;strokeWidth=2;" parent="1" vertex="1">
                    <mxGeometry x="2430" y="-630" width="100" height="500" as="geometry"/>
                </mxCell>
                <mxCell id="21" value="&lt;span style=&quot;font-size: 34px;&quot;&gt;Res&lt;br&gt;Block (64) Up(2)&lt;/span&gt;" style="rounded=0;whiteSpace=wrap;html=1;strokeWidth=2;" parent="1" vertex="1">
                    <mxGeometry x="2590" y="-630" width="100" height="500" as="geometry"/>
                </mxCell>
                <mxCell id="22" value="&lt;span style=&quot;font-size: 34px;&quot;&gt;Res&lt;br&gt;Block (32)&lt;/span&gt;" style="rounded=0;whiteSpace=wrap;html=1;strokeWidth=2;" parent="1" vertex="1">
                    <mxGeometry x="2740" y="-630" width="100" height="500" as="geometry"/>
                </mxCell>
                <mxCell id="23" value="&lt;font style=&quot;font-size: 34px;&quot;&gt;3x3 Conv Tanh&lt;/font&gt;" style="rounded=0;whiteSpace=wrap;html=1;strokeWidth=2;" parent="1" vertex="1">
                    <mxGeometry x="2890" y="-630" width="100" height="500" as="geometry"/>
                </mxCell>
                <mxCell id="24" value="" style="endArrow=classic;html=1;rounded=0;entryX=0.5;entryY=1;entryDx=0;entryDy=0;dashed=1;strokeWidth=2;" parent="1" edge="1">
                    <mxGeometry width="50" height="50" relative="1" as="geometry">
                        <mxPoint x="1549.29" as="sourcePoint"/>
                        <mxPoint x="1549.29" y="-130" as="targetPoint"/>
                    </mxGeometry>
                </mxCell>
                <mxCell id="25" value="" style="endArrow=classic;html=1;rounded=0;entryX=0.5;entryY=1;entryDx=0;entryDy=0;dashed=1;strokeWidth=2;" parent="1" edge="1">
                    <mxGeometry width="50" height="50" relative="1" as="geometry">
                        <mxPoint x="1709.29" as="sourcePoint"/>
                        <mxPoint x="1709.29" y="-130" as="targetPoint"/>
                    </mxGeometry>
                </mxCell>
                <mxCell id="26" value="" style="endArrow=classic;html=1;rounded=0;entryX=0.5;entryY=1;entryDx=0;entryDy=0;dashed=1;strokeWidth=2;" parent="1" edge="1">
                    <mxGeometry width="50" height="50" relative="1" as="geometry">
                        <mxPoint x="1869.29" as="sourcePoint"/>
                        <mxPoint x="1869.29" y="-130" as="targetPoint"/>
                    </mxGeometry>
                </mxCell>
                <mxCell id="27" value="" style="endArrow=classic;html=1;rounded=0;entryX=0.5;entryY=1;entryDx=0;entryDy=0;dashed=1;strokeWidth=2;" parent="1" edge="1">
                    <mxGeometry width="50" height="50" relative="1" as="geometry">
                        <mxPoint x="2024" as="sourcePoint"/>
                        <mxPoint x="2024" y="-130" as="targetPoint"/>
                    </mxGeometry>
                </mxCell>
                <mxCell id="28" value="" style="endArrow=classic;html=1;rounded=0;entryX=0.5;entryY=1;entryDx=0;entryDy=0;dashed=1;strokeWidth=2;" parent="1" edge="1">
                    <mxGeometry width="50" height="50" relative="1" as="geometry">
                        <mxPoint x="2179.29" as="sourcePoint"/>
                        <mxPoint x="2179.29" y="-130" as="targetPoint"/>
                    </mxGeometry>
                </mxCell>
                <mxCell id="29" value="" style="endArrow=classic;html=1;rounded=0;entryX=0.5;entryY=1;entryDx=0;entryDy=0;dashed=1;strokeWidth=2;" parent="1" edge="1">
                    <mxGeometry width="50" height="50" relative="1" as="geometry">
                        <mxPoint x="2329.2900000000004" as="sourcePoint"/>
                        <mxPoint x="2329.2900000000004" y="-130" as="targetPoint"/>
                    </mxGeometry>
                </mxCell>
                <mxCell id="30" value="" style="endArrow=classic;html=1;rounded=0;entryX=0.5;entryY=1;entryDx=0;entryDy=0;dashed=1;strokeWidth=2;" parent="1" edge="1">
                    <mxGeometry width="50" height="50" relative="1" as="geometry">
                        <mxPoint x="2479.2900000000004" as="sourcePoint"/>
                        <mxPoint x="2479.2900000000004" y="-130" as="targetPoint"/>
                    </mxGeometry>
                </mxCell>
                <mxCell id="31" value="" style="endArrow=classic;html=1;rounded=0;entryX=0.5;entryY=1;entryDx=0;entryDy=0;dashed=1;strokeWidth=2;" parent="1" edge="1">
                    <mxGeometry width="50" height="50" relative="1" as="geometry">
                        <mxPoint x="2639.2900000000004" as="sourcePoint"/>
                        <mxPoint x="2639.2900000000004" y="-130" as="targetPoint"/>
                    </mxGeometry>
                </mxCell>
                <mxCell id="32" value="" style="endArrow=classic;html=1;rounded=0;entryX=0.5;entryY=1;entryDx=0;entryDy=0;dashed=1;strokeWidth=2;" parent="1" edge="1">
                    <mxGeometry width="50" height="50" relative="1" as="geometry">
                        <mxPoint x="2789.290000000001" as="sourcePoint"/>
                        <mxPoint x="2789.290000000001" y="-130" as="targetPoint"/>
                    </mxGeometry>
                </mxCell>
                <mxCell id="33" value="" style="endArrow=classic;html=1;rounded=0;entryX=0.5;entryY=1;entryDx=0;entryDy=0;dashed=1;strokeWidth=2;" parent="1" edge="1">
                    <mxGeometry width="50" height="50" relative="1" as="geometry">
                        <mxPoint x="2939.290000000001" as="sourcePoint"/>
                        <mxPoint x="2939.290000000001" y="-130" as="targetPoint"/>
                    </mxGeometry>
                </mxCell>
                <mxCell id="34" value="" style="endArrow=classic;html=1;rounded=0;dashed=1;entryX=0.5;entryY=0;entryDx=0;entryDy=0;strokeWidth=2;" parent="1" edge="1">
                    <mxGeometry width="50" height="50" relative="1" as="geometry">
                        <mxPoint x="1549.29" y="-800" as="sourcePoint"/>
                        <mxPoint x="1549.29" y="-630" as="targetPoint"/>
                    </mxGeometry>
                </mxCell>
                <mxCell id="35" value="" style="endArrow=classic;html=1;rounded=0;dashed=1;entryX=0.5;entryY=0;entryDx=0;entryDy=0;strokeWidth=2;" parent="1" edge="1">
                    <mxGeometry width="50" height="50" relative="1" as="geometry">
                        <mxPoint x="1709.29" y="-800" as="sourcePoint"/>
                        <mxPoint x="1709.29" y="-630" as="targetPoint"/>
                    </mxGeometry>
                </mxCell>
                <mxCell id="36" value="" style="endArrow=classic;html=1;rounded=0;dashed=1;entryX=0.5;entryY=0;entryDx=0;entryDy=0;strokeWidth=2;" parent="1" edge="1">
                    <mxGeometry width="50" height="50" relative="1" as="geometry">
                        <mxPoint x="1869.29" y="-800" as="sourcePoint"/>
                        <mxPoint x="1869.29" y="-630" as="targetPoint"/>
                    </mxGeometry>
                </mxCell>
                <mxCell id="37" value="" style="endArrow=classic;html=1;rounded=0;dashed=1;entryX=0.5;entryY=0;entryDx=0;entryDy=0;strokeWidth=2;" parent="1" edge="1">
                    <mxGeometry width="50" height="50" relative="1" as="geometry">
                        <mxPoint x="2024.29" y="-800" as="sourcePoint"/>
                        <mxPoint x="2024.29" y="-630" as="targetPoint"/>
                    </mxGeometry>
                </mxCell>
                <mxCell id="38" value="" style="endArrow=classic;html=1;rounded=0;dashed=1;entryX=0.5;entryY=0;entryDx=0;entryDy=0;strokeWidth=2;" parent="1" edge="1">
                    <mxGeometry width="50" height="50" relative="1" as="geometry">
                        <mxPoint x="2180" y="-800" as="sourcePoint"/>
                        <mxPoint x="2180" y="-630" as="targetPoint"/>
                    </mxGeometry>
                </mxCell>
                <mxCell id="39" value="" style="endArrow=classic;html=1;rounded=0;dashed=1;entryX=0.5;entryY=0;entryDx=0;entryDy=0;strokeWidth=2;" parent="1" edge="1">
                    <mxGeometry width="50" height="50" relative="1" as="geometry">
                        <mxPoint x="2329.29" y="-800" as="sourcePoint"/>
                        <mxPoint x="2329.29" y="-630" as="targetPoint"/>
                    </mxGeometry>
                </mxCell>
                <mxCell id="40" value="" style="endArrow=classic;html=1;rounded=0;dashed=1;entryX=0.5;entryY=0;entryDx=0;entryDy=0;strokeWidth=2;" parent="1" edge="1">
                    <mxGeometry width="50" height="50" relative="1" as="geometry">
                        <mxPoint x="2479.2900000000004" y="-800" as="sourcePoint"/>
                        <mxPoint x="2479.2900000000004" y="-630" as="targetPoint"/>
                    </mxGeometry>
                </mxCell>
                <mxCell id="41" value="" style="endArrow=classic;html=1;rounded=0;dashed=1;entryX=0.5;entryY=0;entryDx=0;entryDy=0;strokeWidth=2;" parent="1" edge="1">
                    <mxGeometry width="50" height="50" relative="1" as="geometry">
                        <mxPoint x="2639.2900000000004" y="-800" as="sourcePoint"/>
                        <mxPoint x="2639.2900000000004" y="-630" as="targetPoint"/>
                    </mxGeometry>
                </mxCell>
                <mxCell id="42" value="" style="endArrow=classic;html=1;rounded=0;dashed=1;entryX=0.5;entryY=0;entryDx=0;entryDy=0;strokeWidth=2;" parent="1" edge="1">
                    <mxGeometry width="50" height="50" relative="1" as="geometry">
                        <mxPoint x="2789.290000000001" y="-800" as="sourcePoint"/>
                        <mxPoint x="2789.290000000001" y="-630" as="targetPoint"/>
                    </mxGeometry>
                </mxCell>
                <mxCell id="43" value="" style="endArrow=classic;html=1;rounded=0;dashed=1;entryX=0.5;entryY=0;entryDx=0;entryDy=0;strokeWidth=2;" parent="1" edge="1">
                    <mxGeometry width="50" height="50" relative="1" as="geometry">
                        <mxPoint x="2939.290000000001" y="-800" as="sourcePoint"/>
                        <mxPoint x="2939.290000000001" y="-630" as="targetPoint"/>
                    </mxGeometry>
                </mxCell>
                <mxCell id="44" value="" style="endArrow=none;dashed=1;html=1;fontSize=20;strokeWidth=2;" parent="1" edge="1">
                    <mxGeometry width="50" height="50" relative="1" as="geometry">
                        <mxPoint x="1240" y="-800" as="sourcePoint"/>
                        <mxPoint x="2940" y="-800" as="targetPoint"/>
                    </mxGeometry>
                </mxCell>
                <mxCell id="46" value="" style="endArrow=none;dashed=1;html=1;fontSize=20;strokeWidth=2;" parent="1" edge="1">
                    <mxGeometry width="50" height="50" relative="1" as="geometry">
                        <mxPoint x="1180" as="sourcePoint"/>
                        <mxPoint x="2940" as="targetPoint"/>
                    </mxGeometry>
                </mxCell>
                <mxCell id="47" value="" style="endArrow=classic;html=1;fontSize=20;exitX=1;exitY=0.5;exitDx=0;exitDy=0;dashed=1;dashPattern=1 4;strokeWidth=2;" parent="1" source="23" edge="1">
                    <mxGeometry width="50" height="50" relative="1" as="geometry">
                        <mxPoint x="3160" y="-530" as="sourcePoint"/>
                        <mxPoint x="3080" y="-380" as="targetPoint"/>
                    </mxGeometry>
                </mxCell>
                <mxCell id="3" value="" style="shape=image;verticalLabelPosition=bottom;labelBackgroundColor=default;verticalAlign=top;aspect=fixed;imageAspect=0;image=data:image/png,iVBORw0KGgoAAAANSUhEUgAAAOQAAAE3CAYAAAC6iu24AAAAAXNSR0IArs4c6QAAAARnQU1BAACxjwv8YQUAAAAJcEhZcwAAED0AABA9AUORddcAAG7oSURBVHhe7b13nGTXeR14Xq7QuXsiZjCDwSADQyQikCDAKJKSSCrYP69lS7bWVlrtyl5bP9kSlfcP62fLltamTdsri5LXoizLiitRoihLMpPEIBIESJAUiAxMno4VX9xz7quaWI2prg7T1fXOzOtKr6pe3XvPl+53v2sByHjsEDhwkSC2+bOsAGNZC1HnlV7Qjz+PlIee4JF1XxiwZRI7/ygn0SMHSTbFq6rxfltP8GM9HvpCc0KBAuehcbODCFkiISPEbgInnsYn/vwYjt14tvPaqyNlU2R2DL9s8zZEYiU8BmuaNCvxL1npvYw0vQ4/+F0t/OIvP8/n+HmdFrczl98Z6/QCBc5jZxGSv8bJKkidBmbcw/jEZ9s4ui/XSldDatlIScQsCGH5uV51k7K5XTPsOqxkApmzjNDy8Osf2I1/+IMvY3GFz4moWIRNBSkdWaDAxdDo2DkgIbOOfHns7TUc3lWi+Wpf9Ugsh290+E6HJPFpSAY8eGtZgx00mVMyzkom4WYp/sbfyfDBX7sVj74+hpWR7DtHBBbYYOwsDUlyWWkKzwM+9sl7cP+hZ6n5xjovrg6LTqPNI7ETZH5KLZnxfkSOvpoHujqytERqx/zMBLZFIzpt8dpSfP6zt+KbvuFxnF2QAKCJzLNgUYNnPt8V5m8uMNLYYRrShs2x/be/9W7ceSPNwmyST8owfPUjs2LEhnwZtRo1G7WYxeec1BrocNGmpCO5Ke4SEdN2eb+Ne+5dwJ/+zwdx7BYftqOmp69J4QHQNNZDiccCI40dRUiHCscPJ/Ht3yXtRI2Trf3nJdSwmwGPvqSTLeOG2z+FX//QrXjktVXKj6VcJljL+UkmGFRglLGjCGklMd75lgO4794T8EisQaKkNn1Ai8dGI4vmqCkjCozrcN2hz+Pn/u11GKNiDOJdFB5Uk7pUi6ZtgZHGztKQ5NFP/vN9KKf03VIPyYA+YGq05Ma61ol/Cmmym6Rr06wt4dZjp/HT/+I+OPYiPF14RvW+o3qjwCDYUUPgun17se/AV+BEk3TH6AO+alrAxciDOjY5KKWaZfQlN9qh07yjdxqp0yThFdRp4n/5jhZuukkRXU3N0PlNC0aOOnbUCBivJig7Iakk7dikJupfy+WEJA1FSr5vwJyAVWGnAT/TNpFV2+ZBs3iq/By+5W/sJUF1hmWmSAqMNnYUIQ8ddo35l1k1pCjxtn8tJ/4pKqpUtyy2+JdabJNhJQ6+8wfaOHJwnB0Rdr6/wChjRxEyKNXprCkFrkGzs4TU6l/j8G2a9DBEtFIXiDefkJ7lYGZyBd//A0cR+DEsa6LzSoFRxY4ipE1vzErGOLBTQ0jNL/aDjPapMmuMlkxputLHS5MNtll7IIs115ni0bfPoxxoBqQwWUcdO4qQGajZrMRkylgK6JgMmKtD/qICOoaYRqtSXSY2/yqbRo8T87qOjUTkyp+0cevNId761kl+QX95twV2LnYUIanckDk0WzOPWrJJTdcfIUVApc+J0iKlISQ/LA/CKJMnIxkV6NE5G4e27VOTy3Rt4j/+0jvhDzhNU2DnYEcR0tic1GbSkgaa2xsU0ogJ/clOtk9KUuZk3Tg4KQWH3USW+LAmfh9veePBzisFRhU7jJBjPKgVpXa6mm5QUBumoWKu0rL0TtlSGx0Fdcx1UitaCiat4E1v1t0N/pICQ4UdRcjFMy7iUPmgJmObGFyjGXOVLNQcoUxhIQ/7bBw01ZGbxZEh/tu/gRq5IORIY0cR8ty5Jn+RVlpUyCgFSNY3uB02j/nXYeRGU0XZRFkW0GxNYMVlHL25hbe9eYovUCs7Fr+ZgqXg50hhRxEysx2EVGmpMQW1vnB9NWtMoo8+Sv/M7cZCPqkyd3LfNKN2bOCxRyfhePJ99a1KsTOnFhgR7CwNubiMJN4Fy+1EK+WfrQMZya281q3Em96yh5KAmt7QX1MugZ4uMCLYUYQ8ebZOH/J6JGYtpMsft86JdvpzW8xH7Nozj7mZwFQaQFEEa+SwowiZ0nf8xEdfoJXHn6XFvuuZ9iCko7ZaQ5bLCwhcXrfJFKJA6TPbqMDOwM4iZNbEp5/Yj9RK4NHsi531kInaMaUXl1DTporaKhq6+ZidtDGzu0UqdrR7VtRuHSXsKEKKMv/u/X/EvxMcyOb/wJB2VIRVK6KUoaPE860gpGNTv6tG5FbbygW2BXaWhuQ4DmnhvXJcOa22meNbDyxbPmSXGAVBCmw+dhQhVQlDrtfp0yr96JKQg/uQol+Xi2maFQqrwJZgRxFSLMrg4/OfP00PzKGRuTEzh0madD6pYGWBzcWOImScedRkIT76x7vRLJ8AosEJmVkpEvpyWhvpJMpndfnZG0PwV4P2F9EqFVV3NVLATH8UGBXsLA3Z0WBf/PJziJN9ciPXCX0eWdGpsbMVeaZaj5mvwexOd2z+dxbYPthRhFTpfqWdPvPyWZw7eZOU2rrQrUInQpr7W8CNduIiTKSh9UfPdKY/CowEdhYhNYLJmpDE+cgfRIi76yIHgNGIOnS/c3QU8KZifsHDuUVety0PWGZrMQ85SthhJitB5mS2i//6K4/T6FvfYDZEFAl5pHGS399kLCwEmD8nSSD13m/FgwI7BTuKkCoU58RKzo7xzCtTOLls5YuA03Fk/gnyiifY9c7Zrw6z1oL2r6mlw8dpxmc22GZ1MlWaawHJJA3TZX6Xhz/++E2IQx92PIHYbmyJVi6wfbCzNKQZvNr6DThzdhkLZ45yUOvJDFY8S1ZVea/f1RN5yQ5l6JhNe1ResrtSeYNgBARhacdm3sbJLP6f932EL7iwnU7BK94vMDrYWYRMVS2gYYIvCf2v9/38M4j4IPPmYalyOLWRCZb0AdHY8E+HCKkHXUJukNZK4dEM1nxpEw5598Uvunjuq5ZJREjSWud7utUPCowCdhYh+XNM+UdyTi7Yb/3mcUTJDYizZQ58PukskVMdUl0FmnI0ha34iVbqwE5cc2te2yBGdrWvRdM1Sar4jf96FnEU0DwO88wg8zXFRq6jhJ1FSCsyCg2JjzBqoBXZ+OAvv8TnpkmmMge4hyyij9kXVKM154QOK7WRJnnSt/bl2AiI8Hk2kb5oEk8+rvs0uY0WV0CHGr+Iso4UdhYhs4j6UfqLWiWO0EpTfODX2mi5GvYZXJLK9p/vnPzqUGK6w/OVsZM5qUk0t2M959LUVK3W1LyuDXoGhZ2MGzPaynws1XfhQ/9zMX/hvGYkOc39AqOCHWayXokvfP4MvvyX9yK0SSNqJKd5tPPK2qGlWPkGVWo2UlyKTQ8HhbOALJlAaif4jQ/wUwfndoEdAg2BHS2DXfqSrz92CP/9D5uYJCmdeBKp0+i8ujZkck6DBBmPxNH2Amq+wZvQsldoZe9FREFx5/4Wnl+uU8kX1ctHGTteQ2rW4HNPLuJzj48hsQLY7qnOK2sHDVaAfmlGc1beX75j1uDyzNImrhQOzz4XY7nGT5KPWmCkseMJmYQTqGVLeO//+RKJNEHXbLbzymDQrlj5wufcZDUKckBYSRnaOi+J9wKlpc6zBUYZO56QdrZiphC+9JSN9/8bD80S/TZquhQBfbeIhFhDQWUSUdXgMjqSChI5VGi0NgdG5LbhJCVDyjCbhL+uGkAFdgJ2PCFlFopvISn4/g88gZXWN/NHh3CyCHZSoQodJ7X6n3xXPfEs1uqPjWs6mb0qFZKoBkmBkcaOJ6T5iVQ8iW3hmZeAd7zrN5Fac9RKLWq7Jiwr5P3+8lu7u19ZsQuLvqRSgtbjQ3YRhSGSJDHXWWC0seMJqcio4VGaUAuV8PnPN/Brv2lRR86SiCFJRSL0Pfku/xFwtU0dCWldSKdZF3w/z681H1dgpLHjCZnaMbQpssvR7qLN+wl+6J9+GV9+2keajpGLVXP0C3mbdubQbOUdma3rCOoUKHA5djwh6TrqP2L+janNpITOLAf45z95As3IIWGpJZ2aOfVq0FIu7aScl9jg49A2hZQNMQ306XqtP1Vna14zreDWow1cP1uHpQzzAiMNZUv/ZH53dKBixM98Ddiz5xbc/dqvIWgfITGvniyQp7Ba9EFz3zGhmrTFRz1/SbjVPJHffTWkZfqxdaRZlZ85jj/7iI04a3VeLDCK0KgZOc9FxMpsH4ET4nd+9SDe/oYaYktLt14dpCIP/VWOKympPShLqXLW+Zldzanm7I+QGU1mxzlF93Y3Ti3N4vZ9X0Ld7OlRYFSx803WHsgrB4SIaS7+3M8leH7xus4rrw5pQuXDqtm0jlHlGumS6hX9WTM0/9jVkpPTZ/HImyY6rxQYVYwkIU05usiCl3r400+cwz99b548cDVIB54/jexUxo4yd/TcRa/0jcxZISHHYBliNvHOdx/uvFJgVDGahMyUnZOhlS4h5P3f/K0X8K//wzRCEtVVnRtqP63AuBxmdb8J4GiqJDZmq0jthHmV9Dy3VYGZ/prVTS3KBb4/GkdgVbA4/iBKE4dgBx5sRxuql2CPqMgcVYxkUOdypCTGxz52Bvfcfxg3HF2CG02RVk2ap/2xwfiOnWQfY9GaP1dH7KQoJwleiQ7iJ/7z1+N3fvttqE4+iPlTn4AX1dg5Y7yGVjE/OUIoCGngIIaP3//94zj+XBPv+Po9VII0YxVCvQq0ZV1Kwlge1aOtNSA8rh7PMYhVvcBfwS/+3nfh53//7YiyKbqUJUyM7cfiic/CcpbJdp+E7DdxocCwoyBkFzRBw9DHV78c4K57pnDoqGtoejV0t7zLtD7SyQnJZ83/q6Hi1PHhL7wVP/1v3o62G8JOywjtOgL/VniVCuoLT8KOKvzEZucdBXY6Cg+FEInslNrQCVGjf/gjP/oUFhpzfEW+oaYy2ExK9zFkuwzmKWrJmK8r0GOe6HWeCnAJ2rujw9aVcfzmn81g0RrD5PJh+pTyYXej4ZdROfhNOHr3TyCoqAYQ5eZF5vPlXNfj/Dl9f/ffhefz1y6FOeP8C6udVWCrUWjIDkyUNAtodaZYbKQ4eTrGu962j77kWerJGbbUIpw0MFMfF0O7VSkX1kkduLaNhFoyT0K/9MQUFTZ2GylJH2cT8GiGLmYz+Jf/6W/jXDoDLy4j8lVTJzHfIf81rcygcuABTIzPIPGnEDVVc7bMj9b0CA9bE6AiqhzYgPcpVCzedzw+TTOXJrRDQWDzehQcMrRjj9v8nS7GjX8qk1vBo8yKOifwkAAqcE2g5u8hzkcQpiUcOLZGbIibbijjTz9yI3ZXFhE7NBmpId1I9W8uLcuoYleCGcdegqTEgW2KM1+K2GnxHBtuOE2CtEhQG3/81e/Gd//Y/VjxJlBpTSLW+sgs4muqOCftHPNxix1k87pUDIsE4kdbmcdLPIuV5TPI0rbpQZnOltPmraqtZ6jX59FsLPCS5tGunwHa55A2z/JnhLzm/DdYpo4tdbql38e7umxjguuQ31oMja1GQcguTEvojwajUgdsfPWrb8Wh6b9C6p2myqJWialVzILmC+hqTCnFlH6gVVX5yF6+Z4rQjVBq76YmfQlnrZvx0Le/B8utd5GsIT+7LGrwW0nozOU9l58jTanPo4Gp6lrSdKY2rIPErFSJ+Z6YBNR0DJ9Pq+ZWpDT1aaX17Ab8jH5pusTbFZx49gksL34eydLTcFpL/JaEepunUUvrd6fyVykwilFxbVCYrOdxqZlmaX6QWulNj0U0R8tGE0o7dddEnochZO61mddkPXa05sUIWmM0O5dJGt7aLv7zh9+OP/j82+AmNGXJvESmprKHjNkpYkpDpRQAGc3btnkswlo0j7WGM6UN2k3ls0w3uoi9eZrEMoubVPYNms/8PJq2sVVFaM2gae1GafoOVPa+AzM33I8f+74H8MCdY1hphTh77gQ/J4YWSuefW+BaQO1eyELTDJriyElgQGKMuzFOH98DL6Vm5AC3M60X0eC/AFO3lSxUvVbLrtPvo1Zy87wdepaGnBroQWMC7bETaKcH8OxLN+N7/q+/jq8s345KpGCQi7YSAayGyal1U76TGjH3JcVPfg5NyVwb5zVhVbGANBZ3O687iFxePz/LmK88z5b25GfS2Ob1+OZW615alo/Z4Bm8/7s/jYnwZdTcXXxfCf/tgx/Hx/7sWTz/3KJ5t/k+MwnK38DvNC1jRktXeOmBeaLABsE0eX63wCVgy5Toqy2dPmJMvdCqkBPy8S41R7UkK1RwhfCzBsKyg8yj2UhyZk7d5LtqJ6ss9dAon8aH/vTb8DM//w045ZSRpJPmfVsJaVh6kXjNgTZ+/Ft+G+PtACvBSQqdCrW0jVojQK0+jv/2X/8YH/r9vzTkzvgbYgoJ1SAyOD9i2EhF1sKGoiDkamDLuFQ8C6dvwlg9oB/ZRuQtUxNeatq6YZWmaB3NoAY3GiOLWwgrdQ5wG+WwZEzQum/hmfnX4D994EH83p8+iobH8xRIyfrdiWsjQQ3rBJjxXsGPftuXcLj8An3fNkwFPJm5KihNTappoHbDwx9+6Ev43f/vcZw8QR84JjnN7mKyJAiNnGL0bChkfxU+ZA/YNEPnpm/Gm99zBPunXubj58jRGRLpUv/QotaInIS+YBVB2+ctyejs42ltatUGnl+6Fx/8g/fgJ37mdfj8M2/BQiUhsWvw4v6rFGwoaONK46VJiMlKGzdc95J2EKF5Ks1PU5dWgbY2cGkyBzSBb7n1erzr3W/Gi688iXOnKEQ0vePQozWc1Ds75CywISg05Cqwab7NHPk+HHrkCP7Jtz2Nb7jv94wvaVmd/Tc6UF2eNCvDT2MkWRWffOF1eOLleZTHr8OH/yzCM8fvxSvnbiJpFbShdokOwHbOUCONkwSXTqFsCWiyah2mCnwdmnoG7/2Oj2FX5CD2tEBbvmjug+ag8NH5JGpKk/vZ59v4qZ/8JWpLF5FZBKopl0sFVIH1odCQHSgMYlZqSANKTLnT2HPf38WL1r34wmd24/ajNvbs/Sz9RI9E4gB1tNek6rtWzCY+Tpbgmfo+/IN/ewy/+4lvxUc+fTueOfcI5sPDiDV4bQ7rZAKBdQ5OkvujGuhbDQVq9DvNxrXU4g/eeg6zXsTnqen0uzWVIqKxHUzUmLf5dIyF6bkE99x3Oz79qSfpa/I9l9SR1Zu3/vfsNBSEJDSUNA2vSKStSCUJF0zeBHf/X0MSuKilKT7zyUU89Fof+yYX4UQ0aFvXk4h8n1WDTXItOT5+/j9/A/7kqXdTG/rUMgGPlL5YxM9WVFTTEwnveWZu8VqQ0UCE1N4mEiqphSA+g1sO0f812lrXpJYQYXmiyZLnc7rlNVsk6+RECd/4nnfgmWdfxPGXa9C2CgYib36HR2F0DYqCkB1Ic4gw0mQZxjF56C2w9r6FBDrHgVjFSvwgPvuETZ9qDrt3fZLma52tV+O4buBMdhQ//B/eg9/4zNuw4tDHMpPznQ/eZrBIRNte4e9NEUeHsbx8AvfcZWHcXTGEM5rRlhmaz3BeAgW0HE3rLOO+++/G03/1HE4e1w/lIctC3MznSnR2gQFQELILagGHAymhdrN3PYT9d74boVVCKdEco4OQZt25sII/+UQNwfgNWEpm8eUTd+KJU6/Dv/rlN+IPv3Qvmm6AsfYEx6XyUbfnoJS5qnlL5bgqmhqUjmPv7lOYm6EWp9nqmGsXqa4kpDQnnWAjhDzPxl2334a/+MQXEbbpG/NUMwNyGYcLrA2FODNgM9AfdCjdE38W173xR1Av3Q/HVpaOkrYV6m+SrKrxWqGZNwbbOc4B7CCKrkPovEISTvNTWjRRScfsyhS77QJl/kiLVdIGqnNfxje9y8OB6bPw03PYS794LFE+rDxGtcqlQyMP9sjHpulNUmcUVCuNafzv/9vP4uyZAM2I71LgSgq2wEAYUQ1pbCuNON4VGelL8WEU7Mfue/8aMPU66oFdNN00GS6fkv5TWoYVT/Bt1JYc1C0roAYdp7+4QhJOw4npN/JzI4fDmES+wty7FpCW1rVn1PoyKZXbyi630MTNN7yI93xDiLmpF/mbWoht/q40gUeTuxQnNLtzMipTyJjz5qH+qO2oZflXK0oqQYIbbjyIP/yjL5GHVb5EQVQQcmCMJiE5umyU+eMrHDv0mxxNlk9h953fCXfvNyJS+hr9LCkTrZxQsnZO4Jycmh6XNtVrtjbz4aeoQrqCNbmhtw3IKHQuo7vhkExRXfvcxAt499eHmB17yTzOSWaTlDpJHjQNW5JT53fzIM4HVMVMc5gHlGIx9uyfwsEjR/Dnf/Flak3Nc3ZPLrBWdJp7tKDx5FBL2GhQE7AJaGLufeB74O97jEbnHBIOxGsyR7jBkImplSBKeUvMFI2DqYmz+Ft/3eXti8YXlKDJ/d088tuioFmxPLRd1xTtEjpWboeEl8LxNYTqePDBXTh6xKVsu3p92wKrYyQJKe2YeEBYjpHN3I59d/wAMPMONAL6f8EJvk4fKlnfxq7bByKcAjZAYD2Lhx9YwfjYV+gfzxsC6pCG1zlaFB3CwzkSuaZsHNpPXR7mlL0ScSbzPEPFXcGPvvdvYmKsk+9aYCCMpMmqpVWpvQ8TN3wT9t37nWhN3YGUvpNZBUnzzs60xEkZKsMOUkm/g0SrUOvfcfRpPPqG03y+wedIo6xqyGTTGjCP+ftFSlHKo7/p872uMc07GpLo3JxHynNUgUDR2bFxG9XxGXzyz5/pvFpgrdhRGtKE5fWLJGZ0cPQE1IZQFQBqRMe1jOfoHX4P9r3un6B607fTPDtIcvJFagkr9Xhotb5M1l6LjIcLWjKVaNlVNgbXOoFHHpLuf0WvkGGBfqUROpr+0FSI8YnNG5UMUUIzrYpx9B+pQfUec1wKvS//DLYxteVb33I9Dh0Zh22zHS0e5gPVvgX6wY4iJFTfRkgdKgZly5TQ9tomQOEmAV3Fh1G5/4ex/9g3I50+iqZbMkNSEcWsE5zRekENvvzx8MOQzm5iZvY4Jie1Qa3IJyLp1YSH1J/IZJ1/XkGpNom8nNiI6XuqPZRp1AsKEykpIJ+7tFEKYvzcv/lBTExSAGqxtfke86dAH5Ae2TkmqxkbLuW9JLKybkL+wowaYhf9xG/DxLHvwPLcAySbIooKPjj8J60gDbCzZJMgYqmCgG0v4+1vncfsxCKtBAocUwbk1ZHSh1Sr+LRXZTN4pvisYetVYfl1tBsZnnryOBJaHfl0S4F+sLNGYSozjMPIbiH1OfACB9O73o5dj/wEake/Ayv+DCbTF5FopyuZaEZyS0f2McqGEOZ3WU2zhvP6QyGJSRM27W+SUCZoRFN+PrFoSXjUlHpff5rOy5bwLd/8GtxycxUlz6fHsPOE3WZhh7WUtCIHncyn4B4cOPbjKN3/g8im76DJlcKjCYZ4liYs76exMWXNu6wdPGDoC9vxJOmlLCLaA4ZYV4cJ5NDWaDseVmjSK+K6itV6BXx67lOTLfyvf//r4DohTVfp2AL9YDhGoghm/ns8gvyqaQm5fC4XvnspiYExJ8bb3nMUb/+Ov4sjb/hucu9RtK0q3+iYOqiyuGJLq/TlWXVD/ttoIn/DwR+cTJBINd4jo0xaW39VClSOUnoyssqoxyXEWdloychOeJvrSnuVBIBElkpSwrG7ZnDHnT7SqEPIS5r56mbzKEJN1LtVtxWUT6rFsLpcrbRvcjTQ7EynUZ48gftffycefuB2TN/2KJ5+PsPjXz6Al+f3oOk0EfThL+1kKHuo7DXxA9//OVTSs0jsPHhzNciDVDKBgjrlqIVd1LAz8kdpaeRlJtkl/JxeWlMFsnINC7z0ss3v/iAW68rtvfyLixy7yzEUGtJoRXX8+fwtH1W3jpnZo/ihn/o+fM8/ehh7bjmCf/XrU/jtT9yG584dRqjB47/cOX+EQesiDNeeddQtuKwIakhT5BzbP059OIlLc1/rO5VIsIo0V5aTWegc4roDJTz4sLZD6Jg1mpoynVmQsReGgpAAO9j0PKlJIt5/awkfeN/X4x//xBtx010l+JTipxeqZmtwmxrAc4+jRB+xsvIa8+6RRUd72QNsMpmb9NKmJA5JHdsBfUkl1ruGSjL6Vxs+JhXPpO1l8Nlf3/s974TrRXBdZQwNyZC7RhiK1jGVznSpiYd9ExZ+6oe+DncdKuGmO5bh+KfgxhWktkwpnTOJNPMRuzVE/lL+AQXWjK4pqqQAhwxUBtMyVWLdETnz+cvVTN+8dq1WhLiIozqmphL83b/3bthuhMyU0SxIuRqGomUqyqSxK5SwIX7wHzyKGw45WPD20HA9Ay/0EfoLJiPFtiJqgyUOnoAW0zQHTB5FHVUYLedqP48AL700RaUVwKXl0A/yHB6RLg9+xdSSNbeCGj8rM5XpeIZWv/SAKZVJk1XRbkubA9ltvOPNY9g7WSFJlb0TndfeBS7FUBAySjkk2InvetudeMP9N5NwIWqUtJrFSC2fHU/CqpDURREG3cvNqtGFNFi+oY6N48dVFU/G5jqEFAnWThIzP6mAjwjbC5dyLQ8Azc5W8PAjt/MhrR3D9YKRvTActgMHgJNSyj56FFV3xQysBmKEjvwZEVEr3IsgQS9YCX1rdvNLL/mIZNKTVIMipVYMbYe+pGVImbd7n8gaeMfX342gJNdCi6SLaY9eGApCarXCQ/cdxMP37OP9OpasKuU8KSgpy0HiZi24yaX1UgtIN9GbSym06POdOTOHdujyyXVM0tsiokNf0kHLVk6s2r/z2lWgvTMP0u9/zd17zFIwZxVzd9QxFITURd5x60HK1GXEdoZFe5zPaHWCzQGXwMvquPGgnitwKVRTVQItRdjaheVahjSmZlsHlNUUOh5Ctv2aIqaJpjvqeMtbHoTjyLccbXdiNQwFIcOsidsOuvCsJmpeFVbcpIbMq8FlTkzjdRZT1Vco/dtoa7mVtQQ3LqHlNzufMJrQ9ENqRTRbx1Bj25w5dS9V1Tm+om6/+OjP8NRuWl6qvbzKOEe/vUVSufTltX5UO0u+mtMgoeDRf7znzl08L6amHeu8UuBiDAUhzfIe/dN8WJrRh+x92Q5q/EH5/JlZJb/KeaMDtUPXv7bxynH63+ngRLhYp0VpiibN4UjzkuY7zEKsVZG/18H0TBVvetPNNHeLFSC9MDQjVu6KwugRLzlcxVQ6uFcrOFye63As0svU0p9RhwmgpHDpOz73vMpZXtd5Ye0QubvTIRHbeYVmqLbiM/tgSvjxJaXq9QQFpPYNse0W3vWu18JXweUCV2A4CKnYAY+85oudR/h6YKqq/Rh1slY1xJTCo01IYymQLMq20RrIZnMap04PHtQxTWv6AfTlHTScChokoqZAurVcc8JeCb0PmQ+Lbsett07hwN6p/IUCl2B4NCQPGV5RQpPVzIFdCddaMZG/fOCoJMfOWPU/OMSC3GTVVENMX/LsucGjm7luFJR4bqNFP74Ry09VO+cJ5fwic8blMETlNUikAivYs2smf6HAJRgSQpbgaUBhHCs0dRztPWE6Xpcv85SP7RC33uiTiJqhDEyo39Ik9AhDRHSsGv+WlMRmrMovPj1n2s6WuWmVkbo1OH2a9t5FXA7oy2fsixo/uW0ycuRMxHC0cLIHJCgzJw/Gld1J3HPXtC4wPwxE6qKE5HAQ0tXWb212d8JBJX/lfC9eAqXNOSSm5r4zma1K0xppqCHUxV2tZaPdpmaLSA76cmZzoVXasm/QfYgyWi2821s3dkBz1ew9yX8Zzda77zmSc/H8m5TStz23X9hKDAUhPfbl9UcOos3OS2WurtLzk+M0ouwGpXEeQDDpdKOMbjvJgjBBFQ/NRomE2MfHsdFoGgLr2Rgodqgh6SOYRA1KwlWDOhpqFJJiYZLWcfSWXZiarnYShzrDcB3XsVMwFISMKDjj2EUrzgMIuTd5JUp+y+S5KpSh0bgTSjmuHxrxnfaikFqY97G4tBu2qs+dZ2zv9uwHEftDgTb5lPLdzdf1gukLfh//qzyl5bRx7NhRuF73Tau9cbQwFISkGMbx44tIsoD96ZgO7QXtYsyhQUGrXqcRtQO2A9g4iHzSUpN49msREvqQxq8TLdeRxhbzM3SIkDm9879XwCxavvh7MtzxmiPUlrwCvtcsXjbm9WhjKFrASiycoLlV92OUQp/WV+/AgRerDHIZ2nJN5pPxW0YcSp67cChCDXzhyy5qKMGOp+FZC/S3VRZlMGhmuOVo4bIFT5P9chV6QX1hCCmXQ9lUMQ7MpXApGMwuzCrZaQI7o42hIKRkbhJrT8LO41Wsm8lpakg3D1bkpxRm0OWQNlpemMHpMx5SpdHFs3xy8BRD6UVVlox45Bk7/WPf/hnYWv18HoObzjsFQ2IjKH+SbKQUFhlXI6TjLiFLVnJC6vTVThxhaAlVlu3CV56aQuRQY2XjJOng00MmKGM7aGujWmm/NSCzaxcIuYqlO2oYDkKSXV0iKnCwmhy1TMUAi6fnK0FMWL/ApWD7RU4dLzxzCGG8G1HSII0GHwbyQpVSF7HNFQFfS6D04KEZuCMeCL8cQ6Ihc5gMHN3hbS/It9RmOd0MnQtRxAIXI3VPY2nhAJ57hjrNb+Y+3IAwhORfkVGlPtak6qw2EiNdu+8p+msoCOnxKutLKc3Rkroe7irZIInt4YZDL8PNKoidzsR3gUug9DYnmkPkNfHFL4/R/yvBZrsODCVg2CF7RUuwAhKz/6kml4Jz727yUhFY414UPuRQEFLVy5584ktwnE4UbpVpD63L27UrYOcqYqefVnTwlVCb2NSKZWrJMdSVKOBoJ+XBkBsrmvaQllQezirmSw8kSYy3vvWtvJbOEwWGg5BpasOxfRPNy4dA7x70ONg8d5F+pKqc89E65td2LOSPU8Apo2ZlZRa12nVInMHna+Wvq2ZPTN9dkVZTirNPODbfq/1V+ufwjsdQENKUHSTdrlYYyU4j3HSztiLPCdnvxjIjBRMdo5npriCMqjh35gCSbHCTNU8uUJlIBXYkKNfArjxvrsBFGBKT1cLzz79EE0cEU6f31pAupf74uM1+Vjif5F1LyG9koC6X37dCbnr4wucW2E6DJwaod/KgDk1QEdL4goOiIOhQEDJGEy+/WIObBbzg0PgrvWDFHk3WefKQJpgpVVEQ8nKo5UyKYVoyu1SdWgYWVlTAWAXDXNO+mZ2QV/2Ro0m3PkhDs9XfkltG6qyBVIkL16eLoUwhCs+iNOSQEPI8pPXMJfcmWmpHSJXvKs2ordcKQl4BFaPS0FfeqBLMo3Aap05pDlFPKbijO/0TI/cZ8wmmhH/Wks5v03d993veznfzXYbHxWKA4SAkCeZojJglVeaOefpyxE6KZls7ZSlvMuwMlgKXgG0pQmqvDq1iTLALx0+Mox37bF4Rgia/aeN+/W8lYiiBzkHMbolW6ZteyNhHjisBUdTX6WIoRqylQcTx8clPfJqPVpfempx+6qlTSDvzatrTosClMHRRkIx3VN9Ge6KcOkuT1d6DmG2cadWFSNYnIfPKftSQmvbg7dp3o86DQvmFFWk7Q0FIpcMJvieirS6BUw6OFGO81SoPja5i9cCVYFuKjeYuTXzeP3OGZKIfp/lembLmnL41pD6rY7LybSJl3zDflb8/79b+TeWdiqEgpJbqqL+O3XMLr3j1lQkOCViLq0jsgP5RzZiwBS6DoqAWfUWRQVk6aKFZO4hWUkMgy4Ltq7o3/UO5rOwfHooDqbpd36CmhnuGd2SySogWputQEFIpc5OTPoISO1CduMqEf8zXvvjE2c7rTkduF7gaVHP8r56iP2nmFBVvlS/Zn6ZTAC0/U+910F7XtEeB4SAkpflddx9mn9dyQq5CtMypoFnfRzOMA8qYq0WmTj9QhPX5r02SlgrO8IG0nTEnrw69V/2hpW4iZGRKQhYYFENBSC06fsc33gvLFSFlEvWWwvNLTaTxfr5B6yG1/KowWfuBtvebP7eH2i5vW1UB6HdodLOhckLaaK/SNwX6w1AQcm6vh1vvPIg0U5lAheXV6RdrSd1P0YgCnjNOjarHPNYwnzbKsG0b9UYF5yjQnI4gk7brB6Y4Mt9jbkhs1bLrtP4FXPKgwKthKAj52NtvZ0dHSM00hgaMCHmxJM6HwNmlCagqnZ14sK2QA2Qdy4pGCLIm2raDWjwJL8mnPFarDn85vJQeKM1U7WZtW22kJPf5dauEArpDMci2CYaire6+92b2bBOW3cnkkH9zXkvq0GMPr5wpk7gcSOYlDajusCjwqmB7xhG1ZG2PmbpQ25k1imuCEg5op2j1RoGBMRSEvP76A/yrbJ2LL1f3zRAwAwrUhifmZ5G6gTFZLQV1iuVX/YEqzfNcPP1Vx2yiY6rCrXkKgprVyo8Cg2MoCPmRD38CjlWlFO90tgkkdDWk7ouQHp5+IUNEIiqzR2U8iuVXfYLtlKKFhfkJ3pKQyQSfLKyLa4GhIOSXHn8ZaZJQQ1LjmQCCNmNN+FdTICKjhbPzVYTxFGmqOJ/DpxSKLwZVP7DZXknWwJmTLtu0wieoHdeU5aS2NjqSyjaPtJp/bH+ztUDRDX1jSAj5CmpLK+xX+TWW0XxuFtE0VZCH2tCK8crpkgnieFmdg8Mxu1+ZCGCBq0NWhbKa0lksnKOCtBfYyhJ2V4dJVTcugh4oHGSD3j4fK/iW8bP4Gv8V6A9DQcgkrOK5p2u0rMbIx3xFgjpe5qoKWalUR+QU7BsYMu0pzBKScv6stmvQ9FLRntcCw0HI2MITj79I/pU4eFSeg2arpRQvs06A5pZH3Tn43vkFKOTSMmJaFcsrs2avR6PxCmw5hoKQlhPi7OlF3uPlWor+KWBjXuLA0S5Ok3jmuXr+RIE1wyQCSEPaKU6ddOC48fkVNgW2FkOjIS0n4aCRaZVvoKPBk2tMlfRYQjuZoL5UMEfGlkpQcJAVY6ovaCJf/p58yQhl3tI31/L/AdG2/Nx31EfQeklXi3YbU1lTLJoz1hRVMU01FITUQBkbC2hKadAokKPULv0jOVUfhiZWpl2U+HPMGBAZzb8C/UBhF7WpAjELyyGaLVX4G3xotFRmsvOpsmBW3xBWQlUCVt8lMhY9NhSEzLIQd9x5M++p03JpK4muEhApSWkl1XwrtAIDwazsMMEyepNRFbYzbgg1KFQAuT9xKNVcaMaLMRSEdP0EpbLMUQ2anJCmdAT9SUu5q5mDPTOdtLoCa4aZMyQpRKFmq4woq7CtB7f3lazez1RHfk6CublJw80hGY6biqFoAcuJsWv3FDuaQyZ3TOh+eMjsmN1J6Zq1sWt28C3VCogNsjgytJo+RZ5888EJ2T8kVFNMz4x3Hm/Fd25vDImGzLDnugrSmOYpImrEzJSu176GthYsO21EXszX8o1aVTUtn5gu0A8SElFt5qWZ2WJ86cyBzlK3wSBhecEH7XqTV0LfoQBc1+opfMghIWR1PDBmqynCxM7Lu1deCu+z83PJqkGgwIQe5SbTqrGEApfCENKGo4wbx8FffWWJwm49Q0OJGxdIuBohL7zSfX2180YHQ0HIt77tjciyvIhSDtFNUlVR1VwbuvlOPAUGgRFcuSuQaF7XnmR759NLgyDmqLp4TeTqg0wdqqN7xlAMx03FULSAozxLlbc35o26WYSUz8NHPBy7DR8r5twCg6HbnildgKe+eoqPBq9pG6pyALWuTGGDLjMvh7SyI+KLlEL3dnQxHCLpfGi8owU5cuxU2pHDyERaa7j5iJYMFRgEXRqINwndgnrTQrzKprj9gF1ziYZcjWaWbZsNlM6cPtM5uSDkUBAyYw+bagFaTqWyHFZeB9SP8y3nomzcbLKjnXxDl5rUWSSHJ9DyirnJvpA5iNwWTU0bHps4zSo4M18mqbRLlgQhh4mEYp8Lvh369Q4/05aPwfdIaPYEz4HVwtKi0h4VC+jv83cyhkND0q9hz11k+aij80CEoA1I5VM6JrUur7tjTl4tZatATxiLAzHS1CUpS0bYyU0wKfzqg057Xw2ZRc2XdlMD+PdVFV/3vEI7CkNByFZTXUYtaXwSHb07z8ta5GDF+EFKGlBpwgJXh2hopwqOKfkihBdMYnmxk2hh2pztaII8/Q0XbReoSSiaNXwf+61PIhcYEkL+7u98mB2rGjkaHNJ6vYl2/T6bA8tMfnAcaNV7MRD6gQjpGEKyvZwIYehRCFJDJppKUpt3/Xfdvzq04Y4qB+RTHyJlIRj7xXCMWEnni8m1SgdXygsm71WmqnxMm6ZXgX4gook4POSf059r1LVDVplWifw8aksdfROSGpLug0xXfa5i4gX6w1AQ0rZDs+Mv7BoJV4ZqgGY0SxXEUXaOzC0HLSQuX/Aa5GOJA6nJcwYP3Y8SFBFNtCiZ5qoSLbTp7fEzk0jtFXht+ZLSj2zL7jTGZVA5lSDVwvEMbbvCxzyPfVJJIh51tOyy0ZYWSerwXJdC0+ERkfiluAZfy69cfrch/WhjKAiZQ5falbTdgXHxAOmYXTxk3urMPHmgwCCYn2+baGumSKhp595azqKvHtnUqG5FD1CNl6ghYyzbDs64PlpughLOsvekMak5tWuz5fPW56dSG/Pj83IsBYThaAnDO5mf3cu9mIgX4FECmyWTWqgsiVyE0QfGSo1tbU2TlCqX0vEfe7kKmnaiaSpt58VNHMA53G+fwP50Aa6et2jZ0JpRlUD1iba601yn7pedGsYq8lJzwZlvETHaGApCqhj28lKD0vrVO8zHIhyaPvkK9cJzWQ/SdBJnzio4puiqCZP1bM849U1S+kyyjCNuHTcHLdzdegl3Ows4kC6hzL6LkwnzfvWJ/nqqS0BTds46gT1j2g2EJxlBWmjKIWkBB8vLNdhmvwkOi1V8mRtv0EY7KxTkShzgjyuirAMjo7l6+gz9ctPeFHBGGF5JyciuIqCveBBLOEyfcyqsY8Gfof+ZYtI9h13BPAJrvnO2ejKBn9SwpxzjyGQT1fScsX302Wnn3ihjODSknVDKSmpTUlst+oq9L3uBfkscT1Fix3AS/0IuZYFXh8gmZ+6io0FuvPLKHnjuKyRnGZZ3Enba4qlthDRFE8sjTy3c0P4K7nSfx43+WZSxgrZDb5GmqIRhlUQ9XD6N20ovokRyTuM09mQv4/rqacxNvEJiUjvGFSgWBwoAVxUFRxzDoULEKw0UI6GvlNJdHH9xmVpUe+XrXKEg5KAI6CfUzlAzpiRKHMBOKmi6c4izcUwmLdwYvYyH7OdwB13E/dSg4yHN0BgoxUoEoGmqgwIxQwuVsRR3Ti7jtqkV3DzVxN5yHWPpPM9hD2VtHD2yh9/YzdgZbQwFIc1iVyO5u5ebBwEuR5aM8yVF7wqsF2kWYTmaw6KmkNTeZM9UOI8D8TxuspfoK9ZxgGbqeLoCX5qTpqgWjUfsotyCkXGqm4RCso4STVM/o3lqLfHzWuxUClYS1rUjlDwyOaObUXTccBAyS13YtkeTdXXtKGjrc/5lX2soqHe7mrLAWmHRjqwle9G2Amq/BRy0FnFf6QReWz6DG+x5VNIQoeYX6StqYUjb9Yy5GrqaxFDb06zNVH1Oc8QWyRogdhxEPEK7ZApbp1kKj4T07Qa7S1HYor+GgpAi4osvvgKHnZljFVGqPQ3NodUFPMeYuQUGgctmDM/4KK1EuNtPcW+2jKm0Bi9uoJw1EPBwsxb82OVzAVz67AHN1UqkPVUUNdXMo8/OC+hrqvSKBlu+J4uSCIIkhOM6SGn+3nD9fr6qRPYiqDMUhLRjOvuJaxKWE0eO/yodp8wckVHJ5ea+NucpMAha1JCZv4CJlT3Y5fwV/HCGrZ4n7Eds21iFsKQB5ScaiyQ295XHaqYv7LaxSulVkmp5sEbPS2Nqd+bEpjZ1mvQ5XUztWWCX7sZU57xRxlAQUvmUrkuCnfchC2djs+EY8lh45vk6CSThJnH46i7DBaifFNjJEMdKh+s9zFR8XlMq9917lH3cRNMhyUccQ0FImZ5//snP8M5wXO5OgCKlcZrhzOIs9ZZyUet8rk8XgO/tTqXkO5yvQkgJWJ5225EyAmsZ7e6W9SOMoRjh8i0u7djeUdYCGwfT0jQ/H/9SE5EzRn9PrkC/GlLn6RN0K726yjCjyZtRTd56IMV+KWG3IORQEDKPlnY62AyKwmTddLCJLVf7cuzF/Eor39D1vMtwNVwgY/4e3b8SeVQ1Q5Ccwi/87HdgqpI/P8oYCkKm1go++T+/Zkp02GlgAgcFNhcR/fYgbmLFmcOphQrS1gQSbSnfD0ykW9qO59NHXG3KX7V2lC4nWl538AS8qPAhi5FdoCcU0lFt1ohsibNpaK1ibz23OhRlVbqjgjsF+kNByAI9oYVS2uOjTUIeP102Vf/WSkjxUBvvmOpzBfpCQcgCPWFr8XBWRtvNsLgywycU1Om8WGDTUBCywCqQqemabQHibJKP842MCmwuhoOQZiR0pzr0oEix2mxYyRSS4GWUQw9PHK9godyEqsX3BRL50uhqMU3VLwoNWaAnlA7npKpNFKMWlZDau3m/Tx1pKjbIvtXB+8W61L4xFITULIfj2MjSomO3CiqDYrYEQBvPn01QD/eswYXkmXy/xcP18rnGAv1hOAhJwWzxj44CWwNVaXASETJC05rBcmuKz/bb/iKgjhS2tGOhIfvGUBDSppB9+OGHee/VO/biQkoF1gdVmrPpC2r6I0YFf/nES5KKnVevBvXAxb1Q9Ei/GApCasFAkjU5IJT9If+k65fo8slW+Sx2iMmJc8jMjlh8zYr4SpEbOSj8mK3nNNCwZlFOVnDSeoRmbH+ZOqpYbqc+fLa/69SR13Yt0A+GgpA5dKmS0KtL6f37K/Q3VR5C6VqibWHiDgpT9NE0d4aUmvLTj3+NQlFbxvWLhAo1gW1nJkGgQH8YDkJSAX76U5/jne7lSkteCQsqFalqATyDUjpV1eQC6wBFWpaa9ZBtew8pphqtfSCTv09K0w9NzVb0hWDsF8NBSPIqjkSuV79cbRKqvSlUMcBoSGPiFhgMOYkUKc1IyEYygUibqvQFVQ1I4LhyLWTmFoTsF8NBSANjP+V3Dd2uhEXTSqsH8n0OdXZvTVrg6siXPupPhpjNGMc+FusUcNJ88gl1u0o/5MXGUjiOMXz1jPlb4OoYIkKqU7sd2yXmpbCyBE0/hpcmJgezGhbBhEGhJVPag8OhyQlqOifMsOKqfio1XzyW75Ylk7bHEMqyEhw7hOdE0H6dZhlWgb4wRIQssJXQ9jkuyaQ9NrX+dDmaxPw8NR59dMtuUoNakLzrvdYxJ6tDLoqOq1YMKHAFipYq0BOaf1RdHcfY/gkpNo0w3U9yutSADb5m00fvbYo6dmbMVa2ptDMFhnpbNAWuREHIAj0RO6pEruCMUuCafMbB115MEGLCqD0ncalB5aNfSUpL2pWk7PqYq/C2QA/sKEJqDZ/HMSLPxqG51XdQsMAVUL0bpc+JS6bwMTXmydq4IVniOCbPVVXjeuk+aUXNP6onLuzJUqAf7KghOzNtYSzNJXvAMaS6MAUGg5OoDJz27CDxUp9tmmLeugXltIW655r9OxKndyFqbXbkqIKcSdDwVjVtC1yJnaVDnBVk2ieikxyw037etcYTT51FmMwglemhNjaV4a8kW5ZFnQydIrq6VuysEWupfL2SAbqT0YWptJFo2I7ZUIc2KbWmByueJh2vtEIc+g35hkfdeeBCMPaLndVS2s9Dq9XNICnMpI1GmM7g3LLTISH9SyP8rmxnbWWnyGxRrXPtGIomM3qOPszyckZ/JOVF9zaF7NSh8Fb6XLfER0HKwaFW1/C4cFhZGc+dKqEch0gUtLG1Oc6Vbey6CqvRZDVJAbyn1Tg9oAoE5nPkp1rL7Lc+c2V3MIaCkI76nhx7/Asv8NHqhSREVB15uF0BhSKoMzA0d3jZ4bo1NN29GEMdsQJmWe/Cxo6d90G+k7VFIdpbgGp+MlECupLWtVtWVhByKAiZscPyDK7OJLMxS69EYkmDxhw7GgAcECbkXmCjoB2Szyy4JBHb2BBIgu9KDdkvZO34aZvkttDMDiEtNtsZFkLKXKJEjdsmt3K19XXNUPsWkrydMDupW2AD0WI/vHKyYgiU2eG6BZ6WyDlJQkHq4/2/+BmsNBudV0YXQ0FIaT2RqxKoRkubhOstSWu1Csk6ZjSqTFat5SuwcUicEqL0IKKOhWJpd2RzbzBojlLZGzF901/7nePssd6WzyhhKAipqKniA3snbExZXzP5lJoHU+ggoXmaWZLWPCGh9M5aPJemq83Xi8SADYUVx3hmvs72njBC0eyU3AMlt62ZEcLmedrivPd5KjEJCk/5mFGkclqFAB0OQnZM1BKauGVfCDdrGhNWBZNVv0UZIYaQivrxyLRAWVki5xMECmwEvNTDYjSOMNnLPtEi8N4azXNyC0YrQvIIa289qhUloNBcquXmb781e3YyhoKQnoolsV/9LMRM0MT+ylmTq6qlQZqgVhEl8TF26YPwvpOUKZVF0FbnEwpsBNTepxZcNNPdbN/cSlkPjBClZH3iiXPsYQrVju8/yhgODdm5TCUte8k5HJhYpBG7AocENZ1qXrfQjsf41+fA0bIfdu4qplKBweDaTbRdD3V7gm1PMtp1Q6jBIUICUXwdP4vmbVJoyKEYsQl1pFavKyXAsVqYLtcxPtaiRK2RdJLSNI2oGZ99RkGfKp9v8Ez6llmxJe+GIo3RSsfw0U89Dzup8nGZbSyBOBjEZcUGPvrRpxFrSqvQkMNByNS1UE5LOHhoEYntwE9a2DvdQDn26E8qASAy6QDtbDeSdJ6KMUFocbAUHbyhaNkVVKgVTyf3sN1DpLb8dAVu9CpdCPny6N9NsC0KWX+Jvecj4ocUQfEhIaQgP/I1r9lvQuPKppzzXoLnzSO2tUyoBDf2sbSiuqF6lfpRkdgiarehSCxtLZBiOZphG1+cgZNrSe2UrGoB/SJN8wJatVYnq6roriEhZCLp24LrRjRzVN4+xXRUw8zkstamI8kamHIpuU8pf3KMb8jPUQmJAhsHVxqNZupHP/U0232cfXHp8DHlV82fPmG6ZxeefWGet91Uu9HGkGhIH7O71Fl1E1UV2dx4N3aPtzARk4x4BXurNRKT2lJJrxwTCurkFc8KbBjoQ8pCSYNZhHaZT1y6HlIaci1FkW2avInqvbJPtUNz7/oDo4XhICQl8X333UYtmc9XmWCAk2G89AKuwwoO2DaclYrxGWVGacJZXauVHwU2DmrXlIRr00VoJhR4bp4zPDDsNtKshFhzySSnCmuNOoaDkME8SvZp2EkDkZMnj6d2DW6a4ObJ53EocPHZ5/cgzmiuirSacM6oR4tk5Q1FRPkmQZeijJdWJkx/5Eve5ANKv1V4v/82T0hsJGdxfLFsCpznYnS0MRyEtFLcfc/1cG12GLVgHj1Vdo5Lv6ZNIgJffCE0g+Ji9K4ZWmBQaJ2pncosVa2d1FSeu1BzNS/Z4a7BKNFUse/ZOHHyLInceXLEMRSEdEm8XbtlruaXK+Ip1G4CPHaCWubj6bMz5rUCmwcVtlIPdCsFOKkqNHSGkPpDaXJrSH+zaKqmKbVrMd9xHkNBSDuxcPiQMjkkRjt6jyJV1dC0oUsNAZ5d2a9nC2wmLM33uggxg3YyAcfWNFPXzJTZSqKuIZ1OZLTp/+cdWkAYCkIGjg+/tEyTtZPMzDGQKIqqAI+doklT6kR9On+twKYhc1qI2QdRuhcnzwBtU1Wuy6bcZHWKONq6MBSEnPAauPlohTJYOyTvosmUohSW0fLrSBwXv/mJo3k9FkVVLz8KbBjSlFrRWjYVAxquDScbpx1b5ytaQK7od0uzwvnJfcClebtg3YiS1TaZVsW88ZAQ8vDBOWpDjxqySu2o8Lh8FfKNr12QzwWuNVyRVDvs9Ik0DvDi88t5ypyCdfnTI42hIOQ3vvOYie4liapgU5YqPEeYHEoeeXGz/gdCgY1EpxMoJG0aJJrs7xtWCf/jI08Yv9R8RIHtT0iT+ZE+CUdboPFyM+1LqERkPi1aWp4Li46LQgoFrgHOp8+xdxxNhvTeXqAXUjukGVzlO0lIfkxRJXBINOT3fu+bScgVdraieJo+5mWLkOJqmmJxcZG/pBCx1xKSm75HP1LuRJ/Qtg9GyPJfriE7QbsRxjYk5IRKH/HCJgFqv4rvoGo/hSyeYad78JLUmKiJ00C1RelqVfGxx/chK2p6bjr8rEG6BYhs+vPRJP36FG1bNXFC+JiHb9EfXINc9BIbYXIdidkGIva6o8LLo41tSMh8CzTtwqt6K0dv0IS/gjiSvBfMUiUFZHYLqdPkgFBEVTQusNmQu+CmMY3LvFqAKvvp8H2tyKGuo6/fL/KaO+VOtyYXd+/IYlsSUtRLrRasxMXBfewokxmi2w4pOSg0MOSD5JuKThSduQWQZaIKckHaxESF5qYJj2pyPyYhlVKnbcz7H1IJ++4XP/BbhphG6BZ9uF01pJbjsKNTD4f2saO07ZnJALkwx2XyKakZz857SOO9fNx/MKHAYDCETB2U0gbmJtrsJ23doCpzCVyzfCo2hO0Xqv4QxdKQfI84Satn1LH9CGmJkHkYXJk4x27fx/sUnSahvCtCbVg2/ZkswOJ8lYTcBWeVzUMLbBzU+rJMvCw3WRWModEJzxehIt7X9H7/0FKuzOwPwneZ/4Xbsf0IqUWuaJoO0sXt3cv757NudOSXnCT0LUnehlPFcvUk0v4TRAoMCCWXx5bKbrqYphvR8krsgjI1pOrkNoCYroOqmesge22EFKp8o4phaVmceS1fYK4YgD7P8xf4wbEhemazr0cc24+Q6ERL2ZGOs4zXve62/PHlyNixZi1e7k8W5s7mw0011ziPuPw1lPcsILSX4FWfge02SdIxpE4Laek5pNXP8X4bSXyQOpMmafAsKRig7a+gVVogOWnexg6ef05TWQE/WXpVASLzNSON7UvIhESjX+K7i/njy6BJZF28dsRyTSChIORmI3R8xMksys3rMd6axlSWYBemYVNLLnplfCW6A3/89Hfij7740/jYK6/HqVIJ5B2c+o3wWwHfN46geYjWzB7EwTza0RiaLVk/ImROy1FHLpq2FcZg2zVk6QT2zi7ja5+6m55FrfPaRUhLxsT50vO34d3v+3toY3cn6ldgs9Ckdqu2gd3R0/jQP/4cXnZSvFC9Dn/wp3vw2a/ehQW/hEZpnoKyAiecQDWq4bbdX8XbHlrCtxz8Lex2F1CpqVbuDJrlU/jKV+fwhr/+OdRl8iqIzpE46j0op+wn87vbBNR2li2fYgLf9O69ePebXdhm2uNySIO20E4O4Jc+disVqjp6Gyr8HYSsvR8TSRtvfCTA3O46fvAjr8evfP4xPDH/EM4G19Gf53CKjiCL9mDFmsBSaQ+eb92Ijz99Kz76+bdgetrFTdMv06pZZp/aOLHk4QO//goiE1FX760lz2dnYtsRkjSj5tMqcg/vfEMJb32QRLOvjKA2K6dQaezC55Ym8Bsfe5CmkYIF+jkFNgs2/cLMXQHGd+G/fPkGPJ3ehCgd5wtagaNpD4d9l9B/jM0uytrLU7PE2gfydDqH//HMbvzFmZuxks3RbA2QtAN88Defoula4meoop38ydGOzm07k1Whb5NAnvr4g//2dXjsrifgeFemxdnJOCznLH7t8Xfgvb/yLajT90yLPeo3Faqh0yb5qtfvwmKSUbOVSdK8nMfV0CrR7Yg9nurDi2KM0Ubdc/qD+MqH3g/Ul0Hr1xQlG3WvYxvaeOxc/q94Eapji3CD3vOL2mxngQL1iy9dT7OVWjUp9vHYbMhFSEsOzqoMpE8/UZZLZync1TCzNI2J5jj9She+bSOyUpzCm0nSFiqpSK2YQH7uKGPbNYHZT5B9PFH2MDmRYrXUyJZt4fOvvBEf/txBhHbA9/U3MAoMjphqzDJGSBOW1SZDFYkxL10Vi5UW6iX6/E6GEGWE2bSprWvFFRMfTxQnKITqNtSQJKSWV6mcgwnmrGKGLoe34n2/cBAvLjxA08lB6i10XimwWQgzkscbQ4lS0qdVkprdxfpj5FRjHJONMsZCGz41onYni/ZNUvbeQndDqZItjK+hputOxTYkJE2XIMVUZR+um2QHUQp7aUSpOgE7C839mjWNH/n9h/Gl449QUq/QdDoHp11UndtsxB4FXxAgNkuu6CZIQ/aJRtDg0UbLi5EopEph67VLmkiG5UbUjmXUivTH7UfIauIhcIBg30uIxs7SrJlBjaaO45wjIQMsOQk++Ptvx5999D7UMGXK0FvJtAnwFNhc2CSk/DxVZ5CDsN6J/DizMHPXQyauKouocDq2ISFbiJGFFXzzmx/GLvoXpUaKSquM0uJuktPFX5x6I97/8euxhH0Iy4vI3CVK1yt3YiqwcegSxXJd9oHdTaxZd6pb6jhw99zKz9M2d/yw9TJ8B2DbjeLELsGOM9x1dB4RjmOhMoWPnrgJL4+7+JNTd+If/+zbcbx1F33GeUNCR8noVqvjzxTYDHR5YvkutVpesWEjkFouxvbfyVE4BlM+siCkaYLtZSk4Hp37CC989RuxGM3h+/7FzfjiK6/FtPs1as/rcaIUopLM8cLpe8Sz7Mw6UmpJ1Qw1m+wU2Bh0RoYSNZI0oUtgI9w9i6jkI6H/qIR+JfbnanKwIZTyvbPtGs789t+Cf/IpNDx+zoh34bbL1AmcFEeP3obgyCP44X93F77UuoeE8+nw70bLCeB1NKFZiWdrkTIlq1Z+kKAFNg6ZHdL6cOCk1F1uCy2fRuXYBJ/P9/cwymydNmveZ1Oway+hfeYzyLRYWYXMRhjbzmTVFtfPLI/hX//q/XgxfgCR6uUUuCYwc8KyRGijOllA12Bj+8JJUwpZF/6RNyC29mMsK9ZDbjtCBqmPKGugZu9F7C7SPF2fFC4wKHKHTulssRsjlYY0tW82Dsp9Da0I8Z7XAHse7H7lSGP7aUiEyNIyXGsRjrVCP6Ug5LWA9upQy8c0V2266uUjVcR2//OO/SCBz38raNIN2f/od6BR4ReNOLYdIUOPHZXuIimnkSV70HS33SUOP6SJLjoUuMkDNDJTu3OM9PA0gT+R4uCx67CUqubqxgrHxHLhZhE/F2i5s/RVJzqvjC6232jnGChlKyTmAvxYe3l0ni+wMTCkkqa7cJjiVCbrhv4iR4Q2BGj5K5i6v4zqG8uYn1lA1E5J2o2tymCjRcE7CRVKdhIleKx0XhldbDtC+hoXEw6W/QYHTwwvKUpzbDZC+ohtHtKKMclhHWxi5k1VNI7Sl59qoOWwU8zmrAU2G9uOkLqg4PBuBHftRtvR3g+K9BXYTHiJj6zloB20MfnaEtxHQ9T2Lplgjk2BaC27qLQnYKeFcNxsbDtCJlaAxt5J1K4P0J5M0PaKhOPNhgRfen0NM28tI7qxidS3zfyjzEhZKLJyU5u+XiEcNx3bjpCpa8Pffz2iwMHkvbOIKvJx5EjmQYfzR4H+IDZdfJjnNK/okXAeBV4LpTscTD9aQW1uAS2arH5rDF6sBcMREqeN2IkReU0+lj9RYDOxbQipfSB1JF6EsX23oYQqTuw+h4nDk+SfycvhPwUc8r8F+oARXPnkfvfQU0maIcpINi9G9Q6aqHdYZlmUnQRw0wCRGyKi35gnBmRwSE43LHOwbDv5veOw7VrYvfVhZLO7EKusg0Ma7lI90NSsoTP5qzwn/1tgENgpu9zJUDuwAPehBOWjHtu2V7oaz1NUlUerpVo3Du8X7b7Z2DaEtG3baMjKsddhwXXgmHC8jWgiISFDZJLYSnLWyRucMTISMAkWGWKaoe2ZOmYfmIB1Q4JmaQWpoqhXQG2ct3O3bwpsPrYNITMOGMdxMH7rXfRrMgRZClc+jptgYs8kEks7LVE3clwVBuva4VDIWZpknEyx69EpxGMqUEWSmXWkvchGkqqECo9SyaWZq92uiqDOZuOaE1IBG6Usq7ODsVm0JqfhWY7xcVKtd9Rqg6YK6crH1OXKnywGRm+wJTuaTH8tCjkJMiWGO6GLttPExB0TaJW12Wre9uZfD1PUuAeUfGYTHCsioXsTV9k27B3TK9qeXI8LDI5rTkh1pAhps6+T8iRWghI8CuaYfk7KJ73IRrjYMsTML5fvKLYM6InYiWiSxkhogmqtoejjpSW0Scp6ZQXesRThjQ0STCR0TG5qYkyOXsNAdgif53lpRh/SBHiuhJeyb6CkAnn2MR8X25KvB9eUkObLOSBM11MSJ2PTSAMPMUeSnvOpKZN6S2cV6AMuiePRknBNdpNNwgHReBvVh1xU30zhditQd3rsk9ILJK3ReuoLknG1glZ+1jYCMtI2dfxONyvmjdeDa0pIs7quQz7tzBvSZIVtnu2AQ6IIJvQNvx3AD30KN2rLoIXyjQ4m3uGgeXQJ6WxMsngohVoEfHUYMhpCpihV/TwxoIeWbFhjCC1+J7tJJTkaZo+VAoPi2mtIjh4RUvQ8cu/9RlO67HfRMKTktava76FAP2j5IeqlFZybOI7qG2jyP7CA+sSKiVBLa2p6I/T6NymlHZXcT8MWZm1yD9kYUjOW0zpmGy9gvH0Sln1Nh9TQ45q2npG31IyJr0LyFpb27jLkVM1PXZrWQkZugvYkjaGEJhMlfMNz4Y/YEhAVFZbJqEwZsxGR+fn02dgk2oVYxaVTL0J6awtjj3rY/845RPsaJjfVDl14ieYa6eHRL++3lqoKiJlgjzZXdUOMTbq0YvJSjVod4iVa/UEzmX+sr/0BTn7ox+F++b/z9P5LcOQamL8JHofBsrkddVxTQqpzteROkrdBc6d8+BA7yDJSWbEGjh+TEDB2+y4kJKbZkIWaVEWWRgmmPXhrm6iz6tzkt3QY0RhfRuuGZex+5wRmjk0i25egWW7yfA9eLPNRXaxoK4d/SnLG/W1I1C1iJaFIsYjyRD5URFT5ihKaChxNRWew/PjvAic+hcYLf4FgLel1Jn6gAUAikvjISvnzI4xrSkjNLBoxz76oHLuHEjwwA+9ytHfTv5ziqdoVIk7RvtjNHAEkZpGiZ7JsTITZCrE8uwDvmI3ZN01g7CEfp2ZfxkpQQ9sTIdhAnSybQdFNm1M0Vp3ijfM6/NgIhYzEabkq6REj/cqH4J3+AqpZE7VXnoNn9b+mMV/wTNJTuNgpfx81+ajjmhJSJgv/GBO0ceOtJFqZj9VJl6LuLiM9EKDhR9QMHZU6SmCbpIjZPm2sjC8iuMvGxNcFSO5sojlVM35bOZww0x5m+kFmLJH2CML0i65pK62qb4/cGtJyyM+nGOXnJzRVS0kN83/52+w/aml91TgtmTV0TSaym9uYRKYZXJTxvLaEVKRA0bkSL6N0211oU6Jrovpy2FYT/sEJrKjCAwdZsAaraCfAYy/ZtNfD8QbmHp5G/JoQNp/UnGPkau4xJ14+5eGYW2XYpCTwwGA7y4W0TW0dmrxuE0m5DYva2aVQ1Nyjs3gKiE8YGiXOOMZuvM/Ux+kXMn3NX5qrGUltWUv5CyOMrSMkhaG+zAF9GIc9re2vSyF83l0uXwf3hhsQuvIhriSkR5MmKrVI2jIWS3X4EU0xnmbqv5gghyaldwa8tDtM8zlA3au7dSzvWcDcGycR7m2yndrGkDBrFmnqCUY7SpvxPWayn5+yLhOQRFSmT25Wsr3ZzpMz82YfztCfR0LTtdxsww1XzHZysDxUD76JurT3tEqsjB5D8pDn5pqwTMEaZz5ml57EyT/6OaStRfP8KGPrCMl+zUzXKUuE95IEk00L7akDuOG978XixCSvRh11pcmq92lvQme3B/dwCUvjdQ5Eyxwmpc4M3sHNs20FCRc2gVnqxNtUuaRHfBx64ACisbaZupDPZQpQkXwKvphoKA+RWK0gBansG+P/DQq+39yYf7pvoTxDrUziO7xAJ6Uf6Y8j9m5AY/wQKvd8K8KZW/la735QgM5cJz8royUkHavSIBPpKzj5Z++DdfozCDuafpRhui6/u7lQDU7tIS+TJ1AqFp9re7ux9/t/ACcfehM1Aw1Xi34KyZd33MWQz5LweaDSdBGeaKD6WQ4TagedqQGY0gfRQB12WCSgSmWIXKFH83DSQvVNfFxJ0cjqJlHCIVmuhU0gDdd68nrYZxKSZy975Rz2hS9RFlg45+zCir+P1ss8u+tKzay5ZfmXmn6R7yhTOKIrMvbFX0b9T/4Z7aYETZfvi0fbj9w6DSmIVGx4ma/t3Ycw8+M/hvkHHzSm1UyTBLuCiBcgKZ3wahtlDthDAZzXVDE/toyWRzOIRN0pi2clXNQKid1Go7qIsfsraFZqaFoko+b88tOuERJ40zWEFsVrQv/V9nHSvx6nnZuw4u4zQtG6JNPqYmR8PdfgdhqilNEfPvs4lj/266jwc9mr/PFFEsiWjWJ1lkxS7VaVlGZw6P/4IbSP3I80G6PjFOJstc371KAdU+liqBs1B2kCDBwMEe2fpZtCVO6doxmXD2IzQb4DIMEjIzH1Q8zdNY3lffP8ffzxFFayAGQ9rCd6uh5oRsWdbKMV8Cpl6ZCULcUCiFJCgYEl9lRvv1V5tdKOMsk9NOl7nsW5D/80xpKvUdhQWzoB3KzPPNsdjC0bxS6ddztOEbG/Sscewwu33CJdaYafTVtGA60793U59Iw8JFupdCm1hNGkLpI9MaqvD5DeFGPFq0t+0yxKTd4lvR1+p97Ib7n82CbQ9akeauKESB2Z8RmCdhnLpRXYxxw4BywEkTJkZMarqzpHD6G1FQjZrp4iMdY87ys5QBFdES1fDRLEipKnJGeTfaW0ujLN0hJ/lYNqgz1ttRCnY5huZ9SMP4zk3BfRSKkdM35m2kKxa8QWEpIy0mgyKymh8tjrORirhmhCnhGie6/eI/IhuyZb5NhocjQsjcVw7piC/8AcrCmF+UnL2OcneWjJcdnG6Go+7TKVSfPRpF+68RR2vXEC3s00z0vLndxT/WqJpG4LdVthi9FZj2r7ufCUNjfXxcsxMtJcV4aGM8HfZpsc12qyglLawLkxD5WkitkzH8XZj/8Qkr/6rDn3fA8potu5O8rYMkJSb5n+8ip7sXTsVgRNTV0MPrDENWWNKNd1gRqlfl0I9/UTaMxJQ1o0r5Sk3n9e5bWACGiEkYJRNMPtWctUf2vtqSHyRcROitw2gU3/UJwcn9DUxuqWRp7aKKpR+/E9dadKP3EZ7nP/HQsfei+yr3wYPn3iAldi6zQkx5Vtl7Dnm9+DljfFjs19pUERxBlKsYVSZMGnKWvZLZyeaSJ43RxaRyLUqV08M4cm3g9O/M2Efj/pSOVArVJexvi91Oz8LZpfDMISzdUy/Gj75HdqO7qEfqOtGjzW6sKunCp9LqNZ6/MmxVg8D/uP3oeFP/5HKK08TRN1N1pbN/KGClvWLBm12Zg7hZXX3Y1yO6C5qRUM5w2WNUPmaqQQupkm0eGgFDpolRaQ3WMhuX8SiweqpkCTBvl2hHxhE6ThAJ+9eQqNvVrxkENJ9aHbotm6ffa7yFIJPra4yQTQlfYWqDJfI2pGVQ8oPfcRxL/+vUie+iV4bQ8N9hNtGrjh9hSS1xpbRshxdubysaNIJm9D6JAwTtjxGwdD1+fUTV7TRZPNMqMCDmQP4fUc1A9nOPewj8VgBeWQZ5C4NV/BhcyUudBypIQDJ7V6RwY3G/WgySu2EM62kd0UwY5sXlfEa9Ji4Nyc1TpG7WasrdttHhQ5/B3SThrQlx4iQhfq2I3u3DQrGTO7OsdrYtulaYI2fXnFTVWQLF+SVaOJehizTfrCX3g/5j/0Y6if+QKa/BelEbtMy60i5DPRBS7HlhGSwwilO+9BO6bJ09FYWzGrVtplY/I1e3FuPOTgTzFNKe2m8jG1jEnDWBHCa1N2YrI9hdBvYuK2EkKPhDOm9ZVHCp9HCYkIoVt6ZEqwuPygR81bzehJMKmNN3bQ6zsUpU4pNOxSDMtxMU5N52QhWn4DDU9zjTO4qfZHOP0n/xIvfPJXEaQL8LKiDEu/2DJChsEEDj/4CGzPYwdqsGiwbT7CUgvNAzas18ygVm7DjqV9NIVCUmo5EwkJaaBrALdBH2sPBcLBkNpaOoPtIjXHQ75l9778NVPGX5FNklaJEFZ7nFJuzNx2D20NYDbH4T991kbPV2oqSWsgY6cNZ7wJFclqu83cV0wmMRmuIHjld/Dib/8T4Jnfg5+cMZcfbtkoG34ohPeT+d3NReW2+4HH3oa6WyERYkQ0W0WKraBl5JKAYw4qYyUsNs4ZTWml0pCO+X4RdF15nwMi5ID276Zemwt5LYGZXjREFKVIvAvBKF4/uaXECGU11VciRIuTCOseomaAiMTWETdpgic2HKWgmbeKkBvHBmVZyTWQfxv4HlZOk4d+hiC2sW9lEY1P/wKWP/XPkCzzBZJXelpzw7AU3NneEe/tgi2TXdW9B+nKe4i1mqGjIbfCZNWqefmbkd9C60CE0mO74e6hn+mJlsp80cJfE6XYctiHSKgJJWpXUG5PU0jpWbUJ20aTtuyeJKFGWppAvDxhSNg8OwGrtpu/iZYGB7pF09sym53yaO9BUp9EbUnvz6vAbSQUPEMWkJD0byt1jM96GKtPoHLiL/DiH38XVp78jyg1Lv5OCpUsgp8WJmu/UK9vvHfNgVXmQGlKwtMUcxIf/t9/L7wH3oam5yIt8YstLRdSJ28+KS+HX6Nf9tEVTC6OkwT5ukFtNLNRkADQzxKnuj9Ppp4fK6nawjJNZ/cIzcy9VwaTMqeFUiWF66eI6Z81OcDtpL9KcYmCU1SzFj/DLS2jMkG/2aE5LiKpq+0WO1u5v/193uUwK25kWVDbOWmEuDGOsV/5ZTzz0d8D2ufY7dTQKpRcaMOBsWkaMtd+GpkcKF4F43v28zEHi5Qj+ytPBeuM1q1G2YO/r4q2R1+I2nqjJ99TEwKWJUADjxaB1jhq4bBM45YXYvz6Kbi7eguALKYWrFWwsuCbWyuZ7rzSB0zQJYKKKkRtCp34ovWl/O68uwfvcrkasm5aNrWkRWKeexrPfPLD7M+aIaPBNerSnYLNISS1gHiniJwimfCm4MztNSTV+kVbhDQm2bVBS1HJw1W0Si1eEf0iIxw2DkYrkgAio0qOaB5Uq/ubXgTs9ZHtdtH0ey8zUoTUtBHNaKXU2crz7BOWoqyUdo78z7SM1grN1vO+MTtCv9Noy8FgBIy2sbNtU/7Rn38WaJzk72xt0kAaPWwuIfnpSm+zb7obrcoEn1Zlax5KJtc46wjVrYZFH6g+FSGa1OBKEFPabyTy2VGJnwyabGn7VCK7HPg3jiG4cRytQFMTvQWSZVFI2JrGUFS1zaPZeeXqMG2t76UAMCtjaCJr5X/ezOoRdffgvzWyKhQSCVw0aOY7ZuZXn65P1lpHU75TIeACA2OTBFuHkITHf0fuuo/mYWAGhnwoRyqEh/5dC0jrKAtm3837kflaBb/RQR39UuXUUjPKTZyuoHJkCtjnox60+dMzs4qjF+w0MD6jnVTz2zWsEcwzlhRIESl5DdS00v4SDAam3Qfv8pZdNj1bSmuGfG0SNLF83vfMoSCSWe9aYGBsEiEVwZSJxE4MXJx5+E54Ycn4a1oapYFqxRo4vQgpmaulPfmCZB3K9TRHd2ARke2aAEI+CESyC69dFVZAfwg4uydDbVeG6bZMLpqKlx3SUhcf+Xyg7G29nucHmbX7er3zWKUqRDhVPkhQQlh2Ub5pDO2S6n8rxqWorsPf1RVZl0IaW8uZEmrJ/Lb/Aa4W0BVpuZOOlO2bNNhGqUgjwaPspN7f2w+CbIla0keYzaIS6Tfz2hTAUQZONwtnDd1Q4EpsDiHZKcYw4m11dh8sX5XISCcJ6M7zq+vGPBykuEheEJhH95/xqWiWmSP/jNU/Z3UY84q/POQAciYqaPVQVrpWubkXH2ouFZKSGahaqbFNj43+lAIcGvCkpnmfri9fjRJjfKqESEWp8l++teB1hHX6ouplu2EEiontDAjTBITaQmUgVxMqBQbH5hCSH6sKOmYMju1BU6Fwy+hMA5lQRqP1FKcdQrLX7YhaVGkeSkTuHHpsRfnCWDvJzxV6KttVYMjFrzbGnEi1yijVs/nR+WcEgTJh8mbLt8XLzUPRUQEPJ1ElthB+FMIJa/Cc2GS0nL/QLQW1ZVxG3OQVG2HGp8w1Dwa5G/oheYEtTflreqN32xUYDJtGSCkdDYB0bFenvKNSudh9PDT+TZ/26Evj7yhuT7LZNGvdSEGg/HBiHfRBFaCMTTksnpt/yFoIqVNV27WqNZO1EJUe5T90bdJyOrTaSPmveUIDzVVqVi8OEcRtlMwRohw2ETRrcJbP8Zjn5y7Aqc3zPOWXyrTeeqgt5ac3lgNEtWleemAqxg2K3BzO28aLY9RffLlnHxYYHJtESA2D/MNjp0wtlE+AX0ya1fnDHibJMmk/EsaYqSSMDlVbkzmoKRNL0wlJakL8a4UZUHJ/FupoHz+Lsim7fSn0qecJqetpqywI30izT5rQbpN89SWSrga7vgKrtgS/tYLxpEWCt0jSJsb5ReFyDRmFyqv94k0DrRIlYCCaQnNxAmmowIu02jrAnyGi+3GC9okz5n6BjYNGyYa3KCmEpJxivOnC/kfvRXjH21BVrRhln3CE7326juDLiwiXFhHfPI32A/uxVM4HvK1UMJqlftwt8UjmmHuXQj6bTEatz0u8mIdI2u9PyeA2LEz/1tPwV0h6+oVK2r4Y8jMTjwJAS4rSmMJARquGnwzd/Ipy7aA/lxJaiQF6TYWd6gcnYd19GG1enzl1K8GLyMuEaD4yRlChoBhPEHmaSuHFmCwNHbxQCrqrQVk/5dCnz21hMjqHZ//O91NQzfOVrf5hOxdX74UBoKGrfm7CR9sv0Y9yUQ+UrQIcPGchefJlZGeXTV3kiS+cRemPnjMr5POo6aXEWA0KFubmJAlDbbqW4KHD86WF00TmpzJQSDNpvYsOZaWUqBVVWc0V8Wmqag7OUyCIh8XDbKVmBvWlEBmNSczf50YSQtdQjxizhK2qaYpWhESSZkDod3W3Sg/Y7lYi3+Ga/bIdiU0hpAElblwaw+wtd3BAO2ZyvNykmfOxv8LUuRhlDowxasPYDeCdCLHrIy9gqq7gjwbv1TtZRDJDi7eZ9o7kAOkX0nGWw7+uNAOfMJo1PzIRjdJEV6EpjLzKnb5Er+smvxVWG9opz0lJYn1SZWoCkT6389rWIyekfpdmheOIj83FrP2KTIFmNpna48zTz1DBKlWv82KBDcHmaEhKUWWJYW43lr3ADGypzNJSiMq8zD/PlN9QkKSp1TmZi/LzS4hOnhMfTdmNq0HzkwoSmYip45iB0i8UWU1IxtCRGUbq8Utjjiwdqa09KFRV20GD95s8lCaW2tT2fK7lurzN5/ry/S+u/GJdfz2wcGqcWmm6bB5fEx3ZiYqKfKZN2e5KWLf4+y8WLP1CWzfkBazoQzZbJKQ6ucBGYg3DuH+oqyVNJw4eRtPN97z3OADaJ+dpLmpPB9vs8aiVFrPNFGNhioVdAar7pvlmDvU+CCkiGj/PjDMSUhv49AnzXhKyOjdN7ZWSoCRMUDFHm9edOD6yUgXZxASscfqAQZnf5cEuj8Een4JbmeS7fA5IHj0IGdHMLe+bg3N0H5K5MWSxJtH7v74Nh6acaILTWwYvzXSQRaGyVqgf1XYSR76i4CbVocBGQqNk7aLyKrA5eKv0w6rf9YM4+Za/iVK6glJYgfvJlzH1pEricyCzMyM3xlhLe3wAJx+ZQ+s1k2bOzizx0cr3iEQh68w0HiWzhHNXsGvuUHVd4GckkFay5+/rB/rRqd3C9MtjaH18ERNJCZdv9CJPSUPuEug7FbnUgNaFyJzlOfJ8MzrE7VKMmdsPoDZD006+VpqSnCqFyPPNPiTSxvqe/NP1d/PBNrHEwjy6qoLMpRn6zp72laSGo1CRtu9rq3P5zLpmK4Lzq7+Bk7/3/wJ0QwpsHNYuJvtASn+F/QyMzfCPhrUGLIcgRaymKZQUoFSzIErRKKU4e8CDd3jWaDxNawgye+l8ItOhgkokjNag61ZH5qT5ni46TzdrGNwxr0NX5bolfg7N0wEkfffbFFFV0S4VekpbLl5+8iQWPvEKFj7+IpaeOE3TzjPCxWzBxkNaJfdN+xMe6wcFAE1rLSyWySoBYneFT3dSuEdgqheMe0Do+utnFwzHN2UAjTA2qT0zNGn2WVNaA8mhT4K2+U2pR2pyACgEr5L/kZdgaZ+H4I03oTau95FWhpDSJDkJM48EpBZMVUCJR+QkSHhrNCNV5wWN1f9P0ThUxk1tXsV6+cDt0mst4NCmqStBk5vP0pQVVOIqZmpj2FUfp79so/HsAiotJdbnBl7E80TgZkeQbC70HSKbfFj6xmaaSCzSahK9vnah0G0pma9b8hNGDJtCSEtkovZpBVOiltGIbQ5C+YgJNZ4UhurcnJvigL73AE5NhCRJbLJhcnLpQ0TIPNFadUtTlwcJbJGIGe8bM5WvyzQ037mGwaHr8XgRNqWER2KmxrEaDKYuEIVBbsrlv1VaU6shVBoR8xGWv3QKzvMxnOMpyksOSvze0gA+3HqQZiShU0epSl+SbZoHdUQvHf1pSJ2pd0kAuRVaF8bSKLCR2CRC8k9QRTC32xDSdKSimdUAaUkrHWC2kZt74Ba09leMBnQ5QJS/mnd73vF55yvowvu6UqONlIKXH8asHWBImDnM2MLK6UV+r0Idg8Pk3JpoJq9EvhrN0pbHg/6xrlEb0PgrgPdsE87TK6g/eRy1p15G6VwTCPkbaLZbykriNenndFvg4qN/dNvj4naRtcHrcujT0wrxSoqM0oc0gbO1fbp+q96hT95/9AY2ogRRgY1Et303FuzroHIjol/4L6iGilpGoHxGmY5l+PHnMTffRvLgPszv772F+WZDymGs5qD1sWWMrZTN9al84lZDQiYWWQKSRk2hS6iU0W5rL39aFJUKHE2zONrn4+oolXxEkSb/aUnw/Z5Pt2GO7585A99K4JOEocOekE85ADxK0jaFjRIjSn/+WZz42Z9CKClSsHLDsCmEpCLDzGPfhJXv+acmKyaktrD5L1Too+5iNwf/fKXF520zt7XV0AJp+1Qb2afamGxUoW26tc32VkMDXM0vP1hRTqUBRjb9TfaI8ff4z5iWCjP3AdvK/UTTrXofLebSPQ6sG5s0VzXB40ClRAatsqd2kwshE9f6zF/i7M/8NH1nPi4IuWHQiNhwaA5y4egBeJE6MF8U68c0S/laNJ7h1LgKA8vfys/fakiol4OSme80Vu81Quho81laEGbXYbZO6lFAtWlGt0FdRz6F1GwRgpSmbx+HF/OW3A0oBAPy0qM5rAR6V1FvEoeeLY/BBWDCxlIyhxIp9t9+O3151VvtvFhgQ7AphLS1Y/ydN8Kn9jOLWElIFSZWGUQRUy6Xw8HX9b22Gppe0TxmN7HgGihpA+3ZoQoKElraFVqZQ2bb78sOzWP2dZiKABcOtb0SGBQBVmaUWbCWaa5oMCgbSlMesrWbSsYwIrbARoJNvPGQ0VTdd4ADQfeIhLLe0cDSIlmNfk2c66uvDRMUmc08mq2TDq9LmoPQcxz8KsRlolK6tO5x4WZD4Uur8VB1OlkLitCqPuyVR6m/g0LPVKvjYcxSEicrq7oBfxfb3MxBDmiuCoqpSsOqD0XwTRo+I41NaVFV4J4Jq1jxaXbFHqZXJhG5eXRP2kjrC3Vf3XstIOK1qzFK91XRuj5C09VGNRxqphSHBIdq2VyZp7nRpIypYVTDTdV4jNnAQxlHlx/5qpKrH6b+DgWLAjp6HyoJxo6QhDI1+U0qEynzdVBIcMjMLkeqZ6ShM/hnFeiNTSFkMDOLRpjRWFJhJU3mXyvq9YZIp1zahWoI9+5p2A9No7WL2hI1+l7y4Whikxx5XVUNZl690aDb6Vf0hikcxsvUHG15NkBUaiO02sZ8lZCJewiaAtsHG0pISWbBJyFDvwqb/qKktkzXjdYu60FZMw0U7vrx7VIL0T6arY959HsttCrUllEAPyyTuCmtPpndIqhutzch8xKQ1IOaC602MHvnFGIvpEnC30oH0HB1g4RK/inbX0ANGzZFQ2qVRM0LjM8iU0oaRouJtwtikkx6r+tniXg1+pLRzVWkj0wjOubgzPgCGp52MVbgRwOP79jm40/RbV1iy2ugdLOD+amT5rcp6d5NfONb5lP7BbYrNoaQ1IwOO1qJ4DJTsWsfx3kukXPJrLmq7TMQFM005RtN5g+vN/PoF1VJPgvLcyGat0eYeGwa2REX8UES9oCHcIb+k5+n62n3ZeXUhm6CmL/ZRGl5KPc2pK+s1zTF4PE3e4nmWrWaQueRLjwskoSfau5fcfRCj/OkuUUuBXI00S/hp9UzyQyv/dYKpo5MoK2cVZJUFefMLftiLTm/l0NbCCjLKa8asMq1FlgXNJTW37LsqBJHZauSYKJRQvT3/iGyN7/7PAf1BbqvsTQ86Ay6zKV2DxCENrxahtrxBdrkDiZmZwCXzG6nOPP8KcS1Bg4cPQh7zsXis0tovbSISlO1ZD0TXXZktptKeZ3AkYSYMYMvQ68sGgVoLkNOxrwWUNtp0TSNsffBaWB3glpp0ZyhlTOaO9wotFwbE6FcEAvlrIFn//bfgRUuFdTcQGwMIR0bfmIhLCXwWjMo/ciPIrrjoaEmpK63e92C9EqWJtRrfJbPdRdESzO52maOAklJ76HdQrU9Bmc5RbrchmvK7FOznKVmfnER4w1NO5TQdD1q0B77dvRJSJmgba+FlfISKjcEmDkyg+b4EjV0C4kyo2Smaq5XCe4bBFkWImRIAROgiRe+nYRsLRaE3ECs22Q1w1IDVCYYB2XkVzB50y3mtWGG5tp88qAUa3W8imFxkFMzaK8Sl1rPj12zYkTlJGV+8iUOfmpRaq1G0EJtLkJ42EHz+gztgwlax6qwXzuHpd0xWkGDGrPBb8mnKPpHZ+hnGRrVFdiHEhx8bC+qx0pYmZ6nGaskfQ9BVOZRMlNOGwn9TlObltpeiRWThw8XZNxgbAwh+dd0DKV7sP96LPsbOxCuBeQnKftFhqvZSUoZLsp3Nf4YTVATKMk1o9So2dKOz7uxny9I5n3N1SkglH8WtdfeCO4jc/Af3YX4VvqvKV9LOcj7JGW+QoMfzcM9lmD83gCt6Rp9x5a5Bn2KNKP5fsL4rBsIk7ggwUto96vpPXvN/QIbB/XhunrNfAD73+QcuyVMf+t3Y/Fbv4WDQhu+5Cds7LDYGuRBGA1wEVLBHx36JaJojrzxNCmvRyJqLpq60w/6DL2k551UWwoo6UDBFcekFU48TX/7i6cRtAO06Y+W6GPmE+6XQ9eigIzWkrYwfngKrdcv8LO6U0q5v6jH3WvrTm+sJzPncug7SpGDmuciSJbh/9//Hi9/7A94dcPYw9sT+ZhaB8wHcAyZwWj7uOWHfgrHb38dYgy2bfYowYqq8D5+CsFiCfPkzVikzJwrAz0iQkRfVHk9YbCCfQ8fhj3zSufVC1Bu7mYi9OoULDYanoPxeAlL//4XcfZPP8JXCkJuFNZNSIUgjCHjpGaXJffwnWgH05SkRUbI1dCqkmTHU7imGrjMX2lbmRqXwlPATBuk0ryF10ayWyZzrfPqBWw2LZSIrwXXWrdjOxFKL72EpcUzBR03EOsmpAwsU16QJp2lJT6y3yzS1LlyYBW4FGoin62vTuiKr16dobXLTZ6kcyUA6/zTa8Zks5mh6yQVjR+puK8eq5c3+WtHCmrT9bUnP0EFo8ySK7thTFc/k3m1cb7LTkWdjafqeaZ+h0a42CbH9QqwUdWccT65b6ZcVK19qyHpqwrY9FUNE3WpkiQFIzcMG0JIRTVsjiYVajz/ibot8Kpw2U5xp520zrCX0hN0CnloeCvOKnTTMyd1fT15VdCoNteoCgdmXSRxDcTCjkaXPgUKFLjmAP5/Zq59e2zzfBcAAAAASUVORK5CYII=;strokeWidth=2;" parent="1" vertex="1">
                    <mxGeometry x="1064.9299999999998" y="-332" width="183.27" height="250" as="geometry"/>
                </mxCell>
                <mxCell id="2" value="" style="shape=image;verticalLabelPosition=bottom;labelBackgroundColor=default;verticalAlign=top;aspect=fixed;imageAspect=0;image=data:image/png,iVBORw0KGgoAAAANSUhEUgAAANwAAAEvCAYAAAAuK6+CAAAAAXNSR0IArs4c6QAAAARnQU1BAACxjwv8YQUAAAAJcEhZcwAAED0AABA9AUORddcAAG/eSURBVHhe7b1pkGRXdt93cl9q6aquXtBoNNBoAI0ZEMsMZgFmhqRmkx20ZXFGpGWGw2NFUBGWOQ4HGf5syfzib7YibIVCEkNWWFZYEm1SormMRM5wZiDODDiYBRjsDXSj9732JSv39Pmd9072q0RWVWZVZi1d7199+753l3O383/n3vuWTJw/f74lfSCRSIRHG2OjdJvJ2DC+pXGJpjTqTTutNypy9fU/l7d/9D2Zu3Vd3jl3UTLFI/LwA4fk2aeflIlCRqbGxiWTzIhkc5JKZySjfjqTlkxGzymq0ZJEKikJDdNIPc5JIpmSlKYzP5mUpNapUa+KNCm3KfVmRWp23pBkqyV1PV5ZWpabN27K5csXpVKryIkHT8ipx46L1FqSSRVlNZGRxKFxOfTgz0s6lxdJpq2tSelrCIYK6uP937S2rkVS+6IftLRvHBuNa7eytoNouYNGp2xvVy9lbth73vlRF8Vm8WCzNJvFdyLRyun/OjhJTddMSLM+L+W770utUpYbd5elUm9JNl2Xk8dUsUfykssWVJ1TmjShvpJKCaTZpKFn1UZNe0nFpZVoSkilhYpV38mWUoKo41wprlxv6f/616xrPRKS1r9UIqvhkLQoxXxGDo1l5cjhSVldLslffv8VOff6BeVwQaqtVamtzkpqcVZK0xf1mlGRutan3mIINh6oXvumG6J5e3EAxcF1i/e4Xl0U3eLdOaJlObqFbYZonn5cL1gvXaesbun6u1z1gPUKGhSSrYYWooOHU8Vfmb0tc3NzMlockdLigqRbTXlgalKVfkrSCW2eDiYEw1EvLJXX0eqp/+yqDYHVBWksWC0bviqDyuQKjGKQH/Voca6+y8Slc0U5cvxBOf7ACTl+/AHoLX/x0vfl/HvnJaOWtZDPyeLCvFSXbkmjpORrVVSCXjxoTIg1deuCaHxnuo3i9iO6tWG/t0tnQ8HVxRsSdd3QT3xnms64znhHtzgPSyZVQYlTkiRaVVm4c0VKak2atZpklSEPHp2S45NjMlYomsJnMhkjm6RSSgoNwempkUfTM5FpGtlgF2RqYg9VthK7oU5J3dRpo5Zu5G0w9VHf+s3PqZfKb6XUUqZzMjl1VE6deliefPIJOaEEfP/d92Vxbl7SOn/NpNUqL9+U0swVSTZKVpbyuY1uV/vN0Gu6vYx+2+DpB93uqNyN5G8W7+hMMxAL12vh/aKb3KRqZ0vXcGZddFK2NHtTqpWaKm1LRrJZySuJjoyN6mQvodM9JZeZqYQuo5Q0SqykupSSAyIi1ywlskincUollaXTR3Ws2eq1qnKurmvFuqULENZLSZrW6SjWDTSUPq1kVrJK9pHREZk6fFgeOfWoTnGzMn13WpbVAmeUdCvTH0h1+baUl2d1AFRqpH0xBotO/dkteD1UV7ZfmWE1qpvchlo45ZtZl4QerMzdlWp5VUZHcjI+VtRpW0bJpCRQIqRYm6HPmtzIpwcBaVSurp0wYipNw0gRlNVU4jYbOoVU61ZXojUgm4ax1mol1Erqeo7kWKKWxmkC23hRqrGiMyuaSqdkbHxM8lqPVrOq67pxuXThoq7rVrTAqk4l01JeuiHVxesiSmhKdwyjHw8yXIf2Qr9SByPcepXxuKiLwsNM+SJTIRDN465fdJNbQbt1jsimheq2tJRsTCdTal8yuYSMjo9IppA3i4X1olzIllHXUHo1zHopqeoqV+W0EkpKVXnWaKRLq9VqKbkgXkuJl9BkGZ0qFkfHdDqYxQiqVZ2Vt19/TV55+fvy6o9/JFcufiBL83OS1gtBSgttaL6crtfGD43KamlOlpfmZSw/Jgszs1IvL8vyfEVKs5eksXhR3ZyWfm+DIkb/8L6LOofrUKce9YNucrcC6jCQKeUgQGPYvNi0UVppT4tiV6tVWV1dlVKppNO/moyNjUkulyOZWSlzSqb2trOGk9caT3n8wVz1sWi2RKMKCFDrlahXlNRLUpm5JTc/eFd+9pffl+9955ty7u23tdyK1GoNmZ2dl6tXrsmF8+9LVeuCvKQS+fDUAzI+flgW5hbVkOn0tKJEW5iXqVGR0t0ZWblzS0n4gdQqy1a1nYb3Y9RtV6n2KqJt3U10LZ3KrdfxHheN96tHt7goovGdDvRyFWrn0WO9bsnS0pIqfU1WVlYs/6iunQJ5xAYgHMdUkYwc27QzomCENZScOCOgMa8mqysLcvPyBfmLP/uGvPzSn8v7b7+lVqwlL3z6RfnC57+k/mfkuWc/Lh/5yFMyOX5I7tzUtdmKWl2dfmbyo3Ly1GlZLVelrESsrpZkeWFOSrp2S5RbsnzzmrRKl6W5etfKpQ5en83Q7odN0ndLFz33vnEH1ksfdd3QKcvldaKbvI3SbwUuNwovI1put3Qbod/0ndgzFq5vaKOxGhCNDZC7d+9KoVjU46xF07FGoNCyWUfpfDDYpQx8Nk/Y9CAtO5FYQUtvV8KErCiZb169JBfOvWObKBPjk/L442fl+U98Sg4fPqoWkTyUgwUVOTI5KacfeVjXcFklu5aTysnDpx+VyckpnXZe1jXcsrQqZZ3atmR1Udd/K8syf/VVaSxcCYkeKJ4P6kYuis3it4p+ZUXL38h1Q6/p9gq61dfdRmiv4TbLsFncTsHWblwIjSRNyaqlmpicMGtWHClKWsnHFn1gAps0kFxGiqSty+qalQ0RneLVa3bcbKryqzzReGWcNJQU9WZNrVRTKmo9J6am5OTpR+T0E4/K0eNHJZXMSE3Xjis6PeS+2tLigpR0nbaqBGpUKzKq6zfWgmoKJZUpyEeffsbWjs2qlsPasZWR5eWSElCnpIvq376gcfOitZGm5uNWQdCAvYtuY+46EnW9ot/0exkbtWNbFs47aaPO2iy+V7Tl2AKLiidsfTY6UiDSCIdLptVqKQkpLpizK/ma7A4pSVTZV0tlmZ+elvmZ27K6NCeNWkVlBruSLayMEiOlRGsqEfM6PT3x8MNy4tQpmZiYFBWtZCxJRaeFs9euyfX3L8i19z6Q2avXpbWwqFPJZZ06lnTKuCRNJTPbqelsTk4/ekYefeyM3Lp1R9dzul5r5pWALbl9a04yrYKszl5Xd1nrr2tI/d/uAW6TcN36vFvYduDyBi3X0avcaB16zdOJbjK6uV6xXvrUb/7mb/52eLwhumXupQL9VHIjuBwjlf7f0INaeUGuvvV9XcM1dXa2rIRIybFjR9XqZdQKMVXUWdtKSW5cvynvvfe+vK3kuPTBB7I8Nyfzd29JZWVRlJ2Ss2cm75E2kVLCZlJ2n43nKBOq/7XSqki5LDO6RpufnZdUfkRGJo/JyKHDZhUXZ2ekrCRL5fJGGqxsihvhSvasMpXnLVdLOqVUov3iF39ZPvVxnZYWR+X69UuSKaQkO3pYCpMPSCJdsDUia8CgRjE2w6B0bCfQtnC+oFxvDeHoFkYe9zvz94ponm7uHoJz1jwpnnHUaWWtVjVrVqlUjDEcU6XyakV+8uNX5eW//KG8/vob8sH752VpYUEWdQpY1bTcz2uqX6/qukrXg1g1DKi2ICCdupau9Wz3staQxfkVWVptyLWFivzBD1+T/+Ob35V/+G/+SP7FN78t3zv3nly8oSTWaWOKm9+6fku11NomeEg6LycfekQmpx6Q3MiEFA4fl7ffOS8zt2dl4c6cJNTy1u9ckNbKrFk3yo9xD5260Okcrn+dOhhNs130Ky9aB1ybcNHAvQw2MyAVncpOIxsm7FJyawCi8UQIbair1btw4aLM61TvyNRReeihh+X5p87KGZ0eHj92XB48+YhOGQ9JVvNUSytKlIoSlrVbQ61TWvKFEdv84GHnipKxptZrZmFFLtxdkh9fm5ffe+kn8ta1WclNnZIv/tKvSjp/RB557KwcOjwluUJBra2uJcPupUcnJo/I6TNn5WOf/IzUkg05cvSYlJTAi7eV/Mu6vly5K+WFu3YrorXHxyDG1tGeUm5GuF7jNkrXDf2mb7DL2GSzQ8nXrMr513+gZkrXW9miVMp1JdeUFAt5mb4xJwvzs/LUU0/KY488IqceeEiOTo3K4UOTMjYybpsrtWZdllfVutXV2un6CWZkeDxsZFTdiDR5fUYt1WpZyajTySsfXFVSZ+TJp5+WYiYrDx85Jk+ffULOnHxAyzghRya5OZ6WNFNI2w3VqinnmlpZntvUlsqhycPS0ulo4dCEJFabMn/ttqQPjcjY0XGp6QVk5PBJLfOQUlVz2+5QjF7hutRNn6Jx3Vy/2Gq+bW2aOLzgrVaiH+iEQcsIpo28z5ZMFey5RZS6tFKWUqliU82SrpeePPuYTBRzkmZKiBVbWpHlhSWpVRpqtWqq2LpOUku0uLQs03fuyvzMjMYvSG1lRapKxGRL13CJrE4Fj8vY4aNy/MGTStxjMiqr8ldfeFb+6ueelxefe1Imx5UoBV1xKfG5+Y4FtpvtWieb4hh5kjIyfsiOM5omf2hMxk6dlKc+9km5cuG6ZPOHpK5r0mppLshvGycx9jr61fcNCRfs8u3+3fko2EiwJzmUVC0ly4RamXQ6oQTT6dnioiwuLKuyJ2X8yKimaaoSl2R5fl7u3L4tVy5el6VSXUq6xkqMHpay5OTKzTsqMS0rStQFJePC7KzUdXraUMf6Lq3EyefyKu+4HHvopGQLaZW5JOlGSTLNktQgSHlZ8tKw3U57mJk+04HAsfPZqCnh6w3bPWXDf6xVltbynIw9cFiOf+SsTiuXpFGpS0GtYLK6qm2s6tyDlDH2A6I8wW1Ewq7PUnpYdBE6SLj8znI3gtfDCMe5Eq6RSMmhIw9Io1FVRdfGqsLeua0EaiZkbHLCbkyvlKpyGyKpwVjOjsrLF67Iv/h335Hvvvq+vHt1TqbndF12+brk8kVbB8IIXhzgXTuebm41arbFn1QCHDlxRB545KQ8/sTjcubMw3Lq5HE5VMxLhumidlGW6Wg+H+xsqrOppIazQ0mlWZux+3n+/XNy/c13pDK/IIWjE5IdLaqVu6KkFakrgZPNijQTWv4AEO3rYbsousX34nYL3eribjNEeYID68nYO6ZrE9yrOA3CqQVJqYKPjsvS8oI8qOsoFH5mVi2OsCUffCqh0kzJndW6vKVEfOn8JZkrHpLX78zLH7z0I5ktZ+XM2adkbp5nGWGZytd/dR5zhilqOVvqkomGZJO6ThzJKsGnbHqZs02V4BZ1S/Ol0jm7vcAmDlbOgZhEM3isjA0ZprEPq1VLLKxK9ea0ltGS4olxmb07q0RrSkovHpXqkpa//6aU3RQsxlr0/aRJN9cN3dK52wzd8rhL6vSvwYMkSgJ7zr+Ql2a5IYtzCzJ5eFytWlkazbKupYKpnGq4zC0vy/nLV+ULX/qSfPaFj8kvfvoj8sXPPCnPPnFE13gZ+cynP2mPcWV1SphQa8YN8lZDSaL5+W6JnukMT0mVTEsml5V0MXBZexVI1KopyXhgWkmO1eWVH/64n9bi/T0N4cY67EzodLeaG5Mjjz0m0/NzOnWtyYmpU5LP5O0eXyaxLPWVG5KurJ1SdvZDFJ1xUbff0K0N3VwU3cIGic5y3Yr1A8+/byycgyklVsiOteFYGp7I/9GrP5MFnT4Wxg5Jtda0aRzPR7ZadRkr5OQTH3tGUnfuSuLGDXluakJ+8YkzckSnbSmdNtaqZbtpns8XjGQNXmhVwiZ0SprS4lJ0lJItpd2VTaUtLffXUtxjU5Kxc5lUC5fK6DEbMTqd1ILNELORwjE3vLnvB+mqasnSYyNy6MRxyY0U5NTDp6RWq9h7fbXVJamtzEtL13IOH+gY+x/7jnAOXiBlc6RQGLX1l2RG5GfvfCDLau1Wy7rm4rlI1e6MrpnOPPKgPPv4o/LIoZycLKbl0YlxGdVpY1qtYbPBLQGdLrKbmVVzlUjafkWyrqRVK9eqqpWrcFNc7ZYqPu/GZTVN8AEhnplkpxQX3LODGmvm81YNJRvH1En9eqsmC+WSEU5tsRQPkVekkE1JeW5aqksz0igv0cwY9xk2JJybwX6usFtNH3UbI5xq8ehTIiN5nZ7x/CNP5JerTdtpXFmYU0uUklwmLYV8SsZyack3a1JOlHXNpOsxnUYWDo+K6JospVPTsdGivUOXTGckpetAI1648cEUUguS0uqqvWKzuqRTvtWqJJgisqGiZafYsFGysGkDv4x06ngaRhPo9DRwkA5ryc3t0bExKYyOSTLDWw9LUlXy8/Z3a3VZUmrdGpUFzar5QuK2CRyiW395fDTd/Ypu7e8WNmgg23cit1LW/rVw5vg2SUFyaqEmeFNAG//JZ5+VZG1VLU9Cstm0FEdyMqprrCOjeXngyJScmDwsU6OH7EZ5JpuXQ0o21mA8tdJQK5ZlTajEqSdbksxn1fqM2xvkdDL395gaLi8s2gPKDSVJq6UkSei6j8/eKQHrOiWtViEir+w42YJXf9jJxCV1qsqUlXS1ckUWZ+4EEZqfN9ilWjILZ3n6HNAYO49+iNcmnGeKul7Rbx6/Wm+WPiq37ZQIunKThlqmVqaiC6yclHT9lKjMymG1Zj959R21RDrdTOuULzuiDSwoufJqwZIyni1IWq1YIq3rtVxGiViwNBluMZRX7JlKbi/UK6uSLDWksTQti3evSmV+RkaVDDmdTtbVkjXVUjaqi2rBykp67rHV+CKtTRnt/TjWbTwNYx+LXdFe1imurhfZ6ElArFZOy1e/ptNGnbLevHlRcvVFWVEC1rVLWo0VqbFTGlq4XkH/RP2DjDU60+F2E/vWwgF2AO1+lzajXCrp1HBErl6/Jq+++bZNAe2JfXv2kh1GXSdpZ6O+bOezdY/Ph4b4UNDC3LxtiNQqanHmFmTu7ozM37wjs1dvyu/+y38j//gf/3OZu3RZMlVd8yVHtOcK9rxmE6ekaVarSjqmmmW7j9aq68VA14dcHmygmW5qVZRCIsslWbl7R25eumg3w1sZPiYLddWqan2sXSzqItgLyhJj+9gVwg1Kebj48zRHRi1cVa1SNqNKrQS7cP26zM/pWogpICqu6Srlhj3k3GkxOOct75XlFSWLpq7U5M2fvSmX3r8oMzfuSHVxVeOa8tPX35Or585JXaeS+eKUFMaP6/quqBaMm+NKFJXRYCqorqlTWmmo0+lmMIfUtuqFgbpRfH15WV79/vfkvbfekrtK7pHjJyVTLKrVTkhVp6C8bkTdHd5fMeH2P/omXHTw+1GCzoXmRvk2iwfE84kE8zN5nTbmdM2m66xcWm7MLsn03XmzcFgLZniNRlLJUbeNjAYkUc23crReAQuUkCVdk1Xq8oNv/wf5zre+LVVdj41NTsqv/zd/W/7X/+3vy+PPPSfp8UO6pstJbmxE8hNKvIlJW+/ZZ9OVUFgy1oL2xH8onymsWTgqnkpIWa3Yu5euyOVbt+Xy9IJkj50RXURKNj+illetnSbkQ+reTkB9+5leDhLWTxs40Fm/aJz7ewVet063XfQic99PKbVVUhzRdVhGp4naGqaIPB1y9+6cWT/azFqoXmV9pelVJ+xTeaFyMM2z+2pKjBtXdb2m072PPPEReebpZ2TsyBGpK4HL9WUpjqUk9+ApqY9NSCJb1RVWVZrZrM4sdY04PibZsaIST8mV03WhEiep68akXgTSmgYi2tsCIenKI6PSmjgkRx49I4vNjDz6zIv2GQf7MRGVUSyM2v1AH7DdIlqMwaPrs5Td0Gs6h6d351fA9ZQnmnZDsB5rcUNa100qq57MSUGVvpkdETVwMp7VtVArK3OzC3Lr/WuSSRWkquuhRK0lNVXuivrcw0uppctqfr7QnB89LCNHTspCpSHnLlyUBx+cko9+5ik5+dEnZXxyyh6ArlSUZPWyZNVPqMXUGvNUluXXlaCyOik5JS7mNMlTJ0q6VnZMgwtq5QrKI565zCuxMzKRXJG5Bb0gpDM6FV6RiYdOS6Ko5JVlkawSbZQ3xWckrXGpJqtApsZMMQdDvGhf9+I2A2miD+5G8/ixh2/mumGz+EEhWs56brvY1xbOkS8UJa9Krj0iuWxGKdCQm9Mz8t75CzrtVHKp47lI+4pynS17nVoqMbiHxrtr5Hnw5An5xKc/Kc996nk5+/FnpHhoTMq8lFqrSrlWkeXqito0zZ+oS0WJV5GaErkqtWRNKs2yLJXm7Y0Fpqy8JMt7cTzbmVHZWN32h400bqVckGwjK1ldD45WqzJ77Y4URh/UaeURna4+qJbwsNRrOS1/VtOXlbAwHLLdF8N1oLGjIziIK4QpbShGrznMt+xmdUoVO8czjXwpS0lxgy8h5/KyvLKi4TzjqATj6X+dhjbCL3fx2JftYmovFHRNNjY5rmuyMUmNFkxuo1SRhK7pJlI5Ga+owt9dkNb0ohKlInld72XVpZdK0ppbkOb8otRWV9tvnANeQuWjRjimk0wXuSiksik5PFWUZmVaygvXZO7OB6K2V8ZGqD8fMlqRkVRJZalsDaeeAcKGd0E87dwf2JBwWzGlm6WPyoy6XqGpg79IvqxOKdlOLxR0eqnzyoy26vbiosyqm757VzL5tKSLOvlLBM9X1up8MVnXYHrcUItnv/eWSkhTjRD3vyrlimSqTancmJb581dl9t3LcvkHb8itn5yTi3/xqrz2xy+Ze+X/+6a88u++I+/95E1plRv2KXRujDsxmPLibOMEwml9OS8UVmXi5AMynRmRxNEHJJlXWmm2ajon9UxeFkqrelGoSlXXnVWtR8I+x74+fCrXDd5PUbeX0a2+0eWIh+0m+rm4Rdth7vLly+vm3krDesmzFbkOu3EcAVv9s+9+S771b/9vqeu66NL1GXnzwi2ZqWXk6dGs/Nf/5Vfk8IPHRE2cVLFGatmSSq68Wr2x8XH7pRu267kHNr+4oFTRKahq/8q1aanN6JqKD/w0E7K8WpVsPi+5Ql4mDh+WQ1OH7K2FzKGCkueYtIoZyaj15O2CjKbjMS5ezVEq2/0+7WotQYmlZK6tTMsf/+AdmZUp23ApZqqSXKkp2bgnx33BhuSURHz1q6Vr02Yq+LgtU2X+7wQK8PGPf1xOnz4dhtzDdvp6L4F2RBW9H6UfJCgXt9V+bROuVwH9FrSdAd8sLw2v67ps5oOX5dVv/gtZvnJTbt6qyGsXL8q0TvsSzaz81n/1VTl5ZFTSU8eltqxroqpSoNE08hQnxiVZ5BdVeTJE7KtcUk6ovJsyf2fOfqa42mjJ6OSkPHD8uByZPCrpiUMyduaUlCvzKmdVcqNFewSMHUb7xIJaTN785me1hM0dUbKoyYWcrB25QV679Z783qszsph/0DZ/tKVKxa33E/jCF74gZ8+eDc8OFnaLfJ3opR4bTin3C/i61ujYuOT51LkqP2u5kXRCjh+dkLnZO3L71nVuxNnmRSrceq/reY1nGXWdxq2AFV2DNdSKzd6dkffeu6Bru7ScfvhRefFTL8jHn3lGTh5TK9msSFrKStw7Uqks2bqRjw7ZUysqk9sQ3GKAOkwd7WqoFhnfPjTLho26qvI6l8zbGw32pFfQjBgHAPcF4XjiI18ctakbL4WOT47JF3/hM/LIwyfkxu0b2kpdO+k0jRvQ7Bbat0VU0/n0nU/9eAH13DvvyGs/fU2nmhPy4MmTklZZFSVZtb4qlfqKJHMtKdX4+ambug5LSW5ErZvKso/I2nOUvMmgk0clHzDC2cNcug5TK0pZjXJZ3jp3XebmV7VcXXsRu41ZQIz9hZ7vw/WLfuV6+i3VJZFWq8aDyGk5fOSw/PWv/DW1ajfltbfekgs3rsvv//E35I23ztnGhZPOnkLRoqAD00vO+QTCz33sWXno7MNSzdRlpbUsi0qwmdUZubF8V5ZSFclOjcrI4UnJ8naCTkdtKmmVaJml8+rjs5lhlzTePND4lq43qysr8rNrd2VZQ3xF1rEsjdEnorrT6XYSvZR/X1g43sbOF3kTIC0nTj4gt+/elpu3p9VCFSU1MiaNdF6+98Of2jOTWB2Ix1Y99qimREjk0jJx7Ig88dRHZfzIhOQPF6V4RKen4yn1CzJx6pAcf/IhGXnoqCQnJ6SRK0hDy2xgwZQtdCy2CgRfFGPX0K1ccL+PtR0/9LGyuCStqSOSO3JM60UerN/OKkaM3UPPhOvGWJsyocBhXNR1g6cHG6XvFtYN7bL5fQBdx/EY1tHHz8qtawuSyjVkpLkgI6mE7SyWV6fl7o1Z7n9rnqq0Uq3wVRglREMJk8jJ2MSkFMbyug5UwvAGuE4tM6OH7bv/+VElYmFM12q6buOzChktT4nFA8d87LWRaBoBVbjRR6Xbl7cqLbWElboUy8syXarLt+6qFZx81F5ETTe5kZ6x1LsF7+vddsNCt7Lc7QQ6y9qWheu34p6+nzwbATn2SBHb7mpxeG7x0MSELK2U1KokZGzskCYSyeUy9mDzT958R61ZUadyml7XXFklCTeq+Twemyg8DJ0vFOzBZNZnhYlxKYyPSq5Y1Clr3j6Bh8vmsvapBZ6/jE4HWY/pYs7u6xkaTRmvz+hUtS5XKnl56c3rsrxaC+JiHEhsSrhOgvh51PWCftNvhqhlVcaZjUhncui4FHUaKa2kTjEz9onyfCGnJEnLuxfOy/lrt6SZKeqajW//J+w1GP9tAj5lZy+PJnkaJGObK5oguIHNrqam4zYE1CKfPUlCHZS8fLQooVNWtXdatspo6BSyUZVaZUVuzK3IS+/ckdnWuE5Bg3tqw8R6fe1hly9fbrtLly7J9PR0e+YBojORaPgwEa2zu2FjJ8tsl3HlypV1e7RbBbZaKSzRMAYPmeWVuzL9xjfk2uXzMnr4UXnvnYvyH/70j5UEPCspcvTIpMzPz0i5mpLCyLj8ra/9LV28rUoupfnV3tnTIFg9ddw2YF3GazJ5tYa5XF7DsKDEZXX6mpYMbwFouP2iKm1SqxZ8nSt4o5s3x+vVkobV5XYpIT89f1uulzJSa+l0FOunU81Bg/twTz755BqycHFYXl6WmZkZuX79unzwwQf2C0M+hqRzRWCH9ejRo+Y+8pGPSFGtOm6jp1iGjWHoy2YYdpn7mnAoCXKr5Tkj3O3rF2W+nJOnnvyY/C+//T9KZXVZRooZGT9UlHqtLEvzJVmqJuVXf+1rUlTiPKBETLb4NLrWSy0iP4QPgsceefhYp5dZJZxOSVsamM0XNNLJx0eHUjq11P5gM4bnM5W8+PzIY6WyLEtL8/KN8w1Z1cWibaaw2FO07Ht5gwWEe/zxx+XOnTtGsAsXLtjPMWO5/cVbxs5+5kvb4PBzj3fw4PVDDz0kzz//vBw5ciQM3Vnc14TbjEj9Eo30EAK/37z9gq9e3Xn/L2T20mtyd7okn/vSr8r/9c/+qbz+8vfl2FhOiVCTQjEntxaWpFBOycMff0Gyj35ULdiofGpiVVJqlZpKlGBqmhQ+4Eqd+Yoyr/7Yek0VsKlrN37KSiebFo81DL6+zM0FhU4hm5UlvQCU5NKCyCtXS1Kub2uZ3DOwRqVSKTwbLE6dOiXPPfecnDx50s6HPZ69ILjnGWDY9RkkCXdGG4aMRCprU79cOimZ+pK89fKfyX/61/5jKY4XJZHP23OSxfEROTw+JhOTh+SCrlsajZYslRvys+mE/ahHuqWp+AqXTvnsTQK1Vg1dh1Uqq7YJwlSRx7VYp/HGQVWnnKu6Dqw0KtIsz0qqdEMWlhbkwlxd/v078/KD8zP2+YWdwrDIBq5duyZ/+Id/KH/wB3+wRtF3E5DM3X5C6rd+67faPzncWfntNMrzbCVvN3ReZaJ1a7YSUpq/IbXFm1JfWZCETunOXbwkn/3s5+yniFfLKzalPDY1paQsyI/OnZezz39WmomirPAFMJ3+TY5k7dErikkqufjjTYLgHlrdpmV8Op1NEpCrlSRbWtb146osqq7fmKvK6xdvyTu3V+Vua1xqqWL7OcnA7X8wRWWjhT4/duyY+dGp6EaWwNMMCsjrdFF0C9sqomVsV2774WXWQp3YluBt5O2G9QgHsFazV34sC9d+ItOX35N8Micvv/K6XLk+LU888aSM5pNSW52VRCMh165Oy19en5X/5Gv/nZJpVNdTuoZp1eR4XqdOIzr1bC6r8FZ7XcP6zspWUusE0u6/NVkDNRNSqbaUsHm5Uxa5s6JrN4J1fVfXtSDWMK1ymaKqQKvn/QD6nIsPbye8+OKLa9aDO0m4boiW7+VtVKftYKtylWfBkxF7HV5Pd9EBTLEhkc1JM62syRalrlO9kVRSykvL8v4778utqzfk5pVrsjA3K/lC3h44tuc71HoVmiWdGo7J1dqIXJlekvKqrrvKFVnSvOVyWarViiyvLMv8/Lz9YOPdm7fk1q2b8sqdFXlpMS0/XmnKxXpTlrIJWU0H9/gKDaWhyrVbBPcR2QCbLGyovP3227YxEx2HzjGKup0g3H5A4urVqx+iqrOXjuoF3a4sg+7gjeTZmmr2A7n+zvdkdfqK8AP5b732trz1/ge6xkrI0anD9nHXQi4pRV3nvXJpRT7zy7+uRorPmK9tvhXDFj/HG5CFr3LpZCo8O3hgzPk8PO/g/cIv/IKRsFdstA4ctN50K2sQZSBjK+vZroxCWD+V8vT95BkskvZqDtThVR02UEZGRuzGNHXy74zwK6eVat2+8qUR6j50rRF76l+DuYYYqdZzYfqDCvqVqeW7775rN8/7mWJF9aXTDRo7UUY/aBNuqxXrlg+3HfQrD0tjT46o4+Y000WuuMGHgvguJfea0rJaacjC4ooURkZtsqeCLf8aUJ6uw1SYyV3PacIg/QEGJGMW9J3vfMeI5+u5za783ca3mxsEusnt5voFbe/MR9hmF55tL962UtmNsBV5TdZw/PKNurSu5SAEisAvkgLWYtxT46msslq4uYUFa3lD/7qBjY7N3WDbvZ/BDOK1116zG+5OwoOCfvV12z2zGaN7BYOE2xKBNY99/4MHmHVKCfl4XCurhOPH9+ste/1TCuNHJV2clLMffSZ8nOvDZRHadQrZ4WLcAzrAphKWzs8PIlyHN0Li2rVrffXObls00vuAus9t6lyyJu+/9gNJ1+Zk/u51ee/dq3J7dkEJdkgkUxBJq7UrTFn6QbchRgD69XOf+5w8++yzAyGdy4iO17DIvFNyd4Vw25HB9IWrabValaWlJWtQIpGS+dm79vDy8vy02qiGVJMTUufVAayYTjkDexa8GhMTbjhg7cYV/td//ddtB3OY2C/E2zbhouhXcftNzyIcgjGQr7/+uly5ckVu3boVxkaBXLV85vPzVT5X5utZrLgIaUpDiRdjuGC8XnjhBfnEJz5h47dfiNENgyhjXxCOdJCM10lu3LhhPk+9rzeAPC1iFGuxswipkpKSVaNfQESlomZrqiWMMTz4+DJOX/va1+xl3WFjmMS7rwnn0xEqyAuR586ds61mwnEMIn43GS17v0ynjC3IRjwbG8HWtErV48CypcMb2jGGC8bos5/9rDz99NObbiJsFa4H6MuwSLcnCNcvyRxOpvVAPA8JcxP1u9/9rq3RhjVYMYYPxvrrX/96eLYz2IvE87zOmw01mkTuho2bN2/KN7/5TfnWt75lxNuJMmMMD4wfz1reD4jywN1W0ZVw3YRutSDPt95VgnA2Qv7oj/7IXv1wbKWsGHsDPtZXr161443Gf5BwXYu6YaHXMjrT7PqcjRcn//zP/9zWZzHuD6BgEMzfJlhv7b1b6CTBTmJXCOdXO7b5f/d3f3eobyvH2B0wxqzD/YXVnbBwvcIJtxukaxNu0JXYSBabIXxN6hvf+Iat1/bSYMQYDHzD6+LFiwPTqa2gmx6ib65zG+lpr+hHhvbL5s9/bQaX0WuhNBaybbfcGHsffEUMbFep9wN64UEyyvZ+4czu9Yrh6dj2n5ubC0Nj3M9gubAXlgyul+vp5kZxvaIXHuyoiYH9rNvee+89q0xs4e5/sGRgLeeKeNCxIxoPuehwphcvvfRSm/nxzuT9D8i2uLgYnvWH9azEMDHo8jrbMHTC+ZWNR7OwbrwMGl/tDg4Ydx7T22nibBXDrufQCefTxrt378qbb74Zk+2AgVlM59e9DjJ6JpybxqjrFXT6D3/4wzU/JBHj4IBXdnjqxJcQnXq0nnNsFDdoYBCGWdaOrOG454aFi3EwwbSSG+AQ7qBvlG3Y+u2w3PP5ZgnWLcbBBETjA0N8yMmt3HaxVb3cCrysqNsqhn654Yr2yiuvxGu3Aw4INwxsR/l3A0MnHFOJhYWFmHAHHLyx/8Ybb8RTytBfg+2azSh49YY5/H67EsUYLBh/X8dtB1y4O91uwDkSdRvB0wztcuMFcO+NTomfKonBzx5j6Q4yurJgO1cOJxpXMraDmU6C3boSxdgbcJ3i04bbgetXr24n0UuZQzU7PFXCDz7EiIEiogt8SuMgY6iE20+P9MQYPtCF7t8VPThoE87NoROkH6J05nXwPcl+5MS4v8E6Hp1gWjlIvdjOEminMTQLR+fySfJ47RajE9HHvA4ahkY4XjrcT1eeGDsH/87JZuhVf6KzK4iM203d8/pEnWNohGP7lwZHC4sRAzDz4cXUg4ihEQ6i7dYVJsbeBp/XYMdyGPrRaVH2GroSrp8Kr3dDGxnxze4Y6+Gdd97ZVM+2Qh7Ps5HbSXRObWNGxNhxoIC8jHwQsS3CcbWIp40x+gV6w60BXtvqtAA7gZ20dJ1lxRYuxq6A5QYfF+Lxv4OEoREum83u2FUkxv4DVo37cbyUepCQHJZ5LRaL8aZJjA3Bc5U7MZ1crwzX/agbNmJGxNg1cHsA0u2Eou8V9E24fq4GhUJhxxfEMfYP0I2dsHLr6SrldrphY2gWjsdrzp49G57FiPFhsOTgd9wP0lMnfROu1ysBnUm6eB0XYz2gH3zN7SC9M7llNvRKuoP6VHiMzYF+rKys7Klf1xk2YvMTY1eBkjOtPCjo+ffh/AoQdTFibAfoHXr0+uuv26/s7LRObabLHjeIZVFbVngeI8au4vbt2wdi+TG0G99gmLJj3F+AcHtBV1xno3XpZQbYK2ILF2NP4Nq1a3vWwsWEi3HfgTcHDsJsqGfC9bq54ug3fYyDDe7FXbx4MTy7fxFbuBh7BrwFvhfRbV23VQyVcP60SYwYvYDnKvf6UyfbJd5QCffMM88M5KoQ42CAizMvpd7PGBrhsG64mHAxegU3v+/3X9cZGuF80ySeUsboBT5V++lPf2o6M4inO4YJ6roV/d7brYpx4MD9OF7XuV9f2en5WUqHp++X2TFi9AJufvPDjfsBW1kyxRYuxp4CCswv7Oz1KaUjJlyMfQ2Idj8/dRITLsaew377mTMuDr1eIGLCxdhT4MOwrOPu15dS1xCuH6bGiDEM+Nrt29/+tlm5+00f24SjcVxZDsJLgDH2B/j9gf2EXgxWPKWMsWfBh2L3kwFwwm1Eum0RbqP7cYSn02mZmpoKQ2LE6A/sVu4nwjkf1uMEGBrhmIvz5Pd+uZ8SY+/hvffek1QqFZ7dH9gWG9x8dmM2V6aNTGuMGJuBNwfK5XJ4tvexkQFydCVcvHkSY6/g1VdfDY/uD2xo4TZjaydiixZjkED/bty40bce7mV0JZxPFUEvZjKaPkaMQYFZFlPK/fbbA86HbpyIdzRi7FmgsDzmdT/92MdACOdW8H4y/TF2H24lXnnllX2jW5317LR0sYWLsefBc5Uo7f2wkdf3C6ibYdDyYsRAn+7evbvGUuxVbFbH2MLF2Be4fPnynr8J3jl97IaYcDH2PFBiHvO6H2ZOawi3EUP7nSq6nGKxaH6MGFsFenfr1i17V26/o004GjXIJ0ycvDHhYmwXfMGL3wLny8z7HX1PKd3SbWbtPH49ixkjRq/grRP0iW9Wgv2sU/EaLsa+wcLCgt0E3+xiv5cREy7GvkGpVDJ33xGOBrnz8xgxdhus5WZmZu4/wsWIsVfx9ttv7+uXmjd90mSzuPXiN5MbI8ZWcPXq1X2lV508iC1cjH0FlPfcuXPh2f5DTLgY+wrcEtjP9+PahHPTFzV/UawXDjbLGyPGoMCDGbwjt1/gD4A4YgsXY9+Bzy7sV3TdNFnPWvViwdbLG38uL8Yg4Bbjxz/+sZ33opN7AV7vobPgoYceMv9+eHkwxt4Bn9DbL2SLYuiEw7Lh7ocnvWPsHfCRWAgXXR/tB2xIOJ8eRq8k0bDOuCg8nJ+PhWzxlDLGoLGfrJxzZegsYCrp89cYMQYF9KparYZn+wdtwjkDo65XrJeH83jtFmMY4AK+vLwcnu0fxPO8GDF2EJuu4bYLrkSDkBMjxv2Anj6T52k6nSN63AnfMNkoTYwY9ys6uTL0KSX34VjHxYSLEWOdTZMoeiFKdAeyU0Y2m7X4+LZAjIMC5wAO3Y/yY+gsOHnyZLxTGSNGiK6E67RSoNcwh8fB7kcffXTddDFibBV+j3evYaM69W3hnEi9EohOOX36dDyljDFQ8H2TvfwFr86ppGPLhOsHJ06csG8LxogxKKDMV65c2ZMWbiNseFvA46Lx3ZjbLZ2DtLlcTvL5fBgSI8b24TOmfUe40B8aIGEmk5Gnn346DIkR4+CiTbiolXK3Gbql6zz3K9Bjjz0mk5OTdrzfrkoxYmwVnRwZuIXrJJyDKaXvVsa3CWIcVAx9ShnFxz72MbNusYWLcVDR808Oe7qoc0TDIFP0PAp+wfKrX/1qvIES48BiRy0cBGQdd+TIkQ+RMUaMg4C2hev2gLHHRV0UvYT5uYexnfvlL39ZnnzyyfhmeIwDhzUaHyXKMMFN8LNnz8abJzEOHHbNxBQKhfAoRoytYacMxCDRnlJ65TvPe0G3PJvJ4MXUjeJjxNgIrjt7cZbkut9Nv9cQbr1EMWLsRfBrqPvtFlPS74uxgeGV70bCbq5fRPNyZdpvnRVj7wDduX37dni2t+Cc6qbf8TZhjBg7iKETbiNLGFu4GAcNbcJFp3vdXDd0i+snLL4tEOOgoedHuwYJLBufqY5vfMc4aPiQhVtvwefxmznHek+uuM8OU2d8jBj3O7qaGMgST/dixBg8PkS4qNWJLVCMGIPFhoQDnG/kOuHh6+1AEtdtuhkjxkFAvGsRI8YOov2kSa9wC+YWKnruYaAzPBoXI8Z+x0Z6vVFcMt4giRFj57DmtkAnuoVthvWYDTyuH4saI0Y3uC7Nzc2FIbuDfnV5zRrOGxGFh/XqegWfqo6JF2M7QN9mZmbCs51Ft6VYLxzYlU0TKnX9+nV7Jy5GjIOEroTrhalReHqcrwejYe4cfh5buBj3E7pZvU7EtwVixNhBbOvh5W55Yfh68rZTVowYex296Hds4WLE2EHEhIsRYwfRJpybw81cN3RL589LRl2MGPcj+tHv2MLFiLGD2HDTxOOi8d3C1sN6edlY4R5cfFsgxv0Avx3gbiMM3cI5ydw5rl27Fh7FiHFwsCNTyk6yuXWLhsWIcRCw4aZJFN3Cur1l0C0diH4wiONuaWLE6AdctG/evBme7Q/EmyYx9iX8gr28vGz+fkHfvy0QTefTwqhzdJ5HbxPEiLFd+Ixpr+nTZu+WxhYuRowdREy4GDF2EF0J51O/zVwvmyZ+7vcnovk2u2cRI8Z+gOt7VM/Xw6586jxGjIOKDaeUTsb1CLnRpkknotbw/Pnza36PLkaM/QJ0PLoB6Dq/ke5HEa/hYsTYQcSEixGjT2xnZtYmXNREuoui1zDHeuFR9JImRoy9BMjWjXC96nJs4WLE2EH0TTi3ausxOhqHzwLTN0w2yhcjxlbgOjUMvXKZ7vsmYXQD0NHrNDO2cDH2NXiWchhkGxY2JNwgGuJz3qisXq8GMWJsBl712gnCUcZ2yyH/pje+Pb5bmmjcemm6gc+cY5YzmUwYEiPG9jCoi7gbB1ynTNfv7ZS1K1PK2dlZ8yFejBgHCW3COavddcNmaWC+u25pPGxpaamdJkaMQWAYuuT6OkgM1MJRueiuZIwYMdZi002TXhi+UTqP60VOjBi7jWHr6bqEixbcayViUsXY7xiWDrvcXdk0iRHjoKLn9+G6pesWttFTJZxvZ0s1RoxOdOrYVtFNX4eBHbdw1WpVKpVKeBYjxvYwOTm5r3a824Rzhm9W8W7pouebNZ54SBcjxqDAy8zR757uZQyklhsRLArS1Wq1eFoZYyBg+fLEE0+EZ/sDO3pZgGg8+7ayshKGxIixNUA2LuBnzpwJQ/YHuhKOhnS6biAcErnF6sxjrqlTzCafNtdOajUloSW21I8RYztgCnn06FFJp9NhSH/o1NNhoVP+Dlg4LSxBge5issXYPpgpPfnkk/vuqaZtE26zBreUYK0Wr1Dwizlq4Yx8MWJsD1i2U6dOtWdXvcBnY8O0aJthh9ZwSkolGn0zPX1Hz2PSxdgemFIeOnQoPOsNw54+9oKdmVKGWF5ekt/5nd/ZsZcGDy5adutldXXV/Puxr3/5l39ZstlseLY5nGy73ReJt956a8s16GbOO8PunTflytXL8nf+zt+RQqEgmXRWPvvZz8rx48eDWJ2apnSaUK/VIh+J3SEDvMNg0KNTm87jewim68RYKP+11v62nqVnmh7K5JMD3/ve9+T99y/I4uKiFItFOXv2rPX1xMREmMuh+by4tkwCgvqsrcveAHpy4sQJ+ZVf+ZUwpDdE+2zY2KisHSXctevX5B/9o38of/SHf6znGq5xTbV2IJVOydjYmLzw6Rfk8SeeMOVI3KeEo0/K5bJcvXpVvv/979uPCnZ/Gffe+phByugFKZ8vqstLKpUyObharSL1Rl2tWU0qlbK0mi29aKVNOYl38nxYETgPwjxudHRMXnzxM/LUU0/ZeOw1cDH+0pe+1Pf9tz1DuDfffNNiGZB+sVEej7uXpilLy4vyK3/jb+g6bkanlffem0skVXHsyspJwhbESfVRmqmpKfmlX/olOXz4sIUzHXWfznel2k1QPvXBp26Qx+t0+/ZtszhYG0AcUyEsEfcjo0/dMFDuaBsbTchDVjaXk6LODAqFkXYe0ln79brUULk8VEBcrVbXOEuypm/8uK0Qeqo0tMO2LIRpKOVC6gcffNCsCSTfLUTH+HOf+5w899xza9rVC9pt3gFsVNbQCQeC45Z8+9vfkt/+7f9JSqXVNuG6ybgXFkwtcadPn7YrLkrAYvnZZ5+1b6KgGDvZmd3g5WO1zp07J3fv3rVzSLWwsGB15vlRbxfpIAZhENDzezw+eZRzdswUHJIy5U4mUpbeCY7fbAbfiMEhD6eHYdw9KxmVH4Byg7Ltf5XbVOuoKTizdPTxr/3ar8kjjzxiYbsF2gzpqQv9wQWpH+ykjmxU1tAJR+FJLJj2z9/7e39X/uzP/lQVQhWhoYPLjXBNZxWM1NHz1utBPA7FQQm5aZ7Qzs7rFf/zn/+CPPbYGZsG7TywREFd+WTEpUsX5Zvf/JZZmZzWDYKgrCgGPmkIh2hOAohHetqPHNJ6e4O87iet7eTLZLIhoYInLUjbaNaMKM0mBFPfiBaQMkhnxQWy1b/X1RzdO7PxaJFCx8QSapz++7X//FdsHViH7HoRTIlOf1lLahrLrXLNs5OgbVoz/T8IB25JAcfEE+Kp7sV+GN4fX/nKV+TIkSPtdvcD07EdwkZltQkXhTcmmrFbA7uFkSd69dHhN39Fp5P/xa/9TZ1WLshqCSXTDg8VD6xXySbhkbjOOhVHivKJ5z8lP//zP9+O63cw+kVQTksVvybf/e535e2337YdQchQLI6EF4aWKYlbYKwZBKBvSIsPGSAPoM6kIz1xXMU5d7KRDnnI4Jh0kBUZqVRg6UjPOX0G6e4RLpimQgjkcRwUSivCQyU3wakwoK5D2NCpaUIvjr/yuZ+TL/7iC7KQnpTpxKQUUsjVMQzpktSxTDX1okgBCW2PupbSstXKKj3vjXEyfMKIfE29Atf1opBWEUnN1+yyXrc6h/3y+c9/3taVvY5tu407iF7KTH3961//7fC4jW6N6jUMRMNZi3E9+91//a/klVd+KLW6rj90cDQVCW3INqroejGEozx1VYpLly7L66+/bnLGx8fNkgwTTBN//JMfyZ/8yZ/IxUuXaIBNd7LZYDPDiQacCIA4EO0fjgmnLVhF6u5kI8590rh1JC3g2GTpP/o4KEb/03/MAuh74iETebCYSVV0NqiSKbWmGmbp1KWSGkY5xGtZDSWHyVdSPH2sIC8+MiFnDqnVzo/J3KpINcOFQgmjHMroeEK6hsoxqJyk1iFNfqsM/yv11EI21DUpSxqSUZrltc0QzxrRAepOP7744ovy9NNPty9e+xldLVw32MB2gMb74HfC0zMFrNWq8rf/9q/LlauX9JgrPbuTQbFcjaOWrhOdFg6gCAyi1whrCSiTOuHYBmegUF6HD9Z6bXF4/L02tGw99tJLLxmxQVKtiimoKidEGRkZ0XSBgmPNIA594xYGYJk4RnEgIg6QjjjyQFaHT09JRzyI5gHWF6q4dQ2ntsjHWb8yRdQ/jhPqNCA4brc/IKMdaRiy0qTX81W9MNaU4Ckdp4+dfkD++//sM3JmLCVjjz0rzYlj8vI7t6W02pCqii1r+5e0OuNqFmvqN1UWli2l1pFaB/2g5apP3cakJEVZlbNnTsvokQflW3/5M40LLkbeV4C+ff755+XTn/50GNIdnudeu9bKGTZ6Katdx2ETTlPJlSuX5Te+/t/K4uK8KkxN3fAJh1KjrDzg6nX0Oq3XFofHexjlsduIhSEssEhKNrUUwVZ9YNlSqbSSrdqe+pmlCAnihKEuHo9cT0eZOOodJaaDdMQTR3rq4nls04R6qewG67hGYPmQERAyADM+W6eFPUe3UR+IYOk0PZYJWVHCnT42Lr/5q39VPvvEIzJx6rTkJ/I6ayzI9//DD+Uvf/QzOfXMM1IdK8oDo6Nya7GkdMqqbG0nliupF5xGVY5OjEoxm5ITR6fkaDEhU3ldY+qF+GZtRP701YtK0nttpd7Ui91pNss2g48TbXZ42E6gl7Laddwu4XzQuyGIa8nv/f7vyT/4B/+7Tv+qdr+INwiC3bBgcPshHEdWbnBquBdNKITzsgOl60S3+namI0kQxH8BEVBKJ7JtBGkilD+TzZgSB1vqAZDnRHfSeZ0Asjj2OOSQx8vhmDBPBzzc83AO6GOIRlWJp8b0qR1ZG0KLqH3OH3VtAwuneWhjsGmi9VVZZcaKNZzmeXisKf/D174in3nuY0q4JyRTSEihNC+/96/+X3nj5Z/KF//Kl+Tok4/I0ZPHpZTMyXIzK4lURnL0T7IhU4cPqeWsKw3rktTxVzsnrdV5nUrW5UptTL7xJru6gfWjrTwMwZqNW0KbgTwO7ycQDR8mei3H03U3Tz0i2sBucGX5t//290NSMbiQIIhfr7KEr9sQDbdSw7KDdO4og0EL8rtCOlzues7B/S+Tp3LSWLFMcE8Ky8T0EVKwQYIjGxOodFpXJGF7iccxJcQHThbkuJWCBJAHnzBPwzlyOCbM126UTTjHoJ1O/4xQdAn9EpbDuszLAb6WC9KRNJgWRx1WL7jIBck4b6TUgucKki2mJZtLSj6tFk7G5Xo1JXO5Q3q1yKgVW5VauSST+Yw8PJ6TxyZz8vhUXv2i5DUupeSiW+s6B22Wa1KVvK7lclb3SiKYRtPeF154Qb761a/afdeNQFrcbmGr5W+LcBuByjCg5947J9euXbc1RgOFYiR3CRt1kimfKiPONz2yrKc0nGMUF9/XWKboKgsSODiGDJAIn7T45CUtx16Op8Fa4gPkE0+cpyctcgmDwNF6OphC4tgQ0eh2HDKSWjaBlk/jo44wnGXaAKzrMkreDOTVfPqfVNW/trgiP7hzV35we0YvGEWziC2tB2PMeFd0+VDVC4mVA9k1f43wekVWdOpdqZOWjZqW3XbgHtsnP/lJS0+fdQNtwu1X9Ey4jRrqcdF4jum4l3/wso4PAxuMK9MZBqSdPkzXDaaIEZnABg8XOV8DTinH04Xx+FFFjZ7jnFSQxMmV1uNcLts+d3KQnvyER/O6RfMyPYx2kg7ZxEEgwpAVJRXHWLqobADZOHcrSLwfAytTFdqm53SXFu9lEuD1od85DuRiBcPht2Hw8QiCKI+0hGVUTZg0a4itE9Nq8VtZPU7r9FGtX+KRM3LizM9JUwnXqGp7IZ3mZTOa3U5IV0c+9VJXa1SkonVv6KxgdGxc/uZXflm+/OUvr7nH5m3rB94Ga8eQsF35SRqGG3QlGVQ67v3z79vVDvE848c6wQd1UKAcc1pm+wrOcVgHFJJjfJyTCudhxAfhgfKzLjPlSgVTQlcCf8rB5RGGHHYm6UPIQbjncefWDkAWrxvH5CcfjnAnJI6b415f0iMb389t/LRPbRdQZVNnLdHKAcRzRlqHStbzYOcQ+E7lekirdWtUanZfjvoyU5FUXY4VRqVQ0wtBJi+t8TFZnl9gPhrULaVkVbkJSK0+RKvr2jChU3RlrqQLOUlnC/a42rGpybCkzUE7om3ZbwgvcQF8kN31i3ZHqKfU0o5P2BMYDPq9jRGNjPQXpfRVUmdnhwOAMyVWx9TF7jmpYw1GFnYUIRPn+O4o3cNJZwrN2icJCdm0aNnNbKybE4FjV3yOo5bN+41jCEQ8cLKxHqOefk463/3kGHBj3AHBSYsSez7SuW9jBXHw1QXkU9mhLJOpDj+QDzH1L+wfC2GzRKd1QY7A5zaC+bhGQpYXl6VV1ymirtNaTB0TTTlx/IjktOhCNi/jJ05qfEuq3OBnA0dVK5nKSVL7xaaXq2XzqYtkeFQtJ4lMTlLFMeWj68beho/tdqCzPR+I7aNdoXCw7k7flhs3rpsCEGOxpInW286jAZsgTMv/1JvpKkAZOYY8Fq5kD27wBmGQn82PrFouI106IBxTxmDHEdGBEudzOk1iraKtQDG8XZAKxQeEUSakon0eRziEIYw4LII7gA/BgBFDEbVu+BAbEnOOTPJ4eT5eHJOfeHzODdYx9s9g6SPH7RhNpxTVv8AC2n8h6SyHxuOTB6tZ0zZVVpekXl6WemlZMto/px87LbVmxS5wqZExKS2X7CFqbZlm1n5q6QxABZVWVnSayX1CLJ1eiFIFyWW039O6Nk1wQQrr1APoBx+PnQJ9MKgy11i4QcA7hEr+6Z/+mR27MlgcI2lua/CGB8oTEM2UQgcdpWc6mbbj4FlEpoQ2JVNrZdNBjQuUKLhhTT6sUEaPOTcZKpNwlw1QeqaNyHKf6Z6TJar8Pr0ETiSADI7JC0hDGGXgyItfKpXWlI3c6JSVONKCdjl67se2sdENGo/MYBT0j/T6z6b5XeD1YlZdyKdk4c4taa4sS1OtXLrRkjGdEiIzpRey/PioZLV/mULaUytKIp5a0UuB5HWGUFRCpnRMuD8H0XQg1NeVobaFsF5Bnb2d+xF9E84bvFmjGdDvfuc7phhMJwPVIR//BzCFQgEiMnE+0O4sTZieAcJH6ZwUPEUfpNPZiiqzEQhfrRNpcJCJtLmQZKT38GA6GMjH4rniezkmW4FcrBM3uqM7hp4WeaTpfJUFedTH+8z6RI+9HEjkZPQw6gSQ6X1CGsJJj0+cwy29yQ0tNY7zttP4TnIFoUE+nB3rH3k97XJVp4N6XCtXpLpasTpyP7USWmp7mofiddagbLMxSqujdi0lVkqnnEm1aDzaxXmOGYSymONmS+uINewR3q6dBO3tB2v6PNKvoG/C9QqmEVeuXFlT2FZB9wY7nSh4oNhGNPXZScSi2TGDqOXxnKApoKXXYxRAFTRYQ9yzNJZHw61DtZrI500GtyLuAGmRDaHI70pPHnwsUFC/pIyOjrbbzXkgN5gWAnzCAD4OuYRzASA/BEUubxkAyofIpHHnMr2ObWgxtKlfRVkPi9WaLFYaUtO1XKXakKr6Na3+wqpaOy1/cvyQNFfZ5teLkNaFNZy22m6aa7SG6XilMvZOHzOPjPpYuLpayYYm8Me61oO3ZVDt2U0MmHAoEn5Tbt2+qWdMtRrq82fRRp5A1ew0OA+Vz9Lg6yBEHfCbtmxkMKjcI7MpoR77TWgerbKrp15bOWZwaSJ+vcFgaTl6RbW3pgtFlR3UhrQZFvCqFE4kt2A4V2hIgJJzDgGAE4q6sHYjHiuIcnCMPOI9H+3hLYN6gyf9gxvsrCsBMoDnRQ5lAsoLytX6qGO9yRq0EXkXzvpL03qffQgarC0KTxStoP0qMTzmGZAAJilsf6lal5m5RUk0tE8TSnpkVFty6+Ydqel45MeKUl6clXy2qBc9ncprf/LmgD2jrt2ODCwf016IyD8e7yuttiRdmJCqBvhYd3PkdzdsdCu/X3g9u+UdKOEC8QyUyLVrV+3NACuUCPXtCYYoOI92YhivzWz/3evs0FJhldR5o1BENjYgVZA9sIBGQFUGyAOhsnquUkwOYdwopm7sQvIyrBMHOffKDJxbPMAx8nHIgRgc45MWxcd3C0U+Jx1xEJn+ofZYa1oL+QAEs/gQ5PFB83o4GSFcsBsYIuxGTRYehC4C+vPD0ESW6V5GNjZIaeWrX9P/ZpdKslJuyUqpJpWa9oH+LWpYS9uYy+eksrIoeW0zfawDrfm0ni29aGn96R/4zPhDOHZVa029UBbHZWLquF5Ag4vKQcBgLZwpcKBw7733Xns3rg3i1XUb9ija99LUIQuldQU2x8BqGLuQrtT4bg2ogxODj+gApnyEO3FQZJQb50pMHsJNQdQnLT6Wh2PSuJVzEEd+8iCLOFy0HOR6ftqDZTNlDsvggoCPI9zLRy4+bfM6OiFpP3HQBB+ikNf+6LOw/7YDr2MzkdUpZE5Onf2ojB05qn3JUyQiF6/e0MJ1tqH1b5TLeqwXBL3IJvRigOPhZBVgsxBq0qT96pd0HdhI5eTIQ49KQ+uYat3rz/sdAyUcSmCDru6NN9+wwQeog13dTKk89MMgn/umfJY+IBtP5XsYCsnmh00ZNQvhIJAfkA8Z+K7kEIM1UFRpOXeiolg+pYteKCAL8B1JZJEW58QAxCHL46gHvr9s6nkhDta1HO46st7EYgPPR1kAeZRBHuAy2Xo3eRrm7YxumriP8wsc6ax8JUI3eHzUkRO/qdZoXq0ZT4cURoqS0TFc0rXcleu3dA0WPPal0xktlCmjlqbEq1eVVDp15ukTnV2qDxm1L9W61RtJyU8ekbpO7cmfCvt4t+F9tx34RRLQdw4/HijhAAOKNbl08ZIphVVAXaTsdStkzqZZwTmKxGYCvl3RNRzF8iklV06mjZSDMqKcpnx67IoLmYyg4aYE8HhAmJftiu0y8MkLQSEjaZCJLEC5kBMSWx01nnwux0nOuROO8ljL0EryQD7yE8859cX3Y2RQB+JJ57J5o9vbY1DZ3a5k9taApluTtkf4DINp4erKio5tTTLcz2zW5ObtO3Lu/AdapvalFpysQzbqxRMpVamWV6WmpKN9kIxXfXhSBdJVdU2YH5+SqlpO3vxOb6Fu+xUb/gKqx20UvwZ6TvdfVrKtlkrh+GuHJxh0FEVDdAqCb3KJVp9BtcTqbCqkCobz3ccALbNqfMnLPs+gmXHoH/lRSNJ6epOpgPyA8kx51EEKT49SAxScNH5OnBMBBzwe0iHH209au7BoG9kAUbuiadhA4d0/nqUMNjh4CyG4NxjUk/xVJbOT39tBuRw7mSE89fNwLkrWHs3nbbG6BNUJYOdqhelPwsPzNeBGN11vfc/4WEIjmFlM9YlKJpsyW1qRJZ0uSmvVno38+//kn8uckawlhUpJXn35O1rHgtQrLV3PlaWs6ZsNJRn9Ui5Jc3lewxblxsyMNI48Jq3sGMqnTi84VoGdB30WddsFMhifbvAyUr/xG79hn1hYL6FjvXhXFgMC9fzHP3pFvve9vzAlNEW0gWQ6o0ks2drGmRIhn3/qo5A4txb43Gvjas1miJMDS0N6PyYd5ygqxLAGqhzgBAqIEXQM6ciDQnteJxdleFqAPA/DJy3H7gd1ZS0SpCcfREM2azbKsim3xjEL8PUV54Sz8QOQgwPeLuT7bQcyWJWQr+FMGZHRCaZxwUHoIjA5bdwbC2+rPSrGqHGuDlpVa2UNacq1O9Pyr/74z+Tbr71rO5TFTEoeP1yU0cqCTE5NWMHVqk6/uUWg6bkfx/GqkrPUysrxx56SiYc/YroQXHr5r1sL7k9E2LI1+CABV142TAhHsQKyhdAwlCQKBt+mixqnR0YonvpwxWsrtxIhusZysgHSWXkq2+MgDhsm98gQxJGHtBAQeRxThls28rn1IR/nxENWHPDy3HkYsmuQWvOQj11E2k8496CwGpTDjilrN42wsvxxNCe05VUHvM5+4QCelpKHqaqUY4+4admLuu76f/78h/I//5+/L3/ysw9kOUnfNWVC9IIye0tOH5uS1JhOfdNab6yl9kNteVWWF2bk5vSMzNbScupjvyD5h56yNiLb++4gYaCEY4sdxbt565adWxz/IoppQEtCTQnigicxjFwaxqYAZGVQbFNBw7FwTgYnHgRwRfepoystYWxYsIZiCogjLSC/E9EHHtmcO/EA4Z6WY89PHgAZCCOeCw0gBqvDJo96lk8z2CfcyUdaYF9H1nMuLlxoiEMe8dSBcycezsunzVy08L0e9KwT2441rZ+3nf5ZXUgQAWHePo+39GFbGRtbB0payom0VFLsWLKzKDKibXjmoSl56vRJSY8URDkpmZERSalbbujUMpmThVZe8g+ckcc+8QuSGj9qn9pDPnB/p9Fu64DQizyP3zbhOsHgzc3OmpLQod2qYcPPoIaO6RUVcktn5OPeWWiB7OFYjcuFu4rIdgXHd8UHrtCkQQ5EA6aoKov8kJN4V1ryWvl67MrHMZbSy/M0OMrEJ4w4T8MFhzIhEmmwdFhsFJa2eR193UZZ1MHy6DlyuKD4w8+AeOBWV/+zi5FW0Mqhnj1Ds2/2Kk4neNCAu2u4NLcAtOyRRE1Gdfr8icdOyn/06Y/L1MSYyKEJvbiNSUvHraLkzE0dl+ThI3Lso5+SR5//K5KEbFr3tFrEgwwds94GzZWtGzyOP66FK6sle2QnuDGrU6EWVoMpUVCOpVXltGlSWD4KybrNSRZc5cmriqlXSzZL+OowQDFxgLSuqHw63BUVmTwE7Oeex8nDMT75OEaxIQnx+OSHyIR7nZDlMoBbP9JSX9I0tK58wJZiqbPSwtqRDZ9k4RqXy/KsJWVrHuNOQD7yOym9LEAdvEz6KWNP0Ny7uNCrdtHSP45tPNUxFoyYOQ1y2fdA3+tamQ/42GYWLhgjYLuUEFSj8XjIuKrtTCWycnYkLX/9cy/IY48+LBle0tWqpJaWpLFSkVZuTBpjD8rJZz8vh888I7U07bWe0DZ21mE4oC/Xc9vBduUNvPVcvRcXl3RwGbh7g2ej7lBlQHGYetnWvioWZPPKY1lQMs6ZEjoxPMwIqs6PUTxI4iTiGJ9zV0q/54YMU0iF58X39R5ArpMOuKJyThz1A54XmVhSjTJiUFcc+Th3kkbLBoRTL36EAyAbRz58X78ByorG6X/WpX5/06xetI9DEI+zPJHhMBCuFz6Li4Ay+WM6Tzt0kOyFUrqhmGrI8YLIFz/5jDx28qhM8vl5JSL33aaretFLjcjU6bPy5PMvSGb8sI31WnSeHywMlHAM1ML8vKyWeYEyIIWDQbVh1SDCTYk1zJRTj1FIUmA1OA4sXECIqMK6criyIwefcHzSIZNpI2Ecezx5SI88l+3y8InDUTZxyMJxTJgfA45dhsc7yagnZQDOSetySUN64qNlEg7JXT4ycF5/L0czmTzy029MK+k3CNIVtC9sow1AeIgfnAZ/AAmUZc5MGglUtg4V55lkSwo6Jfy5Bw/JJ558VKYOjUq13pKFckMW1S2PPCBnXviCTDzypFQyebVs99bDMQJseB+uGzx9tzyE3bhxQ2p818Lj1WunV8dg+trDnuoPFc0UUgcIJePY4WQjP3m46vs56QgDhKHQhLnCE8cxaSGgKzSOcHzyEQ6cMKR30rnC4/zY14VeB+ByCfM6e/mk8TiXyTEOuBzK5BjfHTI8HTKxVjCD3VDiDAT5cQcI9zgt0f5UoMl0uRbEf6SLiIFktktpj17pxUeP+ZDQmZMPyOHjU1LXqXH6xGk59sxn5Okvf0U+/eW/IdmJh+yLXLqYkyQ3vfcxvI+irl905run2QNBQu7cuWNK5dDizGcK6UC5GFd7nUbToqCmYNngyQqmRyiXK6oTgTT4DrvKa5xP/5xEHBMOOZ0kHANXdtI5KXBeHj7xPp2zuqpPesIpIwrCvAxPyzngmPbg+20M6uxtIZ3XAbkum3gceaIXCdJpgVYmFy3Acb9w0vq9QHYiu0F7xkiXSmgd4Z2uSctaRb0kSPbwUZHDD8i//NbLIg+dlfqxM9JM5HSdp+s5/eMz51m7Lxkjirb2MnDuNoLH2+B3ItGSa9ev6ICgnFyZUbxwdy9UWFdGVyrCUCaGlz2W1dWKEpG3r4N3v1whTUaYNkgfbMtjbVBqV14U2vOxLuOcdPjIITxKEBxAJspNOiewx3eSAbJ4fQDyOSaO/MjimLI4JgxQLs7zAy+LdN43Xr8o6b1czrmGkZ86cU45uCgId0dJVl/6TU9MBmEWo4ikJSqhU0f7xknoWom8PYKVaulMIFGQf/2TD+TfX5qWv/uP/pl8/43X7MkTk58mXtuj1pBdlnrYnu3C2oD8sM864XFR1y8GIaMX3DMXAwDD+MYbb9hxu9KRimPlOHUlQElQpGD7PVBCSOLKyjnH+Cgtx+QlPQrqJCDMFY5jFBOHMuNIDymtPgonFmlRbo7xkYkcP/b8wIlEHnxAHDIpi7oxbcVRL5cTLcPb4jJJQzxAJvHAp6yA9MQhg2PSRx1vXuN7XodvllgZeh703frDbRdE2qV5OsGLpMigHE0lFa3/P/mdfyrvX/hAL47BuAUjGmMzDIxwgSLVbUpJ33NuLow3pVDHgBLmA4giuoK6UpMPP6r8gHOUO2qxgA14KIu0HCMzqugc4wLFC/JxjEzk+TmyTEnDNK7ohLGjaG1S53HUBziJouWQjmOXhQzCvG3Uza0zDhmejzS0AQITx7k74r2OPLyNb88sWikRhOUTzkPEXo8oCFHqto8cFhaeao/pYp/xU3VRGXoo9aam0JlIJpMPCfmh0ncEPhb7BV0JRyPc+bnDB62zoZwvLi3KzPSMrcE0JEiLHD3zj/fYWZiX2wH2RElIApQI58rraxiAfJQNkBZl9Dpwzq+jco5DaVFm0uBcLukIJ42HAVduU06Nc2vIuZfjZXoYeT2O/JSJIx2OYwjq8j0e60UdnESA9BzTVuRSvtfJrTmgLJxmCJwCmV4/PbC+Dupg0XYvlEM2qCw2DG+DtGyOhK6dQD0NscOUpsHZqaax702m+Y5JVkZGxy2d/66cw+vazfULz0O7tisLdObdqpz14PKjcm18FAOzcGBpcdGmODbqITi0srRwFIeNkmBqGaxBuGpyD84JAVBGlJIwr7QrO2FYFcurcgBysVIoKmGuuB6PTxrC3Hc4oQHlUy5pKIPyPNzrgsWhHOKdvF5vwlw+eYnzsimHdHxwhzicp6ctxCMXUAbt8foTTzrkWX+o45ZAQJCgfpx3Q3BDPFCCrYJScLx1gDw+KNRo6ZoyywPjeuGoa19HBz3Gutj0SZP1B4qrDQ6FV7LoaMzMTtsAkCPQC7Veeswg2TtgYTnI9F1L/KiyocQOV3gUGKVzRSa9Kzv58N05ET0tZUYJgOtc0yGLPPiki04dnVikJw3xyAP4OFP4SDhpOaae1AdAGPKTlmPg+TknP/EeRx1sw0KoO3lYqwX19bq1b1prt7qvByaDKSQ+4UGwhnc4/ReEh+nMWQmMjdbFTtRn/PSITy8whEl78kenxFntD3XVVlXqfXzM1cvaDO06hWl7ydMPorK3g17keB+3P3W+HbAYh1QzMzOqnOvvTPnU0a7O6vPuGA/1Bj9mGEzzuLpTH1c+wlF4V3x84vCJwxJAIOJQcGQQz7nLQpm9jfiU7aTFkZ8wJwAOopDPieAfCCIdIA3EwiGTeuAji7qRj7TU0c/J7/Un3OuCc4uGXMLxGULuaZJPhzQkQwAjjabD6WEQG0lgcpn+aaS5Nbl7A1NF/hCMPHvDISyLumZzetFSVtpb7Tr+MTbHQHoJS8ZaYXp6OlCiINT+15EKvWDo8O1cHUqFIq7quoZ8AAV2BSSegYU4AJKwBiIPcU6YQOkC60Z+fPK5opOfMNI5Ub0epCOcdAA/ms7rgcUhjHyen3DiAWHI8vzEEUY+ygbk8Th80uNcHuloj5fBrqET1PJqPgfxGhj45sKICIIeD6Oi8ZovcOF5FCYukNde14VpkeePkFEnPr7EvVN+NYcLQL+wcoaIYcsH/Zax6ZSyNwQ7WHNzc23F9gF2yexQEkQFvUzycO5KhXUAlj8EJCOOMNJ6A/FRTkAc6ZysgHjCqQ9hnt8tkce7bLeOOFf6QKkC0lNH0rkjP3GAtL5Bwk8T+71B4Pk9PXmj9fFz0gTTyIDI+MDjrfPUJw/OAszfGORFkssDdh66brhXRgDPD9k8nAtLsRj8nDNPvWwVXlY3t1V0kxV1g0A3Wb3IH4iFYzAYgBm1cBxrsWHMh+FTIU0Y+AoUjN8B5xwXtSTIxXelJR5yABSbdMTh+znKzrHDld5l4JMGYiHf03BOOPGUA1k9nxMX51aMCwTH5EEuDhlu1TgnjjxeLvkoi3ycE0cY+XjbAWvMMWkcxJM/CnvDQAmAjG5gDDYah35AHcGaOmgQVGZKubi4uC55Y6xFz89Serp7DnJwZVNl4IOvrYbcvn3LBmANQiVlRPx7HigJ6zhX9uAxpUApAYRC6dIZ1kEapgvyao2HkYNpmisjxOQc+Vgu8gDyu2yUFVAmBIEM5HElhpjI8xvuKLzLdMsbXb+R1i8IyKAcL8/DOUYG8LpSN8LJ43I5vudUvnInk2WtV7U+dRk+XVuj1BrGPThP8yEQrM7jdcTMB4ThusqNoi2DFFwcdOzU2WaZjjPtGR0bNau+bj12EN4uB2MxCLjcqOtEtzDQmX4wFk4dQrkPx+fEuzWU6SPfX9RIG3z7CyuCwrFdjnJy7BaKLz2Rnk8SAG45kMbTuRXBtx/qUCV260c8cdQl6ggjzklBGPnwnQiEe7zXB7J6PgCBOPeLA3UApPUwAIHJg3zq7fEuC9+cXsC4aLAeAuwyUj55vB44h/cfbligTrZmWwMbbWsfbSuVVmVelxJ8IzTG5mgTzgevnwG8p8DsVJXsPTjAuUuxR4bU5ya3JrYwezpC/xg0HEqOYrnio3goI7cSIB0/GuHPAQLPQzrSc+5E4xjFdJnIcYUnzI/J6+XRBvKjQJxDPOQAdlDJ42VxTBxpgNeFcEjnzstzEnPua1TgFw3yQ8JKmbKDPnWSAfPDY8ARjv5zkMcd6a33w2jCzI+kjyK4tRCeOMhOXdp5NIA0eJqY3WbqSNv45PxKaSVItkuwNn+oEVuDy4q6XuD93AkfF8dgLJxOFZeWlvVqtxIOUaSSWhhTRrb/iWSnjdi2cqhjasMAeuUYSCOGpgu+ZRJsi7dvK4TK7WslFNoVH+Igk2MU3BsLmVBwysEB0kZJ4iQknGPSk484ZCKLY8onDfUkjHQum3hkcAyRQDScfJ4neoxMLlSkA5THMXFroOHmNF9nP9rjXcRpz3nYZqBf2wgPVST/2zEgmHSe1je7eHqI+i0sLEiDj7zG2BQDIRyg0z+kHIr2sOkB28golo6WpcUxhK6gwBWFOFNUVcogXKdrquDE+TSNaacrsSsXCkgYQGEJhxhusYjzeGREFRZwjnwnqDvCPd6/OUK5Xm/OIRiyKZf8xDnZsJT4nt7leZhfTKgHsgBhwOu2BtQ5rJvXn7LJw/cwTX5YxroI5ZI22EXm4qdlh/XYCFxkuXhyS2dZL7a86R9jcwyMcDdv3lTFCRVFB4yhNj9UGnbV2DBhoNwa+cde+UqXWwtXOOI5NmUgbeg4d8tBHlc2nCtzVPFdISGXk8DqpY4wzqkPx6wD3epw7nmBl0EcoAzKB1hDZHhajokjv5Oacjh32Z7W5dk9Ng0jje3kWnxQHs7L508DLE+0T3D2azyahhd5GYFgM2oDkE/ztzQZ36Cx8xRheqjXxWZC5ekx8UFtNJy1Gmkk2Dzhp5lrtYZOiYNXlNwNC9EyBlnWIGVF0Sl3IIRjHXDxgw/aVmQNtDD7XTb1GVzbDCAYp8rFPRyU05WXyqE8KL7tKOofwwsxkQOJ+DgQ6Uw51aHMpOcYOa7c1CdQxCDNPcUMiISFhDhOGHzSuRLjE4bvxHFrigw/dgJRN/KDqAx8tvyJoxzK9TyE4Ti2P/X1v6Ce4caJnth54FQeBXThEv0Eohsd1NPb2wtI1rlZglwvPwrO6QPqzwwnxuboSjgb/B4HCPDIz8LioioX05Jg0HQ02j5KhjWDYAwSV3N/aoKrMFdzrA9lEs8AoiQoML/31n4OU+P93hdp8J3kfowCAPKSB4V3pccxHSQvYUzzyAPpXOn99gDhpCeO8CjBXBaOc9LjQ3YvK6rkHCPH60064rwt5rQ8CIZPf9I/7XIQwn84zRf08T2C+l87PWusjjDyto97BunJF+S1toXhVq46+on28VhfFB6/HbiMqBsEhiW3FwzEwum4ysrysnW81t4CGCT7yI0poxJGQ4nn3ML03KYzHGkeVwYcHYASMv2sVisBKTWvxwFPGz32tRVpOEe5Aecc4whHNoBAEB0Q57uIrkRWhzC9X8n9NSCvD0RychJO2+wneBWkcQvpdcKRnjDivV44ygmO197QJq91WOhpQNjOwJK24zQgSIsLwtqIxnfBmrwh2uTS/7vl8osRdb57924YGmMjDIRwTD+WlpfWDCaHXKmxNOxqoSCueDj7MrGGcVUnPKq0DrbKLR6CBKNvg+vEcOVFUSkHy0EcMlxhCadsgIKQxi0MJCLe6qNhkAMCuiz/zqWTjTCfhgInJOmdTMjyG+XUgWkxcgl3UpEOuYR7/Wx2oGn0P7vAkNfl8dcJ+pQuQabD0oauG/qNs+cojanBeRTU19tAmzotXIzu2JBwPgjrDZIrBB3PbQFLZsQIwl3pcEyVTI7m4QY4P/vLopuPpWp2Q9QaoEheLtMr1onIY3AhgJPHyQDxvEzCnExOBPKRHt+VGedyaAP5PQ11IQxHOqaffk55yMCnDHcuA9/L4NzT+jnyPS1hwB4ADvN5PHEmJ+zPII92Vnjxse5GZnBqx+42AumRZ08FqY/j25LkSrT0f97mbup5K3DEc3Ekj0F9yqCvCKOvfQ3XThPCytmiGwSGJbcbNirLzwdi4VAINjJUYhgSFABQGI6jSgjhOHfrRLxv8RMOrHJhejZWUFgPB6QjzGUz6B7uiuBPn7gjPeU5STnG93UdZXkdsHSQDIvp8pyMpEeGKzZkg7ie3+vo5foUEhBHW/GjYYB0aL1/p8Th8YT5QwM6fBamgWYRPU0vgDwgUkTPYL1NWfV6o23t6ZN406Q3bItwdDxKgLIyxeAVHXvKhDUbg6k6YNYJZVDHwLDbSARKjXNlRLGR5eHkscHV1OQhjHLchxC+/iIfjukbPgSgLOJdHgTBB6Qz5VYQxjFkwseRb3R01OrkpABOVMLwcdYmzeNluixAGO0gHMc5QD71tH5RII942guZuCDRcuJxpIWIemD1NZlGvKDtnsbSKVwu6T08Gg/acoOT4Fz/KNflEm4uzBvIDdICLjxcaGkXfnQ8dhvU0eu5E+i1rIFYOIhWrYQf4rGBskPt+cCzyugxCoWSsr2P74qKwjFIhOHjCCMfIlACntVDkX0wOXYy4HPOFdcJRpjLwGHtCIc0KIaTwNdjpEW2T2txTiryEef5qTd5gVs6T+/tId7D/NzTkx9ZxIH2YNFelRW0W2UiI5RDB9raTs/ZbLLfbdBzl+GIDnvY/Wvg/RdFO09HFOFReQYNYDy8X72vIRzvQ3Lcbk+MD2EwhNNBr1S5uqEQgeIGCHzC+PQCCsVgRDcFcCipKy7WEYXE96mSWU3WG4ogTXBMHo4pnwH3aR3kIwzHOYBIDicrJCAN524NqYvXiTzEAycdVs+PPS2OunAebQvHlEN6LgaA+hIHKJ9zJ71GBD7t4xg/TE+MK7PdMtA/fLvARRA961R767eO9N2xfhpkMBbUhb7xPqDNV69eDcrYZeyFOqyHnglnHb1OQ9hNtNEN4227X48ZCAaGOG4R+NWQKRNK7jIDBznIo0Sqo+g6kKEc8nrJyPCdP4iJsiKTMOI8Dcrg6wvq4cQhj58jm3o4cZHj8Q5vA75bJtKTn3OOvV3IoEzCXbaX5eVw7mHkc9IzFDy1wSswwesvQfnaMxZPX7QfIND8hg5euNVzQMhO3Fu/aRmca3K+VWJ+EGHHOnEN4gmLwOtP+6gX7eZiQjvefvttC8ftJLzM3Sgb9FPmgCycXtm1861Y/S8YaKZggQKwvYwFMeunA4RSMv935XZSkB8ltPyco8gah2zUiDjyMNDkYbDdMhHOOeHAFZwrMGHEE0Ze37QA5OeYeODE8WPyck79qHdAjkDxkA+I5wLg5CeOOpGW8t1RPuGkd9mk5djLjcYFhLL/rC+CowCko8PMD8ENb0AI0/eegAyV3S+83viAvmBK6f1zv8PHKtr/vWDNC6h0nndgrwjy0+E6ZdODWl2v+OG00B1b3rYBoQrBA8i8yoNC+ZURBJstgbPBDOvBc5b+0SF7AiNUWM/niorv5CMtCo5POrdChJHWZaAcvlnDuRODPMThPK3Hkx5ice51AL7B4uVx7PB05Ece9STM2qTpKMflA8K97sEG1D2rwkj5ebQMA/G0Pzz2PMHpPcUgHHhIW7anIZ5/6lscf9F4Be1gGo9P/WnT7du3LSxaL5eBGwS8HlE3LETr7vXfbpntnkEInYfrF1gr21pnsKmc/jHwkAjlM+VCsTSsXCnb9A8wUL62gkxaiXbjqAcDZzdf9Zxj1oEejwNeX946htyEIxcfEgCTo+ekxcpELRXtJs7r4f0AXIbLxBFHWsjBuZMpWjbyOSeOc1dAwknDOfndAdK5BfY6caGyV2E03usEbDdT43sBssgf/L8+kGcyN5HbTqfwJ2q8jYwr48C5g3rjqMd+g9d9kG3ouET2i2AoF5cWVHH8Plhgbbxu9tPBfE4t3ARhO9unYiglaWmMb6R4wzjW4dVwnTqq0hHuA+kK2SazHvszkIShxH7sCgxxSEsc6Z0QHEOgqLID8pOG9FY/PSeetCgW5x6GDPJ5/YC3w8tAFmEcuyPM28InAznOZOgT2sZnFoJ6mNXSNPbEDdB0/heYs2Ak7Dg8Jz0gnL4PEnTiXqDX6Z6IUJCCUA/nyGcf1M3L4Zi+4kNSHhaF9+tBxzYIZ0Npf9PTd1TZ2BBgQFSkLfzDY1IxXVQH8YKBCRQbJWdwUEoyB0+pBxaGcGSwwcIPfbCZkEkHn8BzkAYlx/lUBueKjByAfNJEyeOE8HTEY4G4artc4lx5vFxkEY4M9yEzRHQ5fkEhjvTEBe0JlM7aq3DZRmw+H2HfiKE+bMgoUfUMeZ7X1lr4Gh5MweljjSOXxVl2AtuHkMP+IuW3oaceZvIj8UHNAnBMfquvpsHnouBt9/Zw7p9K7JS3FQxCRr9o9/WAyu2UtT0LF3b8m2++YVdfBLcHJVRInCs6bwVz+4CrOIPEABFOfPCYkU67lISm1PpHPA4ZnpY4z4sLqhFYC+QEynBvCun5WGNAcOBy8F2hAWmRQTonrROP9CBqNUlDWi/X0xCPLHzSk9anodH6cY4Mq6ee03aIxzmOfA7vTzu2/+/FOYg3Z32pYxCGDwMQ3i8y+LSV6eS1a9fa/bAevJ69ot2uPvLsVXQl3EaNazfejlGUpLz9zjsWhxIRh0IBfNZmWI68Wg7iRoojNjiucK6ogcQgD2E8tAwYUM49HQrKMYPMuctygpAfua7MntflYsHIA1h3ejrgN84J6ySPg7YAZJHGyeHlA6a3hHmZyCOONNZWPXbndbX1HemdThrnaZGhBxbOsTn981stRFuaDpCXeHwQTeNhwMtw52HuovAwUtE+7zPy0VeXLl36UB5Hpzw/x0XLdzdodCuj09GWYWLrFo5O0r+qrjV4+dRuxoaVpuOZ4phCKnE4t91GVTiOUTyUDDBoNgiMA/lDJSKvKxxpkUtajiGbH6OoyEMuaXwHkHDSOJkIA04y0puSh3X2dRnAj1okZFIPt3zkpY7WrvAYSxZ1yCAP8V42YaTFEUe4b+xQRlWdt5PpNXlVHYP+URDn4Jg0Vo5NL5Vc66QDLmNQ8O+neNu8Ty9fvixLS8HHpPqB90vUDRrdyuh0w8bWCadko8Nnp2fssS4qy7kPrCsXp5lMcPVmw4SpCGs4lN0VFqVI8TSK+nzDhEGMDibg3Kdn5PWycJTFgFMepCCMY/KTB/k40hCGo1zI4wrvJCYfPiDe5ZCfc5fldYu2w8ExZVEP4HWiLlFZlEO5xDm5HcRZWrMlCo3zehk02OXj2zE+URE5HBMWpAyh0ZaGZO3jwLnMdrlgTWbL0rau1Im2AOrL+fvvv2/newnert3Gtiwcr3Sce/ddyWEptD22cCdKHR3vDoKx2xgMVfDoFVd0V2Z8/30BHArr4aCtUApXXly0DFdkH3SOme4A0qLsgHAnDuVg8SiHc5yXyTFkAG4tAXk4dh+Q1sulLEhMGHUlHWFOQM45Ji11oi6Ek97rRT67HaDhXoY9HK55/XlUy6N/Xt8oiOsGwi3Oo9VHBmUG58QF00WCgtHqhsC60g7qAuhrr9e7qhPd6rUbaLd5j2DrhFPQkBs3bthx0ME6eKogWCqutfbN+VCRiCe9D64rpSsiCgtIh8JFQToUD+dxhPmg4vu9PScyg0960jlxOCeeHU3KxSEPR/nUgzRuFT2O+uOiSkV68kNY8hBOuZ6fY3zyu1x80hFGHGHIwOd+o8tFPax9qtT0IyRj2kiYO/q6EyZHfeRsBOLNheeGMCwKSI+z4j6EexcZ+hfHVJJ2s3ESozs2JFx7YDoGwkH4zVu3bEppj20Rph1uCsOA6GDklVikQ2FdWaPOFchJ6tNFV1DycQycSMCUS/M4GTh30hDOMXCFJi9KwbGn9zyBAgftcbJ42fhRMpGWMEA85CHcQTxt8HJJS17SAm+Dk9rLR6TLt340WRBZy9UwPbH8HHvbkG15OeZPz905KM+EK6LhAdaeW9laJsGkJW/gIrL1j6r4Oe2kLYALEm/J87kFH+vdgtdvN+Bldyt/6xZOOx0FuX79ensBbX/qB6oRWDHKdCULFCsYSCwNihMdGLuialj7Bq+CtJRDOuDKjSzyM+Dkh0xuNTwtgBAAhSc9PnkJR7bVN6yXp0MGzkmBIxwiAeSTlzCcExn4mo5wJxOONKDdVk3veQEXJ8rD8aVpg6YlnA5lU8rzdoL+pu/6Rjg2uL4R9pvXnzbTJsace3HDfiHV671en+xV9D1K0QbyDcM7ejUjJPjBB7VUWDodCEBS0vsOIMcMjD2Vokn4QJCm0HAlpHaeKxwbJ3Qmaf1qjnIiw5XblYSyvPO9XHxXAAdyPB2ygG+YeBwgH2XgezqmoJz7lNLLJx31dWIB0nARcEtN2+wXYjWaHzzBDz7UGrQ/uIG8tg3+wi2JvL/9ETcHR0zfgaXRAOpFfq+LARn4oRyrE76dKT6UXuP8FJ84Ow9yeZRfXL3vmFoDH6dXXnnF5Hr9hwlrU4fbDWxWNnFbuCwGUNF6JS7L7Tu3dUCUTIjSDk6hQEo6imUqQqejgPjRq3/LlVB9tXkWz2gyoF5lrBBK7Y3gnAF2xUIWcfgoPsdu0QgzmQqvA+VTNsek5RhlcRLhAL6XSRxlksfLI4+TDEcYPnWgfHzS4ixfk/WiEhO5+seOrG06NNQi01d6TMNNWUMFJq3LZv3mmyj2VkZYN5tq4kfS6kHQDqL02FKE6UEgTy2DumBt2N1KWAjyAwH8F8B+zYj2BjMJLkbkp+44xgv85Cc/afcnoH6DBPIGLXOYaI+Z/d8DbKCiA6OHfKkpUHSsQxDnDzDz1AQdjpKjhNxwJr8rJFdsVxKeQOHYbhvoOcpGXtK6Mrmyc46PwjPArtSEkQ4Lg8JyTDiOY2Q5CTh3mU4m8qMsnLt18rykYwrshA2mygHRiac8a1OYlnSA8OARLf3Telu9NJy0WDH7toumJ5wHs5HNMUAOoBzvA5wTMQrObVMFK6jw+3HrwWVBWOrl+daDW2GcgzGnr+hX7z/vM+r+zjvv2O/GxYhC5P8His5eHpjew9UAAAAASUVORK5CYII=;strokeWidth=2;" parent="1" vertex="1">
                    <mxGeometry x="977.4699999999999" y="10" width="181.46" height="250" as="geometry"/>
                </mxCell>
                <mxCell id="49" value="&lt;font style=&quot;font-size: 38px;&quot;&gt;&lt;i style=&quot;border-color: rgb(0, 0, 0); color: rgb(0, 0, 0); font-family: Helvetica; font-variant-ligatures: normal; font-variant-caps: normal; font-weight: 400; letter-spacing: normal; orphans: 2; text-indent: 0px; text-transform: none; widows: 2; word-spacing: 0px; -webkit-text-stroke-width: 0px; text-decoration-thickness: initial; text-decoration-style: initial; text-decoration-color: initial; text-align: center;&quot;&gt;Î&lt;sub style=&quot;border-color: rgb(0, 0, 0);&quot;&gt;&lt;span style=&quot;border-color: rgb(0, 0, 0); font-size: 38px;&quot;&gt;&amp;nbsp;&lt;/span&gt;&lt;/sub&gt;:&lt;/i&gt;&lt;span style=&quot;border-color: rgb(0, 0, 0); color: rgb(0, 0, 0); font-family: Helvetica; font-style: normal; font-variant-ligatures: normal; font-variant-caps: normal; font-weight: 400; letter-spacing: normal; orphans: 2; text-indent: 0px; text-transform: none; widows: 2; word-spacing: 0px; -webkit-text-stroke-width: 0px; text-decoration-thickness: initial; text-decoration-style: initial; text-decoration-color: initial; text-align: center;&quot;&gt;&amp;nbsp;final&lt;/span&gt;&lt;span style=&quot;border-color: rgb(0, 0, 0); color: rgb(0, 0, 0); font-family: Helvetica; font-style: normal; font-variant-ligatures: normal; font-variant-caps: normal; font-weight: 400; letter-spacing: normal; orphans: 2; text-indent: 0px; text-transform: none; widows: 2; word-spacing: 0px; -webkit-text-stroke-width: 0px; text-decoration-thickness: initial; text-decoration-style: initial; text-decoration-color: initial; text-align: center;&quot;&gt;&amp;nbsp;image&lt;/span&gt;&lt;/font&gt;" style="text;whiteSpace=wrap;html=1;fontSize=34;" vertex="1" parent="1">
                    <mxGeometry x="3063.17" y="-260" width="210" height="70" as="geometry"/>
                </mxCell>
                <mxCell id="50" value="&lt;font style=&quot;font-size: 38px;&quot;&gt;&lt;font style=&quot;border-color: rgb(0, 0, 0); color: rgb(5, 5, 5); font-family: Helvetica; font-style: normal; font-variant-ligatures: normal; font-variant-caps: normal; font-weight: 400; letter-spacing: normal; orphans: 2; text-indent: 0px; text-transform: none; widows: 2; word-spacing: 0px; -webkit-text-stroke-width: 0px; text-decoration-thickness: initial; text-decoration-style: initial; text-decoration-color: initial; font-size: 38px;&quot;&gt;&lt;i style=&quot;border-color: rgb(0, 0, 0);&quot;&gt;I&lt;sub style=&quot;border-color: rgb(0, 0, 0);&quot;&gt;a&lt;/sub&gt;:&amp;nbsp;&lt;/i&gt;&lt;/font&gt;&lt;span style=&quot;border-color: rgb(0, 0, 0); color: rgb(5, 5, 5); font-family: Helvetica; font-variant-ligatures: normal; font-variant-caps: normal; font-weight: 400; letter-spacing: normal; orphans: 2; text-indent: 0px; text-transform: none; widows: 2; word-spacing: 0px; -webkit-text-stroke-width: 0px; text-decoration-thickness: initial; text-decoration-style: initial; text-decoration-color: initial;&quot;&gt;&lt;i style=&quot;font-style: normal; border-color: rgb(0, 0, 0);&quot;&gt;&lt;span style=&quot;border-color: rgb(0, 0, 0); font-style: normal;&quot;&gt;clothing-agnostic&lt;/span&gt;&amp;nbsp;&lt;/i&gt;&lt;span style=&quot;border-color: rgb(0, 0, 0);&quot;&gt;image&lt;/span&gt;&lt;/span&gt;&lt;/font&gt;" style="text;whiteSpace=wrap;html=1;fontSize=34;align=center;" vertex="1" parent="1">
                    <mxGeometry x="1207.47" y="100" width="160" height="70" as="geometry"/>
                </mxCell>
                <mxCell id="51" value="" style="endArrow=none;dashed=1;html=1;fontSize=34;dashPattern=1 4;strokeWidth=2;" edge="1" parent="1">
                    <mxGeometry width="50" height="50" relative="1" as="geometry">
                        <mxPoint x="1240" y="-600" as="sourcePoint"/>
                        <mxPoint x="1240" y="-800" as="targetPoint"/>
                    </mxGeometry>
                </mxCell>
                <mxCell id="52" value="" style="endArrow=none;dashed=1;html=1;dashPattern=1 4;strokeWidth=2;fontSize=34;" edge="1" parent="1">
                    <mxGeometry width="50" height="50" relative="1" as="geometry">
                        <mxPoint x="1240" y="-600" as="sourcePoint"/>
                        <mxPoint x="1150" y="-600" as="targetPoint"/>
                    </mxGeometry>
                </mxCell>
                <mxCell id="53" value="&lt;font style=&quot;font-size: 38px;&quot; color=&quot;#0f0f0f&quot;&gt;&lt;i style=&quot;border-color: rgb(0, 0, 0); font-family: Helvetica; font-variant-ligatures: normal; font-variant-caps: normal; font-weight: 400; letter-spacing: normal; orphans: 2; text-indent: 0px; text-transform: none; widows: 2; word-spacing: 0px; -webkit-text-stroke-width: 0px; text-decoration-thickness: initial; text-decoration-style: initial; text-decoration-color: initial;&quot;&gt;&lt;font style=&quot;border-color: rgb(0, 0, 0); font-size: 38px;&quot;&gt;Ŝ:&amp;nbsp;&lt;/font&gt;&lt;/i&gt;&lt;span style=&quot;border-color: rgb(0, 0, 0); font-family: Helvetica; font-style: normal; font-variant-ligatures: normal; font-variant-caps: normal; font-weight: 400; letter-spacing: normal; orphans: 2; text-indent: 0px; text-transform: none; widows: 2; word-spacing: 0px; -webkit-text-stroke-width: 0px; text-decoration-thickness: initial; text-decoration-style: initial; text-decoration-color: initial;&quot;&gt;generated segmentation map&lt;/span&gt;&lt;/font&gt;" style="text;whiteSpace=wrap;html=1;fontSize=34;align=center;" vertex="1" parent="1">
                    <mxGeometry x="887.49" y="-840" width="350" height="60" as="geometry"/>
                </mxCell>
                <mxCell id="54" value="&lt;font style=&quot;font-size: 38px;&quot; color=&quot;#000000&quot;&gt;&lt;i style=&quot;border-color: rgb(0, 0, 0); font-family: Helvetica; font-variant-ligatures: normal; font-variant-caps: normal; font-weight: 400; letter-spacing: normal; orphans: 2; text-indent: 0px; text-transform: none; widows: 2; word-spacing: 0px; -webkit-text-stroke-width: 0px; text-decoration-thickness: initial; text-decoration-style: initial; text-decoration-color: initial;&quot;&gt;Î&lt;sub style=&quot;border-color: rgb(0, 0, 0);&quot;&gt;c&lt;span style=&quot;font-size: 38px;&quot;&gt;&amp;nbsp;&lt;/span&gt;&lt;/sub&gt;:&lt;/i&gt;&lt;span style=&quot;border-color: rgb(0, 0, 0); font-family: Helvetica; font-style: normal; font-variant-ligatures: normal; font-variant-caps: normal; font-weight: 400; letter-spacing: normal; orphans: 2; text-indent: 0px; text-transform: none; widows: 2; word-spacing: 0px; -webkit-text-stroke-width: 0px; text-decoration-thickness: initial; text-decoration-style: initial; text-decoration-color: initial;&quot;&gt;&amp;nbsp;&lt;/span&gt;&lt;span style=&quot;border-color: rgb(0, 0, 0); font-family: Helvetica; font-style: normal; font-variant-ligatures: normal; font-variant-caps: normal; font-weight: 400; letter-spacing: normal; orphans: 2; text-indent: 0px; text-transform: none; widows: 2; word-spacing: 0px; -webkit-text-stroke-width: 0px; text-decoration-thickness: initial; text-decoration-style: initial; text-decoration-color: initial;&quot;&gt;warped clothing image&lt;/span&gt;&lt;/font&gt;" style="text;whiteSpace=wrap;html=1;fontSize=34;align=center;" vertex="1" parent="1">
                    <mxGeometry x="710" y="-310" width="250" height="70" as="geometry"/>
                </mxCell>
                <mxCell id="55" value="&lt;font style=&quot;font-size: 38px;&quot; color=&quot;#000000&quot;&gt;&lt;i style=&quot;&quot;&gt;&lt;font style=&quot;font-size: 38px;&quot;&gt;P:&amp;nbsp;&lt;/font&gt;&lt;/i&gt;dense pose&lt;/font&gt;" style="text;html=1;strokeColor=none;fillColor=none;align=center;verticalAlign=middle;whiteSpace=wrap;rounded=0;fontSize=30;strokeWidth=2;" vertex="1" parent="1">
                    <mxGeometry x="1030" y="-70" width="264.93" height="30" as="geometry"/>
                </mxCell>
            </root>
        </mxGraphModel>
    </diagram>
</mxfile>